<svg width="24" height="24" viewBox="0 0 24 24" fill="none" xmlns="http://www.w3.org/2000/svg">
<mask id="mask0_503_7275" style="mask-type:alpha" maskUnits="userSpaceOnUse" x="0" y="0" width="24" height="24">
<rect width="24" height="24" fill="#D9D9D9"/>
</mask>
<g mask="url(#mask0_503_7275)">
<path d="M10.0481 21.7693C8.73523 21.7693 7.61214 21.3026 6.67881 20.3693C5.74548 19.4359 5.27881 18.3128 5.27881 17C5.27881 16.073 5.51539 15.2416 5.98856 14.5058C6.46156 13.7699 7.08531 13.2154 7.85981 12.8423C8.03548 12.7269 8.22131 12.6958 8.41731 12.749C8.61348 12.8022 8.76931 12.9166 8.88481 13.0923C9.00014 13.2679 9.03373 13.4538 8.98556 13.65C8.93756 13.8462 8.82573 14.0019 8.65006 14.1173C8.10006 14.3686 7.65073 14.7484 7.30206 15.2568C6.95323 15.7651 6.77881 16.3462 6.77881 17C6.77881 17.9103 7.09614 18.6828 7.73081 19.3173C8.36548 19.9519 9.13789 20.2693 10.0481 20.2693C10.7019 20.2693 11.2831 20.0949 11.7916 19.7463C12.2999 19.3974 12.6796 18.948 12.9308 18.398C13.0463 18.2223 13.2021 18.1105 13.3981 18.0625C13.5942 18.0143 13.7801 18.048 13.9558 18.1635C14.1315 18.2788 14.2459 18.433 14.2991 18.626C14.3522 18.8188 14.3211 19.0063 14.2058 19.1885C13.8391 19.9563 13.2846 20.5784 12.5423 21.0548C11.8 21.5311 10.9686 21.7693 10.0481 21.7693ZM17.9136 21.7693C17.7007 21.7693 17.5225 21.6974 17.3788 21.5538C17.2353 21.4103 17.1636 21.2321 17.1636 21.0193V17C17.1636 16.923 17.1411 16.8621 17.0963 16.8173C17.0513 16.7724 16.9904 16.75 16.9136 16.75H12.0673C11.5815 16.75 11.1651 16.5766 10.8183 16.2298C10.4715 15.8829 10.2981 15.4666 10.2981 14.9808V9.00001C10.2981 8.51418 10.4683 8.10101 10.8088 7.76051C11.1491 7.42018 11.5622 7.25001 12.0481 7.25001C12.3647 7.25001 12.6545 7.32626 12.9173 7.47876C13.1801 7.63143 13.4751 7.89618 13.8021 8.27301C14.5969 9.21151 15.3016 9.88751 15.9163 10.301C16.5311 10.7145 17.2078 10.9943 17.9463 11.1405C18.159 11.184 18.3413 11.2818 18.4933 11.4338C18.6453 11.5856 18.7213 11.7679 18.7213 11.9808C18.7213 12.1936 18.6411 12.3676 18.4808 12.5028C18.3205 12.6381 18.1391 12.6839 17.9366 12.6403C17.1391 12.4943 16.3961 12.2353 15.7078 11.8635C15.0193 11.4917 14.3571 11.0025 13.7213 10.396V14.827H16.8943C17.3801 14.827 17.7965 15.0004 18.1433 15.3473C18.4901 15.6939 18.6636 16.1103 18.6636 16.5963V21.0193C18.6636 21.2321 18.5917 21.4103 18.4481 21.5538C18.3046 21.6974 18.1264 21.7693 17.9136 21.7693ZM12.0481 6.13476C11.5431 6.13476 11.1091 5.95334 10.7463 5.59051C10.3835 5.22768 10.2021 4.79368 10.2021 4.28851C10.2021 3.78334 10.3835 3.34934 10.7463 2.98651C11.1091 2.62368 11.5431 2.44226 12.0481 2.44226C12.5532 2.44226 12.9872 2.62368 13.3501 2.98651C13.7129 3.34934 13.8943 3.78334 13.8943 4.28851C13.8943 4.79368 13.7129 5.22768 13.3501 5.59051C12.9872 5.95334 12.5532 6.13476 12.0481 6.13476Z" fill="#292A2E"/>
</g>
</svg>
