<svg width="24" height="24" viewBox="0 0 24 24" fill="none" xmlns="http://www.w3.org/2000/svg">
<mask id="mask0_864_960" style="mask-type:alpha" maskUnits="userSpaceOnUse" x="0" y="0" width="24" height="24">
<rect width="24" height="24" fill="#D9D9D9"/>
</mask>
<g mask="url(#mask0_864_960)">
<path d="M10.5017 22.25C9.18775 22.25 7.95267 22.0007 6.7965 21.502C5.64033 21.0033 4.63467 20.3266 3.7795 19.4718C2.92433 18.6169 2.24725 17.6117 1.74825 16.456C1.24942 15.3003 1 14.0656 1 12.7517C1 11.4377 1.24942 10.2027 1.74825 9.0465C2.24692 7.89033 2.92375 6.88467 3.77875 6.0295C4.63375 5.17433 5.63917 4.49725 6.795 3.99825C7.95083 3.49942 9.18583 3.25 10.5 3.25C11.0692 3.25 11.6268 3.2965 12.173 3.3895C12.7192 3.4825 13.2455 3.62508 13.752 3.81725C14.0383 3.91908 14.2189 4.06858 14.2937 4.26575C14.3684 4.46292 14.3737 4.6545 14.3095 4.8405C14.2455 5.02633 14.1298 5.17083 13.9625 5.274C13.7952 5.37717 13.6083 5.3865 13.402 5.302C12.9493 5.11983 12.4836 4.98233 12.0048 4.8895C11.5258 4.7965 11.0242 4.75 10.5 4.75C8.28333 4.75 6.39583 5.52917 4.8375 7.0875C3.27917 8.64583 2.5 10.5333 2.5 12.75C2.5 14.9667 3.27917 16.8542 4.8375 18.4125C6.39583 19.9708 8.28333 20.75 10.5 20.75C12.7167 20.75 14.6042 19.9708 16.1625 18.4125C17.7208 16.8542 18.5 14.9667 18.5 12.75C18.5 12.418 18.4802 12.0878 18.4405 11.7595C18.4007 11.4312 18.341 11.112 18.2615 10.802C18.1975 10.5687 18.228 10.3776 18.353 10.2288C18.4778 10.0801 18.6332 9.984 18.8193 9.9405C19.0051 9.89683 19.1902 9.92217 19.3745 10.0165C19.5587 10.1107 19.6825 10.2898 19.746 10.5538C19.8358 10.9064 19.9006 11.2651 19.9403 11.6298C19.9801 11.9944 20 12.3678 20 12.75C20 14.0642 19.7507 15.2992 19.252 16.455C18.7533 17.6108 18.0766 18.6163 17.2218 19.4713C16.3669 20.3263 15.3617 21.0031 14.206 21.5018C13.0503 22.0006 11.8156 22.25 10.5017 22.25ZM18.75 5.5H17.5C17.2875 5.5 17.1094 5.42808 16.9658 5.28425C16.8219 5.14042 16.75 4.96225 16.75 4.74975C16.75 4.53708 16.8219 4.359 16.9658 4.2155C17.1094 4.07183 17.2875 4 17.5 4H18.75V2.75C18.75 2.5375 18.8219 2.35942 18.9657 2.21575C19.1096 2.07192 19.2878 2 19.5002 2C19.7129 2 19.891 2.07192 20.0345 2.21575C20.1782 2.35942 20.25 2.5375 20.25 2.75V4H21.5C21.7125 4 21.8906 4.07192 22.0343 4.21575C22.1781 4.35958 22.25 4.53775 22.25 4.75025C22.25 4.96292 22.1781 5.141 22.0343 5.2845C21.8906 5.42817 21.7125 5.5 21.5 5.5H20.25V6.75C20.25 6.9625 20.1781 7.14058 20.0343 7.28425C19.8904 7.42808 19.7122 7.5 19.4998 7.5C19.2871 7.5 19.109 7.42808 18.9655 7.28425C18.8218 7.14058 18.75 6.9625 18.75 6.75V5.5ZM13.906 11.5577C14.27 11.5577 14.5786 11.4303 14.8318 11.1755C15.0849 10.9208 15.2115 10.6116 15.2115 10.2477C15.2115 9.88392 15.0842 9.57542 14.8295 9.32225C14.5748 9.06892 14.2655 8.94225 13.9015 8.94225C13.5377 8.94225 13.2292 9.06967 12.976 9.3245C12.7228 9.57917 12.5962 9.88842 12.5962 10.2523C12.5962 10.6161 12.7236 10.9246 12.9783 11.1777C13.2329 11.4311 13.5422 11.5577 13.906 11.5577ZM7.0985 11.5577C7.46233 11.5577 7.77083 11.4303 8.024 11.1755C8.27717 10.9208 8.40375 10.6116 8.40375 10.2477C8.40375 9.88392 8.27642 9.57542 8.02175 9.32225C7.76708 9.06892 7.45783 8.94225 7.094 8.94225C6.73 8.94225 6.42142 9.06967 6.16825 9.3245C5.91508 9.57917 5.7885 9.88842 5.7885 10.2523C5.7885 10.6161 5.91583 10.9246 6.1705 11.1777C6.42517 11.4311 6.7345 11.5577 7.0985 11.5577ZM10.5 17.9423C11.3975 17.9423 12.2254 17.7298 12.9837 17.3048C13.7421 16.8798 14.3578 16.3032 14.831 15.575C14.9257 15.393 14.9227 15.21 14.822 15.026C14.7215 14.842 14.5642 14.75 14.35 14.75H6.65C6.43583 14.75 6.2785 14.842 6.178 15.026C6.07733 15.21 6.07433 15.393 6.169 15.575C6.64217 16.3032 7.26183 16.8798 8.028 17.3048C8.794 17.7298 9.618 17.9423 10.5 17.9423Z" fill="#292A2E"/>
</g>
</svg>
