<svg width="24" height="24" viewBox="0 0 24 24" fill="none" xmlns="http://www.w3.org/2000/svg">
<mask id="mask0_503_7261" style="mask-type:alpha" maskUnits="userSpaceOnUse" x="0" y="0" width="24" height="24">
<rect width="24" height="24" fill="#D9D9D9"/>
</mask>
<g mask="url(#mask0_503_7261)">
<path d="M11.2502 13.75V16C11.2502 16.2125 11.3222 16.3906 11.466 16.5342C11.6098 16.6781 11.788 16.75 12.0005 16.75C12.2132 16.75 12.3912 16.6781 12.5347 16.5342C12.6784 16.3906 12.7502 16.2125 12.7502 16V13.75H15.0002C15.2127 13.75 15.3908 13.6781 15.5345 13.5342C15.6783 13.3904 15.7502 13.2122 15.7502 12.9997C15.7502 12.7871 15.6783 12.609 15.5345 12.4655C15.3908 12.3218 15.2127 12.25 15.0002 12.25H12.7502V10C12.7502 9.7875 12.6783 9.60942 12.5345 9.46575C12.3907 9.32192 12.2125 9.25 12 9.25C11.7873 9.25 11.6092 9.32192 11.4657 9.46575C11.3221 9.60942 11.2502 9.7875 11.2502 10V12.25H9.00024C8.78774 12.25 8.60966 12.3219 8.46599 12.4657C8.32216 12.6096 8.25024 12.7877 8.25024 13.0002C8.25024 13.2129 8.32216 13.391 8.46599 13.5345C8.60966 13.6782 8.78774 13.75 9.00024 13.75H11.2502ZM12.0007 21.5C10.8209 21.5 9.71566 21.2769 8.68499 20.8307C7.65416 20.3846 6.75541 19.7782 5.98874 19.0115C5.22208 18.2448 4.61566 17.3463 4.16949 16.316C3.72333 15.2855 3.50024 14.1803 3.50024 13.0005C3.50024 11.8207 3.72333 10.7154 4.16949 9.68475C4.61566 8.65392 5.22208 7.75516 5.98874 6.9885C6.75541 6.22183 7.65391 5.61542 8.68424 5.16925C9.71474 4.72308 10.8199 4.5 11.9997 4.5C13.1796 4.5 14.2848 4.72308 15.3155 5.16925C16.3463 5.61542 17.2451 6.22183 18.0117 6.9885C18.7784 7.75516 19.3848 8.65366 19.831 9.684C20.2772 10.7145 20.5002 11.8197 20.5002 12.9995C20.5002 14.1793 20.2772 15.2846 19.831 16.3152C19.3848 17.3461 18.7784 18.2448 18.0117 19.0115C17.2451 19.7782 16.3466 20.3846 15.3162 20.8307C14.2857 21.2769 13.1806 21.5 12.0007 21.5ZM2.41574 7.28075C2.27074 7.13591 2.19824 6.96025 2.19824 6.75375C2.19824 6.54742 2.27074 6.37183 2.41574 6.227L5.22724 3.4155C5.36574 3.277 5.53974 3.20617 5.74924 3.203C5.95891 3.19967 6.13616 3.2705 6.28099 3.4155C6.42583 3.56033 6.49824 3.73592 6.49824 3.94225C6.49824 4.14875 6.42583 4.32442 6.28099 4.46925L3.46949 7.28075C3.33099 7.41925 3.15699 7.49008 2.94749 7.49325C2.73783 7.49641 2.56058 7.42558 2.41574 7.28075ZM21.5847 7.28075C21.4399 7.42558 21.2643 7.498 21.058 7.498C20.8515 7.498 20.6758 7.42558 20.531 7.28075L17.7195 4.46925C17.581 4.33075 17.5102 4.15675 17.507 3.94725C17.5038 3.73758 17.5747 3.56033 17.7195 3.4155C17.8643 3.2705 18.04 3.198 18.2465 3.198C18.4528 3.198 18.6284 3.2705 18.7732 3.4155L21.5847 6.227C21.7232 6.3655 21.7941 6.5395 21.7972 6.749C21.8006 6.95867 21.7297 7.13591 21.5847 7.28075ZM12.0002 20C13.9439 20 15.5965 19.3192 16.958 17.9577C18.3195 16.5962 19.0002 14.9437 19.0002 13C19.0002 11.0563 18.3195 9.40375 16.958 8.04225C15.5965 6.68075 13.9439 6 12.0002 6C10.0566 6 8.40399 6.68075 7.04249 8.04225C5.68099 9.40375 5.00024 11.0563 5.00024 13C5.00024 14.9437 5.68099 16.5962 7.04249 17.9577C8.40399 19.3192 10.0566 20 12.0002 20Z" fill="#292A2E"/>
</g>
</svg>
