<svg width="24" height="24" viewBox="0 0 24 24" fill="none" xmlns="http://www.w3.org/2000/svg">
<mask id="mask0_503_7258" style="mask-type:alpha" maskUnits="userSpaceOnUse" x="0" y="0" width="24" height="24">
<rect width="24" height="24" fill="#D9D9D9"/>
</mask>
<g mask="url(#mask0_503_7258)">
<path d="M13.75 13.3077C14.1885 13.3077 14.5878 13.1946 14.948 12.9683C15.3083 12.7419 15.5622 12.4263 15.7095 12.0213C15.7532 11.8136 15.8571 11.6427 16.0212 11.5087C16.1852 11.3748 16.3743 11.3077 16.5885 11.3077H19.75V4.30775C19.75 4.23075 19.7179 4.16025 19.6538 4.09625C19.5898 4.03208 19.5193 4 19.4423 4H8.05775C7.98075 4 7.91025 4.03208 7.84625 4.09625C7.78208 4.16025 7.75 4.23075 7.75 4.30775V11.3077H10.9115C11.1257 11.3077 11.3148 11.3706 11.4788 11.4963C11.6429 11.6219 11.7467 11.7886 11.7902 11.9963C11.8929 12.4219 12.1304 12.7469 12.5027 12.9713C12.8752 13.1956 13.291 13.3077 13.75 13.3077ZM8.05775 17.5C7.55258 17.5 7.125 17.325 6.775 16.975C6.425 16.625 6.25 16.1974 6.25 15.6923V4.30775C6.25 3.80258 6.425 3.375 6.775 3.025C7.125 2.675 7.55258 2.5 8.05775 2.5H19.4423C19.9474 2.5 20.375 2.675 20.725 3.025C21.075 3.375 21.25 3.80258 21.25 4.30775V15.6923C21.25 16.1974 21.075 16.625 20.725 16.975C20.375 17.325 19.9474 17.5 19.4423 17.5H8.05775ZM4.55775 21C4.05258 21 3.625 20.825 3.275 20.475C2.925 20.125 2.75 19.6974 2.75 19.1923V7.05775C2.75 6.84492 2.82183 6.66667 2.9655 6.523C3.109 6.3795 3.28717 6.30775 3.5 6.30775C3.71283 6.30775 3.89108 6.3795 4.03475 6.523C4.17825 6.66667 4.25 6.84492 4.25 7.05775V19.1923C4.25 19.2693 4.28208 19.3398 4.34625 19.4038C4.41025 19.4679 4.48075 19.5 4.55775 19.5H16.6923C16.9051 19.5 17.0833 19.5718 17.227 19.7153C17.3705 19.8589 17.4423 20.0372 17.4423 20.25C17.4423 20.4628 17.3705 20.641 17.227 20.7845C17.0833 20.9282 16.9051 21 16.6923 21H4.55775Z" fill="#292A2E"/>
</g>
</svg>
