<svg width="24" height="24" viewBox="0 0 24 24" fill="none" xmlns="http://www.w3.org/2000/svg">
<mask id="mask0_503_7253" style="mask-type:alpha" maskUnits="userSpaceOnUse" x="0" y="0" width="24" height="24">
<rect width="24" height="24" fill="#D9D9D9"/>
</mask>
<g mask="url(#mask0_503_7253)">
<path d="M11.9985 4.5C14.0918 4.5 15.8654 5.22642 17.3193 6.67925C18.7731 8.13208 19.5 9.90517 19.5 11.9985C19.5 14.0918 18.7736 15.8654 17.3208 17.3193C15.8679 18.7731 14.0948 19.5 12.0015 19.5C9.90817 19.5 8.13458 18.7736 6.68075 17.3207C5.22692 15.8679 4.5 14.0948 4.5 12.0015C4.5 9.90817 5.22642 8.13458 6.67925 6.68075C8.13208 5.22692 9.90517 4.5 11.9985 4.5ZM8.63475 10.0017C8.63475 10.2583 8.7215 10.4728 8.895 10.6453C9.0685 10.8176 9.28358 10.9038 9.54025 10.9038C9.79675 10.9038 10.0113 10.817 10.1838 10.6435C10.3561 10.47 10.4423 10.2549 10.4423 9.99825C10.4423 9.74175 10.3555 9.52725 10.182 9.35475C10.0085 9.18242 9.79342 9.09625 9.53675 9.09625C9.28025 9.09625 9.06575 9.183 8.89325 9.3565C8.72092 9.53 8.63475 9.74508 8.63475 10.0017ZM13.5577 10.0017C13.5577 10.2583 13.6445 10.4728 13.818 10.6453C13.9915 10.8176 14.2066 10.9038 14.4633 10.9038C14.7198 10.9038 14.9343 10.817 15.1068 10.6435C15.2791 10.47 15.3652 10.2549 15.3652 9.99825C15.3652 9.74175 15.2785 9.52725 15.105 9.35475C14.9315 9.18242 14.7164 9.09625 14.4598 9.09625C14.2032 9.09625 13.9888 9.183 13.8163 9.3565C13.6439 9.53 13.5577 9.74508 13.5577 10.0017ZM1.5 5.25V3.30775C1.5 2.81058 1.677 2.385 2.031 2.031C2.385 1.677 2.81058 1.5 3.30775 1.5H5.25C5.4625 1.5 5.64067 1.57192 5.7845 1.71575C5.92817 1.85958 6 2.03775 6 2.25025C6 2.46292 5.92817 2.641 5.7845 2.7845C5.64067 2.92817 5.4625 3 5.25 3H3.30775C3.21792 3 3.14417 3.02883 3.0865 3.0865C3.02883 3.14417 3 3.21792 3 3.30775V5.25C3 5.4625 2.92808 5.64067 2.78425 5.7845C2.64042 5.92817 2.46225 6 2.24975 6C2.03708 6 1.859 5.92817 1.7155 5.7845C1.57183 5.64067 1.5 5.4625 1.5 5.25ZM5.25 22.5H3.30775C2.81058 22.5 2.385 22.323 2.031 21.969C1.677 21.615 1.5 21.1894 1.5 20.6923V18.75C1.5 18.5375 1.57192 18.3593 1.71575 18.2155C1.85958 18.0718 2.03775 18 2.25025 18C2.46292 18 2.641 18.0718 2.7845 18.2155C2.92817 18.3593 3 18.5375 3 18.75V20.6923C3 20.7821 3.02883 20.8558 3.0865 20.9135C3.14417 20.9712 3.21792 21 3.30775 21H5.25C5.4625 21 5.64067 21.0719 5.7845 21.2157C5.92817 21.3596 6 21.5378 6 21.7502C6 21.9629 5.92817 22.141 5.7845 22.2845C5.64067 22.4282 5.4625 22.5 5.25 22.5ZM20.6923 22.4038H18.75C18.5375 22.4038 18.3593 22.3318 18.2155 22.188C18.0718 22.0442 18 21.866 18 21.6535C18 21.4408 18.0718 21.2628 18.2155 21.1193C18.3593 20.9756 18.5375 20.9038 18.75 20.9038H20.6923C20.7821 20.9038 20.8558 20.8749 20.9135 20.8173C20.9712 20.7596 21 20.6858 21 20.596V18.6538C21 18.4413 21.0719 18.2632 21.2157 18.1195C21.3596 17.9757 21.5378 17.9038 21.7502 17.9038C21.9629 17.9038 22.141 17.9757 22.2845 18.1195C22.4282 18.2632 22.5 18.4413 22.5 18.6538V20.596C22.5 21.0932 22.323 21.5188 21.969 21.8728C21.615 22.2268 21.1894 22.4038 20.6923 22.4038ZM21 5.25V3.30775C21 3.21792 20.9712 3.14417 20.9135 3.0865C20.8558 3.02883 20.7821 3 20.6923 3H18.75C18.5375 3 18.3593 2.92808 18.2155 2.78425C18.0718 2.64042 18 2.46225 18 2.24975C18 2.03708 18.0718 1.859 18.2155 1.7155C18.3593 1.57183 18.5375 1.5 18.75 1.5H20.6923C21.1894 1.5 21.615 1.677 21.969 2.031C22.323 2.385 22.5 2.81058 22.5 3.30775V5.25C22.5 5.4625 22.4281 5.64067 22.2843 5.7845C22.1404 5.92817 21.9622 6 21.7498 6C21.5371 6 21.359 5.92817 21.2155 5.7845C21.0718 5.64067 21 5.4625 21 5.25ZM12 15.3077C12.5948 15.3077 13.1503 15.1706 13.6663 14.8962C14.1823 14.6217 14.6069 14.2454 14.9402 13.7673C15.0339 13.5968 15.033 13.4263 14.9375 13.2558C14.842 13.0853 14.6923 13 14.4885 13H9.5115C9.30767 13 9.158 13.0853 9.0625 13.2558C8.967 13.4263 8.96608 13.5968 9.05975 13.7673C9.39308 14.2454 9.81775 14.6217 10.3338 14.8962C10.8498 15.1706 11.4052 15.3077 12 15.3077Z" fill="#292A2E"/>
</g>
</svg>
