<svg width="24" height="24" viewBox="0 0 24 24" fill="none" xmlns="http://www.w3.org/2000/svg">
<mask id="mask0_1357_1094" style="mask-type:alpha" maskUnits="userSpaceOnUse" x="0" y="-1" width="25" height="25">
<rect x="0.0551758" y="-0.237549" width="24" height="24" fill="#D9D9D9"/>
</mask>
<g mask="url(#mask0_1357_1094)">
<path d="M5.41863 12.522L7.73588 14.8395C7.87438 14.9882 7.94455 15.1647 7.94638 15.3692C7.94838 15.5737 7.87505 15.7503 7.72638 15.899C7.57755 16.0477 7.40505 16.122 7.20888 16.122C7.01288 16.122 6.84046 16.0477 6.69163 15.899L3.18788 12.4047C3.09421 12.3112 3.02821 12.2126 2.98988 12.1087C2.95138 12.0049 2.93213 11.8927 2.93213 11.772C2.93213 11.6515 2.95138 11.5393 2.98988 11.4355C3.02821 11.3317 3.09421 11.233 3.18788 11.1395L6.68213 7.64524C6.8308 7.49657 7.0048 7.42224 7.20413 7.42224C7.40346 7.42224 7.57755 7.49657 7.72638 7.64524C7.88138 7.79391 7.9573 7.97207 7.95413 8.17974C7.95096 8.38741 7.87505 8.56566 7.72638 8.71449L5.42813 11.0125H18.6821L16.3839 8.71449C16.2455 8.56566 16.1722 8.38741 16.1639 8.17974C16.1555 7.97207 16.2289 7.79391 16.3839 7.64524C16.5327 7.49657 16.7084 7.42382 16.9109 7.42699C17.1134 7.43016 17.289 7.50607 17.4379 7.65474L20.9224 11.1395C21.016 11.233 21.082 11.3317 21.1204 11.4355C21.1589 11.5393 21.1781 11.6515 21.1781 11.772C21.1781 11.8927 21.1589 12.0049 21.1204 12.1087C21.082 12.2126 21.016 12.3112 20.9224 12.4047L17.4281 15.899C17.2795 16.0477 17.107 16.122 16.9109 16.122C16.7147 16.122 16.539 16.0477 16.3839 15.899C16.2289 15.7503 16.1514 15.5722 16.1514 15.3645C16.1514 15.1568 16.2289 14.9754 16.3839 14.8202L18.6821 12.522H5.41863Z" fill="#1C1B1F"/>
</g>
</svg>
