<svg width="24" height="24" viewBox="0 0 24 24" fill="none" xmlns="http://www.w3.org/2000/svg">
<mask id="mask0_503_7251" style="mask-type:alpha" maskUnits="userSpaceOnUse" x="0" y="0" width="24" height="24">
<rect width="24" height="24" fill="#D9D9D9"/>
</mask>
<g mask="url(#mask0_503_7251)">
<path d="M8.10002 12L15.6328 19.5328C15.8314 19.7314 15.9283 19.9653 15.9233 20.2345C15.9181 20.5038 15.8162 20.7378 15.6175 20.9365C15.4187 21.1352 15.1847 21.2345 14.9155 21.2345C14.6463 21.2345 14.4124 21.1352 14.2135 20.9365L6.54252 13.2808C6.36168 13.0999 6.22768 12.8973 6.14052 12.673C6.05335 12.4487 6.00977 12.2243 6.00977 12C6.00977 11.7757 6.05335 11.5513 6.14052 11.327C6.22768 11.1027 6.36168 10.9001 6.54252 10.7193L14.2135 3.04801C14.4124 2.84935 14.6489 2.7526 14.9233 2.75776C15.1976 2.76293 15.4341 2.86485 15.6328 3.06351C15.8314 3.26218 15.9308 3.49618 15.9308 3.76551C15.9308 4.03468 15.8314 4.2686 15.6328 4.46727L8.10002 12Z" fill="#292A2E"/>
</g>
</svg>
