<svg width="24" height="24" viewBox="0 0 24 24" fill="none" xmlns="http://www.w3.org/2000/svg">
<mask id="mask0_503_7242" style="mask-type:alpha" maskUnits="userSpaceOnUse" x="0" y="0" width="24" height="24">
<rect width="24" height="24" fill="#D9D9D9"/>
</mask>
<g mask="url(#mask0_503_7242)">
<path d="M17.5005 19.3078C16.8707 19.3078 16.3382 19.0903 15.903 18.6553C15.4677 18.2204 15.25 17.6881 15.25 17.0583C15.25 16.4284 15.4675 15.8958 15.9025 15.4605C16.3375 15.0253 16.87 14.8078 17.5 14.8078C17.6718 14.8078 17.8458 14.8298 18.022 14.874C18.1983 14.9182 18.3769 14.9948 18.5577 15.1038V10.827C18.5577 10.5708 18.6443 10.3562 18.8175 10.183C18.9908 10.0097 19.2055 9.92301 19.4615 9.92301H20.8652C21.1103 9.92301 21.3189 10.0078 21.4913 10.1775C21.6638 10.347 21.75 10.5571 21.75 10.8078C21.75 11.0526 21.6638 11.2613 21.4913 11.4338C21.3189 11.6061 21.1103 11.6923 20.8652 11.6923H19.75V17.0578C19.75 17.6878 19.5326 18.2203 19.0977 18.6553C18.6627 19.0903 18.1303 19.3078 17.5005 19.3078ZM10.75 11.6923C9.7875 11.6923 8.96358 11.3496 8.27825 10.6643C7.59275 9.97876 7.25 9.15476 7.25 8.19226C7.25 7.22976 7.59275 6.40584 8.27825 5.72051C8.96358 5.03501 9.7875 4.69226 10.75 4.69226C11.7125 4.69226 12.5364 5.03501 13.2218 5.72051C13.9073 6.40584 14.25 7.22976 14.25 8.19226C14.25 9.15476 13.9073 9.97876 13.2218 10.6643C12.5364 11.3496 11.7125 11.6923 10.75 11.6923ZM4.15375 19.3078C3.89775 19.3078 3.68308 19.2211 3.50975 19.0478C3.33658 18.8746 3.25 18.6599 3.25 18.4038V17.0845C3.25 16.5845 3.383 16.1284 3.649 15.7163C3.915 15.3041 4.2705 14.9858 4.7155 14.7615C5.71667 14.2705 6.71692 13.9054 7.71625 13.6663C8.71558 13.4273 9.72683 13.3078 10.75 13.3078C11.1782 13.3078 11.5974 13.3279 12.0078 13.3683C12.4179 13.4086 12.8275 13.4724 13.2365 13.5598C13.4942 13.6136 13.6653 13.7661 13.75 14.0173C13.8347 14.2686 13.7892 14.5078 13.6135 14.7348C13.366 15.0873 13.182 15.4628 13.0615 15.8615C12.941 16.2602 12.8807 16.6717 12.8807 17.096C12.8807 17.2887 12.8917 17.4776 12.9135 17.6628C12.9353 17.8478 12.9732 18.0326 13.027 18.2173C13.0975 18.4916 13.0583 18.7419 12.9095 18.9683C12.7608 19.1946 12.5577 19.3078 12.3 19.3078H4.15375Z" fill="#292A2E"/>
</g>
</svg>
