<svg width="24" height="24" viewBox="0 0 24 24" fill="none" xmlns="http://www.w3.org/2000/svg">
<mask id="mask0_503_7240" style="mask-type:alpha" maskUnits="userSpaceOnUse" x="0" y="0" width="24" height="24">
<rect width="24" height="24" fill="#D9D9D9"/>
</mask>
<g mask="url(#mask0_503_7240)">
<path d="M17.6728 15.6443C17.6728 17.2683 17.1077 18.6502 15.9775 19.79C14.8475 20.93 13.472 21.5 11.8508 21.5C10.2296 21.5 8.85238 20.93 7.71904 19.79C6.58571 18.6502 6.01904 17.2683 6.01904 15.6443V6.65375C6.01904 5.49992 6.41971 4.51917 7.22104 3.7115C8.02221 2.90383 8.99971 2.5 10.1535 2.5C11.3074 2.5 12.285 2.90383 13.0863 3.7115C13.8876 4.51917 14.2883 5.49992 14.2883 6.65375V15.1635C14.2883 15.8403 14.0525 16.4182 13.581 16.897C13.1094 17.3758 12.5347 17.6152 11.857 17.6152C11.1792 17.6152 10.6009 17.3775 10.122 16.902C9.64321 16.4265 9.40379 15.847 9.40379 15.1635V7.13475C9.40379 6.92225 9.47563 6.74408 9.61929 6.60025C9.76313 6.45658 9.94138 6.38475 10.154 6.38475C10.3665 6.38475 10.5446 6.45658 10.6883 6.60025C10.8318 6.74408 10.9035 6.92225 10.9035 7.13475V15.1635C10.9035 15.4315 10.9936 15.6572 11.1738 15.8405C11.354 16.0238 11.578 16.1155 11.846 16.1155C12.1139 16.1155 12.3379 16.0238 12.518 15.8405C12.6982 15.6572 12.7883 15.4315 12.7883 15.1635V6.64425C12.778 5.90575 12.5215 5.28042 12.0188 4.76825C11.5161 4.25608 10.8944 4 10.1535 4C9.41588 4 8.79238 4.25767 8.28304 4.773C7.77371 5.2885 7.51904 5.91542 7.51904 6.65375V15.6443C7.50871 16.8533 7.92663 17.8814 8.77279 18.7288C9.61896 19.5763 10.6461 20 11.8543 20C13.0453 20 14.0577 19.5763 14.8915 18.7288C15.7252 17.8814 16.1523 16.8533 16.1728 15.6443V7.13475C16.1728 6.92225 16.2447 6.74408 16.3885 6.60025C16.5324 6.45658 16.7106 6.38475 16.9233 6.38475C17.1358 6.38475 17.3139 6.45658 17.4575 6.60025C17.601 6.74408 17.6728 6.92225 17.6728 7.13475V15.6443Z" fill="#292A2E"/>
</g>
</svg>
