<svg width="24" height="24" viewBox="0 0 24 24" fill="none" xmlns="http://www.w3.org/2000/svg">
<mask id="mask0_503_7237" style="mask-type:alpha" maskUnits="userSpaceOnUse" x="0" y="0" width="24" height="24">
<rect width="24" height="24" fill="#D9D9D9"/>
</mask>
<g mask="url(#mask0_503_7237)">
<path d="M12.311 21.5C11.8037 21.5 11.375 21.325 11.025 20.975C10.675 20.625 10.5 20.1963 10.5 19.689V12.311C10.5 11.8037 10.675 11.375 11.025 11.025C11.375 10.675 11.8037 10.5 12.311 10.5H19.689C20.1963 10.5 20.625 10.675 20.975 11.025C21.325 11.375 21.5 11.8037 21.5 12.311V19.689C21.5 20.1963 21.325 20.625 20.975 20.975C20.625 21.325 20.1963 21.5 19.689 21.5H12.311ZM6.5 16.8652V8.30775C6.5 7.80258 6.675 7.375 7.025 7.025C7.375 6.675 7.80258 6.5 8.30775 6.5H16.8652C17.0777 6.5 17.2559 6.57192 17.3997 6.71575C17.5434 6.85958 17.6152 7.03775 17.6152 7.25025C17.6152 7.46292 17.5434 7.641 17.3997 7.7845C17.2559 7.92817 17.0777 8 16.8652 8H8.30775C8.23075 8 8.16025 8.03208 8.09625 8.09625C8.03208 8.16025 8 8.23075 8 8.30775V16.8652C8 17.0777 7.92808 17.2559 7.78425 17.3997C7.64042 17.5434 7.46225 17.6152 7.24975 17.6152C7.03708 17.6152 6.859 17.5434 6.7155 17.3997C6.57183 17.2559 6.5 17.0777 6.5 16.8652ZM2.5 12.8652V4.30775C2.5 3.80258 2.675 3.375 3.025 3.025C3.375 2.675 3.80258 2.5 4.30775 2.5H12.8652C13.0777 2.5 13.2559 2.57192 13.3997 2.71575C13.5434 2.85958 13.6152 3.03775 13.6152 3.25025C13.6152 3.46292 13.5434 3.641 13.3997 3.7845C13.2559 3.92817 13.0777 4 12.8652 4H4.30775C4.23075 4 4.16025 4.03208 4.09625 4.09625C4.03208 4.16025 4 4.23075 4 4.30775V12.8652C4 13.0777 3.92808 13.2559 3.78425 13.3997C3.64042 13.5434 3.46225 13.6152 3.24975 13.6152C3.03708 13.6152 2.859 13.5434 2.7155 13.3997C2.57183 13.2559 2.5 13.0777 2.5 12.8652Z" fill="#292A2E"/>
</g>
</svg>
