<svg width="24" height="24" viewBox="0 0 24 24" fill="none" xmlns="http://www.w3.org/2000/svg">
<mask id="mask0_503_7236" style="mask-type:alpha" maskUnits="userSpaceOnUse" x="0" y="0" width="24" height="24">
<rect width="24" height="24" fill="#D9D9D9"/>
</mask>
<g mask="url(#mask0_503_7236)">
<path d="M12.3077 21.5C11.8026 21.5 11.375 21.325 11.025 20.975C10.675 20.625 10.5 20.1974 10.5 19.6923V12.3077C10.5 11.8026 10.675 11.375 11.025 11.025C11.375 10.675 11.8026 10.5 12.3077 10.5H19.6923C20.1974 10.5 20.625 10.675 20.975 11.025C21.325 11.375 21.5 11.8026 21.5 12.3077V19.6923C21.5 20.1974 21.325 20.625 20.975 20.975C20.625 21.325 20.1974 21.5 19.6923 21.5H12.3077ZM12.3077 20H19.6923C19.7693 20 19.8398 19.9679 19.9038 19.9038C19.9679 19.8398 20 19.7693 20 19.6923V12.3077C20 12.2308 19.9679 12.1603 19.9038 12.0963C19.8398 12.0321 19.7693 12 19.6923 12H12.3077C12.2308 12 12.1603 12.0321 12.0963 12.0963C12.0321 12.1603 12 12.2308 12 12.3077V19.6923C12 19.7693 12.0321 19.8398 12.0963 19.9038C12.1603 19.9679 12.2308 20 12.3077 20ZM6.5 16.8652V8.30775C6.5 7.80258 6.675 7.375 7.025 7.025C7.375 6.675 7.80258 6.5 8.30775 6.5H16.8652C17.0781 6.5 17.2563 6.57183 17.4 6.7155C17.5435 6.859 17.6152 7.03717 17.6152 7.25C17.6152 7.46283 17.5435 7.641 17.4 7.7845C17.2563 7.92817 17.0781 8 16.8652 8H8.30775C8.23075 8 8.16025 8.03208 8.09625 8.09625C8.03208 8.16025 8 8.23075 8 8.30775V16.8652C8 17.0781 7.92817 17.2563 7.7845 17.4C7.641 17.5435 7.46283 17.6152 7.25 17.6152C7.03717 17.6152 6.859 17.5435 6.7155 17.4C6.57183 17.2563 6.5 17.0781 6.5 16.8652ZM2.5 12.8652V4.30775C2.5 3.80258 2.675 3.375 3.025 3.025C3.375 2.675 3.80258 2.5 4.30775 2.5H12.8652C13.0781 2.5 13.2563 2.57183 13.4 2.7155C13.5435 2.859 13.6152 3.03717 13.6152 3.25C13.6152 3.46283 13.5435 3.641 13.4 3.7845C13.2563 3.92817 13.0781 4 12.8652 4H4.30775C4.23075 4 4.16025 4.03208 4.09625 4.09625C4.03208 4.16025 4 4.23075 4 4.30775V12.8652C4 13.0781 3.92817 13.2563 3.7845 13.4C3.641 13.5435 3.46283 13.6152 3.25 13.6152C3.03717 13.6152 2.859 13.5435 2.7155 13.4C2.57183 13.2563 2.5 13.0781 2.5 12.8652Z" fill="#292A2E"/>
</g>
</svg>
