<svg width="24" height="24" viewBox="0 0 24 24" fill="none" xmlns="http://www.w3.org/2000/svg">
<mask id="mask0_503_7234" style="mask-type:alpha" maskUnits="userSpaceOnUse" x="0" y="0" width="24" height="24">
<rect width="24" height="24" fill="#D9D9D9"/>
</mask>
<g mask="url(#mask0_503_7234)">
<path d="M6.00076 20.2307C5.16692 20.2307 4.50384 19.9073 4.01151 19.2604C3.51917 18.6136 3.37559 17.8954 3.58076 17.1057L5.42901 10.1422C4.88534 9.87553 4.42792 9.46303 4.05676 8.90469C3.68559 8.34636 3.50001 7.71144 3.50001 6.99994C3.50001 6.03744 3.84276 5.21353 4.52826 4.52819C5.21359 3.84269 6.03751 3.49994 7.00001 3.49994H14.5C15.177 3.49994 15.6886 3.78619 16.0348 4.35869C16.3808 4.93103 16.4031 5.51853 16.1018 6.12119L14.4095 9.50569C14.2442 9.80703 14.0223 10.048 13.744 10.2287C13.4657 10.4095 13.1536 10.4999 12.8078 10.4999H10.5135L10.1903 11.7019H10.375C10.6262 11.7083 10.838 11.7971 11.0105 11.9684C11.183 12.1399 11.2693 12.3524 11.2693 12.6057V14.2979C11.2693 14.5541 11.1826 14.7688 11.0093 14.9419C10.8361 15.1151 10.6214 15.2017 10.3653 15.2017H9.26526L8.41926 18.4057C8.26626 18.9449 7.96742 19.3838 7.52276 19.7224C7.07809 20.0613 6.57076 20.2307 6.00076 20.2307ZM21.3 3.55944L19.0403 4.57494C18.8891 4.64544 18.7348 4.64969 18.5773 4.58769C18.4198 4.52569 18.3068 4.41886 18.2385 4.26719C18.168 4.11603 18.1607 3.96169 18.2165 3.80419C18.2723 3.64669 18.3771 3.53378 18.5308 3.46544L20.7903 2.44994C20.9416 2.37944 21.0987 2.37519 21.2615 2.43719C21.4243 2.49919 21.5398 2.60603 21.6078 2.75769C21.6783 2.90886 21.6825 3.06319 21.6205 3.22069C21.5583 3.37819 21.4515 3.49111 21.3 3.55944ZM18.5558 10.5594C18.4026 10.4906 18.2913 10.3734 18.2218 10.2079C18.1521 10.0423 18.1525 9.88469 18.223 9.73519C18.2935 9.57203 18.4112 9.46186 18.576 9.40469C18.7407 9.34769 18.9038 9.35444 19.0653 9.42494L21.3153 10.4749C21.4666 10.5454 21.5692 10.6573 21.623 10.8104C21.6768 10.9638 21.6685 11.116 21.598 11.2672C21.5275 11.4185 21.4157 11.5237 21.2625 11.5827C21.1093 11.6417 20.9571 11.6391 20.8058 11.5749L18.5558 10.5594ZM21.673 7.61519H19.173C18.9952 7.61519 18.8482 7.55711 18.732 7.44094C18.6158 7.32461 18.5578 7.17744 18.5578 6.99944C18.5578 6.82161 18.6158 6.67469 18.732 6.55869C18.8482 6.44269 18.9952 6.38469 19.173 6.38469H21.673C21.8508 6.38469 21.9978 6.44278 22.114 6.55894C22.2303 6.67528 22.2885 6.82244 22.2885 7.00044C22.2885 7.17828 22.2303 7.32519 22.114 7.44119C21.9978 7.55719 21.8508 7.61519 21.673 7.61519Z" fill="#292A2E"/>
</g>
</svg>
