<svg width="24" height="24" viewBox="0 0 24 24" fill="none" xmlns="http://www.w3.org/2000/svg">
<mask id="mask0_503_7232" style="mask-type:alpha" maskUnits="userSpaceOnUse" x="0" y="0" width="24" height="24">
<rect width="24" height="24" fill="#D9D9D9"/>
</mask>
<g mask="url(#mask0_503_7232)">
<path d="M3.70002 10C3.70002 10.9987 3.8721 11.9525 4.21627 12.8615C4.5606 13.7705 5.05202 14.6033 5.69052 15.3598C5.81485 15.5046 5.8786 15.6664 5.88177 15.8453C5.88493 16.0241 5.81927 16.1808 5.68477 16.3153C5.5501 16.4499 5.38918 16.5115 5.20202 16.5C5.01485 16.4885 4.8591 16.4103 4.73477 16.2653C3.98477 15.3909 3.4056 14.4176 2.99727 13.3453C2.58893 12.2728 2.38477 11.1577 2.38477 10C2.38477 8.84235 2.58893 7.72726 2.99727 6.65476C3.4056 5.58243 3.98477 4.6091 4.73477 3.73476C4.8591 3.58976 5.01485 3.51151 5.20202 3.50001C5.38918 3.48851 5.5501 3.5501 5.68477 3.68476C5.81927 3.81926 5.88493 3.97593 5.88177 4.15476C5.8786 4.3336 5.81485 4.49543 5.69052 4.64026C5.05202 5.39676 4.5606 6.22951 4.21627 7.13851C3.8721 8.04751 3.70002 9.00135 3.70002 10ZM7.00002 10C7.00002 10.559 7.0846 11.0946 7.25377 11.6068C7.4231 12.1189 7.67377 12.5949 8.00577 13.0348C8.11993 13.1796 8.1786 13.3456 8.18177 13.5328C8.18493 13.7199 8.11927 13.8808 7.98477 14.0153C7.8501 14.1499 7.69335 14.2141 7.51452 14.2078C7.33568 14.2013 7.18918 14.1256 7.07502 13.9808C6.62502 13.4231 6.28077 12.8029 6.04227 12.1203C5.80393 11.4376 5.68477 10.7308 5.68477 10C5.68477 9.26918 5.80393 8.56243 6.04227 7.87976C6.28077 7.1971 6.62502 6.57693 7.07502 6.01926C7.18918 5.87443 7.33568 5.79876 7.51452 5.79226C7.69335 5.78593 7.8501 5.8501 7.98477 5.98476C8.11927 6.11926 8.18493 6.2801 8.18177 6.46726C8.1786 6.65443 8.11993 6.82043 8.00577 6.96526C7.67377 7.4051 7.4231 7.8811 7.25377 8.39326C7.0846 8.90543 7.00002 9.44101 7.00002 10ZM11.25 19.8078V12.0693C10.8128 11.9206 10.4599 11.6571 10.1913 11.2788C9.92277 10.9006 9.78852 10.4743 9.78852 10C9.78852 9.38335 10.0029 8.8606 10.4318 8.43177C10.8606 8.00293 11.3833 7.78851 12 7.78851C12.6167 7.78851 13.1394 8.00293 13.5683 8.43177C13.9971 8.8606 14.2115 9.38335 14.2115 10C14.2115 10.4743 14.0773 10.9006 13.8088 11.2788C13.5401 11.6571 13.1872 11.9206 12.75 12.0693V19.8078C12.75 20.0206 12.6782 20.1988 12.5345 20.3423C12.391 20.4859 12.2128 20.5578 12 20.5578C11.7872 20.5578 11.609 20.4859 11.4655 20.3423C11.3218 20.1988 11.25 20.0206 11.25 19.8078ZM17 10C17 9.44101 16.9154 8.90543 16.7463 8.39326C16.5769 7.8811 16.3263 7.4051 15.9943 6.96526C15.8801 6.82043 15.8214 6.65443 15.8183 6.46726C15.8151 6.2801 15.8808 6.11926 16.0153 5.98476C16.1499 5.8501 16.3067 5.78593 16.4855 5.79226C16.6643 5.79876 16.8108 5.87443 16.925 6.01926C17.375 6.57693 17.7193 7.1971 17.9578 7.87976C18.1961 8.56243 18.3153 9.26918 18.3153 10C18.3153 10.7308 18.1961 11.4376 17.9578 12.1203C17.7193 12.8029 17.375 13.4231 16.925 13.9808C16.8108 14.1256 16.6643 14.2013 16.4855 14.2078C16.3067 14.2141 16.1499 14.1499 16.0153 14.0153C15.8808 13.8808 15.8151 13.7199 15.8183 13.5328C15.8214 13.3456 15.8801 13.1796 15.9943 13.0348C16.3263 12.5949 16.5769 12.1189 16.7463 11.6068C16.9154 11.0946 17 10.559 17 10ZM20.3 10C20.3 9.00135 20.1279 8.04751 19.7838 7.13851C19.4394 6.22951 18.948 5.39676 18.3095 4.64026C18.1852 4.49543 18.1214 4.3336 18.1183 4.15476C18.1151 3.97593 18.1808 3.81926 18.3153 3.68476C18.4499 3.5501 18.6108 3.48851 18.798 3.50001C18.9852 3.51151 19.1409 3.58976 19.2653 3.73476C20.0153 4.6091 20.5944 5.58243 21.0028 6.65476C21.4111 7.72726 21.6153 8.84235 21.6153 10C21.6153 11.1577 21.4111 12.2728 21.0028 13.3453C20.5944 14.4176 20.0153 15.3909 19.2653 16.2653C19.1409 16.4103 18.9852 16.4885 18.798 16.5C18.6108 16.5115 18.4499 16.4499 18.3153 16.3153C18.1808 16.1808 18.1151 16.0241 18.1183 15.8453C18.1214 15.6664 18.1852 15.5046 18.3095 15.3598C18.948 14.6033 19.4394 13.7705 19.7838 12.8615C20.1279 11.9525 20.3 10.9987 20.3 10Z" fill="#292A2E"/>
</g>
</svg>
