<svg width="24" height="24" viewBox="0 0 24 24" fill="none" xmlns="http://www.w3.org/2000/svg">
<mask id="mask0_503_7230" style="mask-type:alpha" maskUnits="userSpaceOnUse" x="0" y="0" width="24" height="24">
<rect width="24" height="24" fill="#D9D9D9"/>
</mask>
<g mask="url(#mask0_503_7230)">
<path d="M11.25 20.2192V13.8037L6.92701 18.127C6.78851 18.2653 6.61443 18.3361 6.40476 18.3394C6.19526 18.3426 6.01801 18.2718 5.87301 18.127C5.72818 17.9819 5.65576 17.8063 5.65576 17.5999C5.65576 17.3936 5.72818 17.2179 5.87301 17.0729L10.9463 11.9999L5.87301 6.92695C5.73468 6.78845 5.66385 6.61437 5.66051 6.4047C5.65735 6.1952 5.72818 6.01795 5.87301 5.87295C6.01801 5.72812 6.19368 5.6557 6.40001 5.6557C6.60635 5.6557 6.78201 5.72812 6.92701 5.87295L11.25 10.1962V3.7807C11.25 3.50637 11.342 3.28462 11.526 3.11545C11.71 2.94612 11.9193 2.86145 12.1538 2.86145C12.2679 2.86145 12.3785 2.88328 12.4855 2.92695C12.5927 2.97045 12.693 3.03903 12.7865 3.1327L16.7213 7.0672C16.8148 7.16087 16.8808 7.25962 16.9193 7.36345C16.9578 7.46728 16.977 7.57945 16.977 7.69995C16.977 7.82045 16.9578 7.93262 16.9193 8.03645C16.8808 8.14028 16.8148 8.23903 16.7213 8.3327L13.0538 11.9999L16.7213 15.6672C16.8148 15.7609 16.8808 15.8596 16.9193 15.9634C16.9578 16.0673 16.977 16.1795 16.977 16.2999C16.977 16.4204 16.9578 16.5326 16.9193 16.6365C16.8808 16.7403 16.8148 16.839 16.7213 16.9327L12.7865 20.8672C12.693 20.9609 12.5927 21.0294 12.4855 21.073C12.3785 21.1166 12.2679 21.1384 12.1538 21.1384C11.9193 21.1384 11.71 21.0538 11.526 20.8845C11.342 20.7153 11.25 20.4935 11.25 20.2192ZM12.75 10.1962L15.2463 7.69995L12.75 5.23445V10.1962ZM12.75 18.7654L15.2463 16.2999L12.75 13.8037V18.7654Z" fill="#292A2E"/>
</g>
</svg>
