<svg width="24" height="24" viewBox="0 0 24 24" fill="none" xmlns="http://www.w3.org/2000/svg">
<mask id="mask0_503_7227" style="mask-type:alpha" maskUnits="userSpaceOnUse" x="0" y="0" width="24" height="24">
<rect width="24" height="24" fill="#D9D9D9"/>
</mask>
<g mask="url(#mask0_503_7227)">
<path d="M6.30775 21.5C5.80258 21.5 5.375 21.325 5.025 20.975C4.675 20.625 4.5 20.1974 4.5 19.6923V4.30775C4.5 3.80258 4.675 3.375 5.025 3.025C5.375 2.675 5.80258 2.5 6.30775 2.5H17.6923C18.1974 2.5 18.625 2.675 18.975 3.025C19.325 3.375 19.5 3.80258 19.5 4.30775V19.6923C19.5 20.1974 19.325 20.625 18.975 20.975C18.625 21.325 18.1974 21.5 17.6923 21.5H6.30775ZM11.5 4V9.76925C11.5 9.94992 11.5712 10.0829 11.7135 10.1682C11.8558 10.2534 12.009 10.2492 12.173 10.1557L13.273 9.50775C13.4268 9.41408 13.5817 9.36725 13.7375 9.36725C13.8933 9.36725 14.0482 9.41408 14.202 9.50775L15.302 10.1557C15.466 10.2492 15.6233 10.2534 15.774 10.1682C15.9247 10.0829 16 9.94992 16 9.76925V4H11.5Z" fill="#292A2E"/>
</g>
</svg>
