<svg width="24" height="24" viewBox="0 0 24 24" fill="none" xmlns="http://www.w3.org/2000/svg">
<mask id="mask0_503_7226" style="mask-type:alpha" maskUnits="userSpaceOnUse" x="0" y="0" width="24" height="24">
<rect width="24" height="24" fill="#D9D9D9"/>
</mask>
<g mask="url(#mask0_503_7226)">
<path d="M6.30775 21.5C5.80258 21.5 5.375 21.325 5.025 20.975C4.675 20.625 4.5 20.1974 4.5 19.6923V4.30775C4.5 3.80258 4.675 3.375 5.025 3.025C5.375 2.675 5.80258 2.5 6.30775 2.5H17.6923C18.1974 2.5 18.625 2.675 18.975 3.025C19.325 3.375 19.5 3.80258 19.5 4.30775V19.6923C19.5 20.1974 19.325 20.625 18.975 20.975C18.625 21.325 18.1974 21.5 17.6923 21.5H6.30775ZM6.30775 20H17.6923C17.7692 20 17.8398 19.9679 17.9038 19.9038C17.9679 19.8398 18 19.7693 18 19.6923V4.30775C18 4.23075 17.9679 4.16025 17.9038 4.09625C17.8398 4.03208 17.7692 4 17.6923 4H16V9.76925C16 9.94992 15.9247 10.0829 15.774 10.1682C15.6233 10.2534 15.4711 10.2492 15.3173 10.1557L14.2172 9.49225C14.0634 9.39875 13.9087 9.352 13.753 9.352C13.5972 9.352 13.4423 9.39875 13.2885 9.49225L12.1885 10.1557C12.0347 10.2492 11.8815 10.2534 11.729 10.1682C11.5763 10.0829 11.5 9.94992 11.5 9.76925V4H6.30775C6.23075 4 6.16025 4.03208 6.09625 4.09625C6.03208 4.16025 6 4.23075 6 4.30775V19.6923C6 19.7693 6.03208 19.8398 6.09625 19.9038C6.16025 19.9679 6.23075 20 6.30775 20ZM11.5 9.77875V9.76925C11.5 9.94992 11.5763 10.0829 11.729 10.1682C11.8815 10.2534 12.0347 10.2492 12.1885 10.1557L13.2885 9.49225C13.4423 9.39875 13.5972 9.352 13.753 9.352C13.9087 9.352 14.0634 9.39875 14.2172 9.49225L15.3173 10.1557C15.4711 10.2492 15.6233 10.2534 15.774 10.1682C15.9247 10.0829 16 9.94992 16 9.76925V9.77875C16 9.95308 15.9247 10.0829 15.774 10.1682C15.6233 10.2534 15.4711 10.2524 15.3173 10.1652L14.2172 9.49225C14.0634 9.39875 13.9087 9.352 13.753 9.352C13.5972 9.352 13.4423 9.39875 13.2885 9.49225L12.1885 10.1652C12.0347 10.2524 11.8815 10.2534 11.729 10.1682C11.5763 10.0829 11.5 9.95308 11.5 9.77875Z" fill="#292A2E"/>
</g>
</svg>
