<svg width="24" height="24" viewBox="0 0 24 24" fill="none" xmlns="http://www.w3.org/2000/svg">
<mask id="mask0_503_7223" style="mask-type:alpha" maskUnits="userSpaceOnUse" x="0" y="0" width="24" height="24">
<rect width="24" height="24" fill="#D9D9D9"/>
</mask>
<g mask="url(#mask0_503_7223)">
<path d="M10.25 19.4615L6.28075 21.1653C5.67825 21.4229 5.10583 21.3736 4.5635 21.0173C4.02117 20.6609 3.75 20.1597 3.75 19.5135V7.30775C3.75 6.80258 3.925 6.375 4.275 6.025C4.625 5.675 5.05258 5.5 5.55775 5.5H14.9423C15.4474 5.5 15.875 5.675 16.225 6.025C16.575 6.375 16.75 6.80258 16.75 7.30775V19.5135C16.75 20.1597 16.4788 20.6609 15.9365 21.0173C15.3942 21.3736 14.8218 21.4229 14.2193 21.1653L10.25 19.4615ZM19.5 19.25C19.2872 19.25 19.1089 19.1782 18.9653 19.0345C18.8217 18.891 18.75 18.7128 18.75 18.5V3.80775C18.75 3.73075 18.7179 3.66025 18.6538 3.59625C18.5898 3.53208 18.5192 3.5 18.4423 3.5H7.5C7.28717 3.5 7.109 3.42825 6.9655 3.28475C6.82183 3.14108 6.75 2.96283 6.75 2.75C6.75 2.53717 6.82183 2.359 6.9655 2.2155C7.109 2.07183 7.28717 2 7.5 2H18.4423C18.9474 2 19.375 2.175 19.725 2.525C20.075 2.875 20.25 3.30258 20.25 3.80775V18.5C20.25 18.7128 20.1782 18.891 20.0345 19.0345C19.891 19.1782 19.7128 19.25 19.5 19.25Z" fill="#292A2E"/>
</g>
</svg>
