<svg width="24" height="24" viewBox="0 0 24 24" fill="none" xmlns="http://www.w3.org/2000/svg">
<mask id="mask0_503_7221" style="mask-type:alpha" maskUnits="userSpaceOnUse" x="0" y="0" width="24" height="24">
<rect width="24" height="24" fill="#D9D9D9"/>
</mask>
<g mask="url(#mask0_503_7221)">
<path d="M12 20.5C11.0065 20.5 10.0889 20.2557 9.24725 19.7672C8.40558 19.2787 7.73725 18.6063 7.24225 17.75H5.25C5.0375 17.75 4.85942 17.6781 4.71575 17.5342C4.57192 17.3904 4.5 17.2122 4.5 16.9997C4.5 16.7871 4.57192 16.609 4.71575 16.4655C4.85942 16.3218 5.0375 16.25 5.25 16.25H6.677C6.57567 15.8398 6.52083 15.4253 6.5125 15.0065C6.50417 14.5876 6.5 14.1688 6.5 13.75H5.25C5.0375 13.75 4.85942 13.6781 4.71575 13.5342C4.57192 13.3904 4.5 13.2122 4.5 12.9997C4.5 12.7871 4.57192 12.609 4.71575 12.4655C4.85942 12.3218 5.0375 12.25 5.25 12.25H6.5C6.5 11.827 6.501 11.4055 6.503 10.9855C6.50483 10.5656 6.56283 10.1538 6.677 9.74998H5.25C5.0375 9.74998 4.85942 9.67806 4.71575 9.53423C4.57192 9.39039 4.5 9.21223 4.5 8.99973C4.5 8.78706 4.57192 8.60898 4.71575 8.46548C4.85942 8.32181 5.0375 8.24998 5.25 8.24998H7.24225C7.48208 7.84098 7.76542 7.46823 8.09225 7.13173C8.41925 6.79523 8.79367 6.51156 9.2155 6.28073L8.02125 5.07123C7.88275 4.93589 7.8135 4.76681 7.8135 4.56398C7.8135 4.36114 7.88842 4.18481 8.03825 4.03498C8.17558 3.89764 8.34742 3.82898 8.55375 3.82898C8.76025 3.82898 8.93275 3.89814 9.07125 4.03648L10.6848 5.64998C11.1129 5.51931 11.5462 5.45398 11.9845 5.45398C12.423 5.45398 12.8563 5.51931 13.2845 5.64998L14.948 4.02123C15.0833 3.88273 15.2524 3.81348 15.4553 3.81348C15.6581 3.81348 15.8344 3.88839 15.9843 4.03823C16.1216 4.17556 16.1902 4.34739 16.1902 4.55373C16.1902 4.76023 16.1211 4.93273 15.9827 5.07123L14.773 6.28073C15.1948 6.51156 15.5712 6.79264 15.902 7.12398C16.2327 7.45548 16.5179 7.83081 16.7578 8.24998H18.75C18.9625 8.24998 19.1406 8.32189 19.2843 8.46573C19.4281 8.60956 19.5 8.78773 19.5 9.00023C19.5 9.21289 19.4281 9.39098 19.2843 9.53448C19.1406 9.67814 18.9625 9.74998 18.75 9.74998H17.323C17.4372 10.1538 17.4952 10.5662 17.497 10.9872C17.499 11.4081 17.5 11.829 17.5 12.25H18.75C18.9625 12.25 19.1406 12.3219 19.2843 12.4657C19.4281 12.6096 19.5 12.7877 19.5 13.0002C19.5 13.2129 19.4281 13.391 19.2843 13.5345C19.1406 13.6781 18.9625 13.75 18.75 13.75H17.5C17.5 14.1666 17.4958 14.5849 17.4875 15.0047C17.4792 15.4247 17.4243 15.8398 17.323 16.25H18.75C18.9625 16.25 19.1406 16.3219 19.2843 16.4657C19.4281 16.6096 19.5 16.7877 19.5 17.0002C19.5 17.2129 19.4281 17.391 19.2843 17.5345C19.1406 17.6781 18.9625 17.75 18.75 17.75H16.7578C16.2628 18.6063 15.5944 19.2787 14.7527 19.7672C13.9111 20.2557 12.9935 20.5 12 20.5ZM12 19C13.1 19 14.0417 18.6083 14.825 17.825C15.6083 17.0416 16 16.1 16 15V11C16 9.89998 15.6083 8.95831 14.825 8.17498C14.0417 7.39164 13.1 6.99998 12 6.99998C10.9 6.99998 9.95833 7.39164 9.175 8.17498C8.39167 8.95831 8 9.89998 8 11V15C8 16.1 8.39167 17.0416 9.175 17.825C9.95833 18.6083 10.9 19 12 19ZM10.9037 15.75H13.0962C13.3087 15.75 13.4868 15.6781 13.6305 15.5342C13.7743 15.3904 13.8462 15.2122 13.8462 14.9997C13.8462 14.7871 13.7743 14.609 13.6305 14.4655C13.4868 14.3218 13.3087 14.25 13.0962 14.25H10.9037C10.6912 14.25 10.5132 14.3219 10.3695 14.4657C10.2257 14.6096 10.1537 14.7877 10.1537 15.0002C10.1537 15.2129 10.2257 15.391 10.3695 15.5345C10.5132 15.6781 10.6912 15.75 10.9037 15.75ZM10.9037 11.75H13.0962C13.3087 11.75 13.4868 11.6781 13.6305 11.5342C13.7743 11.3904 13.8462 11.2122 13.8462 10.9997C13.8462 10.7871 13.7743 10.609 13.6305 10.4655C13.4868 10.3218 13.3087 10.25 13.0962 10.25H10.9037C10.6912 10.25 10.5132 10.3219 10.3695 10.4657C10.2257 10.6096 10.1537 10.7877 10.1537 11.0002C10.1537 11.2129 10.2257 11.391 10.3695 11.5345C10.5132 11.6781 10.6912 11.75 10.9037 11.75Z" fill="#292A2E"/>
</g>
</svg>
