<svg width="24" height="24" viewBox="0 0 24 24" fill="none" xmlns="http://www.w3.org/2000/svg">
<mask id="mask0_503_7206" style="mask-type:alpha" maskUnits="userSpaceOnUse" x="0" y="0" width="24" height="24">
<rect width="24" height="24" fill="#D9D9D9"/>
</mask>
<g mask="url(#mask0_503_7206)">
<path d="M20.8269 12.75H18.7114C18.4985 12.75 18.3204 12.6782 18.1769 12.5345C18.0332 12.391 17.9614 12.2129 17.9614 12C17.9614 11.7872 18.0332 11.609 18.1769 11.4655C18.3204 11.3219 18.4985 11.25 18.7114 11.25H20.8269C21.0397 11.25 21.2179 11.3219 21.3614 11.4655C21.505 11.609 21.5769 11.7872 21.5769 12C21.5769 12.2129 21.505 12.391 21.3614 12.5345C21.2179 12.6782 21.0397 12.75 20.8269 12.75ZM16.6671 16.7135C16.7953 16.5379 16.9591 16.4365 17.1586 16.4095C17.3579 16.3827 17.5454 16.4334 17.7211 16.5615L19.4076 17.8288C19.5833 17.9571 19.6845 18.121 19.7114 18.3203C19.7384 18.5196 19.6877 18.7071 19.5594 18.8828C19.4312 19.0583 19.2674 19.1595 19.0681 19.1865C18.8688 19.2135 18.6813 19.1629 18.5056 19.0345L16.8191 17.7673C16.6434 17.6391 16.5422 17.4754 16.5154 17.276C16.4884 17.0767 16.5389 16.8892 16.6671 16.7135ZM19.3691 6.13278L17.6826 7.40003C17.5069 7.5282 17.3194 7.57887 17.1201 7.55203C16.9208 7.52503 16.7569 7.4237 16.6286 7.24803C16.5004 7.07253 16.4499 6.88503 16.4769 6.68553C16.5037 6.4862 16.6049 6.32245 16.7806 6.19428L18.4671 4.92703C18.6428 4.79887 18.8303 4.7482 19.0296 4.77503C19.2289 4.80203 19.3928 4.90328 19.5211 5.07879C19.6493 5.25445 19.6999 5.44195 19.6729 5.64129C19.646 5.84079 19.5448 6.00462 19.3691 6.13278ZM5.24985 14.577H4.2306C3.73193 14.577 3.30602 14.4004 2.95285 14.047C2.59952 13.6939 2.42285 13.268 2.42285 12.7693V11.2308C2.42285 10.7321 2.59952 10.3062 2.95285 9.95303C3.30602 9.5997 3.73193 9.42303 4.2306 9.42303H8.0961L11.2056 7.56353C11.5069 7.3827 11.8108 7.38112 12.1171 7.55878C12.4236 7.73628 12.5769 7.99745 12.5769 8.34228V15.6578C12.5769 16.0026 12.4236 16.2638 12.1171 16.4413C11.8108 16.619 11.5069 16.6174 11.2056 16.4365L8.0961 14.577H6.74985V17.7308C6.74985 17.9436 6.67802 18.1218 6.53435 18.2653C6.39085 18.409 6.21269 18.4808 5.99985 18.4808C5.78702 18.4808 5.60885 18.409 5.46535 18.2653C5.32168 18.1218 5.24985 17.9436 5.24985 17.7308V14.577ZM11.0769 14.5848V9.41528L8.51135 10.923H4.2306C4.15377 10.923 4.08327 10.9551 4.0191 11.0193C3.95494 11.0835 3.92285 11.154 3.92285 11.2308V12.7693C3.92285 12.8461 3.95494 12.9166 4.0191 12.9808C4.08327 13.045 4.15377 13.077 4.2306 13.077H8.51135L11.0769 14.5848ZM13.9614 15.1193V8.88078C14.3537 9.23595 14.6697 9.68337 14.9094 10.223C15.1492 10.7629 15.2691 11.3552 15.2691 12C15.2691 12.6449 15.1492 13.2372 14.9094 13.777C14.6697 14.3167 14.3537 14.7641 13.9614 15.1193Z" fill="#292A2E"/>
</g>
</svg>
