<svg width="24" height="24" viewBox="0 0 24 24" fill="none" xmlns="http://www.w3.org/2000/svg">
<mask id="mask0_503_7207" style="mask-type:alpha" maskUnits="userSpaceOnUse" x="0" y="0" width="24" height="24">
<rect width="24" height="24" fill="#D9D9D9"/>
</mask>
<g mask="url(#mask0_503_7207)">
<path d="M20.8269 12.75H18.7114C18.4989 12.75 18.3208 12.6781 18.1771 12.5343C18.0333 12.3905 17.9614 12.2123 17.9614 11.9998C17.9614 11.7871 18.0333 11.609 18.1771 11.4655C18.3208 11.3219 18.4989 11.25 18.7114 11.25H20.8269C21.0394 11.25 21.2174 11.322 21.3611 11.4658C21.5049 11.6096 21.5769 11.7878 21.5769 12.0003C21.5769 12.213 21.5049 12.391 21.3611 12.5345C21.2174 12.6782 21.0394 12.75 20.8269 12.75ZM16.6671 16.7135C16.7953 16.5379 16.9591 16.4365 17.1586 16.4095C17.3579 16.3827 17.5454 16.4334 17.7211 16.5615L19.4076 17.8288C19.5833 17.9571 19.6845 18.121 19.7114 18.3203C19.7384 18.5196 19.6877 18.7071 19.5594 18.8828C19.4312 19.0583 19.2674 19.1595 19.0681 19.1865C18.8688 19.2135 18.6813 19.1629 18.5056 19.0345L16.8191 17.7673C16.6434 17.6391 16.5422 17.4754 16.5154 17.276C16.4884 17.0767 16.5389 16.8892 16.6671 16.7135ZM19.3691 6.13278L17.6826 7.40003C17.5069 7.5282 17.3194 7.57887 17.1201 7.55203C16.9208 7.52503 16.7569 7.4237 16.6286 7.24803C16.5004 7.07253 16.4499 6.88503 16.4769 6.68553C16.5037 6.4862 16.6049 6.32245 16.7806 6.19428L18.4671 4.92703C18.6428 4.79887 18.8303 4.7482 19.0296 4.77503C19.2289 4.80203 19.3928 4.90328 19.5211 5.07879C19.6493 5.25445 19.6999 5.44195 19.6729 5.64129C19.646 5.84079 19.5448 6.00462 19.3691 6.13278ZM5.24985 14.577H4.2306C3.73343 14.577 3.30785 14.4 2.95385 14.046C2.59985 13.692 2.42285 13.2665 2.42285 12.7693V11.2308C2.42285 10.7336 2.59985 10.308 2.95385 9.95403C3.30785 9.60003 3.73343 9.42303 4.2306 9.42303H8.0961L11.2056 7.56353C11.5069 7.3827 11.8108 7.3817 12.1171 7.56053C12.4236 7.7392 12.5769 7.99978 12.5769 8.34228V15.6578C12.5769 16.0003 12.4236 16.2609 12.1171 16.4395C11.8108 16.6184 11.5069 16.6174 11.2056 16.4365L8.0961 14.577H6.74985V17.7308C6.74985 17.9433 6.67793 18.1214 6.5341 18.265C6.39027 18.4089 6.2121 18.4808 5.9996 18.4808C5.78694 18.4808 5.60885 18.4089 5.46535 18.265C5.32168 18.1214 5.24985 17.9433 5.24985 17.7308V14.577ZM13.9614 15.1193V8.88078C14.3537 9.23595 14.6697 9.6842 14.9094 10.2255C15.1492 10.7669 15.2691 11.3591 15.2691 12.0023C15.2691 12.6456 15.1492 13.2372 14.9094 13.777C14.6697 14.3167 14.3537 14.7641 13.9614 15.1193Z" fill="#292A2E"/>
</g>
</svg>
