<svg width="24" height="24" viewBox="0 0 24 24" fill="none" xmlns="http://www.w3.org/2000/svg">
<mask id="mask0_503_7205" style="mask-type:alpha" maskUnits="userSpaceOnUse" x="0" y="0" width="24" height="24">
<rect width="24" height="24" fill="#D9D9D9"/>
</mask>
<g mask="url(#mask0_503_7205)">
<path d="M4 16.7885V18.6923C4 18.7693 4.03208 18.8398 4.09625 18.9038C4.16025 18.9679 4.23075 19 4.30775 19H19.6923C19.7693 19 19.8398 18.9679 19.9038 18.9038C19.9679 18.8398 20 18.7693 20 18.6923V16.7885H4ZM7.5 6.50002V4.69227C7.5 4.18727 7.675 3.75977 8.025 3.40977C8.375 3.05977 8.80258 2.88477 9.30775 2.88477H14.6923C15.1974 2.88477 15.625 3.05977 15.975 3.40977C16.325 3.75977 16.5 4.18727 16.5 4.69227V6.50002H19.6923C20.1974 6.50002 20.625 6.67502 20.975 7.02502C21.325 7.37502 21.5 7.8026 21.5 8.30777V18.6923C21.5 19.1974 21.325 19.625 20.975 19.975C20.625 20.325 20.1974 20.5 19.6923 20.5H4.30775C3.80258 20.5 3.375 20.325 3.025 19.975C2.675 19.625 2.5 19.1974 2.5 18.6923V8.30777C2.5 7.8026 2.675 7.37502 3.025 7.02502C3.375 6.67502 3.80258 6.50002 4.30775 6.50002H7.5ZM4 14.2115H20V8.30777C20 8.23077 19.9679 8.16026 19.9038 8.09626C19.8398 8.0321 19.7693 8.00002 19.6923 8.00002H16.5V9.05777C16.5 9.2706 16.4282 9.44877 16.2845 9.59227C16.141 9.73593 15.9628 9.80777 15.75 9.80777C15.5372 9.80777 15.359 9.73593 15.2155 9.59227C15.0718 9.44877 15 9.2706 15 9.05777V8.00002H9V9.05777C9 9.2706 8.92817 9.44877 8.7845 9.59227C8.641 9.73593 8.46283 9.80777 8.25 9.80777C8.03717 9.80777 7.859 9.73593 7.7155 9.59227C7.57183 9.44877 7.5 9.2706 7.5 9.05777V8.00002H4.30775C4.23075 8.00002 4.16025 8.0321 4.09625 8.09626C4.03208 8.16026 4 8.23077 4 8.30777V14.2115ZM9 6.50002H15V4.69227C15 4.61543 14.9679 4.54493 14.9038 4.48076C14.8398 4.41676 14.7692 4.38477 14.6923 4.38477H9.30775C9.23075 4.38477 9.16025 4.41676 9.09625 4.48076C9.03208 4.54493 9 4.61543 9 4.69227V6.50002ZM4 18.6923V8.00002H4.30775C4.23075 8.00002 4.16025 8.0321 4.09625 8.09626C4.03208 8.16026 4 8.23077 4 8.30777V18.6923C4 18.7693 4.03208 18.8398 4.09625 18.9038C4.16025 18.9679 4.23075 19 4.30775 19H4V18.6923Z" fill="#292A2E"/>
</g>
</svg>
