<svg width="24" height="24" viewBox="0 0 24 24" fill="none" xmlns="http://www.w3.org/2000/svg">
<mask id="mask0_503_7204" style="mask-type:alpha" maskUnits="userSpaceOnUse" x="0" y="0" width="24" height="24">
<rect width="24" height="24" fill="#D9D9D9"/>
</mask>
<g mask="url(#mask0_503_7204)">
<path d="M7.5 6.50002V4.69227C7.5 4.1936 7.67658 3.76768 8.02975 3.41452C8.38308 3.06135 8.80908 2.88477 9.30775 2.88477H14.6923C15.1909 2.88477 15.6169 3.06135 15.9703 3.41452C16.3234 3.76768 16.5 4.1936 16.5 4.69227V6.50002H19.6923C20.1909 6.50002 20.6169 6.6766 20.9703 7.02977C21.3234 7.3831 21.5 7.8091 21.5 8.30777V18.6923C21.5 19.1909 21.3234 19.6169 20.9703 19.9703C20.6169 20.3234 20.1909 20.5 19.6923 20.5H4.30775C3.80908 20.5 3.38308 20.3234 3.02975 19.9703C2.67658 19.6169 2.5 19.1909 2.5 18.6923V8.30777C2.5 7.8091 2.67658 7.3831 3.02975 7.02977C3.38308 6.6766 3.80908 6.50002 4.30775 6.50002H7.5ZM9 6.50002H15V4.69227C15 4.6026 14.9712 4.52893 14.9135 4.47126C14.8558 4.4136 14.7821 4.38477 14.6923 4.38477H9.30775C9.21792 4.38477 9.14417 4.4136 9.0865 4.47126C9.02883 4.52893 9 4.6026 9 4.69227V6.50002ZM4 16.7885H20V14.2115H4V16.7885Z" fill="#292A2E"/>
</g>
</svg>
