<svg width="24" height="24" viewBox="0 0 24 24" fill="none" xmlns="http://www.w3.org/2000/svg">
<mask id="mask0_503_7199" style="mask-type:alpha" maskUnits="userSpaceOnUse" x="0" y="0" width="24" height="24">
<rect width="24" height="24" fill="#D9D9D9"/>
</mask>
<g mask="url(#mask0_503_7199)">
<path d="M8.03077 9.23446L11.227 3.99621C11.3205 3.84238 11.4351 3.73271 11.5708 3.66721C11.7063 3.60188 11.8493 3.56921 12 3.56921C12.1507 3.56921 12.2938 3.60188 12.4293 3.66721C12.5649 3.73271 12.6795 3.84238 12.773 3.99621L15.9693 9.23446C16.0628 9.38513 16.1095 9.5433 16.1095 9.70896C16.1095 9.8748 16.0711 10.0263 15.9943 10.1635C15.9173 10.3006 15.8115 10.4102 15.677 10.4922C15.5423 10.5742 15.3853 10.6152 15.2058 10.6152H8.79427C8.6141 10.6152 8.45643 10.5738 8.32127 10.491C8.1861 10.4081 8.08093 10.299 8.00577 10.1635C7.92893 10.0283 7.89052 9.87813 7.89052 9.71296C7.89052 9.5478 7.93727 9.3883 8.03077 9.23446ZM17.5023 21.6152C16.3598 21.6152 15.3878 21.2154 14.5865 20.4157C13.7853 19.6159 13.3848 18.6447 13.3848 17.5022C13.3848 16.3597 13.7846 15.3878 14.5843 14.5865C15.3841 13.7853 16.3553 13.3847 17.4978 13.3847C18.6403 13.3847 19.6122 13.7845 20.4135 14.5842C21.2147 15.384 21.6153 16.3552 21.6153 17.4977C21.6153 18.6402 21.2154 19.6121 20.4158 20.4135C19.6159 21.2146 18.6448 21.6152 17.5023 21.6152ZM3.38477 20.2112V14.7862C3.38477 14.53 3.47135 14.3157 3.64452 14.1432C3.81785 13.9709 4.0326 13.8847 4.28877 13.8847H9.71377C9.96993 13.8847 10.1843 13.9713 10.3568 14.1445C10.5291 14.3178 10.6153 14.5325 10.6153 14.7887V20.2137C10.6153 20.4699 10.5287 20.6842 10.3555 20.8567C10.1822 21.029 9.96743 21.1152 9.71127 21.1152H4.28627C4.0301 21.1152 3.81577 21.0286 3.64327 20.8555C3.47093 20.6821 3.38477 20.4674 3.38477 20.2112Z" fill="#292A2E"/>
</g>
</svg>
