<svg width="24" height="24" viewBox="0 0 24 24" fill="none" xmlns="http://www.w3.org/2000/svg">
<mask id="mask0_503_7198" style="mask-type:alpha" maskUnits="userSpaceOnUse" x="0" y="0" width="24" height="24">
<rect width="24" height="24" fill="#D9D9D9"/>
</mask>
<g mask="url(#mask0_503_7198)">
<path d="M3.43064 19.3653L6.70564 10.2598C6.78264 10.0623 6.89897 9.91162 7.05464 9.80779C7.21047 9.70396 7.37881 9.65204 7.55964 9.65204C7.68014 9.65204 7.79231 9.6722 7.89614 9.71254C7.99997 9.75304 8.09864 9.82004 8.19214 9.91354L14.0576 15.7788C14.1511 15.8725 14.2181 15.9712 14.2584 16.075C14.2989 16.1789 14.3191 16.291 14.3191 16.4115C14.3191 16.5924 14.2672 16.7606 14.1634 16.9163C14.0596 17.0721 13.9089 17.1885 13.7114 17.2653L4.60564 20.5403C4.42497 20.6108 4.25097 20.6217 4.08364 20.573C3.91631 20.5244 3.77239 20.4398 3.65189 20.3193C3.53139 20.1988 3.44681 20.0549 3.39814 19.8875C3.34931 19.7202 3.36014 19.5461 3.43064 19.3653ZM22.3421 7.27504C22.2241 7.39937 22.086 7.46154 21.9276 7.46154C21.7693 7.46154 21.6312 7.40262 21.5134 7.28479L21.4479 7.21929C21.1761 6.94746 20.846 6.81154 20.4576 6.81154C20.0691 6.81154 19.739 6.94746 19.4671 7.21929L14.4016 12.2848C14.2838 12.4026 14.1457 12.4631 13.9874 12.4663C13.8291 12.4696 13.6877 12.4091 13.5634 12.2848C13.4391 12.1603 13.3769 12.0205 13.3769 11.8655C13.3769 11.7104 13.4391 11.5706 13.5634 11.4463L18.6286 6.38079C19.13 5.87962 19.7364 5.62904 20.4479 5.62904C21.1594 5.62904 21.7658 5.87962 22.2671 6.38079L22.3421 6.45579C22.4601 6.57379 22.5191 6.71037 22.5191 6.86554C22.5191 7.02054 22.4601 7.15704 22.3421 7.27504ZM9.87864 4.40004C10.003 4.2757 10.1427 4.21354 10.2979 4.21354C10.4531 4.21354 10.5928 4.2757 10.7171 4.40004L10.9286 4.61154C11.462 5.14487 11.7286 5.78462 11.7286 6.53079C11.7286 7.27695 11.462 7.91671 10.9286 8.45004L10.7479 8.63079C10.6301 8.74879 10.492 8.80937 10.3336 8.81254C10.1753 8.8157 10.0339 8.75512 9.90939 8.63079C9.78506 8.50645 9.72289 8.36671 9.72289 8.21154C9.72289 8.05654 9.78506 7.91679 9.90939 7.79229L10.0904 7.61154C10.3877 7.31421 10.5364 6.95395 10.5364 6.53079C10.5364 6.10779 10.3877 5.74754 10.0904 5.45004L9.87864 5.23854C9.76081 5.12054 9.70022 4.98237 9.69689 4.82404C9.69372 4.66571 9.75431 4.52437 9.87864 4.40004ZM13.7364 2.66929C13.8607 2.54496 14.0005 2.48279 14.1556 2.48279C14.3108 2.48279 14.4506 2.54496 14.5749 2.66929L15.6401 3.73479C16.148 4.24246 16.4019 4.85204 16.4019 5.56354C16.4019 6.27504 16.148 6.88462 15.6401 7.39229L12.5749 10.4578C12.4569 10.5758 12.3187 10.6364 12.1604 10.6395C12.0021 10.6427 11.8607 10.5821 11.7364 10.4578C11.6121 10.3335 11.5499 10.1937 11.5499 10.0385C11.5499 9.88337 11.6121 9.74362 11.7364 9.61929L14.8019 6.55404C15.0736 6.2822 15.2094 5.95204 15.2094 5.56354C15.2094 5.17504 15.0736 4.84487 14.8019 4.57304L13.7364 3.50779C13.6184 3.38979 13.5578 3.25162 13.5546 3.09329C13.5515 2.93495 13.6121 2.79362 13.7364 2.66929ZM20.8516 14.1115C20.7273 14.2359 20.5876 14.298 20.4324 14.298C20.2774 14.298 20.1377 14.2359 20.0134 14.1115L19.2364 13.3348C18.9326 13.0308 18.5607 12.8788 18.1209 12.8788C17.6812 12.8788 17.3095 13.0308 17.0056 13.3348L16.2286 14.1115C16.1106 14.2295 15.9725 14.2901 15.8141 14.2933C15.6558 14.2965 15.5145 14.2359 15.3901 14.1115C15.2658 13.9872 15.2036 13.8475 15.2036 13.6923C15.2036 13.5373 15.2658 13.3975 15.3901 13.273L16.1671 12.4963C16.7068 11.9565 17.3581 11.6865 18.1209 11.6865C18.8837 11.6865 19.5351 11.9565 20.0749 12.4963L20.8516 13.273C20.9696 13.391 21.0302 13.5292 21.0334 13.6875C21.0366 13.8459 20.976 13.9872 20.8516 14.1115Z" fill="#292A2E"/>
</g>
</svg>
