<svg width="24" height="24" viewBox="0 0 24 24" fill="none" xmlns="http://www.w3.org/2000/svg">
<mask id="mask0_854_758" style="mask-type:alpha" maskUnits="userSpaceOnUse" x="0" y="0" width="24" height="24">
<rect width="24" height="24" fill="#D9D9D9"/>
</mask>
<g mask="url(#mask0_854_758)">
<path d="M8.6155 12.5C8.40267 12.5 8.22442 12.5718 8.08075 12.7155C7.93725 12.859 7.8655 13.0372 7.8655 13.25V16.5C7.8655 16.7128 7.93725 16.891 8.08075 17.0345C8.22442 17.1782 8.40267 17.25 8.6155 17.25C8.82817 17.25 9.00633 17.1782 9.15 17.0345C9.2935 16.891 9.36525 16.7128 9.36525 16.5V13.25C9.36525 13.0372 9.2935 12.859 9.15 12.7155C9.00633 12.5718 8.82817 12.5 8.6155 12.5ZM16.3845 7.5C16.1718 7.5 15.9937 7.57183 15.85 7.7155C15.7065 7.859 15.6348 8.03717 15.6348 8.25V16.5C15.6348 16.7128 15.7065 16.891 15.85 17.0345C15.9937 17.1782 16.1718 17.25 16.3845 17.25C16.5973 17.25 16.7756 17.1782 16.9193 17.0345C17.0628 16.891 17.1345 16.7128 17.1345 16.5V8.25C17.1345 8.03717 17.0628 7.859 16.9193 7.7155C16.7756 7.57183 16.5973 7.5 16.3845 7.5ZM12.5 14.5C12.2872 14.5 12.109 14.5718 11.9655 14.7155C11.8218 14.859 11.75 15.0372 11.75 15.25V16.5C11.75 16.7128 11.8218 16.891 11.9655 17.0345C12.109 17.1782 12.2872 17.25 12.5 17.25C12.7128 17.25 12.891 17.1782 13.0345 17.0345C13.1782 16.891 13.25 16.7128 13.25 16.5V15.25C13.25 15.0372 13.1782 14.859 13.0345 14.7155C12.891 14.5718 12.7128 14.5 12.5 14.5ZM5.80775 21C5.30258 21 4.875 20.825 4.525 20.475C4.175 20.125 4 19.6974 4 19.1923V5.80775C4 5.30258 4.175 4.875 4.525 4.525C4.875 4.175 5.30258 4 5.80775 4H19.1923C19.6974 4 20.125 4.175 20.475 4.525C20.825 4.875 21 5.30258 21 5.80775V19.1923C21 19.6974 20.825 20.125 20.475 20.475C20.125 20.825 19.6974 21 19.1923 21H5.80775ZM5.80775 19.5H19.1923C19.2692 19.5 19.3398 19.4679 19.4038 19.4038C19.4679 19.3398 19.5 19.2692 19.5 19.1923V5.80775C19.5 5.73075 19.4679 5.66025 19.4038 5.59625C19.3398 5.53208 19.2692 5.5 19.1923 5.5H5.80775C5.73075 5.5 5.66025 5.53208 5.59625 5.59625C5.53208 5.66025 5.5 5.73075 5.5 5.80775V19.1923C5.5 19.2692 5.53208 19.3398 5.59625 19.4038C5.66025 19.4679 5.73075 19.5 5.80775 19.5ZM12.5 12.25C12.7128 12.25 12.891 12.1782 13.0345 12.0345C13.1782 11.891 13.25 11.7128 13.25 11.5C13.25 11.2872 13.1782 11.109 13.0345 10.9655C12.891 10.8218 12.7128 10.75 12.5 10.75C12.2872 10.75 12.109 10.8218 11.9655 10.9655C11.8218 11.109 11.75 11.2872 11.75 11.5C11.75 11.7128 11.8218 11.891 11.9655 12.0345C12.109 12.1782 12.2872 12.25 12.5 12.25Z" fill="#292A2E"/>
</g>
</svg>
