<svg width="24" height="24" viewBox="0 0 24 24" fill="none" xmlns="http://www.w3.org/2000/svg">
<mask id="mask0_503_7112" style="mask-type:alpha" maskUnits="userSpaceOnUse" x="0" y="0" width="24" height="24">
<rect width="24" height="24" fill="#D9D9D9"/>
</mask>
<g mask="url(#mask0_503_7112)">
<path d="M21 20.2885V5.05775C21 4.96792 20.9712 4.89417 20.9135 4.8365C20.8558 4.77883 20.7821 4.75 20.6923 4.75H3.30775C3.21792 4.75 3.14417 4.77883 3.0865 4.8365C3.02883 4.89417 3 4.96792 3 5.05775V12C3 12.2125 2.92808 12.3906 2.78425 12.5343C2.64042 12.6781 2.46225 12.75 2.24975 12.75C2.03708 12.75 1.859 12.6781 1.7155 12.5343C1.57183 12.3906 1.5 12.2125 1.5 12V5.05775C1.5 4.56058 1.677 4.135 2.031 3.781C2.385 3.427 2.81058 3.25 3.30775 3.25H20.6923C21.1894 3.25 21.615 3.427 21.969 3.781C22.323 4.135 22.5 4.56058 22.5 5.05775V18.6058C22.5 19.0404 22.3554 19.4183 22.0663 19.7393C21.7773 20.0604 21.4218 20.2435 21 20.2885ZM9 13.6923C8.0375 13.6923 7.21358 13.3496 6.52825 12.6643C5.84275 11.9788 5.5 11.1548 5.5 10.1923C5.5 9.22975 5.84275 8.40583 6.52825 7.7205C7.21358 7.035 8.0375 6.69225 9 6.69225C9.9625 6.69225 10.7864 7.035 11.4718 7.7205C12.1573 8.40583 12.5 9.22975 12.5 10.1923C12.5 11.1548 12.1573 11.9788 11.4718 12.6643C10.7864 13.3496 9.9625 13.6923 9 13.6923ZM9 12.1923C9.55 12.1923 10.0208 11.9964 10.4125 11.6048C10.8042 11.2131 11 10.7423 11 10.1923C11 9.64225 10.8042 9.17142 10.4125 8.77975C10.0208 8.38808 9.55 8.19225 9 8.19225C8.45 8.19225 7.97917 8.38808 7.5875 8.77975C7.19583 9.17142 7 9.64225 7 10.1923C7 10.7423 7.19583 11.2131 7.5875 11.6048C7.97917 11.9964 8.45 12.1923 9 12.1923ZM3.01925 21.3078C2.59742 21.3078 2.23875 21.16 1.94325 20.8645C1.64775 20.5688 1.5 20.2102 1.5 19.7885V19.0845C1.5 18.5948 1.633 18.1413 1.899 17.724C2.165 17.3067 2.5205 16.9858 2.9655 16.7615C3.95383 16.277 4.95092 15.9136 5.95675 15.6713C6.96258 15.4289 7.977 15.3077 9 15.3077C10.023 15.3077 11.0374 15.4289 12.0433 15.6713C13.0491 15.9136 14.0462 16.277 15.0345 16.7615C15.4795 16.9858 15.835 17.3067 16.101 17.724C16.367 18.1413 16.5 18.5948 16.5 19.0845V19.7885C16.5 20.2102 16.3523 20.5688 16.0568 20.8645C15.7613 21.16 15.4026 21.3078 14.9808 21.3078H3.01925ZM3 19.8078H15V19.0845C15 18.882 14.9413 18.6945 14.824 18.522C14.7067 18.3497 14.5474 18.209 14.3462 18.1C13.4846 17.6757 12.6061 17.3542 11.7107 17.1355C10.8152 16.917 9.91167 16.8077 9 16.8077C8.08833 16.8077 7.18475 16.917 6.28925 17.1355C5.39392 17.3542 4.51542 17.6757 3.65375 18.1C3.45258 18.209 3.29333 18.3497 3.176 18.522C3.05867 18.6945 3 18.882 3 19.0845V19.8078Z" fill="#292A2E"/>
</g>
</svg>
