<svg width="24" height="24" viewBox="0 0 24 24" fill="none" xmlns="http://www.w3.org/2000/svg">
<mask id="mask0_503_7109" style="mask-type:alpha" maskUnits="userSpaceOnUse" x="0" y="0" width="24" height="24">
<rect width="24" height="24" fill="#D9D9D9"/>
</mask>
<g mask="url(#mask0_503_7109)">
<path d="M12 16.75C10.809 16.75 9.78017 16.3708 8.9135 15.6125C8.04683 14.8542 7.50967 13.9 7.302 12.75H3.25C3.0375 12.75 2.85942 12.6781 2.71575 12.5342C2.57192 12.3904 2.5 12.2122 2.5 11.9997C2.5 11.7871 2.57192 11.609 2.71575 11.4655C2.85942 11.3218 3.0375 11.25 3.25 11.25H7.302C7.50967 10.1 8.04683 9.14583 8.9135 8.3875C9.78017 7.62917 10.809 7.25 12 7.25C13.191 7.25 14.2214 7.62917 15.0913 8.3875C15.9613 9.14583 16.4968 10.1 16.698 11.25H20.75C20.9625 11.25 21.1406 11.3219 21.2843 11.4658C21.4281 11.6096 21.5 11.7878 21.5 12.0003C21.5 12.2129 21.4281 12.391 21.2843 12.5345C21.1406 12.6782 20.9625 12.75 20.75 12.75H16.698C16.4968 13.9 15.9613 14.8542 15.0913 15.6125C14.2214 16.3708 13.191 16.75 12 16.75ZM12 15.25C12.8975 15.25 13.6635 14.9327 14.298 14.298C14.9327 13.6635 15.25 12.8975 15.25 12C15.25 11.1025 14.9327 10.3365 14.298 9.702C13.6635 9.06733 12.8975 8.75 12 8.75C11.1025 8.75 10.3365 9.06733 9.702 9.702C9.06733 10.3365 8.75 11.1025 8.75 12C8.75 12.8975 9.06733 13.6635 9.702 14.298C10.3365 14.9327 11.1025 15.25 12 15.25Z" fill="#292A2E"/>
</g>
</svg>
