<svg width="24" height="24" viewBox="0 0 24 24" fill="none" xmlns="http://www.w3.org/2000/svg">
<mask id="mask0_503_7187" style="mask-type:alpha" maskUnits="userSpaceOnUse" x="0" y="0" width="24" height="24">
<rect width="24" height="24" fill="#D9D9D9"/>
</mask>
<g mask="url(#mask0_503_7187)">
<path d="M12.0286 20.5C9.65939 20.5 7.65048 19.6757 6.00181 18.027C4.35314 16.3782 3.52881 14.3692 3.52881 12C3.52881 10.027 4.13931 8.27317 5.36031 6.7385C6.58148 5.20384 8.20806 4.21475 10.2401 3.77125C10.4504 3.71859 10.6356 3.72367 10.7958 3.7865C10.9561 3.84934 11.0863 3.94292 11.1863 4.06725C11.2863 4.19175 11.3453 4.34275 11.3633 4.52025C11.3811 4.69775 11.3395 4.875 11.2383 5.052C11.0318 5.42767 10.8786 5.81867 10.7786 6.225C10.6786 6.6315 10.6286 7.0565 10.6286 7.5C10.6286 9.141 11.2016 10.5346 12.3478 11.6808C13.494 12.8269 14.8876 13.4 16.5286 13.4C17.0197 13.4 17.489 13.3378 17.9363 13.2135C18.3838 13.0892 18.7755 12.9449 19.1113 12.7808C19.2755 12.7091 19.4357 12.6838 19.5921 12.7048C19.7486 12.7259 19.8826 12.7782 19.9941 12.8615C20.1159 12.9448 20.2066 13.0587 20.2661 13.203C20.3257 13.3472 20.3325 13.5167 20.2863 13.7115C19.9311 15.6782 18.9744 17.3013 17.4161 18.5808C15.8577 19.8603 14.0619 20.5 12.0286 20.5Z" fill="#292A2E"/>
</g>
</svg>
