<svg width="24" height="24" viewBox="0 0 24 24" fill="none" xmlns="http://www.w3.org/2000/svg">
<mask id="mask0_503_7093" style="mask-type:alpha" maskUnits="userSpaceOnUse" x="0" y="0" width="24" height="24">
<rect width="24" height="24" fill="#D9D9D9"/>
</mask>
<g mask="url(#mask0_503_7093)">
<path d="M15.9615 19.5C15.749 19.5 15.5709 19.4281 15.4273 19.2843C15.2834 19.1404 15.2115 18.9622 15.2115 18.7498C15.2115 18.5371 15.2834 18.359 15.4273 18.2155C15.5709 18.0718 15.749 18 15.9615 18H17.6923C17.7821 18 17.8558 17.9712 17.9135 17.9135C17.9712 17.8558 18 17.7821 18 17.6923V6.30775C18 6.21792 17.9712 6.14417 17.9135 6.0865C17.8558 6.02883 17.7821 6 17.6923 6H15.9615C15.749 6 15.5709 5.92808 15.4273 5.78425C15.2834 5.64042 15.2115 5.46225 15.2115 5.24975C15.2115 5.03708 15.2834 4.859 15.4273 4.7155C15.5709 4.57183 15.749 4.5 15.9615 4.5H17.6923C18.1894 4.5 18.615 4.677 18.969 5.031C19.323 5.385 19.5 5.81058 19.5 6.30775V17.6923C19.5 18.1894 19.323 18.615 18.969 18.969C18.615 19.323 18.1894 19.5 17.6923 19.5H15.9615ZM6.30775 19.5C5.81058 19.5 5.385 19.323 5.031 18.969C4.677 18.615 4.5 18.1894 4.5 17.6923V6.30775C4.5 5.81058 4.677 5.385 5.031 5.031C5.385 4.677 5.81058 4.5 6.30775 4.5H8.0385C8.251 4.5 8.42908 4.57192 8.57275 4.71575C8.71658 4.85958 8.7885 5.03775 8.7885 5.25025C8.7885 5.46292 8.71658 5.641 8.57275 5.7845C8.42908 5.92817 8.251 6 8.0385 6H6.30775C6.21792 6 6.14417 6.02883 6.0865 6.0865C6.02883 6.14417 6 6.21792 6 6.30775V17.6923C6 17.7821 6.02883 17.8558 6.0865 17.9135C6.14417 17.9712 6.21792 18 6.30775 18H8.0385C8.251 18 8.42908 18.0719 8.57275 18.2158C8.71658 18.3596 8.7885 18.5378 8.7885 18.7503C8.7885 18.9629 8.71658 19.141 8.57275 19.2845C8.42908 19.4282 8.251 19.5 8.0385 19.5H6.30775Z" fill="#292A2E"/>
</g>
</svg>
