<svg width="24" height="24" viewBox="0 0 24 24" fill="none" xmlns="http://www.w3.org/2000/svg">
<mask id="mask0_503_7086" style="mask-type:alpha" maskUnits="userSpaceOnUse" x="0" y="0" width="24" height="24">
<rect width="24" height="24" fill="#D9D9D9"/>
</mask>
<g mask="url(#mask0_503_7086)">
<path d="M11.0963 21.2057L4.404 17.3537C4.11933 17.1897 3.8975 16.9706 3.7385 16.6962C3.5795 16.4217 3.5 16.1204 3.5 15.7922V8.20772C3.5 7.87956 3.5795 7.57822 3.7385 7.30372C3.8975 7.02939 4.11933 6.81022 4.404 6.64622L11.0963 2.79422C11.3808 2.63006 11.682 2.54797 12 2.54797C12.318 2.54797 12.6193 2.63006 12.9038 2.79422L19.596 6.64622C19.8807 6.81022 20.1025 7.02939 20.2615 7.30372C20.4205 7.57822 20.5 7.87956 20.5 8.20772V15.7922C20.5 16.1204 20.4205 16.4217 20.2615 16.6962C20.1025 16.9706 19.8807 17.1897 19.596 17.3537L12.9038 21.2057C12.6193 21.3699 12.318 21.452 12 21.452C11.682 21.452 11.3808 21.3699 11.0963 21.2057ZM11.25 12.4307V19.5692L11.8652 19.923C11.9102 19.9486 11.9552 19.9615 12 19.9615C12.0448 19.9615 12.0898 19.9486 12.1348 19.923L12.75 19.5692V12.4307L19 8.81147V8.16547C19 8.13331 18.992 8.10122 18.976 8.06922C18.96 8.03722 18.9359 8.01156 18.9038 7.99222L18.175 7.56922L12 11.1385L5.825 7.56922L5.09625 7.99222C5.06408 8.01156 5.04 8.03722 5.024 8.06922C5.008 8.10122 5 8.13331 5 8.16547V8.81147L11.25 12.4307Z" fill="#292A2E"/>
</g>
</svg>
