<svg width="24" height="24" viewBox="0 0 24 24" fill="none" xmlns="http://www.w3.org/2000/svg">
<mask id="mask0_503_7077" style="mask-type:alpha" maskUnits="userSpaceOnUse" x="0" y="0" width="24" height="24">
<rect width="24" height="24" fill="#D9D9D9"/>
</mask>
<g mask="url(#mask0_503_7077)">
<path d="M6.5038 12L9.12705 14.623C9.27572 14.7718 9.34905 14.9459 9.34705 15.1453C9.34522 15.3446 9.27188 15.5218 9.12705 15.677C8.97188 15.832 8.79363 15.9121 8.5923 15.9173C8.39113 15.9224 8.21297 15.8474 8.0578 15.6923L4.99805 12.6328C4.81738 12.4519 4.72705 12.241 4.72705 12C4.72705 11.759 4.81738 11.5481 4.99805 11.3673L8.0578 8.30775C8.20647 8.15908 8.38305 8.08567 8.58755 8.0875C8.79205 8.0895 8.97188 8.168 9.12705 8.323C9.27188 8.47817 9.34688 8.65383 9.35205 8.85C9.35705 9.04617 9.28205 9.22183 9.12705 9.377L6.5038 12ZM7.00005 19.75V20.6923C7.00005 20.7693 7.03213 20.8398 7.0963 20.9038C7.1603 20.9679 7.2308 21 7.3078 21H16.6923C16.7693 21 16.8398 20.9679 16.9038 20.9038C16.968 20.8398 17.0001 20.7693 17.0001 20.6923V19.75H7.00005ZM7.00005 4.25H17.0001V3.30775C17.0001 3.23075 16.968 3.16025 16.9038 3.09625C16.8398 3.03208 16.7693 3 16.6923 3H7.3078C7.2308 3 7.1603 3.03208 7.0963 3.09625C7.03213 3.16025 7.00005 3.23075 7.00005 3.30775V4.25ZM17.4963 12L14.873 9.377C14.7244 9.22817 14.6511 9.05408 14.6531 8.85475C14.6549 8.65542 14.7282 8.47817 14.873 8.323C15.0282 8.168 15.2065 8.08792 15.4078 8.08275C15.609 8.07758 15.7871 8.15258 15.9423 8.30775L19.0021 11.3673C19.1827 11.5481 19.2731 11.759 19.2731 12C19.2731 12.241 19.1827 12.4519 19.0021 12.6328L15.9423 15.6923C15.7936 15.8409 15.6171 15.9143 15.4126 15.9125C15.2081 15.9105 15.0282 15.832 14.873 15.677C14.7282 15.5218 14.6532 15.3462 14.6481 15.15C14.6431 14.9538 14.7181 14.7782 14.873 14.623L17.4963 12ZM7.3078 22.5C6.80263 22.5 6.37505 22.325 6.02505 21.975C5.67505 21.625 5.50005 21.1974 5.50005 20.6923V17.75C5.50005 17.5372 5.57188 17.359 5.71555 17.2155C5.85905 17.0718 6.03722 17 6.25005 17C6.46288 17 6.64105 17.0718 6.78455 17.2155C6.92822 17.359 7.00005 17.5372 7.00005 17.75V18.25H17.0001V17.75C17.0001 17.5372 17.0719 17.359 17.2156 17.2155C17.3591 17.0718 17.5372 17 17.7501 17C17.9629 17 18.1411 17.0718 18.2846 17.2155C18.4282 17.359 18.5001 17.5372 18.5001 17.75V20.6923C18.5001 21.1974 18.3251 21.625 17.9751 21.975C17.6251 22.325 17.1975 22.5 16.6923 22.5H7.3078ZM7.3078 1.5H16.6923C17.1975 1.5 17.6251 1.675 17.9751 2.025C18.3251 2.375 18.5001 2.80258 18.5001 3.30775V6.25C18.5001 6.46283 18.4282 6.641 18.2846 6.7845C18.1411 6.92817 17.9629 7 17.7501 7C17.5372 7 17.3591 6.92817 17.2156 6.7845C17.0719 6.641 17.0001 6.46283 17.0001 6.25V5.75H7.00005V6.25C7.00005 6.46283 6.92822 6.641 6.78455 6.7845C6.64105 6.92817 6.46288 7 6.25005 7C6.03722 7 5.85905 6.92817 5.71555 6.7845C5.57188 6.641 5.50005 6.46283 5.50005 6.25V3.30775C5.50005 2.80258 5.67505 2.375 6.02505 2.025C6.37505 1.675 6.80263 1.5 7.3078 1.5Z" fill="#292A2E"/>
</g>
</svg>
