<svg width="24" height="24" viewBox="0 0 24 24" fill="none" xmlns="http://www.w3.org/2000/svg">
<mask id="mask0_503_7080" style="mask-type:alpha" maskUnits="userSpaceOnUse" x="0" y="0" width="24" height="24">
<rect width="24" height="24" fill="#D9D9D9"/>
</mask>
<g mask="url(#mask0_503_7080)">
<path d="M4.42322 20.5C3.91822 20.5 3.49072 20.325 3.14072 19.975C2.79072 19.625 2.61572 19.1974 2.61572 18.6923V5.30775C2.61572 4.80258 2.79072 4.375 3.14072 4.025C3.49072 3.675 3.91822 3.5 4.42322 3.5H17.808C18.313 3.5 18.7405 3.675 19.0905 4.025C19.4405 4.375 19.6155 4.80258 19.6155 5.30775V7.38475H20.6347C20.8472 7.38475 21.0254 7.45658 21.1692 7.60025C21.3129 7.74408 21.3847 7.92233 21.3847 8.135C21.3847 8.3475 21.3129 8.52558 21.1692 8.66925C21.0254 8.81275 20.8472 8.8845 20.6347 8.8845H19.6155V11.25H20.6347C20.8472 11.25 21.0254 11.3219 21.1692 11.4658C21.3129 11.6096 21.3847 11.7878 21.3847 12.0003C21.3847 12.2129 21.3129 12.391 21.1692 12.5345C21.0254 12.6782 20.8472 12.75 20.6347 12.75H19.6155V15.1155H20.6347C20.8472 15.1155 21.0254 15.1873 21.1692 15.331C21.3129 15.4748 21.3847 15.6531 21.3847 15.8658C21.3847 16.0782 21.3129 16.2563 21.1692 16.4C21.0254 16.5435 20.8472 16.6152 20.6347 16.6152H19.6155V18.6923C19.6155 19.1974 19.4405 19.625 19.0905 19.975C18.7405 20.325 18.313 20.5 17.808 20.5H4.42322ZM4.42322 19H17.808C17.8848 19 17.9553 18.9679 18.0195 18.9038C18.0836 18.8398 18.1157 18.7692 18.1157 18.6923V5.30775C18.1157 5.23075 18.0836 5.16025 18.0195 5.09625C17.9553 5.03208 17.8848 5 17.808 5H4.42322C4.34639 5 4.27589 5.03208 4.21172 5.09625C4.14772 5.16025 4.11572 5.23075 4.11572 5.30775V18.6923C4.11572 18.7692 4.14772 18.8398 4.21172 18.9038C4.27589 18.9679 4.34639 19 4.42322 19ZM7.40472 16.6152H10.1177C10.3741 16.6152 10.5884 16.5287 10.7607 16.3555C10.9332 16.1823 11.0195 15.9677 11.0195 15.7115V14C11.0195 13.7438 10.9328 13.5292 10.7595 13.356C10.5861 13.1828 10.3713 13.0963 10.115 13.0963H7.40197C7.14564 13.0963 6.93131 13.1828 6.75897 13.356C6.58647 13.5292 6.50022 13.7438 6.50022 14V15.7115C6.50022 15.9677 6.58689 16.1823 6.76022 16.3555C6.93356 16.5287 7.14839 16.6152 7.40472 16.6152ZM13.1157 9.90375H14.8272C15.0832 9.90375 15.2979 9.81717 15.4712 9.644C15.6444 9.47083 15.731 9.25617 15.731 9V8.2885C15.731 8.03233 15.6444 7.81767 15.4712 7.6445C15.2979 7.47133 15.0832 7.38475 14.8272 7.38475H13.1157C12.8596 7.38475 12.6449 7.47133 12.4717 7.6445C12.2984 7.81767 12.2117 8.03233 12.2117 8.2885V9C12.2117 9.25617 12.2984 9.47083 12.4717 9.644C12.6449 9.81717 12.8596 9.90375 13.1157 9.90375ZM7.40472 11.9038H10.1177C10.3741 11.9038 10.5884 11.8171 10.7607 11.6438C10.9332 11.4704 11.0195 11.2557 11.0195 10.9995V8.28625C11.0195 8.03008 10.9328 7.81575 10.7595 7.64325C10.5861 7.47092 10.3713 7.38475 10.115 7.38475H7.40197C7.14564 7.38475 6.93131 7.47142 6.75897 7.64475C6.58647 7.81808 6.50022 8.03283 6.50022 8.289V11.0023C6.50022 11.2584 6.58689 11.4728 6.76022 11.6453C6.93356 11.8176 7.14839 11.9038 7.40472 11.9038ZM13.1157 16.6152H14.8272C15.0832 16.6152 15.2979 16.5287 15.4712 16.3555C15.6444 16.1823 15.731 15.9677 15.731 15.7115V12C15.731 11.7438 15.6444 11.5292 15.4712 11.356C15.2979 11.1828 15.0832 11.0962 14.8272 11.0962H13.1157C12.8596 11.0962 12.6449 11.1828 12.4717 11.356C12.2984 11.5292 12.2117 11.7438 12.2117 12V15.7115C12.2117 15.9677 12.2984 16.1823 12.4717 16.3555C12.6449 16.5287 12.8596 16.6152 13.1157 16.6152Z" fill="#292A2E"/>
</g>
</svg>
