<svg width="24" height="24" viewBox="0 0 24 24" fill="none" xmlns="http://www.w3.org/2000/svg">
<mask id="mask0_503_7072" style="mask-type:alpha" maskUnits="userSpaceOnUse" x="0" y="0" width="24" height="24">
<rect width="24" height="24" fill="#D9D9D9"/>
</mask>
<g mask="url(#mask0_503_7072)">
<path d="M7.50125 6.55774C7.15425 6.55774 6.859 6.67916 6.6155 6.92199C6.37183 7.16482 6.25 7.45966 6.25 7.80649C6.25 8.15349 6.37142 8.44874 6.61425 8.69224C6.85708 8.93591 7.15192 9.05774 7.49875 9.05774C7.84575 9.05774 8.141 8.93632 8.3845 8.69349C8.62817 8.45066 8.75 8.15574 8.75 7.80874C8.75 7.46191 8.62858 7.16666 8.38575 6.92299C8.14292 6.67949 7.84808 6.55774 7.50125 6.55774ZM7.50125 15.9422C7.15425 15.9422 6.859 16.0637 6.6155 16.3065C6.37183 16.5493 6.25 16.8442 6.25 17.1912C6.25 17.5381 6.37142 17.8333 6.61425 18.077C6.85708 18.3205 7.15192 18.4422 7.49875 18.4422C7.84575 18.4422 8.141 18.3208 8.3845 18.078C8.62817 17.8352 8.75 17.5403 8.75 17.1935C8.75 16.8465 8.62858 16.5512 8.38575 16.3077C8.14292 16.0641 7.84808 15.9422 7.50125 15.9422ZM4.38475 3.80774H19.6152C19.8659 3.80774 20.0761 3.89232 20.2458 4.06149C20.4153 4.23049 20.5 4.43999 20.5 4.68999V10.8652C20.5 11.1359 20.4153 11.3607 20.2458 11.5395C20.0761 11.7183 19.8659 11.8077 19.6152 11.8077H4.38475C4.13408 11.8077 3.92392 11.7183 3.75425 11.5395C3.58475 11.3607 3.5 11.1359 3.5 10.8652V4.68999C3.5 4.43999 3.58475 4.23049 3.75425 4.06149C3.92392 3.89232 4.13408 3.80774 4.38475 3.80774ZM4.38475 13.1922H19.596C19.8602 13.1922 20.0768 13.2807 20.246 13.4577C20.4153 13.6346 20.5 13.8538 20.5 14.1155V20.2307C20.5 20.5141 20.4153 20.7452 20.246 20.924C20.0768 21.1028 19.8602 21.1922 19.596 21.1922H4.404C4.13983 21.1922 3.92317 21.1028 3.754 20.924C3.58467 20.7452 3.5 20.5141 3.5 20.2307V14.1155C3.5 13.8538 3.58142 13.6346 3.74425 13.4577C3.90708 13.2807 4.12058 13.1922 4.38475 13.1922Z" fill="#292A2E"/>
</g>
</svg>
