<svg width="24" height="24" viewBox="0 0 24 24" fill="none" xmlns="http://www.w3.org/2000/svg">
<mask id="mask0_503_7071" style="mask-type:alpha" maskUnits="userSpaceOnUse" x="0" y="0" width="24" height="24">
<rect width="24" height="24" fill="#D9D9D9"/>
</mask>
<g mask="url(#mask0_503_7071)">
<path d="M4.25 20.5C4.03717 20.5 3.859 20.4282 3.7155 20.2845C3.57183 20.141 3.5 19.9628 3.5 19.75C3.5 19.5372 3.57183 19.359 3.7155 19.2155C3.859 19.0718 4.03717 19 4.25 19H5.5V5.30775C5.5 4.80258 5.675 4.375 6.025 4.025C6.375 3.675 6.80258 3.5 7.30775 3.5H16.6923C17.1974 3.5 17.625 3.675 17.975 4.025C18.325 4.375 18.5 4.80258 18.5 5.30775V19H19.75C19.9628 19 20.141 19.0718 20.2845 19.2155C20.4282 19.359 20.5 19.5372 20.5 19.75C20.5 19.9628 20.4282 20.141 20.2845 20.2845C20.141 20.4282 19.9628 20.5 19.75 20.5H4.25ZM7 19H17V5.30775C17 5.23075 16.9679 5.16025 16.9038 5.09625C16.8398 5.03208 16.7692 5 16.6923 5H7.30775C7.23075 5 7.16025 5.03208 7.09625 5.09625C7.03208 5.16025 7 5.23075 7 5.30775V19ZM14.1155 12.8845C14.3603 12.8845 14.5689 12.7983 14.7413 12.626C14.9138 12.4535 15 12.2448 15 12C15 11.7552 14.9138 11.5465 14.7413 11.374C14.5689 11.2017 14.3603 11.1155 14.1155 11.1155C13.8705 11.1155 13.6618 11.2017 13.4895 11.374C13.317 11.5465 13.2308 11.7552 13.2308 12C13.2308 12.2448 13.317 12.4535 13.4895 12.626C13.6618 12.7983 13.8705 12.8845 14.1155 12.8845Z" fill="#292A2E"/>
</g>
</svg>
