<svg width="24" height="24" viewBox="0 0 24 24" fill="none" xmlns="http://www.w3.org/2000/svg">
<mask id="mask0_503_7070" style="mask-type:alpha" maskUnits="userSpaceOnUse" x="0" y="0" width="24" height="24">
<rect width="24" height="24" fill="#D9D9D9"/>
</mask>
<g mask="url(#mask0_503_7070)">
<path d="M4.25 20.5C4.0375 20.5 3.85942 20.4281 3.71575 20.2843C3.57192 20.1404 3.5 19.9622 3.5 19.7498C3.5 19.5371 3.57192 19.359 3.71575 19.2155C3.85942 19.0718 4.0375 19 4.25 19H5.5V5.30775C5.5 4.80258 5.675 4.375 6.025 4.025C6.375 3.675 6.80258 3.5 7.30775 3.5H16.6923C17.1974 3.5 17.625 3.675 17.975 4.025C18.325 4.375 18.5 4.80258 18.5 5.30775V19H19.75C19.9625 19 20.1406 19.0719 20.2843 19.2158C20.4281 19.3596 20.5 19.5378 20.5 19.7502C20.5 19.9629 20.4281 20.141 20.2843 20.2845C20.1406 20.4282 19.9625 20.5 19.75 20.5H4.25ZM14.1155 12.8845C14.3603 12.8845 14.5689 12.7983 14.7413 12.626C14.9138 12.4535 15 12.2448 15 12C15 11.7552 14.9138 11.5465 14.7413 11.374C14.5689 11.2017 14.3603 11.1155 14.1155 11.1155C13.8705 11.1155 13.6618 11.2017 13.4895 11.374C13.317 11.5465 13.2308 11.7552 13.2308 12C13.2308 12.2448 13.317 12.4535 13.4895 12.626C13.6618 12.7983 13.8705 12.8845 14.1155 12.8845Z" fill="#292A2E"/>
</g>
</svg>
