<svg width="24" height="24" viewBox="0 0 24 24" fill="none" xmlns="http://www.w3.org/2000/svg">
<mask id="mask0_503_7066" style="mask-type:alpha" maskUnits="userSpaceOnUse" x="0" y="0" width="24" height="24">
<rect width="24" height="24" fill="#D9D9D9"/>
</mask>
<g mask="url(#mask0_503_7066)">
<path d="M3.10575 20.7115C3.01092 20.7243 2.91542 20.716 2.81925 20.6865C2.72308 20.657 2.63975 20.6166 2.56925 20.5653C2.42692 20.4526 2.34775 20.3068 2.33175 20.128C2.31575 19.9492 2.35775 19.7917 2.45775 19.6558C2.62058 19.4251 2.8395 19.2716 3.1145 19.1952C3.3895 19.1189 3.67825 19.0936 3.98075 19.1193C4.15258 19.0436 4.34008 19.0096 4.54325 19.0173C4.74642 19.0249 4.93775 19.0127 5.11725 18.9807C5.28142 18.9384 5.39425 18.8728 5.45575 18.7838C5.51725 18.6946 5.56983 18.5769 5.6135 18.4307C5.643 18.0834 5.67475 17.7306 5.70875 17.3723C5.74275 17.0139 5.8475 16.6809 6.023 16.3733C6.19867 16.0399 6.42717 15.7838 6.7085 15.6048C6.99 15.4259 7.31408 15.3141 7.68075 15.2693C7.85258 15.1936 8.04267 15.1596 8.251 15.1673C8.45933 15.1749 8.65325 15.1627 8.83275 15.1307C8.99675 15.0884 9.10858 15.0227 9.16825 14.9337C9.22792 14.8446 9.2795 14.7269 9.323 14.5807C9.3525 14.2334 9.38267 13.8806 9.4135 13.5223C9.44433 13.1639 9.5475 12.8309 9.723 12.5232C9.89867 12.1899 10.1272 11.9338 10.4085 11.7548C10.69 11.5759 11.0141 11.4641 11.3808 11.4192C11.5526 11.3436 11.7427 11.3113 11.951 11.3223C12.1593 11.3331 12.3533 11.3225 12.5328 11.2905C12.6967 11.2482 12.8086 11.1808 12.8682 11.0885C12.9279 10.9962 12.9795 10.8769 13.023 10.7308C13.0525 10.3834 13.0852 10.0306 13.1212 9.67225C13.1571 9.31392 13.2628 8.98092 13.4385 8.67325C13.6142 8.33992 13.8443 8.08375 14.1288 7.90475C14.4134 7.72592 14.7391 7.61408 15.1058 7.56925C15.2776 7.49358 15.4677 7.46125 15.676 7.47225C15.8843 7.48308 16.0783 7.4725 16.2578 7.4405C16.4218 7.39817 16.5336 7.33083 16.5932 7.2385C16.6529 7.14617 16.7045 7.02692 16.748 6.88075C16.7775 6.53342 16.8102 6.18058 16.8462 5.82225C16.8821 5.46392 16.9878 5.13092 17.1635 4.82325C17.3392 4.48992 17.5693 4.23542 17.8538 4.05975C18.1384 3.88408 18.4641 3.77058 18.8307 3.71925C19.0026 3.64358 19.1927 3.60867 19.401 3.6145C19.6093 3.62017 19.8032 3.607 19.9827 3.575C20.1981 3.47117 20.432 3.41767 20.6845 3.4145C20.9372 3.41133 21.1571 3.43408 21.3443 3.48275C21.4929 3.56342 21.5849 3.69 21.6203 3.8625C21.6554 4.035 21.6294 4.19558 21.5422 4.34425C21.3794 4.57492 21.1605 4.731 20.8855 4.8125C20.6105 4.89383 20.3218 4.92167 20.0193 4.896C19.8474 4.97167 19.6573 5.00567 19.449 4.998C19.2407 4.99033 19.0468 5.0025 18.8673 5.0345C18.7033 5.07683 18.5914 5.14417 18.5318 5.2365C18.4721 5.32883 18.4205 5.44808 18.377 5.59425C18.3475 5.94158 18.3148 6.29442 18.2788 6.65275C18.2429 7.01108 18.1372 7.34408 17.9615 7.65175C17.7858 7.98508 17.5557 8.24125 17.2712 8.42025C16.9866 8.59908 16.6609 8.71092 16.2943 8.75575C16.1224 8.83142 15.9349 8.86375 15.7318 8.85275C15.5286 8.84192 15.3372 8.8525 15.1578 8.8845C14.9936 8.92683 14.8808 8.99417 14.8193 9.0865C14.7578 9.17883 14.7052 9.29808 14.6615 9.44425C14.632 9.79158 14.6003 10.1444 14.5663 10.5027C14.5323 10.8611 14.4275 11.1941 14.252 11.5017C14.0763 11.8249 13.8494 12.0785 13.5712 12.2625C13.2931 12.4465 12.9707 12.5609 12.604 12.6058C12.4257 12.6814 12.2349 12.7163 12.0317 12.7105C11.8286 12.7048 11.6372 12.718 11.4578 12.75C11.3001 12.7923 11.1873 12.8602 11.1193 12.9537C11.0513 13.0474 10.9987 13.1641 10.9615 13.3038C10.9385 13.6447 10.9084 13.9944 10.8713 14.3527C10.8339 14.7111 10.7275 15.0441 10.552 15.3518C10.3763 15.6851 10.1453 15.9412 9.85875 16.1202C9.57225 16.2991 9.24567 16.4109 8.879 16.4557C8.70717 16.5314 8.518 16.5679 8.3115 16.5652C8.10517 16.5627 7.91225 16.5775 7.73275 16.6095C7.57508 16.6518 7.46642 16.7166 7.40675 16.8038C7.34708 16.8909 7.2955 17.0076 7.252 17.1538C7.22883 17.4948 7.19775 17.8444 7.15875 18.2027C7.11958 18.5611 7.01217 18.8941 6.8365 19.2017C6.66083 19.5351 6.43075 19.7913 6.14625 19.9703C5.86158 20.1491 5.53592 20.2609 5.16925 20.3057C4.99742 20.3814 4.80992 20.4179 4.60675 20.4153C4.40358 20.4128 4.21225 20.4275 4.03275 20.4595C3.87508 20.5018 3.71767 20.5384 3.5605 20.5693C3.4035 20.5999 3.25192 20.6473 3.10575 20.7115ZM6 10.5C4.75767 10.5 3.69708 10.0606 2.81825 9.18175C1.93942 8.30292 1.5 7.24233 1.5 6C1.5 4.741 1.93942 3.67625 2.81825 2.80575C3.69708 1.93525 4.75767 1.5 6 1.5C7.259 1.5 8.32375 1.93525 9.19425 2.80575C10.0647 3.67625 10.5 4.741 10.5 6C10.5 7.24233 10.0647 8.30292 9.19425 9.18175C8.32375 10.0606 7.259 10.5 6 10.5ZM16.3077 22.5C15.8091 22.5 15.3831 22.3234 15.0297 21.9703C14.6766 21.6169 14.5 21.1909 14.5 20.6923V16.3077C14.5 15.8091 14.6766 15.3831 15.0297 15.0297C15.3831 14.6766 15.8091 14.5 16.3077 14.5H20.6923C21.1909 14.5 21.6169 14.6766 21.9703 15.0297C22.3234 15.3831 22.5 15.8091 22.5 16.3077V20.6923C22.5 21.1909 22.3234 21.6169 21.9703 21.9703C21.6169 22.3234 21.1909 22.5 20.6923 22.5H16.3077Z" fill="#292A2E"/>
</g>
</svg>
