<svg width="24" height="24" viewBox="0 0 24 24" fill="none" xmlns="http://www.w3.org/2000/svg">
<mask id="mask0_503_7061" style="mask-type:alpha" maskUnits="userSpaceOnUse" x="0" y="0" width="24" height="24">
<rect width="24" height="24" fill="#D9D9D9"/>
</mask>
<g mask="url(#mask0_503_7061)">
<path d="M8.0015 20.75C6.68767 20.75 5.56733 20.2868 4.6405 19.3605C3.7135 18.4343 3.25 17.3142 3.25 16V6.123C3.25 5.31917 3.51217 4.63942 4.0365 4.08375C4.56083 3.52792 5.22175 3.25 6.01925 3.25C6.81658 3.25 7.47108 3.50742 7.98275 4.02225C8.49425 4.53692 8.75 5.19617 8.75 6C8.75 6.773 8.48333 7.42458 7.95 7.95475C7.41667 8.48492 6.76667 8.75 6 8.75H4.75V16C4.75 16.9028 5.06608 17.6702 5.69825 18.302C6.33042 18.934 7.09808 19.25 8.00125 19.25C8.90425 19.25 9.6715 18.934 10.303 18.302C10.9343 17.6702 11.25 16.9028 11.25 16V8C11.25 6.68583 11.713 5.56567 12.639 4.6395C13.565 3.71317 14.6848 3.25 15.9985 3.25C17.3123 3.25 18.4327 3.71317 19.3595 4.6395C20.2865 5.56567 20.75 6.68583 20.75 8V18C20.75 18.773 20.4628 19.4246 19.8885 19.9548C19.3142 20.4849 18.6437 20.75 17.877 20.75C17.1103 20.75 16.4808 20.4833 15.9885 19.95C15.4962 19.4167 15.25 18.7651 15.25 17.9952C15.25 17.2254 15.5167 16.5754 16.05 16.0452C16.5833 15.5151 17.2333 15.25 18 15.25H19.25V8C19.25 7.09717 18.9339 6.32983 18.3018 5.698C17.6696 5.066 16.9019 4.75 15.9988 4.75C15.0958 4.75 14.3285 5.066 13.697 5.698C13.0657 6.32983 12.75 7.09717 12.75 8V16C12.75 17.3142 12.287 18.4343 11.361 19.3605C10.435 20.2868 9.31517 20.75 8.0015 20.75ZM4.75 7.25H6C6.3475 7.25 6.64267 7.1285 6.8855 6.8855C7.1285 6.64267 7.25 6.3475 7.25 6C7.25 5.6525 7.1285 5.35733 6.8855 5.1145C6.64267 4.8715 6.3475 4.75 6 4.75C5.6525 4.75 5.35733 4.8715 5.1145 5.1145C4.8715 5.35733 4.75 5.6525 4.75 6V7.25ZM18 19.25C18.3475 19.25 18.6427 19.1285 18.8855 18.8855C19.1285 18.6427 19.25 18.3475 19.25 18V16.75H18C17.6525 16.75 17.3573 16.8715 17.1145 17.1145C16.8715 17.3573 16.75 17.6525 16.75 18C16.75 18.3475 16.8715 18.6427 17.1145 18.8855C17.3573 19.1285 17.6525 19.25 18 19.25Z" fill="#292A2E"/>
</g>
</svg>
