<svg width="24" height="24" viewBox="0 0 24 24" fill="none" xmlns="http://www.w3.org/2000/svg">
<mask id="mask0_503_7060" style="mask-type:alpha" maskUnits="userSpaceOnUse" x="0" y="0" width="24" height="24">
<rect width="24" height="24" fill="#D9D9D9"/>
</mask>
<g mask="url(#mask0_503_7060)">
<path d="M9.09225 21.5C8.91792 21.5 8.76542 21.4519 8.63475 21.3557C8.50392 21.2596 8.41158 21.1288 8.35775 20.9635L5.84625 12.75H3.25C3.0375 12.75 2.85942 12.6781 2.71575 12.5343C2.57192 12.3904 2.5 12.2122 2.5 11.9998C2.5 11.7871 2.57192 11.609 2.71575 11.4655C2.85942 11.3218 3.0375 11.25 3.25 11.25H6.40375C6.56658 11.25 6.71375 11.2965 6.84525 11.3895C6.97658 11.4823 7.06917 11.6115 7.123 11.777L8.975 17.7962L12.2463 3.10775C12.2834 2.93042 12.3704 2.78483 12.5073 2.671C12.6441 2.557 12.7995 2.5 12.9735 2.5C13.1475 2.5 13.3023 2.55417 13.4378 2.6625C13.5731 2.77067 13.6593 2.91392 13.6962 3.09225L16.0057 13.0213L17.6077 7.89225C17.6616 7.72692 17.7542 7.59617 17.8857 7.5C18.0171 7.40383 18.1642 7.35575 18.327 7.35575C18.4923 7.35575 18.6359 7.39967 18.7577 7.4875C18.8794 7.57533 18.9723 7.69683 19.0365 7.852L20.3153 11.25H20.7402C20.9527 11.25 21.1309 11.3219 21.2747 11.4658C21.4184 11.6096 21.4902 11.7878 21.4902 12.0003C21.4902 12.2129 21.4184 12.391 21.2747 12.5345C21.1309 12.6782 20.9527 12.75 20.7402 12.75H19.7788C19.6134 12.75 19.4692 12.7063 19.3463 12.619C19.2231 12.5317 19.1308 12.4132 19.0693 12.2635L18.3828 10.4115L16.6038 16.1077C16.5499 16.2731 16.457 16.4064 16.325 16.5078C16.193 16.6089 16.0392 16.6544 15.8635 16.6443C15.6878 16.6339 15.5362 16.5743 15.4085 16.4653C15.2808 16.3564 15.1979 16.2187 15.1598 16.052L12.9712 6.64025L9.8115 20.9078C9.768 21.0833 9.68083 21.2226 9.55 21.3258C9.41917 21.4289 9.26658 21.487 9.09225 21.5Z" fill="#292A2E"/>
</g>
</svg>
