<svg width="24" height="24" viewBox="0 0 24 24" fill="none" xmlns="http://www.w3.org/2000/svg">
<mask id="mask0_503_7059" style="mask-type:alpha" maskUnits="userSpaceOnUse" x="0" y="0" width="24" height="24">
<rect width="24" height="24" fill="#D9D9D9"/>
</mask>
<g mask="url(#mask0_503_7059)">
<path d="M11.9997 14.0385C11.7871 14.0385 11.609 13.9665 11.4655 13.8227C11.3218 13.679 11.25 13.501 11.25 13.2885V6.28845C11.25 6.07595 11.3219 5.89779 11.4658 5.75395C11.6096 5.61029 11.7878 5.53845 12.0003 5.53845C12.2129 5.53845 12.391 5.61029 12.5345 5.75395C12.6782 5.89779 12.75 6.07595 12.75 6.28845V13.2885C12.75 13.501 12.6781 13.679 12.5342 13.8227C12.3904 13.9665 12.2122 14.0385 11.9997 14.0385ZM11.9997 18.4615C11.7871 18.4615 11.609 18.3895 11.4655 18.2457C11.3218 18.1019 11.25 17.9237 11.25 17.7112C11.25 17.4985 11.3219 17.3205 11.4658 17.177C11.6096 17.0333 11.7878 16.9615 12.0003 16.9615C12.2129 16.9615 12.391 17.0334 12.5345 17.1772C12.6782 17.321 12.75 17.4992 12.75 17.7117C12.75 17.9244 12.6781 18.1025 12.5342 18.246C12.3904 18.3896 12.2122 18.4615 11.9997 18.4615Z" fill="#292A2E"/>
</g>
</svg>
