<svg width="24" height="24" viewBox="0 0 24 24" fill="none" xmlns="http://www.w3.org/2000/svg">
<mask id="mask0_503_7056" style="mask-type:alpha" maskUnits="userSpaceOnUse" x="0" y="0" width="24" height="24">
<rect width="24" height="24" fill="#D9D9D9"/>
</mask>
<g mask="url(#mask0_503_7056)">
<path d="M3.30775 22.5C2.80258 22.5 2.375 22.325 2.025 21.975C1.675 21.625 1.5 21.1974 1.5 20.6923V18.6345C1.5 18.422 1.57192 18.2439 1.71575 18.1003C1.85958 17.9564 2.03775 17.8845 2.25025 17.8845C2.46292 17.8845 2.641 17.9564 2.7845 18.1003C2.92817 18.2439 3 18.422 3 18.6345V20.6923C3 20.7821 3.02883 20.8558 3.0865 20.9135C3.14417 20.9712 3.21792 21 3.30775 21H5.3655C5.578 21 5.75608 21.0719 5.89975 21.2157C6.04358 21.3596 6.1155 21.5378 6.1155 21.7502C6.1155 21.9629 6.04358 22.141 5.89975 22.2845C5.75608 22.4282 5.578 22.5 5.3655 22.5H3.30775ZM20.6923 22.5H18.6345C18.422 22.5 18.2439 22.4281 18.1003 22.2843C17.9564 22.1404 17.8845 21.9622 17.8845 21.7498C17.8845 21.5371 17.9564 21.359 18.1003 21.2155C18.2439 21.0718 18.422 21 18.6345 21H20.6923C20.7821 21 20.8558 20.9712 20.9135 20.9135C20.9712 20.8558 21 20.7821 21 20.6923V18.6345C21 18.422 21.0719 18.2439 21.2157 18.1003C21.3596 17.9564 21.5378 17.8845 21.7502 17.8845C21.9629 17.8845 22.141 17.9564 22.2845 18.1003C22.4282 18.2439 22.5 18.422 22.5 18.6345V20.6923C22.5 21.1974 22.325 21.625 21.975 21.975C21.625 22.325 21.1974 22.5 20.6923 22.5ZM12 18.1152C10.3103 18.1152 8.76192 17.6775 7.35475 16.802C5.94775 15.9263 4.83525 14.7122 4.01725 13.1595C3.92692 12.9788 3.85917 12.7943 3.814 12.606C3.76883 12.4177 3.74625 12.2256 3.74625 12.0297C3.74625 11.8189 3.768 11.6132 3.8115 11.4125C3.85517 11.2118 3.92375 11.0212 4.01725 10.8405C4.83525 9.28783 5.94775 8.07367 7.35475 7.198C8.76192 6.3225 10.3103 5.88475 12 5.88475C13.6897 5.88475 15.2381 6.3225 16.6453 7.198C18.0522 8.07367 19.1647 9.28783 19.9827 10.8405C20.0763 11.0212 20.1448 11.2077 20.1885 11.4C20.232 11.5923 20.2538 11.7923 20.2538 12C20.2538 12.2077 20.232 12.4077 20.1885 12.6C20.1448 12.7923 20.0763 12.9788 19.9827 13.1595C19.1647 14.7122 18.0522 15.9263 16.6453 16.802C15.2381 17.6775 13.6897 18.1152 12 18.1152ZM12 15.1827C12.8833 15.1827 13.6346 14.8731 14.2538 14.2537C14.8731 13.6346 15.1827 12.8833 15.1827 12C15.1827 11.1167 14.8731 10.3654 14.2538 9.74625C13.6346 9.12692 12.8833 8.81725 12 8.81725C11.1167 8.81725 10.3654 9.12692 9.74625 9.74625C9.12692 10.3654 8.81725 11.1167 8.81725 12C8.81725 12.8833 9.12692 13.6346 9.74625 14.2537C10.3654 14.8731 11.1167 15.1827 12 15.1827ZM11.9995 13.6827C11.5318 13.6827 11.1346 13.5191 10.8077 13.1918C10.4808 12.8644 10.3173 12.467 10.3173 11.9995C10.3173 11.5318 10.4809 11.1346 10.8082 10.8077C11.1356 10.4808 11.533 10.3173 12.0005 10.3173C12.4682 10.3173 12.8654 10.4809 13.1923 10.8083C13.5192 11.1356 13.6827 11.533 13.6827 12.0005C13.6827 12.4682 13.5191 12.8654 13.1917 13.1923C12.8644 13.5192 12.467 13.6827 11.9995 13.6827ZM5.3655 3H3.30775C3.21792 3 3.14417 3.02883 3.0865 3.0865C3.02883 3.14417 3 3.21792 3 3.30775V6.1155H1.5V3.30775C1.5 2.80258 1.675 2.375 2.025 2.025C2.375 1.675 2.80258 1.5 3.30775 1.5H5.3655C5.578 1.5 5.75608 1.57192 5.89975 1.71575C6.04358 1.85958 6.1155 2.03775 6.1155 2.25025C6.1155 2.46292 6.04358 2.641 5.89975 2.7845C5.75608 2.92817 5.578 3 5.3655 3ZM22.5 3.30775V5.3655C22.5 5.578 22.4281 5.75608 22.2843 5.89975C22.1404 6.04358 21.9622 6.1155 21.7498 6.1155C21.5371 6.1155 21.359 6.04358 21.2155 5.89975C21.0718 5.75608 21 5.578 21 5.3655V3.30775C21 3.21792 20.9712 3.14417 20.9135 3.0865C20.8558 3.02883 20.7821 3 20.6923 3H18.6345C18.422 3 18.2439 2.92808 18.1003 2.78425C17.9564 2.64042 17.8845 2.46225 17.8845 2.24975C17.8845 2.03708 17.9564 1.859 18.1003 1.7155C18.2439 1.57183 18.422 1.5 18.6345 1.5H20.6923C21.1974 1.5 21.625 1.675 21.975 2.025C22.325 2.375 22.5 2.80258 22.5 3.30775Z" fill="#292A2E"/>
</g>
</svg>
