<svg width="24" height="24" viewBox="0 0 24 24" fill="none" xmlns="http://www.w3.org/2000/svg">
<mask id="mask0_503_7054" style="mask-type:alpha" maskUnits="userSpaceOnUse" x="0" y="0" width="24" height="24">
<rect width="24" height="24" fill="#D9D9D9"/>
</mask>
<g mask="url(#mask0_503_7054)">
<path d="M7.14815 15.0192C7.67132 15.0192 8.14348 14.866 8.56465 14.5595C8.98582 14.2531 9.2829 13.8519 9.4559 13.3557L9.80215 12.273C10.0751 11.4538 10.0036 10.7003 9.58765 10.0125C9.17165 9.32463 8.57907 8.98071 7.8099 8.98071H4.26565L4.74065 12.8962C4.82398 13.4987 5.0929 14.0031 5.5474 14.4095C6.00173 14.816 6.53532 15.0192 7.14815 15.0192ZM16.8521 15.0192C17.465 15.0192 17.9986 14.816 18.4529 14.4095C18.9074 14.0031 19.1763 13.4987 19.2596 12.8962L19.7346 8.98071H16.2154C15.4462 8.98071 14.8521 9.32721 14.4329 10.0202C14.0136 10.713 13.9405 11.4691 14.2136 12.2885L14.5444 13.3557C14.7174 13.8519 15.0145 14.2531 15.4356 14.5595C15.8568 14.866 16.329 15.0192 16.8521 15.0192ZM7.14815 16.5192C6.16365 16.5192 5.30057 16.1935 4.5589 15.5422C3.81723 14.8909 3.38615 14.0697 3.26565 13.0787L2.75015 8.98071H2.57715C2.36432 8.98071 2.18607 8.90896 2.0424 8.76546C1.8989 8.6218 1.82715 8.44355 1.82715 8.23071C1.82715 8.01788 1.8989 7.83971 2.0424 7.69621C2.18607 7.55255 2.36432 7.48071 2.57715 7.48071H7.8099C8.46623 7.48071 9.07131 7.64871 9.62515 7.98471C10.179 8.32055 10.6213 8.7808 10.9521 9.36546H13.0731C13.404 8.7808 13.8463 8.32055 14.4001 7.98471C14.954 7.64871 15.5591 7.48071 16.2154 7.48071H21.4231C21.636 7.48071 21.8142 7.55255 21.9579 7.69621C22.1014 7.83971 22.1731 8.01788 22.1731 8.23071C22.1731 8.44355 22.1014 8.6218 21.9579 8.76546C21.8142 8.90896 21.636 8.98071 21.4231 8.98071H21.2501L20.7346 13.0787C20.6141 14.0697 20.1831 14.8909 19.4414 15.5422C18.6997 16.1935 17.8366 16.5192 16.8521 16.5192C15.9983 16.5192 15.2322 16.2756 14.5539 15.7885C13.8757 15.3013 13.3995 14.6558 13.1251 13.852L12.7789 12.7845C12.7392 12.6486 12.7027 12.507 12.6694 12.3595C12.6361 12.2121 12.6027 11.9961 12.5694 11.7115H11.4309C11.3976 11.9628 11.3642 12.1638 11.3309 12.3145C11.2976 12.465 11.2611 12.6082 11.2214 12.7442L10.8751 13.827C10.6071 14.6308 10.1325 15.2805 9.45115 15.776C8.76965 16.2715 8.00198 16.5192 7.14815 16.5192Z" fill="#292A2E"/>
</g>
</svg>
