<svg width="24" height="24" viewBox="0 0 24 24" fill="none" xmlns="http://www.w3.org/2000/svg">
<mask id="mask0_503_7050" style="mask-type:alpha" maskUnits="userSpaceOnUse" x="0" y="0" width="24" height="24">
<rect width="24" height="24" fill="#D9D9D9"/>
</mask>
<g mask="url(#mask0_503_7050)">
<path d="M9.00007 16.25C8.65007 16.25 8.35424 16.1292 8.11257 15.8875C7.87091 15.6459 7.75007 15.35 7.75007 15C7.75007 14.65 7.87091 14.3542 8.11257 14.1125C8.35424 13.8709 8.65007 13.75 9.00007 13.75C9.35007 13.75 9.64591 13.8709 9.88757 14.1125C10.1292 14.3542 10.2501 14.65 10.2501 15C10.2501 15.35 10.1292 15.6459 9.88757 15.8875C9.64591 16.1292 9.35007 16.25 9.00007 16.25ZM15.0001 16.25C14.6501 16.25 14.3542 16.1292 14.1126 15.8875C13.8709 15.6459 13.7501 15.35 13.7501 15C13.7501 14.65 13.8709 14.3542 14.1126 14.1125C14.3542 13.8709 14.6501 13.75 15.0001 13.75C15.3501 13.75 15.6459 13.8709 15.8876 14.1125C16.1292 14.3542 16.2501 14.65 16.2501 15C16.2501 15.35 16.1292 15.6459 15.8876 15.8875C15.6459 16.1292 15.3501 16.25 15.0001 16.25ZM12.0001 22C14.2334 22 16.1251 21.225 17.6751 19.675C19.2251 18.125 20.0001 16.2334 20.0001 14C20.0001 13.6 19.9751 13.2125 19.9251 12.8375C19.8751 12.4625 19.7834 12.1 19.6501 11.75C19.3001 11.8334 18.9501 11.8959 18.6001 11.9375C18.2501 11.9792 17.8834 12 17.5001 12C15.9834 12 14.5501 11.675 13.2001 11.025C11.8501 10.375 10.7001 9.46669 9.75007 8.30003C9.21674 9.60003 8.45424 10.7292 7.46257 11.6875C6.47091 12.6459 5.31674 13.3667 4.00007 13.85V14C4.00007 16.2334 4.77507 18.125 6.32507 19.675C7.87507 21.225 9.76674 22 12.0001 22ZM12.0018 23.5C10.6878 23.5 9.45274 23.2506 8.29657 22.7518C7.14041 22.2531 6.13474 21.5763 5.27957 20.7213C4.42441 19.8663 3.74732 18.8609 3.24832 17.705C2.74949 16.5492 2.50007 15.3142 2.50007 14C2.50007 13.6269 2.52224 13.257 2.56657 12.8905C2.61074 12.5239 2.68024 12.1719 2.77507 11.8348C2.02641 11.4078 1.42482 10.8164 0.970324 10.0608C0.515824 9.30528 0.288574 8.46903 0.288574 7.55203C0.288574 6.16869 0.771908 4.99369 1.73857 4.02703C2.70524 3.06036 3.88024 2.57703 5.26357 2.57703C6.12774 2.57703 6.92266 2.78153 7.64832 3.19053C8.37382 3.59953 8.96157 4.15653 9.41157 4.86153C9.81924 4.74103 10.2415 4.65069 10.6783 4.59053C11.115 4.53019 11.5556 4.50003 12.0001 4.50003C13.3142 4.50003 14.5492 4.74936 15.7051 5.24803C16.8609 5.74669 17.8663 6.42344 18.7213 7.27828C19.5763 8.13311 20.2532 9.13836 20.7518 10.294C21.2507 11.4497 21.5001 12.6844 21.5001 13.9983C21.5001 15.3123 21.2507 16.5474 20.7521 17.7035C20.2534 18.8597 19.5767 19.8654 18.7218 20.7205C17.867 21.5757 16.8617 22.2528 15.7061 22.7518C14.5504 23.2506 13.3157 23.5 12.0018 23.5Z" fill="#292A2E"/>
</g>
</svg>
