<svg width="24" height="24" viewBox="0 0 24 24" fill="none" xmlns="http://www.w3.org/2000/svg">
<mask id="mask0_503_7049" style="mask-type:alpha" maskUnits="userSpaceOnUse" x="0" y="0" width="24" height="24">
<rect width="24" height="24" fill="#D9D9D9"/>
</mask>
<g mask="url(#mask0_503_7049)">
<path d="M12.0015 19.5C9.90817 19.5 8.13458 18.7736 6.68075 17.3207C5.22692 15.8679 4.5 14.0948 4.5 12.0015C4.5 9.90817 5.22642 8.13458 6.67925 6.68075C8.13208 5.22692 9.90517 4.5 11.9985 4.5C14.0918 4.5 15.8654 5.22642 17.3193 6.67925C18.7731 8.13208 19.5 9.90517 19.5 11.9985C19.5 14.0918 18.7736 15.8654 17.3208 17.3193C15.8679 18.7731 14.0948 19.5 12.0015 19.5ZM12 18C13.6667 18 15.0833 17.4167 16.25 16.25C17.4167 15.0833 18 13.6667 18 12C18 11.7133 17.9792 11.4309 17.9375 11.1528C17.8958 10.8746 17.8333 10.6006 17.75 10.3307C17.4937 10.3872 17.2364 10.4296 16.9783 10.4578C16.7203 10.4859 16.4622 10.5 16.2042 10.5C15.1206 10.5 14.0926 10.2823 13.1202 9.847C12.1477 9.41183 11.2929 8.79167 10.5558 7.9865C10.1148 8.943 9.50033 9.776 8.7125 10.4855C7.92467 11.1952 7.0205 11.7147 6 12.0442C6.03083 13.6904 6.627 15.0946 7.7885 16.2568C8.95 17.4189 10.3538 18 12 18ZM9.598 13.875C9.32233 13.875 9.09125 13.7817 8.90475 13.5953C8.71825 13.4088 8.625 13.1777 8.625 12.902C8.625 12.6263 8.71825 12.3927 8.90475 12.201C9.09125 12.0093 9.32233 11.9135 9.598 11.9135C9.87367 11.9135 10.1073 12.0093 10.299 12.201C10.4907 12.3927 10.5865 12.6263 10.5865 12.902C10.5865 13.1777 10.4907 13.4088 10.299 13.5953C10.1073 13.7817 9.87367 13.875 9.598 13.875ZM14.4057 13.875C14.1301 13.875 13.899 13.7817 13.7125 13.5953C13.526 13.4088 13.4327 13.1777 13.4327 12.902C13.4327 12.6263 13.526 12.3927 13.7125 12.201C13.899 12.0093 14.1301 11.9135 14.4057 11.9135C14.6814 11.9135 14.9151 12.0093 15.1068 12.201C15.2984 12.3927 15.3943 12.6263 15.3943 12.902C15.3943 13.1777 15.2984 13.4088 15.1068 13.5953C14.9151 13.7817 14.6814 13.875 14.4057 13.875ZM1.5 5.25V3.30775C1.5 2.80258 1.675 2.375 2.025 2.025C2.375 1.675 2.80258 1.5 3.30775 1.5H5.25C5.4625 1.5 5.64067 1.57192 5.7845 1.71575C5.92817 1.85958 6 2.03775 6 2.25025C6 2.46292 5.92817 2.641 5.7845 2.7845C5.64067 2.92817 5.4625 3 5.25 3H3.30775C3.23075 3 3.16025 3.03208 3.09625 3.09625C3.03208 3.16025 3 3.23075 3 3.30775V5.25C3 5.4625 2.92808 5.64067 2.78425 5.7845C2.64042 5.92817 2.46225 6 2.24975 6C2.03708 6 1.859 5.92817 1.7155 5.7845C1.57183 5.64067 1.5 5.4625 1.5 5.25ZM5.25 22.5H3.30775C2.80258 22.5 2.375 22.325 2.025 21.975C1.675 21.625 1.5 21.1974 1.5 20.6923V18.75C1.5 18.5375 1.57192 18.3593 1.71575 18.2155C1.85958 18.0718 2.03775 18 2.25025 18C2.46292 18 2.641 18.0718 2.7845 18.2155C2.92817 18.3593 3 18.5375 3 18.75V20.6923C3 20.7693 3.03208 20.8398 3.09625 20.9038C3.16025 20.9679 3.23075 21 3.30775 21H5.25C5.4625 21 5.64067 21.0719 5.7845 21.2157C5.92817 21.3596 6 21.5378 6 21.7502C6 21.9629 5.92817 22.141 5.7845 22.2845C5.64067 22.4282 5.4625 22.5 5.25 22.5ZM20.6923 22.5H18.75C18.5375 22.5 18.3593 22.4281 18.2155 22.2843C18.0718 22.1404 18 21.9622 18 21.7498C18 21.5371 18.0718 21.359 18.2155 21.2155C18.3593 21.0718 18.5375 21 18.75 21H20.6923C20.7693 21 20.8398 20.9679 20.9038 20.9038C20.9679 20.8398 21 20.7693 21 20.6923V18H22.5V20.6923C22.5 21.1974 22.325 21.625 21.975 21.975C21.625 22.325 21.1974 22.5 20.6923 22.5ZM21 5.25V3.30775C21 3.23075 20.9679 3.16025 20.9038 3.09625C20.8398 3.03208 20.7693 3 20.6923 3H18.75C18.5375 3 18.3593 2.92808 18.2155 2.78425C18.0718 2.64042 18 2.46225 18 2.24975C18 2.03708 18.0718 1.859 18.2155 1.7155C18.3593 1.57183 18.5375 1.5 18.75 1.5H20.6923C21.1974 1.5 21.625 1.675 21.975 2.025C22.325 2.375 22.5 2.80258 22.5 3.30775V5.25C22.5 5.4625 22.4281 5.64067 22.2843 5.7845C22.1404 5.92817 21.9622 6 21.7498 6C21.5371 6 21.359 5.92817 21.2155 5.7845C21.0718 5.64067 21 5.4625 21 5.25Z" fill="#292A2E"/>
</g>
</svg>
