<svg width="24" height="24" viewBox="0 0 24 24" fill="none" xmlns="http://www.w3.org/2000/svg">
<mask id="mask0_503_7047" style="mask-type:alpha" maskUnits="userSpaceOnUse" x="0" y="0" width="24" height="24">
<rect width="24" height="24" fill="#D9D9D9"/>
</mask>
<g mask="url(#mask0_503_7047)">
<path d="M3.29834 15.6152V8.38471C3.29834 8.11021 3.38867 7.89096 3.56934 7.72696C3.75017 7.5628 3.96109 7.48071 4.20209 7.48071C4.28542 7.48071 4.37067 7.48905 4.45784 7.50571C4.54501 7.52238 4.62709 7.56088 4.70409 7.62121L10.1346 11.252C10.2718 11.3455 10.3731 11.455 10.4386 11.5807C10.5039 11.7064 10.5366 11.8461 10.5366 12C10.5366 12.1538 10.5039 12.2935 10.4386 12.4192C10.3731 12.5449 10.2718 12.6545 10.1346 12.748L4.70409 16.3787C4.62709 16.439 4.54501 16.4775 4.45784 16.4942C4.37067 16.5109 4.28542 16.5192 4.20209 16.5192C3.96109 16.5192 3.75017 16.4371 3.56934 16.273C3.38867 16.109 3.29834 15.8897 3.29834 15.6152ZM12.7406 15.6152V8.38471C12.7406 8.11021 12.8309 7.89096 13.0116 7.72696C13.1924 7.5628 13.4033 7.48071 13.6443 7.48071C13.7277 7.48071 13.8129 7.48905 13.9001 7.50571C13.9873 7.52238 14.0693 7.56088 14.1463 7.62121L19.5768 11.252C19.7142 11.3455 19.8155 11.455 19.8808 11.5807C19.9462 11.7064 19.9788 11.8461 19.9788 12C19.9788 12.1538 19.9462 12.2935 19.8808 12.4192C19.8155 12.5449 19.7142 12.6545 19.5768 12.748L14.1463 16.3787C14.0693 16.439 13.9873 16.4775 13.9001 16.4942C13.8129 16.5109 13.7277 16.5192 13.6443 16.5192C13.4033 16.5192 13.1924 16.4371 13.0116 16.273C12.8309 16.109 12.7406 15.8897 12.7406 15.6152Z" fill="#292A2E"/>
</g>
</svg>
