<svg width="24" height="24" viewBox="0 0 24 24" fill="none" xmlns="http://www.w3.org/2000/svg">
<mask id="mask0_503_7045" style="mask-type:alpha" maskUnits="userSpaceOnUse" x="0" y="0" width="24" height="24">
<rect width="24" height="24" fill="#D9D9D9"/>
</mask>
<g mask="url(#mask0_503_7045)">
<path d="M19.2962 16.3787L13.8657 12.748C13.7286 12.6545 13.6272 12.5449 13.5617 12.4192C13.4964 12.2935 13.4637 12.1538 13.4637 12C13.4637 11.8461 13.4964 11.7064 13.5617 11.5807C13.6272 11.455 13.7286 11.3455 13.8657 11.252L19.2962 7.62121C19.3732 7.56088 19.4553 7.52238 19.5425 7.50571C19.6297 7.48905 19.7149 7.48071 19.7982 7.48071C20.0392 7.48071 20.2502 7.5628 20.431 7.72696C20.6117 7.89096 20.702 8.11021 20.702 8.38471V15.6152C20.702 15.8897 20.6117 16.109 20.431 16.273C20.2502 16.4371 20.0392 16.5192 19.7982 16.5192C19.7149 16.5192 19.6297 16.5109 19.5425 16.4942C19.4553 16.4775 19.3732 16.439 19.2962 16.3787ZM9.85398 16.3787L4.42348 12.748C4.28615 12.6545 4.18482 12.5449 4.11948 12.4192C4.05415 12.2935 4.02148 12.1538 4.02148 12C4.02148 11.8461 4.05415 11.7064 4.11948 11.5807C4.18482 11.455 4.28615 11.3455 4.42348 11.252L9.85398 7.62121C9.93098 7.56088 10.0131 7.52238 10.1002 7.50571C10.1874 7.48905 10.2727 7.48071 10.356 7.48071C10.597 7.48071 10.8079 7.5628 10.9887 7.72696C11.1694 7.89096 11.2597 8.11021 11.2597 8.38471V15.6152C11.2597 15.8897 11.1694 16.109 10.9887 16.273C10.8079 16.4371 10.597 16.5192 10.356 16.5192C10.2727 16.5192 10.1874 16.5109 10.1002 16.4942C10.0131 16.4775 9.93098 16.439 9.85398 16.3787ZM9.75998 14.5V9.49996L5.99448 12L9.75998 14.5ZM19.2022 14.5V9.49996L15.4367 12L19.2022 14.5Z" fill="#292A2E"/>
</g>
</svg>
