<svg width="24" height="24" viewBox="0 0 24 24" fill="none" xmlns="http://www.w3.org/2000/svg">
<mask id="mask0_876_1092" style="mask-type:alpha" maskUnits="userSpaceOnUse" x="0" y="0" width="24" height="24">
<rect width="24" height="24" fill="#D9D9D9"/>
</mask>
<g mask="url(#mask0_876_1092)">
<path d="M4.75 18C4.5375 18 4.35942 17.9281 4.21575 17.7843C4.07192 17.6404 4 17.4622 4 17.2498C4 17.0371 4.07192 16.859 4.21575 16.7155C4.35942 16.5718 4.5375 16.5 4.75 16.5H8.625C8.8375 16.5 9.01558 16.5719 9.15925 16.7158C9.30308 16.8596 9.375 17.0378 9.375 17.2503C9.375 17.4629 9.30308 17.641 9.15925 17.7845C9.01558 17.9282 8.8375 18 8.625 18H4.75ZM4.75 13.25C4.5375 13.25 4.35942 13.1781 4.21575 13.0342C4.07192 12.8904 4 12.7122 4 12.4997C4 12.2871 4.07192 12.109 4.21575 11.9655C4.35942 11.8218 4.5375 11.75 4.75 11.75H14.4327C14.6452 11.75 14.8233 11.8219 14.967 11.9658C15.1108 12.1096 15.1827 12.2878 15.1827 12.5003C15.1827 12.7129 15.1108 12.891 14.967 13.0345C14.8233 13.1782 14.6452 13.25 14.4327 13.25H4.75ZM4.75 8.5C4.5375 8.5 4.35942 8.42808 4.21575 8.28425C4.07192 8.14042 4 7.96225 4 7.74975C4 7.53708 4.07192 7.359 4.21575 7.2155C4.35942 7.07183 4.5375 7 4.75 7H20.25C20.4625 7 20.6406 7.07192 20.7843 7.21575C20.9281 7.35958 21 7.53775 21 7.75025C21 7.96292 20.9281 8.141 20.7843 8.2845C20.6406 8.42817 20.4625 8.5 20.25 8.5H4.75Z" fill="#1C1B1F"/>
</g>
</svg>
