<svg width="24" height="24" viewBox="0 0 24 24" fill="none" xmlns="http://www.w3.org/2000/svg">
<mask id="mask0_503_7038" style="mask-type:alpha" maskUnits="userSpaceOnUse" x="0" y="0" width="24" height="24">
<rect width="24" height="24" fill="#D9D9D9"/>
</mask>
<g mask="url(#mask0_503_7038)">
<path d="M8.5 19.6923V10.8462L6.79625 8.298C6.69242 8.14417 6.61708 7.98525 6.57025 7.82125C6.52342 7.65708 6.5 7.48458 6.5 7.30375V4.30775C6.5 3.80908 6.67658 3.38308 7.02975 3.02975C7.38308 2.67658 7.80908 2.5 8.30775 2.5H15.6923C16.1909 2.5 16.6169 2.67658 16.9703 3.02975C17.3234 3.38308 17.5 3.80908 17.5 4.30775V7.30375C17.5 7.48458 17.4766 7.65708 17.4298 7.82125C17.3829 7.98525 17.3076 8.14417 17.2038 8.298L15.5 10.8462V19.6923C15.5 20.1909 15.3234 20.6169 14.9703 20.9703C14.6169 21.3234 14.1909 21.5 13.6923 21.5H10.3077C9.80908 21.5 9.38308 21.3234 9.02975 20.9703C8.67658 20.6169 8.5 20.1909 8.5 19.6923ZM12 15.25C11.6538 15.25 11.359 15.1282 11.1155 14.8845C10.8718 14.641 10.75 14.3462 10.75 14C10.75 13.6538 10.8718 13.359 11.1155 13.1155C11.359 12.8718 11.6538 12.75 12 12.75C12.3462 12.75 12.641 12.8718 12.8845 13.1155C13.1282 13.359 13.25 13.6538 13.25 14C13.25 14.3462 13.1282 14.641 12.8845 14.8845C12.641 15.1282 12.3462 15.25 12 15.25ZM8 5.25H16V4.30775C16 4.21792 15.9712 4.14417 15.9135 4.0865C15.8558 4.02883 15.7821 4 15.6923 4H8.30775C8.21792 4 8.14417 4.02883 8.0865 4.0865C8.02883 4.14417 8 4.21792 8 4.30775V5.25ZM16 6.75H8V7.4L10 10.4V19.6923C10 19.7821 10.0288 19.8558 10.0865 19.9135C10.1442 19.9712 10.2179 20 10.3077 20H13.6923C13.7821 20 13.8558 19.9712 13.9135 19.9135C13.9712 19.8558 14 19.7821 14 19.6923V10.4L16 7.4V6.75Z" fill="#292A2E"/>
</g>
</svg>
