<svg width="24" height="24" viewBox="0 0 24 24" fill="none" xmlns="http://www.w3.org/2000/svg">
<mask id="mask0_503_7040" style="mask-type:alpha" maskUnits="userSpaceOnUse" x="0" y="0" width="24" height="24">
<rect width="24" height="24" fill="#D9D9D9"/>
</mask>
<g mask="url(#mask0_503_7040)">
<path d="M12.0001 15.6L15.4406 10.6345C15.4726 10.5833 15.4758 10.5305 15.4501 10.476C15.4245 10.4215 15.3796 10.3942 15.3156 10.3942H12.5136L14.2636 4.31725C14.2893 4.24042 14.2765 4.16833 14.2251 4.101C14.1738 4.03367 14.1097 4 14.0329 4H9.50013C9.41047 4 9.33672 4.02883 9.27888 4.0865C9.22122 4.14417 9.19238 4.21792 9.19238 4.30775V11.6922C9.19238 11.7821 9.22122 11.8558 9.27888 11.9135C9.33672 11.9712 9.41047 12 9.50013 12H12.0001V15.6ZM16.9904 11.0135L11.7406 18.6307C11.647 18.7679 11.5306 18.8582 11.3916 18.9017C11.2525 18.9454 11.1143 18.9454 10.9771 18.9017C10.84 18.8582 10.7261 18.7787 10.6356 18.6632C10.5453 18.5479 10.5001 18.4082 10.5001 18.2442V13.5H9.50013C9.00147 13.5 8.57555 13.3234 8.22238 12.9702C7.86905 12.6169 7.69238 12.1909 7.69238 11.6922V4.30775C7.69238 3.80908 7.86905 3.38308 8.22238 3.02975C8.57555 2.67658 9.00147 2.5 9.50013 2.5H14.3404C14.8354 2.5 15.2373 2.6875 15.5461 3.0625C15.8551 3.4375 15.9462 3.85258 15.8194 4.30775L14.5001 8.89425H15.8654C16.4077 8.89425 16.8087 9.13367 17.0684 9.6125C17.328 10.0913 17.302 10.5583 16.9904 11.0135Z" fill="#292A2E"/>
</g>
</svg>
