<svg width="24" height="24" viewBox="0 0 24 24" fill="none" xmlns="http://www.w3.org/2000/svg">
<mask id="mask0_503_7037" style="mask-type:alpha" maskUnits="userSpaceOnUse" x="0" y="0" width="24" height="24">
<rect width="24" height="24" fill="#D9D9D9"/>
</mask>
<g mask="url(#mask0_503_7037)">
<path d="M6.5 5.25V4.30775C6.5 3.81058 6.677 3.385 7.031 3.031C7.385 2.677 7.81058 2.5 8.30775 2.5H15.6923C16.1894 2.5 16.615 2.677 16.969 3.031C17.323 3.385 17.5 3.81058 17.5 4.30775V5.25H6.5ZM11.9988 15.25C12.3458 15.25 12.641 15.1286 12.8845 14.8857C13.1282 14.6429 13.25 14.3481 13.25 14.0013C13.25 13.6543 13.1286 13.359 12.8857 13.1155C12.6429 12.8718 12.3481 12.75 12.0012 12.75C11.6542 12.75 11.359 12.8714 11.1155 13.1143C10.8718 13.3571 10.75 13.6519 10.75 13.9988C10.75 14.3458 10.8714 14.641 11.1143 14.8845C11.3571 15.1282 11.6519 15.25 11.9988 15.25ZM8.5 19.6923V10.8462L6.79625 8.298C6.69242 8.14417 6.61708 7.98492 6.57025 7.82025C6.52342 7.65558 6.5 7.48342 6.5 7.30375V6.75H17.5V7.30375C17.5 7.48342 17.4766 7.65558 17.4298 7.82025C17.3829 7.98492 17.3076 8.14417 17.2038 8.298L15.5 10.8462V19.6923C15.5 20.1894 15.323 20.615 14.969 20.969C14.615 21.323 14.1894 21.5 13.6923 21.5H10.3077C9.81058 21.5 9.385 21.323 9.031 20.969C8.677 20.615 8.5 20.1894 8.5 19.6923Z" fill="#292A2E"/>
</g>
</svg>
