<svg width="24" height="24" viewBox="0 0 24 24" fill="none" xmlns="http://www.w3.org/2000/svg">
<mask id="mask0_503_7035" style="mask-type:alpha" maskUnits="userSpaceOnUse" x="0" y="0" width="24" height="24">
<rect width="24" height="24" fill="#D9D9D9"/>
</mask>
<g mask="url(#mask0_503_7035)">
<path d="M3.30775 20.3845C2.81058 20.3845 2.385 20.2075 2.031 19.8535C1.677 19.4995 1.5 19.074 1.5 18.577V7.2885C1.5 7.076 1.57192 6.89783 1.71575 6.754C1.85958 6.61033 2.03775 6.5385 2.25025 6.5385C2.46292 6.5385 2.641 6.61033 2.7845 6.754C2.92817 6.89783 3 7.076 3 7.2885V18.577C3 18.6667 3.02883 18.7403 3.0865 18.798C3.14417 18.8557 3.21792 18.8845 3.30775 18.8845H18.75C18.9625 18.8845 19.1406 18.9564 19.2843 19.1003C19.4281 19.2441 19.5 19.4223 19.5 19.635C19.5 19.8475 19.4281 20.0256 19.2843 20.1693C19.1406 20.3127 18.9625 20.3845 18.75 20.3845H3.30775ZM6.80775 16.8845C6.31058 16.8845 5.885 16.7075 5.531 16.3535C5.177 15.9995 5 15.574 5 15.077V4.30775C5 3.81058 5.177 3.385 5.531 3.031C5.885 2.677 6.31058 2.5 6.80775 2.5H11.0402C11.2843 2.5 11.5168 2.54683 11.7378 2.6405C11.9587 2.734 12.1512 2.86283 12.3152 3.027L13.7885 4.5H20.6923C21.1894 4.5 21.615 4.677 21.969 5.031C22.323 5.385 22.5 5.81058 22.5 6.30775V15.077C22.5 15.574 22.323 15.9995 21.969 16.3535C21.615 16.7075 21.1894 16.8845 20.6923 16.8845H6.80775Z" fill="#292A2E"/>
</g>
</svg>
