<svg width="24" height="24" viewBox="0 0 24 24" fill="none" xmlns="http://www.w3.org/2000/svg">
<mask id="mask0_503_7033" style="mask-type:alpha" maskUnits="userSpaceOnUse" x="0" y="0" width="24" height="24">
<rect width="24" height="24" fill="#D9D9D9"/>
</mask>
<g mask="url(#mask0_503_7033)">
<path d="M7.50023 20.6345V17.5H2.60423C2.24256 17.5 1.97814 17.341 1.81098 17.023C1.64364 16.705 1.65864 16.3954 1.85598 16.0942L4.85023 11.5H4.65798C4.30664 11.5 4.04314 11.3435 3.86748 11.0307C3.69198 10.7179 3.71123 10.4108 3.92523 10.1095L8.25223 3.92495C8.43289 3.66729 8.68223 3.53845 9.00023 3.53845C9.31823 3.53845 9.56756 3.66729 9.74823 3.92495L12.0002 7.16545L14.2522 3.92495C14.4329 3.66729 14.6822 3.53845 15.0002 3.53845C15.3182 3.53845 15.5676 3.66729 15.7482 3.92495L20.0752 10.1095C20.2892 10.4108 20.3085 10.7179 20.133 11.0307C19.9573 11.3435 19.6938 11.5 19.3425 11.5H19.1502L22.1445 16.0942C22.3418 16.3954 22.3568 16.705 22.1895 17.023C22.0223 17.341 21.7579 17.5 21.3962 17.5H16.5002V20.596C16.5002 20.8538 16.414 21.0689 16.2415 21.2412C16.0691 21.4137 15.8541 21.5 15.5962 21.5H14.3657C14.1207 21.5 13.9152 21.417 13.7492 21.251C13.5832 21.085 13.5002 20.8795 13.5002 20.6345V17.5H10.5002V20.596C10.5002 20.8538 10.414 21.0689 10.2415 21.2412C10.0691 21.4137 9.85406 21.5 9.59623 21.5H8.36573C8.12073 21.5 7.91523 21.417 7.74923 21.251C7.58323 21.085 7.50023 20.8795 7.50023 20.6345ZM16.0905 16H20.3117L16.3887 9.99995H18.1502L15.0002 5.49995L12.9272 8.4577L14.0847 10.1095C14.2924 10.4108 14.3101 10.7179 14.1377 11.0307C13.9652 11.3435 13.7033 11.5 13.352 11.5H13.1502L16.0905 16ZM3.68873 16H14.3117L10.3887 9.99995H12.1502L9.00023 5.49995L5.85023 9.99995H7.61173L3.68873 16ZM3.68873 16H7.61173H5.85023H12.1502H10.3887H14.3117H3.68873ZM16.0905 16H13.1502H15.0387H12.9272H18.1502H16.3887H20.3117H16.0905Z" fill="#292A2E"/>
</g>
</svg>
