<svg width="24" height="24" viewBox="0 0 24 24" fill="none" xmlns="http://www.w3.org/2000/svg">
<mask id="mask0_503_7034" style="mask-type:alpha" maskUnits="userSpaceOnUse" x="0" y="0" width="24" height="24">
<rect width="24" height="24" fill="#D9D9D9"/>
</mask>
<g mask="url(#mask0_503_7034)">
<path d="M13.5001 20.596V18.3845H16.5001V20.6345C16.5001 20.8796 16.4172 21.0852 16.2514 21.2512C16.0854 21.417 15.8798 21.5 15.6346 21.5H14.4041C14.1479 21.5 13.9333 21.4133 13.7601 21.24C13.5868 21.0668 13.5001 20.8521 13.5001 20.596ZM7.50011 20.596V17.5H2.60411C2.24077 17.5 1.97594 17.341 1.8096 17.023C1.6431 16.705 1.65852 16.3954 1.85585 16.0942L4.85011 11.5H4.65786C4.30652 11.5 4.04302 11.3435 3.86736 11.0307C3.69186 10.7179 3.71111 10.4108 3.92511 10.1095L8.2521 3.92495C8.3456 3.79812 8.46019 3.70195 8.59585 3.63645C8.73135 3.57112 8.86694 3.53845 9.00261 3.53845C9.13811 3.53845 9.27286 3.57112 9.40686 3.63645C9.54085 3.70195 9.65461 3.79812 9.74811 3.92495L14.0751 10.1095C14.2891 10.4108 14.3084 10.7179 14.1329 11.0307C13.9572 11.3435 13.6937 11.5 13.3424 11.5H13.1501L16.1596 16.0942C16.3571 16.3954 16.3726 16.705 16.2061 17.023C16.0396 17.341 15.7748 17.5 15.4116 17.5H10.5001V20.6345C10.5001 20.8796 10.4172 21.0852 10.2514 21.2512C10.0854 21.417 9.87977 21.5 9.63461 21.5H8.40411C8.14794 21.5 7.93327 21.4133 7.76011 21.24C7.58677 21.0668 7.50011 20.8521 7.50011 20.596ZM18.1444 17.5L14.7884 12.3845H15.0001C15.3641 12.3845 15.6333 12.223 15.8076 11.9C15.9821 11.5768 15.9623 11.2646 15.7481 10.9635L12.5481 6.3962L14.2521 3.92495C14.3456 3.79812 14.4602 3.70195 14.5959 3.63645C14.7314 3.57112 14.8669 3.53845 15.0026 3.53845C15.1381 3.53845 15.2729 3.57112 15.4069 3.63645C15.5409 3.70195 15.6546 3.79812 15.7481 3.92495L20.0751 10.1095C20.2891 10.4108 20.3084 10.7179 20.1329 11.0307C19.9572 11.3435 19.6937 11.5 19.3424 11.5H19.1501L22.1444 16.0942C22.3417 16.3954 22.3571 16.705 22.1906 17.023C22.0243 17.341 21.7594 17.5 21.3961 17.5H18.1444Z" fill="#292A2E"/>
</g>
</svg>
