<svg width="24" height="24" viewBox="0 0 24 24" fill="none" xmlns="http://www.w3.org/2000/svg">
<mask id="mask0_503_6969" style="mask-type:alpha" maskUnits="userSpaceOnUse" x="0" y="0" width="24" height="24">
<rect width="24" height="24" fill="#D9D9D9"/>
</mask>
<g mask="url(#mask0_503_6969)">
<path d="M3.5 24C3.091 24 2.73875 23.8538 2.44325 23.5615C2.14775 23.2691 2 22.9153 2 22.5C2 22.091 2.14775 21.7387 2.44325 21.4432C2.73875 21.1477 3.091 21 3.5 21H20.5C20.909 21 21.2613 21.1461 21.5568 21.4385C21.8523 21.7308 22 22.0846 22 22.5C22 22.909 21.8523 23.2612 21.5568 23.5567C21.2613 23.8522 20.909 24 20.5 24H3.5ZM10.648 8.49048L15.3558 13.2135L11.4135 17.1557C11.0518 17.5172 10.6274 17.698 10.1403 17.698C9.65308 17.698 9.22875 17.5172 8.86725 17.1557L8.771 17.0595L8.36725 17.448C8.20308 17.5916 8.0175 17.7051 7.8105 17.7885C7.6035 17.8718 7.38975 17.9135 7.16925 17.9135H5.07125C4.86358 17.9135 4.72033 17.8215 4.6415 17.6375C4.5625 17.4535 4.59675 17.2878 4.74425 17.1405L6.8135 15.0865L6.7365 15.0097C6.375 14.6481 6.18908 14.2186 6.17875 13.7212C6.16858 13.2237 6.34425 12.7942 6.70575 12.4327L10.648 8.49048ZM11.702 7.42123L15.9808 3.15773C16.3422 2.79623 16.7666 2.61548 17.2538 2.61548C17.7409 2.61548 18.1653 2.79623 18.527 3.15773L20.7038 5.31923C21.0653 5.68073 21.246 6.10506 21.246 6.59223C21.246 7.0794 21.0653 7.50373 20.7038 7.86523L16.425 12.1442L11.702 7.42123Z" fill="#292A2E"/>
</g>
</svg>
