<svg width="24" height="24" viewBox="0 0 24 24" fill="none" xmlns="http://www.w3.org/2000/svg">
<mask id="mask0_503_6957" style="mask-type:alpha" maskUnits="userSpaceOnUse" x="0" y="0" width="24" height="24">
<rect width="24" height="24" fill="#D9D9D9"/>
</mask>
<g mask="url(#mask0_503_6957)">
<path d="M3.74975 16.75C3.53708 16.75 3.359 16.6781 3.2155 16.5343C3.07183 16.3906 3 16.2125 3 16V8C3 7.7875 3.07192 7.60942 3.21575 7.46575C3.35958 7.32192 3.53775 7.25 3.75025 7.25C3.96292 7.25 4.141 7.32192 4.2845 7.46575C4.42817 7.60942 4.5 7.7875 4.5 8V11.25H9V8C9 7.7875 9.07192 7.60942 9.21575 7.46575C9.35958 7.32192 9.53775 7.25 9.75025 7.25C9.96292 7.25 10.141 7.32192 10.2845 7.46575C10.4282 7.60942 10.5 7.7875 10.5 8V16C10.5 16.2125 10.4281 16.3906 10.2842 16.5343C10.1404 16.6781 9.96225 16.75 9.74975 16.75C9.53708 16.75 9.359 16.6781 9.2155 16.5343C9.07183 16.3906 9 16.2125 9 16V12.75H4.5V16C4.5 16.2125 4.42808 16.3906 4.28425 16.5343C4.14042 16.6781 3.96225 16.75 3.74975 16.75ZM18.2498 16.75C18.0371 16.75 17.859 16.6781 17.7155 16.5343C17.5718 16.3906 17.5 16.2125 17.5 16V13.75H13.4038C13.1478 13.75 12.9331 13.6634 12.7598 13.4902C12.5866 13.3169 12.5 13.1023 12.5 12.8463V8C12.5 7.7875 12.5719 7.60942 12.7158 7.46575C12.8596 7.32192 13.0378 7.25 13.2503 7.25C13.4629 7.25 13.641 7.32192 13.7845 7.46575C13.9282 7.60942 14 7.7875 14 8V12.25H17.5V8C17.5 7.7875 17.5719 7.60942 17.7158 7.46575C17.8596 7.32192 18.0378 7.25 18.2503 7.25C18.4629 7.25 18.641 7.32192 18.7845 7.46575C18.9282 7.60942 19 7.7875 19 8V12.25H20.25C20.4625 12.25 20.6406 12.3219 20.7843 12.4658C20.9281 12.6096 21 12.7878 21 13.0003C21 13.2129 20.9281 13.391 20.7843 13.5345C20.6406 13.6782 20.4625 13.75 20.25 13.75H19V16C19 16.2125 18.9281 16.3906 18.7843 16.5343C18.6404 16.6781 18.4622 16.75 18.2498 16.75Z" fill="#292A2E"/>
</g>
</svg>
