<svg width="24" height="24" viewBox="0 0 24 24" fill="none" xmlns="http://www.w3.org/2000/svg">
<mask id="mask0_503_6972" style="mask-type:alpha" maskUnits="userSpaceOnUse" x="0" y="0" width="24" height="24">
<rect width="24" height="24" fill="#D9D9D9"/>
</mask>
<g mask="url(#mask0_503_6972)">
<path d="M12.1538 16.625C11.8978 16.625 11.6831 16.5383 11.5098 16.365C11.3366 16.1918 11.25 15.9773 11.25 15.7213V8.27875C11.25 8.02275 11.3366 7.80817 11.5098 7.635C11.6831 7.46167 11.8978 7.375 12.1538 7.375H19.596C19.8522 7.375 20.0668 7.46167 20.24 7.635C20.4133 7.80817 20.5 8.02275 20.5 8.27875V15.7213C20.5 15.9773 20.4133 16.1918 20.24 16.365C20.0668 16.5383 19.8522 16.625 19.596 16.625H12.1538ZM12.75 15.125H19V8.875H12.75V15.125ZM4.25 20.5C4.0375 20.5 3.85942 20.4281 3.71575 20.2843C3.57192 20.1404 3.5 19.9622 3.5 19.7498C3.5 19.5371 3.57192 19.359 3.71575 19.2155C3.85942 19.0718 4.0375 19 4.25 19H19.75C19.9625 19 20.1406 19.0719 20.2843 19.2158C20.4281 19.3596 20.5 19.5378 20.5 19.7502C20.5 19.9629 20.4281 20.141 20.2843 20.2845C20.1406 20.4282 19.9625 20.5 19.75 20.5H4.25ZM4.25 16.625C4.0375 16.625 3.85942 16.5531 3.71575 16.4093C3.57192 16.2654 3.5 16.0872 3.5 15.8748C3.5 15.6621 3.57192 15.484 3.71575 15.3405C3.85942 15.1968 4.0375 15.125 4.25 15.125H8.30775C8.52025 15.125 8.69833 15.1969 8.842 15.3408C8.98583 15.4846 9.05775 15.6628 9.05775 15.8753C9.05775 16.0879 8.98583 16.266 8.842 16.4095C8.69833 16.5532 8.52025 16.625 8.30775 16.625H4.25ZM4.25 12.75C4.0375 12.75 3.85942 12.6781 3.71575 12.5343C3.57192 12.3904 3.5 12.2122 3.5 11.9998C3.5 11.7871 3.57192 11.609 3.71575 11.4655C3.85942 11.3218 4.0375 11.25 4.25 11.25H8.30775C8.52025 11.25 8.69833 11.3219 8.842 11.4658C8.98583 11.6096 9.05775 11.7878 9.05775 12.0003C9.05775 12.2129 8.98583 12.391 8.842 12.5345C8.69833 12.6782 8.52025 12.75 8.30775 12.75H4.25ZM4.25 8.875C4.0375 8.875 3.85942 8.80308 3.71575 8.65925C3.57192 8.51542 3.5 8.33725 3.5 8.12475C3.5 7.91208 3.57192 7.734 3.71575 7.5905C3.85942 7.44683 4.0375 7.375 4.25 7.375H8.30775C8.52025 7.375 8.69833 7.44692 8.842 7.59075C8.98583 7.73458 9.05775 7.91275 9.05775 8.12525C9.05775 8.33792 8.98583 8.516 8.842 8.6595C8.69833 8.80317 8.52025 8.875 8.30775 8.875H4.25ZM4.25 5C4.0375 5 3.85942 4.92808 3.71575 4.78425C3.57192 4.64042 3.5 4.46225 3.5 4.24975C3.5 4.03708 3.57192 3.859 3.71575 3.7155C3.85942 3.57183 4.0375 3.5 4.25 3.5H19.75C19.9625 3.5 20.1406 3.57192 20.2843 3.71575C20.4281 3.85958 20.5 4.03775 20.5 4.25025C20.5 4.46292 20.4281 4.641 20.2843 4.7845C20.1406 4.92817 19.9625 5 19.75 5H4.25Z" fill="#292A2E"/>
</g>
</svg>
