<svg width="24" height="24" viewBox="0 0 24 24" fill="none" xmlns="http://www.w3.org/2000/svg">
<mask id="mask0_503_6956" style="mask-type:alpha" maskUnits="userSpaceOnUse" x="0" y="0" width="24" height="24">
<rect width="24" height="24" fill="#D9D9D9"/>
</mask>
<g mask="url(#mask0_503_6956)">
<path d="M3.99975 16.75C3.78708 16.75 3.609 16.6781 3.4655 16.5343C3.32183 16.3906 3.25 16.2125 3.25 16V8C3.25 7.7875 3.32192 7.60942 3.46575 7.46575C3.60958 7.32192 3.78775 7.25 4.00025 7.25C4.21292 7.25 4.391 7.32192 4.5345 7.46575C4.67817 7.60942 4.75 7.7875 4.75 8V11.25H9.25V8C9.25 7.7875 9.32192 7.60942 9.46575 7.46575C9.60958 7.32192 9.78775 7.25 10.0003 7.25C10.2129 7.25 10.391 7.32192 10.5345 7.46575C10.6782 7.60942 10.75 7.7875 10.75 8V16C10.75 16.2125 10.6781 16.3906 10.5342 16.5343C10.3904 16.6781 10.2122 16.75 9.99975 16.75C9.78708 16.75 9.609 16.6781 9.4655 16.5343C9.32183 16.3906 9.25 16.2125 9.25 16V12.75H4.75V16C4.75 16.2125 4.67808 16.3906 4.53425 16.5343C4.39042 16.6781 4.21225 16.75 3.99975 16.75ZM13.5 16.75C13.2875 16.75 13.1093 16.6781 12.9655 16.5343C12.8218 16.3904 12.75 16.2122 12.75 15.9998C12.75 15.7871 12.8218 15.609 12.9655 15.4655C13.1093 15.3218 13.2875 15.25 13.5 15.25H18.4423C18.5321 15.25 18.6058 15.2212 18.6635 15.1635C18.7212 15.1058 18.75 15.0321 18.75 14.9423V12.75H15.5C15.2875 12.75 15.1093 12.6781 14.9655 12.5342C14.8218 12.3904 14.75 12.2122 14.75 11.9997C14.75 11.7871 14.8218 11.609 14.9655 11.4655C15.1093 11.3218 15.2875 11.25 15.5 11.25H18.75V9.05775C18.75 8.96792 18.7212 8.89417 18.6635 8.8365C18.6058 8.77883 18.5321 8.75 18.4423 8.75H13.5C13.2875 8.75 13.1093 8.67808 12.9655 8.53425C12.8218 8.39042 12.75 8.21225 12.75 7.99975C12.75 7.78708 12.8218 7.609 12.9655 7.4655C13.1093 7.32183 13.2875 7.25 13.5 7.25H18.4423C18.9394 7.25 19.365 7.427 19.719 7.781C20.073 8.135 20.25 8.56058 20.25 9.05775V14.9423C20.25 15.4394 20.073 15.865 19.719 16.219C19.365 16.573 18.9394 16.75 18.4423 16.75H13.5Z" fill="#292A2E"/>
</g>
</svg>
