<svg width="24" height="24" viewBox="0 0 24 24" fill="none" xmlns="http://www.w3.org/2000/svg">
<mask id="mask0_503_6963" style="mask-type:alpha" maskUnits="userSpaceOnUse" x="0" y="0" width="24" height="24">
<rect width="24" height="24" fill="#D9D9D9"/>
</mask>
<g mask="url(#mask0_503_6963)">
<path d="M10.4229 19.5C10.2104 19.5 10.0323 19.4281 9.88865 19.2843C9.74515 19.1406 9.6734 18.9625 9.6734 18.75V13.5H9.57715C8.32848 13.5 7.26631 13.0622 6.39065 12.1865C5.51498 11.3108 5.07715 10.2487 5.07715 9C5.07715 7.75133 5.51498 6.68917 6.39065 5.8135C7.26631 4.93783 8.32848 4.5 9.57715 4.5H16.5386C16.7511 4.5 16.9292 4.57192 17.0729 4.71575C17.2167 4.85958 17.2886 5.03775 17.2886 5.25025C17.2886 5.46292 17.2167 5.641 17.0729 5.7845C16.9292 5.92817 16.7511 6 16.5386 6H15.2886V18.75C15.2886 18.9625 15.2167 19.1406 15.0729 19.2843C14.9291 19.4281 14.7508 19.5 14.5381 19.5C14.3256 19.5 14.1476 19.4281 14.0039 19.2843C13.8604 19.1406 13.7886 18.9625 13.7886 18.75V6H11.1731V18.75C11.1731 18.9625 11.1012 19.1406 10.9574 19.2843C10.8137 19.4281 10.6356 19.5 10.4229 19.5Z" fill="#292A2E"/>
</g>
</svg>
