<svg width="24" height="24" viewBox="0 0 24 24" fill="none" xmlns="http://www.w3.org/2000/svg">
<mask id="mask0_503_7025" style="mask-type:alpha" maskUnits="userSpaceOnUse" x="0" y="0" width="24" height="24">
<rect width="24" height="24" fill="#D9D9D9"/>
</mask>
<g mask="url(#mask0_503_7025)">
<path d="M17.3036 7.89624C17.9793 8.53857 18.5142 9.32282 18.9084 10.249C19.3027 11.1753 19.4999 12.1321 19.4999 13.1192C19.4999 13.4307 19.4797 13.7387 19.4394 14.0432C19.3989 14.3477 19.3402 14.6538 19.2634 14.9615C19.1929 15.2358 19.0137 15.4073 18.7259 15.476C18.438 15.5445 18.187 15.4717 17.9729 15.2577L9.31138 6.60574C9.13072 6.42507 9.04288 6.21416 9.04788 5.97299C9.05305 5.73199 9.14605 5.52116 9.32688 5.34049L11.0556 3.62124C11.1928 3.48407 11.3435 3.38532 11.5076 3.32499C11.6716 3.26482 11.8357 3.23474 11.9999 3.23474C12.164 3.23474 12.3297 3.26741 12.4969 3.33274C12.6642 3.39807 12.8165 3.49424 12.9536 3.62124L17.3036 7.89624ZM11.9999 20.5C9.91788 20.5 8.14738 19.7804 6.68838 18.3412C5.22938 16.9022 4.49988 15.1616 4.49988 13.1192C4.49988 12.2307 4.6573 11.3868 4.97213 10.5875C5.2868 9.78816 5.72047 9.05257 6.27313 8.38074L2.63838 4.74624C2.49988 4.60774 2.42905 4.43366 2.42588 4.22399C2.42272 4.01449 2.49355 3.83724 2.63838 3.69224C2.78322 3.54741 2.95888 3.47499 3.16538 3.47499C3.37172 3.47499 3.5473 3.54741 3.69213 3.69224L20.3651 20.3652C20.5036 20.5037 20.5745 20.6778 20.5776 20.8875C20.581 21.0972 20.5101 21.2744 20.3651 21.4192C20.2203 21.5641 20.0447 21.6365 19.8384 21.6365C19.6319 21.6365 19.4562 21.5641 19.3114 21.4192L16.7191 18.8267C16.0871 19.3551 15.365 19.766 14.5529 20.0595C13.7405 20.3532 12.8895 20.5 11.9999 20.5Z" fill="#292A2E"/>
</g>
</svg>
