<svg width="24" height="24" viewBox="0 0 24 24" fill="none" xmlns="http://www.w3.org/2000/svg">
<mask id="mask0_503_6965" style="mask-type:alpha" maskUnits="userSpaceOnUse" x="0" y="0" width="24" height="24">
<rect width="24" height="24" fill="#D9D9D9"/>
</mask>
<g mask="url(#mask0_503_6965)">
<path d="M3.25 13.7402C3.0375 13.7402 2.85942 13.6684 2.71575 13.5247C2.57192 13.3809 2.5 13.2027 2.5 12.99C2.5 12.7775 2.57192 12.5994 2.71575 12.4558C2.85942 12.3123 3.0375 12.2405 3.25 12.2405H20.75C20.9625 12.2405 21.1406 12.3123 21.2843 12.456C21.4281 12.5998 21.5 12.7781 21.5 12.9908C21.5 13.2032 21.4281 13.3813 21.2843 13.525C21.1406 13.6685 20.9625 13.7402 20.75 13.7402H3.25ZM10.9423 10.2598V6.625H6.56725C6.27342 6.625 6.02375 6.52208 5.81825 6.31625C5.61258 6.11025 5.50975 5.86025 5.50975 5.56625C5.50975 5.27208 5.61258 5.02083 5.81825 4.8125C6.02375 4.60417 6.27342 4.5 6.56725 4.5H17.4423C17.7361 4.5 17.9858 4.60292 18.1915 4.80875C18.3972 5.01475 18.5 5.26475 18.5 5.55875C18.5 5.85292 18.3972 6.10417 18.1915 6.3125C17.9858 6.52083 17.7361 6.625 17.4423 6.625H13.0673V10.2598H10.9423ZM10.9423 15.7213H13.0673V18.4423C13.0673 18.7361 12.9643 18.9858 12.7585 19.1915C12.5527 19.3972 12.3027 19.5 12.0085 19.5C11.7143 19.5 11.4631 19.3963 11.2548 19.1888C11.0464 18.9812 10.9423 18.7292 10.9423 18.4327V15.7213Z" fill="#292A2E"/>
</g>
</svg>
