<svg width="24" height="24" viewBox="0 0 24 24" fill="none" xmlns="http://www.w3.org/2000/svg">
<mask id="mask0_503_6959" style="mask-type:alpha" maskUnits="userSpaceOnUse" x="0" y="0" width="24" height="24">
<rect width="24" height="24" fill="#D9D9D9"/>
</mask>
<g mask="url(#mask0_503_6959)">
<path d="M3.99975 16.75C3.78708 16.75 3.609 16.6781 3.4655 16.5343C3.32183 16.3906 3.25 16.2125 3.25 16V8C3.25 7.7875 3.32192 7.60942 3.46575 7.46575C3.60958 7.32192 3.78775 7.25 4.00025 7.25C4.21292 7.25 4.391 7.32192 4.5345 7.46575C4.67817 7.60942 4.75 7.7875 4.75 8V11.25H9.25V8C9.25 7.7875 9.32192 7.60942 9.46575 7.46575C9.60958 7.32192 9.78775 7.25 10.0003 7.25C10.2129 7.25 10.391 7.32192 10.5345 7.46575C10.6782 7.60942 10.75 7.7875 10.75 8V16C10.75 16.2125 10.6781 16.3906 10.5342 16.5343C10.3904 16.6781 10.2122 16.75 9.99975 16.75C9.78708 16.75 9.609 16.6781 9.4655 16.5343C9.32183 16.3906 9.25 16.2125 9.25 16V12.75H4.75V16C4.75 16.2125 4.67808 16.3906 4.53425 16.5343C4.39042 16.6781 4.21225 16.75 3.99975 16.75ZM14.5577 16.75C14.0606 16.75 13.635 16.573 13.281 16.219C12.927 15.865 12.75 15.4394 12.75 14.9423V9.05775C12.75 8.56058 12.927 8.135 13.281 7.781C13.635 7.427 14.0606 7.25 14.5577 7.25H19.5C19.7125 7.25 19.8906 7.32192 20.0343 7.46575C20.1781 7.60958 20.25 7.78775 20.25 8.00025C20.25 8.21292 20.1781 8.391 20.0343 8.5345C19.8906 8.67817 19.7125 8.75 19.5 8.75H14.5577C14.4679 8.75 14.3942 8.77883 14.3365 8.8365C14.2788 8.89417 14.25 8.96792 14.25 9.05775V11.25H18.4423C18.9394 11.25 19.365 11.427 19.719 11.781C20.073 12.135 20.25 12.5606 20.25 13.0578V14.9423C20.25 15.4394 20.073 15.865 19.719 16.219C19.365 16.573 18.9394 16.75 18.4423 16.75H14.5577ZM14.25 12.75V14.9423C14.25 15.0321 14.2788 15.1058 14.3365 15.1635C14.3942 15.2212 14.4679 15.25 14.5577 15.25H18.4423C18.5321 15.25 18.6058 15.2212 18.6635 15.1635C18.7212 15.1058 18.75 15.0321 18.75 14.9423V13.0578C18.75 12.9679 18.7212 12.8942 18.6635 12.8365C18.6058 12.7788 18.5321 12.75 18.4423 12.75H14.25Z" fill="#292A2E"/>
</g>
</svg>
