<svg width="24" height="24" viewBox="0 0 24 24" fill="none" xmlns="http://www.w3.org/2000/svg">
<mask id="mask0_503_6970" style="mask-type:alpha" maskUnits="userSpaceOnUse" x="0" y="0" width="24" height="24">
<rect width="24" height="24" fill="#D9D9D9"/>
</mask>
<g mask="url(#mask0_503_6970)">
<path d="M6.68058 20.973C6.53191 21.1282 6.35625 21.2042 6.15358 21.201C5.95108 21.1977 5.77549 21.1217 5.62683 20.973L3.13258 18.4788C2.95174 18.2981 2.86133 18.0872 2.86133 17.8462C2.86133 17.6051 2.95174 17.3942 3.13258 17.2135L5.62683 14.7288C5.77549 14.5801 5.95108 14.5042 6.15358 14.501C6.35625 14.4978 6.53191 14.5738 6.68058 14.7288C6.82925 14.8776 6.90358 15.0558 6.90358 15.2635C6.90358 15.4712 6.82925 15.6493 6.68058 15.798L5.38258 17.0962H18.6171L17.3286 15.798C17.1902 15.6493 17.1169 15.4728 17.1086 15.2683C17.1002 15.0638 17.1736 14.8839 17.3286 14.7288C17.4837 14.5738 17.6594 14.4963 17.8556 14.4963C18.0517 14.4963 18.2274 14.5738 18.3826 14.7288L20.8671 17.2135C21.0479 17.3942 21.1383 17.6051 21.1383 17.8462C21.1383 18.0872 21.0479 18.2981 20.8671 18.4788L18.3728 20.973C18.2242 21.1217 18.0486 21.1977 17.8461 21.201C17.6434 21.2042 17.4677 21.1282 17.3191 20.973C17.1704 20.8243 17.0961 20.6462 17.0961 20.4385C17.0961 20.2308 17.1704 20.0526 17.3191 19.9038L18.6268 18.596H5.37283L6.68058 19.9135C6.81908 20.0622 6.89091 20.2388 6.89608 20.4433C6.90108 20.6478 6.82925 20.8243 6.68058 20.973ZM7.60958 12.2327L11.1018 2.94625C11.1557 2.80775 11.2409 2.69875 11.3576 2.61925C11.4742 2.53975 11.6069 2.5 11.7556 2.5H12.2826C12.4312 2.5 12.5639 2.54133 12.6806 2.624C12.7972 2.70667 12.8825 2.81725 12.9363 2.95575L16.3901 12.248C16.4646 12.4673 16.4393 12.6732 16.3143 12.8655C16.1893 13.0577 16.0088 13.1538 15.7728 13.1538C15.628 13.1538 15.4972 13.1141 15.3806 13.0348C15.2639 12.9553 15.1787 12.843 15.1248 12.698L14.2883 10.3348H9.74208L8.87483 12.7135C8.82099 12.852 8.73833 12.96 8.62683 13.0375C8.51516 13.115 8.38691 13.1538 8.24208 13.1538C7.99591 13.1538 7.80783 13.0551 7.67783 12.8577C7.54766 12.6602 7.52491 12.4519 7.60958 12.2327ZM10.1768 9.1H13.8228L12.0691 4.18475H11.9691L10.1768 9.1Z" fill="#292A2E"/>
</g>
</svg>
