<svg width="24" height="24" viewBox="0 0 24 24" fill="none" xmlns="http://www.w3.org/2000/svg">
<mask id="mask0_503_6971" style="mask-type:alpha" maskUnits="userSpaceOnUse" x="0" y="0" width="24" height="24">
<rect width="24" height="24" fill="#D9D9D9"/>
</mask>
<g mask="url(#mask0_503_6971)">
<path d="M4.404 16.625C4.14783 16.625 3.93317 16.5383 3.76 16.365C3.58667 16.1918 3.5 15.9773 3.5 15.7213V8.27875C3.5 8.02275 3.58667 7.80817 3.76 7.635C3.93317 7.46167 4.14783 7.375 4.404 7.375H11.8463C12.1023 7.375 12.3169 7.46167 12.4902 7.635C12.6634 7.80817 12.75 8.02275 12.75 8.27875V15.7213C12.75 15.9773 12.6634 16.1918 12.4902 16.365C12.3169 16.5383 12.1023 16.625 11.8463 16.625H4.404ZM5 15.125H11.25V8.875H5V15.125ZM4.25 5C4.0375 5 3.85942 4.92808 3.71575 4.78425C3.57192 4.64042 3.5 4.46225 3.5 4.24975C3.5 4.03708 3.57192 3.859 3.71575 3.7155C3.85942 3.57183 4.0375 3.5 4.25 3.5H19.75C19.9625 3.5 20.1406 3.57192 20.2843 3.71575C20.4281 3.85958 20.5 4.03775 20.5 4.25025C20.5 4.46292 20.4281 4.641 20.2843 4.7845C20.1406 4.92817 19.9625 5 19.75 5H4.25ZM15.6923 8.875C15.4798 8.875 15.3017 8.80308 15.158 8.65925C15.0142 8.51542 14.9423 8.33725 14.9423 8.12475C14.9423 7.91208 15.0142 7.734 15.158 7.5905C15.3017 7.44683 15.4798 7.375 15.6923 7.375H19.75C19.9625 7.375 20.1406 7.44692 20.2843 7.59075C20.4281 7.73458 20.5 7.91275 20.5 8.12525C20.5 8.33792 20.4281 8.516 20.2843 8.6595C20.1406 8.80317 19.9625 8.875 19.75 8.875H15.6923ZM15.6923 12.75C15.4798 12.75 15.3017 12.6781 15.158 12.5343C15.0142 12.3904 14.9423 12.2122 14.9423 11.9998C14.9423 11.7871 15.0142 11.609 15.158 11.4655C15.3017 11.3218 15.4798 11.25 15.6923 11.25H19.75C19.9625 11.25 20.1406 11.3219 20.2843 11.4658C20.4281 11.6096 20.5 11.7878 20.5 12.0003C20.5 12.2129 20.4281 12.391 20.2843 12.5345C20.1406 12.6782 19.9625 12.75 19.75 12.75H15.6923ZM15.6923 16.625C15.4798 16.625 15.3017 16.5531 15.158 16.4093C15.0142 16.2654 14.9423 16.0872 14.9423 15.8748C14.9423 15.6621 15.0142 15.484 15.158 15.3405C15.3017 15.1968 15.4798 15.125 15.6923 15.125H19.75C19.9625 15.125 20.1406 15.1969 20.2843 15.3408C20.4281 15.4846 20.5 15.6628 20.5 15.8753C20.5 16.0879 20.4281 16.266 20.2843 16.4095C20.1406 16.5532 19.9625 16.625 19.75 16.625H15.6923ZM4.25 20.5C4.0375 20.5 3.85942 20.4281 3.71575 20.2843C3.57192 20.1404 3.5 19.9622 3.5 19.7498C3.5 19.5371 3.57192 19.359 3.71575 19.2155C3.85942 19.0718 4.0375 19 4.25 19H19.75C19.9625 19 20.1406 19.0719 20.2843 19.2158C20.4281 19.3596 20.5 19.5378 20.5 19.7502C20.5 19.9629 20.4281 20.141 20.2843 20.2845C20.1406 20.4282 19.9625 20.5 19.75 20.5H4.25Z" fill="#292A2E"/>
</g>
</svg>
