<svg width="24" height="24" viewBox="0 0 24 24" fill="none" xmlns="http://www.w3.org/2000/svg">
<mask id="mask0_503_7027" style="mask-type:alpha" maskUnits="userSpaceOnUse" x="0" y="0" width="24" height="24">
<rect width="24" height="24" fill="#D9D9D9"/>
</mask>
<g mask="url(#mask0_503_7027)">
<path d="M12.8731 10.1577L11.2406 8.52495L11.6349 7.57295H10.3271C10.1488 7.43962 9.9792 7.28929 9.81837 7.12195C9.65753 6.95479 9.51045 6.78845 9.37712 6.62295C9.18212 6.39612 9.1497 6.14262 9.27987 5.86245C9.41003 5.58229 9.63603 5.4422 9.95787 5.4422H18.5001C18.795 5.4422 19.045 5.54479 19.2501 5.74995C19.4553 5.95512 19.5579 6.20512 19.5579 6.49995C19.5579 6.79479 19.4553 7.04479 19.2501 7.24995C19.045 7.45512 18.795 7.5577 18.5001 7.5577H13.9789L12.8731 10.1577ZM19.0424 21.15L11.4329 13.5307L9.56362 17.9402C9.47895 18.1402 9.34753 18.2995 9.16937 18.4182C8.9912 18.5367 8.79378 18.596 8.57712 18.596C8.19762 18.596 7.9027 18.4367 7.69237 18.1182C7.4822 17.7997 7.45337 17.4641 7.60587 17.1115L9.81562 11.9135L2.75412 4.86145C2.61562 4.72295 2.54478 4.54895 2.54162 4.33945C2.53828 4.12979 2.60912 3.95254 2.75412 3.8077C2.89895 3.66287 3.07453 3.59045 3.28087 3.59045C3.48737 3.59045 3.66303 3.66287 3.80787 3.8077L20.0961 20.096C20.2346 20.2345 20.3055 20.4085 20.3086 20.6182C20.312 20.8279 20.2411 21.0051 20.0961 21.15C19.9513 21.2948 19.7757 21.3672 19.5694 21.3672C19.3629 21.3672 19.1872 21.2948 19.0424 21.15Z" fill="#292A2E"/>
</g>
</svg>
