<svg width="24" height="24" viewBox="0 0 24 24" fill="none" xmlns="http://www.w3.org/2000/svg">
<mask id="mask0_503_6964" style="mask-type:alpha" maskUnits="userSpaceOnUse" x="0" y="0" width="24" height="24">
<rect width="24" height="24" fill="#D9D9D9"/>
</mask>
<g mask="url(#mask0_503_6964)">
<path d="M8.29063 15.1865L11.3136 7.33076C11.3485 7.22626 11.4124 7.14501 11.5054 7.08701C11.5985 7.02901 11.6975 7.00001 11.8021 7.00001H12.1951C12.3023 7.00001 12.4023 7.02901 12.4951 7.08701C12.588 7.14501 12.6518 7.22626 12.6866 7.33076L15.7289 15.223C15.7994 15.418 15.7795 15.5963 15.6694 15.7578C15.559 15.9193 15.4005 16 15.1939 16C15.0699 16 14.9556 15.9654 14.8511 15.8963C14.7466 15.8269 14.6726 15.7301 14.6289 15.6058L13.8596 13.5463H10.1714L9.40213 15.6213C9.35847 15.7391 9.28597 15.8317 9.18463 15.899C9.08347 15.9663 8.9723 16 8.85113 16C8.6358 16 8.47088 15.9141 8.35638 15.7423C8.24205 15.5706 8.22013 15.3853 8.29063 15.1865ZM10.5444 12.4963H13.4559L12.0406 8.61151H11.9406L10.5444 12.4963ZM1.69238 21.4038V18.0963C1.69238 17.8401 1.77905 17.6254 1.95238 17.4523C2.12555 17.2789 2.34022 17.1923 2.59638 17.1923H3.50013V6.80776H2.59463C2.33813 6.80776 2.12363 6.72109 1.95113 6.54776C1.77863 6.37459 1.69238 6.15993 1.69238 5.90376V2.59626C1.69238 2.34009 1.77905 2.12543 1.95238 1.95226C2.12555 1.77893 2.34022 1.69226 2.59638 1.69226H5.90388C6.16005 1.69226 6.37472 1.77893 6.54788 1.95226C6.72122 2.12543 6.80788 2.34009 6.80788 2.59626V3.50001H17.1924V2.59451C17.1924 2.33801 17.2791 2.12351 17.4524 1.95101C17.6256 1.77851 17.8402 1.69226 18.0964 1.69226H21.4039C21.66 1.69226 21.8747 1.77893 22.0479 1.95226C22.2212 2.12543 22.3079 2.34009 22.3079 2.59626V5.90376C22.3079 6.15993 22.2212 6.37459 22.0479 6.54776C21.8747 6.72109 21.66 6.80776 21.4039 6.80776H20.5001V17.1923H21.4056C21.6621 17.1923 21.8766 17.2789 22.0491 17.4523C22.2216 17.6254 22.3079 17.8401 22.3079 18.0963V21.4038C22.3079 21.6599 22.2212 21.8746 22.0479 22.0478C21.8747 22.2211 21.66 22.3078 21.4039 22.3078H18.0964C17.8402 22.3078 17.6256 22.2211 17.4524 22.0478C17.2791 21.8746 17.1924 21.6599 17.1924 21.4038V20.5H6.80788V21.4055C6.80788 21.662 6.72122 21.8765 6.54788 22.049C6.37472 22.2215 6.16005 22.3078 5.90388 22.3078H2.59638C2.34022 22.3078 2.12555 22.2211 1.95238 22.0478C1.77905 21.8746 1.69238 21.6599 1.69238 21.4038ZM6.80788 19H17.1924V18.0945C17.1924 17.838 17.2791 17.6235 17.4524 17.451C17.6256 17.2785 17.8402 17.1923 18.0964 17.1923H19.0001V6.80776H18.0946C17.8381 6.80776 17.6236 6.72109 17.4511 6.54776C17.2786 6.37459 17.1924 6.15993 17.1924 5.90376V5.00001H6.80788V5.90551C6.80788 6.16201 6.72122 6.37651 6.54788 6.54901C6.37472 6.72151 6.16005 6.80776 5.90388 6.80776H5.00013V17.1923H5.90563C6.16213 17.1923 6.37663 17.2789 6.54913 17.4523C6.72163 17.6254 6.80788 17.8401 6.80788 18.0963V19Z" fill="#292A2E"/>
</g>
</svg>
