<svg width="24" height="24" viewBox="0 0 24 24" fill="none" xmlns="http://www.w3.org/2000/svg">
<mask id="mask0_503_6979" style="mask-type:alpha" maskUnits="userSpaceOnUse" x="0" y="0" width="24" height="24">
<rect width="24" height="24" fill="#D9D9D9"/>
</mask>
<g mask="url(#mask0_503_6979)">
<path d="M7.46925 12L9.127 13.6578C9.26533 13.7963 9.3345 13.9677 9.3345 14.172C9.3345 14.3765 9.26533 14.5532 9.127 14.702C8.97817 14.857 8.79992 14.9329 8.59225 14.9298C8.38458 14.9266 8.20642 14.8507 8.05775 14.702L5.9885 12.6328C5.80767 12.4519 5.71725 12.241 5.71725 12C5.71725 11.759 5.80767 11.5481 5.9885 11.3672L8.073 9.28275C8.22183 9.13408 8.3975 9.06067 8.6 9.0625C8.8025 9.0645 8.97817 9.143 9.127 9.298C9.26533 9.44683 9.3355 9.6225 9.3375 9.825C9.33933 10.0275 9.26592 10.2032 9.11725 10.352L7.46925 12ZM16.5307 12L14.873 10.3423C14.7347 10.2038 14.6655 10.0323 14.6655 9.828C14.6655 9.6235 14.7347 9.44683 14.873 9.298C15.0218 9.143 15.2001 9.06708 15.4078 9.07025C15.6154 9.07342 15.7936 9.14933 15.9423 9.298L18.0115 11.3672C18.1923 11.5481 18.2828 11.759 18.2828 12C18.2828 12.241 18.1923 12.4519 18.0115 12.6328L15.927 14.7172C15.7782 14.8659 15.6025 14.9393 15.4 14.9375C15.1975 14.9355 15.0218 14.857 14.873 14.702C14.7347 14.5532 14.6645 14.3775 14.6625 14.175C14.6607 13.9725 14.7341 13.7968 14.8828 13.648L16.5307 12ZM5.30775 20.5C4.80258 20.5 4.375 20.325 4.025 19.975C3.675 19.625 3.5 19.1974 3.5 18.6923V15.75C3.5 15.5372 3.57183 15.359 3.7155 15.2155C3.859 15.0718 4.03717 15 4.25 15C4.46283 15 4.641 15.0718 4.7845 15.2155C4.92817 15.359 5 15.5372 5 15.75V18.6923C5 18.7692 5.03208 18.8398 5.09625 18.9038C5.16025 18.9679 5.23075 19 5.30775 19H8.25C8.46283 19 8.641 19.0718 8.7845 19.2155C8.92817 19.359 9 19.5372 9 19.75C9 19.9628 8.92817 20.141 8.7845 20.2845C8.641 20.4282 8.46283 20.5 8.25 20.5H5.30775ZM18.6923 20.5H15.75C15.5372 20.5 15.359 20.4282 15.2155 20.2845C15.0718 20.141 15 19.9628 15 19.75C15 19.5372 15.0718 19.359 15.2155 19.2155C15.359 19.0718 15.5372 19 15.75 19H18.6923C18.7692 19 18.8398 18.9679 18.9038 18.9038C18.9679 18.8398 19 18.7692 19 18.6923V15.75C19 15.5372 19.0718 15.359 19.2155 15.2155C19.359 15.0718 19.5372 15 19.75 15C19.9628 15 20.141 15.0718 20.2845 15.2155C20.4282 15.359 20.5 15.5372 20.5 15.75V18.6923C20.5 19.1974 20.325 19.625 19.975 19.975C19.625 20.325 19.1974 20.5 18.6923 20.5ZM3.5 8.25V5.30775C3.5 4.80258 3.675 4.375 4.025 4.025C4.375 3.675 4.80258 3.5 5.30775 3.5H8.25C8.46283 3.5 8.641 3.57183 8.7845 3.7155C8.92817 3.859 9 4.03717 9 4.25C9 4.46283 8.92817 4.641 8.7845 4.7845C8.641 4.92817 8.46283 5 8.25 5H5.30775C5.23075 5 5.16025 5.03208 5.09625 5.09625C5.03208 5.16025 5 5.23075 5 5.30775V8.25C5 8.46283 4.92817 8.641 4.7845 8.7845C4.641 8.92817 4.46283 9 4.25 9C4.03717 9 3.859 8.92817 3.7155 8.7845C3.57183 8.641 3.5 8.46283 3.5 8.25ZM19 8.25V5.30775C19 5.23075 18.9679 5.16025 18.9038 5.09625C18.8398 5.03208 18.7692 5 18.6923 5H15.75C15.5372 5 15.359 4.92817 15.2155 4.7845C15.0718 4.641 15 4.46283 15 4.25C15 4.03717 15.0718 3.859 15.2155 3.7155C15.359 3.57183 15.5372 3.5 15.75 3.5H18.6923C19.1974 3.5 19.625 3.675 19.975 4.025C20.325 4.375 20.5 4.80258 20.5 5.30775V8.25C20.5 8.46283 20.4282 8.641 20.2845 8.7845C20.141 8.92817 19.9628 9 19.75 9C19.5372 9 19.359 8.92817 19.2155 8.7845C19.0718 8.641 19 8.46283 19 8.25Z" fill="#292A2E"/>
</g>
</svg>
