<svg width="24" height="24" viewBox="0 0 24 24" fill="none" xmlns="http://www.w3.org/2000/svg">
<mask id="mask0_503_6982" style="mask-type:alpha" maskUnits="userSpaceOnUse" x="0" y="0" width="24" height="24">
<rect width="24" height="24" fill="#D9D9D9"/>
</mask>
<g mask="url(#mask0_503_6982)">
<path d="M5.57287 20.75C4.9062 20.75 4.36203 20.5693 3.94037 20.2078C3.51853 19.8461 3.30762 19.3673 3.30762 18.7712C3.30762 18.3212 3.4252 17.9593 3.66037 17.6855C3.8957 17.4118 4.19478 17.275 4.55762 17.275C4.90378 17.275 5.19862 17.3943 5.44212 17.6328C5.68578 17.8713 5.80762 18.1584 5.80762 18.4943C5.80762 18.6289 5.77778 18.7472 5.71812 18.849C5.65845 18.951 5.58503 19.0308 5.49787 19.0885C5.52987 19.1205 5.57478 19.1477 5.63262 19.1702C5.69028 19.1926 5.75437 19.2038 5.82487 19.2038C6.04287 19.1936 6.22112 19.0933 6.35962 18.903C6.49795 18.7125 6.60945 18.4192 6.69412 18.023L8.25387 9.75H6.09612C5.88328 9.75 5.70503 9.67817 5.56137 9.5345C5.41787 9.391 5.34612 9.21283 5.34612 9C5.34612 8.78717 5.41787 8.609 5.56137 8.4655C5.70503 8.32183 5.88328 8.25 6.09612 8.25H8.53262L9.03837 5.5155C9.16787 4.81167 9.45795 4.25808 9.90862 3.85475C10.3593 3.45158 10.9121 3.25 11.5671 3.25C12.2236 3.25 12.7627 3.44267 13.1844 3.828C13.6062 4.21317 13.8171 4.69867 13.8171 5.2845C13.8171 5.714 13.6995 6.06567 13.4644 6.3395C13.229 6.61317 12.93 6.75 12.5671 6.75C12.221 6.75 11.9261 6.63233 11.6826 6.397C11.439 6.16183 11.3171 5.87117 11.3171 5.525C11.3171 5.39033 11.347 5.27208 11.4066 5.17025C11.4663 5.06825 11.5429 4.98842 11.6364 4.93075C11.6044 4.89225 11.5547 4.86017 11.4874 4.8345C11.42 4.809 11.3511 4.79625 11.2806 4.79625C11.0716 4.81675 10.9053 4.90842 10.7816 5.07125C10.658 5.23408 10.5634 5.47508 10.4979 5.79425L10.0729 8.25H13.9036C14.1165 8.25 14.2947 8.32183 14.4384 8.4655C14.5819 8.609 14.6536 8.78717 14.6536 9C14.6536 9.19233 14.5921 9.35775 14.4691 9.49625C14.346 9.63458 14.1934 9.714 14.0114 9.7345H13.5401L15.4036 11.8598L17.2671 9.7345H16.7961C16.6139 9.714 16.4614 9.63458 16.3384 9.49625C16.2152 9.35775 16.1536 9.19233 16.1536 9C16.1536 8.78717 16.2255 8.609 16.3691 8.4655C16.5126 8.32183 16.6908 8.25 16.9036 8.25H19.9036C20.1165 8.25 20.2947 8.32183 20.4384 8.4655C20.5819 8.609 20.6536 8.78717 20.6536 9C20.6536 9.21283 20.5819 9.391 20.4384 9.5345C20.2947 9.67817 20.1165 9.75 19.9036 9.75H19.2384L16.4019 13L19.2479 16.25H19.9036C20.1165 16.25 20.2947 16.3218 20.4384 16.4655C20.5819 16.609 20.6536 16.7872 20.6536 17C20.6536 17.2128 20.5819 17.391 20.4384 17.5345C20.2947 17.6782 20.1165 17.75 19.9036 17.75H16.9036C16.6908 17.75 16.5126 17.6782 16.3691 17.5345C16.2255 17.391 16.1536 17.2128 16.1536 17C16.1536 16.8077 16.2152 16.6423 16.3384 16.5038C16.4614 16.3654 16.6139 16.286 16.7961 16.2655H17.2671L15.4036 14.125L13.5401 16.2655H14.0114C14.1934 16.286 14.346 16.3654 14.4691 16.5038C14.5921 16.6423 14.6536 16.8077 14.6536 17C14.6536 17.2128 14.5819 17.391 14.4384 17.5345C14.2947 17.6782 14.1165 17.75 13.9036 17.75H10.9036C10.6908 17.75 10.5126 17.6782 10.3691 17.5345C10.2255 17.391 10.1536 17.2128 10.1536 17C10.1536 16.7872 10.2255 16.609 10.3691 16.4655C10.5126 16.3218 10.6908 16.25 10.9036 16.25H11.5691L14.4056 13L11.5691 9.75H9.78437L8.18437 18.148C8.02553 19.0007 7.72528 19.6475 7.28362 20.0885C6.84195 20.5295 6.2717 20.75 5.57287 20.75Z" fill="#292A2E"/>
</g>
</svg>
