<svg width="24" height="24" viewBox="0 0 24 24" fill="none" xmlns="http://www.w3.org/2000/svg">
<mask id="mask0_503_6992" style="mask-type:alpha" maskUnits="userSpaceOnUse" x="0" y="0" width="24" height="24">
<rect width="24" height="24" fill="#D9D9D9"/>
</mask>
<g mask="url(#mask0_503_6992)">
<path d="M11.9462 20.8557C11.682 20.8557 11.4557 20.7663 11.2672 20.5874C11.0787 20.4086 10.9844 20.1807 10.9844 19.9037C10.9844 19.7807 11.0111 19.6487 11.0644 19.5077C11.1176 19.3667 11.1973 19.2429 11.3037 19.1364L15.1459 15.2942C15.2396 15.2005 15.2864 15.0941 15.2864 14.9749C15.2864 14.8558 15.2396 14.7494 15.1459 14.6557C15.0524 14.5622 14.9444 14.5196 14.8219 14.5279C14.6996 14.5363 14.5948 14.584 14.5077 14.6712L10.6807 18.4979C10.5743 18.6044 10.4564 18.6843 10.3269 18.7374C10.1974 18.7906 10.0628 18.8172 9.92293 18.8172C9.65243 18.8172 9.4246 18.7246 9.23943 18.5394C9.0541 18.3541 8.96143 18.1262 8.96143 17.8557C8.96143 17.6955 8.98968 17.5516 9.04618 17.4239C9.10251 17.2964 9.1756 17.1878 9.26543 17.0979L13.1077 13.2557C13.2012 13.1622 13.2479 13.0584 13.2479 12.9442C13.2479 12.83 13.2012 12.7262 13.1077 12.6327C13.014 12.539 12.9085 12.4939 12.7912 12.4972C12.6738 12.5004 12.5716 12.5455 12.4844 12.6327L8.64218 16.4594C8.54218 16.5594 8.42585 16.6377 8.29318 16.6942C8.16051 16.7505 8.01918 16.7787 7.86918 16.7787C7.60885 16.7787 7.38351 16.6835 7.19318 16.4932C7.00285 16.3029 6.90768 16.0775 6.90768 15.8172C6.90768 15.6775 6.93426 15.5429 6.98743 15.4134C7.0406 15.2839 7.12043 15.1659 7.22693 15.0594L10.9384 11.3479C11.0319 11.2544 11.0787 11.1481 11.0787 11.0289C11.0787 10.9096 11.0319 10.8032 10.9384 10.7097C10.8448 10.616 10.7393 10.5708 10.6219 10.5739C10.5046 10.5773 10.4023 10.6225 10.3152 10.7097L6.60368 14.4364C6.51401 14.5263 6.40285 14.5994 6.27018 14.6557C6.13751 14.7122 5.99101 14.7404 5.83068 14.7404C5.55385 14.7404 5.32435 14.6494 5.14218 14.4672C4.96018 14.2852 4.86918 14.0557 4.86918 13.7787C4.86918 13.639 4.89576 13.5044 4.94893 13.3749C5.0021 13.2454 5.08193 13.1275 5.18843 13.0212L9.80943 8.39994C9.98643 8.22311 10.2012 8.13978 10.4537 8.14994C10.7063 8.16028 10.9211 8.25386 11.0979 8.43069L13.3979 10.7307C13.5813 10.914 13.7931 11.0519 14.0334 11.1442C14.2739 11.2365 14.5159 11.2827 14.7594 11.2827C15.2671 11.2827 15.7018 11.1096 16.0634 10.7634C16.4249 10.4173 16.6057 9.97494 16.6057 9.43644C16.6057 9.20311 16.5624 8.96469 16.4759 8.72119C16.3893 8.47752 16.244 8.25378 16.0402 8.04994L13.6442 5.65394C13.3838 5.39361 13.2278 5.09903 13.1759 4.77019C13.1239 4.44136 13.2043 4.15128 13.4172 3.89994C13.5993 3.65644 13.8198 3.47636 14.0787 3.35969C14.3377 3.24303 14.6153 3.18469 14.9114 3.18469C15.2423 3.18469 15.5749 3.25677 15.9094 3.40094C16.2441 3.54511 16.5486 3.75436 16.8229 4.02869L21.0769 8.29794C21.3319 8.55311 21.5255 8.84803 21.6577 9.18269C21.7897 9.51719 21.8557 9.89727 21.8557 10.3229C21.8557 10.6563 21.7871 10.9826 21.6499 11.3019C21.5128 11.6211 21.3218 11.9031 21.0769 12.1479L12.7037 20.5364C12.5832 20.6569 12.4618 20.7403 12.3394 20.7864C12.2169 20.8326 12.0858 20.8557 11.9462 20.8557ZM3.08268 12.2499C2.74668 11.9781 2.49318 11.6604 2.32218 11.2969C2.15101 10.9336 2.06543 10.5558 2.06543 10.1634C2.06543 9.79294 2.13818 9.43236 2.28368 9.08169C2.42918 8.73103 2.64551 8.41211 2.93268 8.12494L7.01343 4.02869C7.2646 3.77753 7.54185 3.58336 7.84518 3.44619C8.14835 3.30902 8.47235 3.24044 8.81718 3.24044C9.18251 3.24044 9.53701 3.30902 9.88068 3.44619C10.2242 3.58336 10.5216 3.77753 10.7729 4.02869L15.4172 8.67294C15.5133 8.76911 15.5906 8.88294 15.6489 9.01444C15.7073 9.14578 15.7364 9.28136 15.7364 9.42119C15.7364 9.69169 15.6438 9.92111 15.4584 10.1094C15.2733 10.2979 15.0454 10.3922 14.7749 10.3922C14.6288 10.3922 14.4899 10.363 14.3584 10.3047C14.2271 10.2464 14.1133 10.1691 14.0172 10.0729L11.7114 7.78269C11.3666 7.43786 10.9423 7.26544 10.4384 7.26544C9.9346 7.26544 9.51026 7.43786 9.16543 7.78269L4.70568 12.2422C4.48268 12.4654 4.21893 12.5731 3.91443 12.5654C3.60993 12.5576 3.33268 12.4524 3.08268 12.2499Z" fill="#292A2E"/>
</g>
</svg>
