<svg width="24" height="24" viewBox="0 0 24 24" fill="none" xmlns="http://www.w3.org/2000/svg">
<mask id="mask0_503_6995" style="mask-type:alpha" maskUnits="userSpaceOnUse" x="0" y="0" width="24" height="24">
<rect width="24" height="24" fill="#D9D9D9"/>
</mask>
<g mask="url(#mask0_503_6995)">
<path d="M17.0577 15.423C17.4039 15.423 17.6988 15.3038 17.9423 15.0653C18.1859 14.8269 18.3077 14.5295 18.3077 14.173C18.3077 13.8269 18.1859 13.532 17.9423 13.2885C17.6988 13.0449 17.4039 12.923 17.0577 12.923C16.7013 12.923 16.4038 13.0449 16.1655 13.2885C15.927 13.532 15.8077 13.8269 15.8077 14.173C15.8077 14.5295 15.927 14.8269 16.1655 15.0653C16.4038 15.3038 16.7013 15.423 17.0577 15.423ZM2.5 9.32703L5.65975 6.12903C5.82375 5.95836 6.017 5.82369 6.2395 5.72503C6.46183 5.62636 6.69867 5.57703 6.95 5.57703H17.025C17.2763 5.57703 17.5132 5.62636 17.7355 5.72503C17.958 5.82369 18.1512 5.95836 18.3152 6.12903L21.5 9.32703H2.5ZM4.30775 18.2115C3.79242 18.2115 3.36225 18.0391 3.01725 17.6943C2.67242 17.3493 2.5 16.9191 2.5 16.4038V10.827H21.5V16.4038C21.5 16.9191 21.3234 17.3493 20.9703 17.6943C20.6169 18.0391 20.1909 18.2115 19.6923 18.2115H4.30775Z" fill="#292A2E"/>
</g>
</svg>
