<svg width="24" height="24" viewBox="0 0 24 24" fill="none" xmlns="http://www.w3.org/2000/svg">
<mask id="mask0_503_6994" style="mask-type:alpha" maskUnits="userSpaceOnUse" x="0" y="0" width="24" height="24">
<rect width="24" height="24" fill="#D9D9D9"/>
</mask>
<g mask="url(#mask0_503_6994)">
<path d="M4.30775 16.7115H19.6923C19.7821 16.7115 19.8558 16.6827 19.9135 16.625C19.9712 16.5674 20 16.4936 20 16.4038V10.827H4V16.4038C4 16.4936 4.02883 16.5674 4.0865 16.625C4.14417 16.6827 4.21792 16.7115 4.30775 16.7115ZM17.0565 15.0193C17.4035 15.0193 17.6988 14.8979 17.9423 14.655C18.1859 14.4122 18.3077 14.1173 18.3077 13.7703C18.3077 13.4234 18.1863 13.1282 17.9435 12.8845C17.7007 12.641 17.4057 12.5193 17.0587 12.5193C16.7119 12.5193 16.4167 12.6407 16.173 12.8835C15.9295 13.1264 15.8077 13.4212 15.8077 13.768C15.8077 14.115 15.9292 14.4103 16.172 14.6538C16.4148 14.8974 16.7097 15.0193 17.0565 15.0193ZM21.5 9.32703H19.3865L17.175 7.07703H6.825L4.6135 9.32703H2.5L5.68475 6.10403C5.84875 5.93336 6.04125 5.80286 6.26225 5.71253C6.48325 5.62219 6.71575 5.57703 6.95975 5.57703H17.0402C17.2843 5.57703 17.5168 5.62219 17.7378 5.71253C17.9587 5.80286 18.1512 5.93336 18.3152 6.10403L21.5 9.32703ZM4.30775 18.2115C3.81058 18.2115 3.385 18.0345 3.031 17.6805C2.677 17.3265 2.5 16.9009 2.5 16.4038V9.32703H21.5V16.4038C21.5 16.9009 21.323 17.3265 20.969 17.6805C20.615 18.0345 20.1894 18.2115 19.6923 18.2115H4.30775Z" fill="#292A2E"/>
</g>
</svg>
