<svg width="24" height="24" viewBox="0 0 24 24" fill="none" xmlns="http://www.w3.org/2000/svg">
<mask id="mask0_503_6999" style="mask-type:alpha" maskUnits="userSpaceOnUse" x="0" y="0" width="24" height="24">
<rect width="24" height="24" fill="#D9D9D9"/>
</mask>
<g mask="url(#mask0_503_6999)">
<path d="M7.64425 17.5C6.64042 17.5 5.78208 17.1484 5.06925 16.4452C4.35642 15.7419 4 14.8916 4 13.8942V10.0212C4 9.26089 4.24267 8.59515 4.728 8.02398C5.21317 7.45281 5.83075 7.09865 6.58075 6.96148C7.49225 6.79098 8.3955 6.66981 9.2905 6.59798C10.1853 6.52631 11.0885 6.49048 12 6.49048C12.9115 6.49048 13.8188 6.52473 14.722 6.59323C15.6253 6.66189 16.5244 6.78465 17.4193 6.96148C18.1693 7.10898 18.7868 7.46573 19.272 8.03173C19.7573 8.59773 20 9.26089 20 10.0212V13.8942C20 14.8981 19.642 15.75 18.926 16.45C18.21 17.15 17.3501 17.5 16.3462 17.5H15.375C15.1775 17.5 14.9817 17.4859 14.7875 17.4577C14.5933 17.4294 14.4027 17.38 14.2155 17.3095L12.673 16.798C12.4538 16.7146 12.2295 16.673 12 16.673C11.7705 16.673 11.5462 16.7146 11.327 16.798L9.775 17.3095C9.58783 17.38 9.39717 17.4294 9.203 17.4577C9.00867 17.4859 8.81283 17.5 8.6155 17.5H7.64425ZM7.64425 16H8.6155C8.7385 16 8.85742 15.9901 8.97225 15.9702C9.08692 15.9504 9.20067 15.9238 9.3135 15.8905C9.76483 15.7468 10.2068 15.5981 10.6395 15.4442C11.0722 15.2904 11.5257 15.2135 12 15.2135C12.4743 15.2135 12.9304 15.2878 13.3682 15.4365C13.8061 15.5851 14.2455 15.7365 14.6865 15.8905C14.7993 15.9238 14.9115 15.9504 15.023 15.9702C15.1345 15.9901 15.2518 16 15.375 16H16.3462C16.9346 16 17.4407 15.7946 17.8645 15.3837C18.2882 14.9727 18.5 14.4762 18.5 13.8942V10.0212C18.5 9.62239 18.3705 9.27681 18.1115 8.98448C17.8525 8.69231 17.5287 8.50456 17.1403 8.42123C16.2929 8.24423 15.443 8.12814 14.5905 8.07298C13.7378 8.01798 12.8743 7.99048 12 7.99048C11.1257 7.99048 10.2648 8.02214 9.41725 8.08548C8.56992 8.14898 7.71742 8.26089 6.85975 8.42123C6.47125 8.49423 6.1475 8.67948 5.8885 8.97698C5.6295 9.27431 5.5 9.62239 5.5 10.0212V13.8942C5.5 14.4762 5.71025 14.9727 6.13075 15.3837C6.55125 15.7946 7.05575 16 7.64425 16ZM2.09625 13.8942C1.93075 13.8942 1.79 13.8362 1.674 13.7202C1.558 13.6042 1.5 13.4635 1.5 13.298V10.6537C1.5 10.4884 1.558 10.3493 1.674 10.2365C1.79 10.1236 1.93075 10.0672 2.09625 10.0672C2.26158 10.0672 2.40067 10.1236 2.5135 10.2365C2.62633 10.3493 2.68275 10.4884 2.68275 10.6537V13.3077C2.68275 13.4731 2.62792 13.6121 2.51825 13.725C2.40858 13.8378 2.26792 13.8942 2.09625 13.8942ZM21.9135 13.8942C21.748 13.8942 21.6073 13.8362 21.4913 13.7202C21.3753 13.6042 21.3173 13.4635 21.3173 13.298V10.6537C21.3173 10.4884 21.3753 10.3493 21.4913 10.2365C21.6073 10.1236 21.748 10.0672 21.9135 10.0672C22.0788 10.0672 22.2179 10.1236 22.3307 10.2365C22.4436 10.3493 22.5 10.4884 22.5 10.6537V13.3077C22.5 13.4731 22.4452 13.6121 22.3355 13.725C22.2258 13.8378 22.0852 13.8942 21.9135 13.8942ZM7.64425 16C7.05575 16 6.55125 15.7946 6.13075 15.3837C5.71025 14.9727 5.5 14.4762 5.5 13.8942V10.0212C5.5 9.62239 5.6295 9.27431 5.8885 8.97698C6.1475 8.67948 6.47125 8.49423 6.85975 8.42123C7.71742 8.26089 8.56992 8.14898 9.41725 8.08548C10.2648 8.02214 11.1257 7.99048 12 7.99048C12.8743 7.99048 13.7378 8.01798 14.5905 8.07298C15.443 8.12814 16.2929 8.24423 17.1403 8.42123C17.5287 8.50456 17.8525 8.69231 18.1115 8.98448C18.3705 9.27681 18.5 9.62239 18.5 10.0212V13.8942C18.5 14.4762 18.2882 14.9727 17.8645 15.3837C17.4407 15.7946 16.9346 16 16.3462 16H15.375C15.2518 16 15.1345 15.9901 15.023 15.9702C14.9115 15.9504 14.7993 15.9238 14.6865 15.8905C14.2455 15.7365 13.8061 15.5851 13.3682 15.4365C12.9304 15.2878 12.4743 15.2135 12 15.2135C11.5257 15.2135 11.0722 15.2904 10.6395 15.4442C10.2068 15.5981 9.76483 15.7468 9.3135 15.8905C9.20067 15.9238 9.08692 15.9504 8.97225 15.9702C8.85742 15.9901 8.7385 16 8.6155 16H7.64425Z" fill="#292A2E"/>
</g>
</svg>
