<svg width="24" height="24" viewBox="0 0 24 24" fill="none" xmlns="http://www.w3.org/2000/svg">
<mask id="mask0_503_6998" style="mask-type:alpha" maskUnits="userSpaceOnUse" x="0" y="0" width="24" height="24">
<rect width="24" height="24" fill="#D9D9D9"/>
</mask>
<g mask="url(#mask0_503_6998)">
<path d="M7.64425 17.5C6.64208 17.5 5.78417 17.1484 5.0705 16.4452C4.35683 15.7419 4 14.8916 4 13.8942V10.0212C4 9.26306 4.24267 8.5979 4.728 8.02573C5.21317 7.4534 5.83075 7.09865 6.58075 6.96148C7.49208 6.78881 8.39533 6.66714 9.2905 6.59648C10.1858 6.52581 11.0892 6.49048 12.0005 6.49048C12.9117 6.49048 13.8188 6.52473 14.722 6.59323C15.6253 6.66189 16.5244 6.78465 17.4193 6.96148C18.1693 7.10898 18.7868 7.46581 19.272 8.03198C19.7573 8.59815 20 9.26123 20 10.0212V13.8942C20 14.8981 19.6423 15.75 18.9268 16.45C18.2111 17.15 17.3509 17.5 16.3462 17.5H15.375C15.1797 17.5 14.9843 17.4859 14.789 17.4577C14.5938 17.4294 14.4027 17.38 14.2155 17.3095L12.673 16.798C12.4538 16.7146 12.2295 16.673 12 16.673C11.7705 16.673 11.5462 16.7146 11.327 16.798L9.775 17.3095C9.58783 17.38 9.39658 17.4294 9.20125 17.4577C9.00592 17.4859 8.81067 17.5 8.6155 17.5H7.64425ZM7.64425 16H8.6155C8.73883 16 8.85775 15.9901 8.97225 15.9702C9.08692 15.9504 9.20067 15.9238 9.3135 15.8905C9.76483 15.7468 10.2073 15.5981 10.641 15.4442C11.0748 15.2904 11.5284 15.2135 12.0017 15.2135C12.4749 15.2135 12.9309 15.2874 13.3698 15.4352C13.8088 15.5831 14.2477 15.7348 14.6865 15.8905C14.7993 15.9238 14.912 15.9504 15.0245 15.9702C15.137 15.9901 15.2538 16 15.375 16H16.3462C16.9346 16 17.4407 15.7938 17.8645 15.3815C18.2882 14.969 18.5 14.4732 18.5 13.8942V10.0212C18.5 9.62056 18.3705 9.27456 18.1115 8.98323C17.8525 8.6919 17.5287 8.50456 17.1403 8.42123C16.2949 8.24573 15.4455 8.13006 14.592 8.07423C13.7383 8.01839 12.8743 7.99048 12 7.99048C11.123 7.99048 10.2622 8.02231 9.41775 8.08598C8.57308 8.14981 7.72042 8.26156 6.85975 8.42123C6.47125 8.49356 6.1475 8.67881 5.8885 8.97698C5.6295 9.27531 5.5 9.62339 5.5 10.0212V13.8942C5.5 14.4732 5.70992 14.969 6.12975 15.3815C6.54975 15.7938 7.05458 16 7.64425 16ZM2.1005 13.8942C1.93217 13.8942 1.79 13.8362 1.674 13.7202C1.558 13.6042 1.5 13.4635 1.5 13.298V10.6537C1.5 10.4884 1.558 10.3493 1.674 10.2365C1.79 10.1236 1.93075 10.0672 2.09625 10.0672C2.26158 10.0672 2.40067 10.1236 2.5135 10.2365C2.62633 10.3493 2.68275 10.4884 2.68275 10.6537V13.3077C2.68275 13.4731 2.62775 13.6121 2.51775 13.725C2.40775 13.8378 2.26867 13.8942 2.1005 13.8942ZM21.9178 13.8942C21.7494 13.8942 21.6073 13.8362 21.4913 13.7202C21.3753 13.6042 21.3173 13.4635 21.3173 13.298V10.6537C21.3173 10.4884 21.3753 10.3493 21.4913 10.2365C21.6073 10.1236 21.748 10.0672 21.9135 10.0672C22.0788 10.0672 22.2179 10.1236 22.3307 10.2365C22.4436 10.3493 22.5 10.4884 22.5 10.6537V13.3077C22.5 13.4731 22.445 13.6121 22.335 13.725C22.225 13.8378 22.0859 13.8942 21.9178 13.8942Z" fill="#292A2E"/>
</g>
</svg>
