<svg width="24" height="24" viewBox="0 0 24 24" fill="none" xmlns="http://www.w3.org/2000/svg">
<mask id="mask0_503_7000" style="mask-type:alpha" maskUnits="userSpaceOnUse" x="0" y="0" width="24" height="24">
<rect width="24" height="24" fill="#D9D9D9"/>
</mask>
<g mask="url(#mask0_503_7000)">
<path d="M4.75952 8.99999C4.75952 10.082 4.93518 11.1082 5.28652 12.0787C5.63785 13.0494 6.13468 13.9392 6.77702 14.748C6.91535 14.9237 6.98777 15.117 6.99427 15.328C7.0006 15.5388 6.92627 15.7186 6.77127 15.8672C6.60577 16.0159 6.41827 16.0777 6.20877 16.0527C5.9991 16.0277 5.82185 15.9275 5.67702 15.752C4.92952 14.8275 4.33977 13.7897 3.90777 12.6385C3.47577 11.4872 3.25977 10.2743 3.25977 8.99999C3.25977 7.70516 3.47577 6.48049 3.90777 5.32599C4.33977 4.17149 4.92952 3.12883 5.67702 2.19799C5.82185 2.02249 5.9991 1.92224 6.20877 1.89724C6.41827 1.87224 6.60577 1.93408 6.77127 2.08274C6.92627 2.23141 7.0006 2.41116 6.99427 2.62199C6.98777 2.83299 6.91535 3.02633 6.77702 3.20199C6.13468 4.01083 5.63785 4.90474 5.28652 5.88374C4.93518 6.86258 4.75952 7.90133 4.75952 8.99999ZM14.0095 11.3077C13.3608 11.3077 12.8141 11.0827 12.3693 10.6327C11.9244 10.1827 11.702 9.63849 11.702 8.99999C11.702 8.35133 11.9244 7.80458 12.3693 7.35974C12.8141 6.91474 13.3608 6.69224 14.0095 6.69224C14.6583 6.69224 15.2052 6.91474 15.65 7.35974C16.0948 7.80458 16.3173 8.35133 16.3173 8.99999C16.3173 9.63849 16.0948 10.1827 15.65 10.6327C15.2052 11.0827 14.6583 11.3077 14.0095 11.3077ZM19.2213 18.25C19.2213 18.0372 19.2946 17.8573 19.4413 17.7105C19.5881 17.5638 19.7679 17.4905 19.9808 17.4905C20.1936 17.4905 20.3734 17.5638 20.5203 17.7105C20.6669 17.8573 20.7403 18.0372 20.7403 18.25C20.6891 19.2282 20.3039 20.0561 19.5845 20.7337C18.8653 21.4112 18.007 21.75 17.0095 21.75C16.0468 21.75 15.2523 21.4948 14.626 20.9845C13.9997 20.4743 13.5148 19.7385 13.1713 18.777C12.9008 17.9948 12.6203 17.4195 12.3298 17.051C12.0394 16.6823 11.434 16.1346 10.5135 15.4077C9.49302 14.5872 8.6956 13.6632 8.12127 12.6355C7.54693 11.608 7.25977 10.3962 7.25977 8.99999C7.25977 7.08083 7.90493 5.47599 9.19527 4.18549C10.4856 2.89516 12.0903 2.24999 14.0095 2.24999C15.8903 2.24999 17.4712 2.86791 18.752 4.10374C20.0327 5.33974 20.6954 6.88849 20.7403 8.74999C20.7403 8.96283 20.6685 9.14099 20.525 9.28449C20.3813 9.42816 20.2032 9.49999 19.9905 9.49999C19.7777 9.49999 19.5994 9.42816 19.4558 9.28449C19.3123 9.14099 19.2405 8.96283 19.2405 8.74999C19.1955 7.31416 18.673 6.12183 17.673 5.17299C16.673 4.22433 15.4518 3.74999 14.0095 3.74999C12.5288 3.74999 11.2837 4.25483 10.274 5.26449C9.26435 6.27399 8.75952 7.51916 8.75952 8.99999C8.75952 10.159 9.00535 11.1689 9.49702 12.0297C9.98868 12.8907 10.6544 13.6411 11.4943 14.2807C12.3224 14.8949 12.9638 15.4843 13.4183 16.049C13.8728 16.6138 14.2327 17.2654 14.498 18.0037C14.757 18.7436 15.0698 19.3029 15.4365 19.6817C15.8032 20.0606 16.3275 20.25 17.0095 20.25C17.5788 20.25 18.0769 20.0574 18.5038 19.6722C18.9308 19.2869 19.1699 18.8128 19.2213 18.25Z" fill="#292A2E"/>
</g>
</svg>
