<svg width="24" height="24" viewBox="0 0 24 24" fill="none" xmlns="http://www.w3.org/2000/svg">
<mask id="mask0_1356_892" style="mask-type:alpha" maskUnits="userSpaceOnUse" x="0" y="0" width="24" height="24">
<rect width="24" height="24" fill="#D9D9D9"/>
</mask>
<g mask="url(#mask0_1356_892)">
<path d="M11.2498 17.6172V6.36345L9.92681 7.67695C9.78998 7.81529 9.61889 7.88445 9.41356 7.88445C9.20823 7.88445 9.03064 7.81012 8.88081 7.66145C8.74348 7.52512 8.67481 7.35162 8.67481 7.14095C8.67481 6.93029 8.74406 6.7557 8.88256 6.6172L11.3643 4.13545C11.4598 4.03995 11.5606 3.97304 11.6668 3.9347C11.773 3.8962 11.8867 3.87695 12.0081 3.87695C12.1296 3.87695 12.2422 3.8962 12.3461 3.9347C12.4499 3.97304 12.5495 4.03995 12.6448 4.13545L15.1268 6.6172C15.2651 6.7557 15.336 6.92562 15.3393 7.12695C15.3425 7.32812 15.2723 7.50629 15.1288 7.66145C14.9723 7.81662 14.7934 7.8942 14.5921 7.8942C14.3909 7.8942 14.2127 7.81662 14.0576 7.66145L12.7498 6.36345V17.6172L14.0728 16.3135C14.2096 16.175 14.3807 16.1057 14.5861 16.1057C14.7914 16.1057 14.969 16.18 15.1188 16.3287C15.2561 16.465 15.3248 16.6385 15.3248 16.8492C15.3248 17.0599 15.2556 17.2345 15.1171 17.373L12.6353 19.8547C12.5398 19.9502 12.4397 20.0172 12.3351 20.0557C12.2304 20.0942 12.1182 20.1135 11.9986 20.1135C11.8789 20.1135 11.7652 20.094 11.6576 20.0552C11.5499 20.0165 11.4499 19.9507 11.3576 19.8577L8.87281 17.373C8.73648 17.2361 8.66523 17.065 8.65906 16.8597C8.65289 16.6545 8.72414 16.477 8.87281 16.3272C9.00914 16.1899 9.18264 16.1212 9.39331 16.1212C9.60398 16.1212 9.77856 16.1904 9.91706 16.3287L11.2498 17.6172Z" fill="#292A2E"/>
</g>
</svg>
