<svg width="24" height="24" viewBox="0 0 24 24" fill="none" xmlns="http://www.w3.org/2000/svg">
<mask id="mask0_503_7001" style="mask-type:alpha" maskUnits="userSpaceOnUse" x="0" y="0" width="24" height="24">
<rect width="24" height="24" fill="#D9D9D9"/>
</mask>
<g mask="url(#mask0_503_7001)">
<path d="M11.9806 20.5C9.97043 20.5 8.19868 19.8865 6.66534 18.6595C5.13201 17.4327 4.14926 15.8628 3.71709 13.95C3.66326 13.7513 3.69568 13.5687 3.81434 13.402C3.93284 13.2353 4.10076 13.1385 4.31809 13.1115C4.52259 13.0847 4.70593 13.1251 4.86809 13.2327C5.03026 13.3404 5.14343 13.4988 5.20759 13.7078C5.58826 15.2526 6.40843 16.5208 7.6681 17.5125C8.92776 18.5042 10.3653 19 11.9806 19C13.9306 19 15.5848 18.3208 16.9431 16.9625C18.3014 15.6042 18.9806 13.95 18.9806 12C18.9806 10.05 18.3014 8.39583 16.9431 7.0375C15.5848 5.67917 13.9306 5 11.9806 5C10.8883 5 9.86459 5.24267 8.9096 5.728C7.95443 6.21317 7.13193 6.88075 6.44209 7.73075H8.30759C8.52009 7.73075 8.69818 7.80267 8.84184 7.9465C8.98568 8.09033 9.05759 8.2685 9.05759 8.481C9.05759 8.69367 8.98568 8.87175 8.84184 9.01525C8.69818 9.15892 8.52009 9.23075 8.30759 9.23075H4.88459C4.62843 9.23075 4.41376 9.14408 4.24059 8.97075C4.06726 8.79758 3.98059 8.58292 3.98059 8.32675V4.90375C3.98059 4.69125 4.05251 4.51317 4.19634 4.3695C4.34018 4.22567 4.51843 4.15375 4.73109 4.15375C4.94359 4.15375 5.12168 4.22567 5.26534 4.3695C5.40884 4.51317 5.48059 4.69125 5.48059 4.90375V6.523C6.29209 5.56533 7.26393 4.82208 8.39609 4.29325C9.52809 3.76442 10.7229 3.5 11.9806 3.5C13.1606 3.5 14.2658 3.72308 15.2963 4.16925C16.3268 4.61542 17.2254 5.22183 17.9921 5.9885C18.7588 6.75517 19.3652 7.65367 19.8113 8.684C20.2575 9.7145 20.4806 10.8197 20.4806 11.9995C20.4806 13.1793 20.2575 14.2846 19.8113 15.3152C19.3652 16.3461 18.7588 17.2448 17.9921 18.0115C17.2254 18.7782 16.3268 19.3846 15.2963 19.8307C14.2658 20.2769 13.1606 20.5 11.9806 20.5ZM12.7593 11.6962L15.5093 14.4462C15.6478 14.5846 15.7187 14.7586 15.7218 14.9683C15.7252 15.1779 15.6543 15.3552 15.5093 15.5C15.3645 15.6448 15.1889 15.7172 14.9826 15.7172C14.7761 15.7172 14.6004 15.6448 14.4556 15.5L11.5306 12.575C11.4371 12.4813 11.3685 12.3793 11.3248 12.269C11.2813 12.1587 11.2596 12.0447 11.2596 11.927V7.75C11.2596 7.5375 11.3314 7.35933 11.4751 7.2155C11.6189 7.07183 11.7972 7 12.0098 7C12.2223 7 12.4004 7.07183 12.5441 7.2155C12.6876 7.35933 12.7593 7.5375 12.7593 7.75V11.6962Z" fill="#292A2E"/>
</g>
</svg>
