<svg width="24" height="24" viewBox="0 0 24 24" fill="none" xmlns="http://www.w3.org/2000/svg">
<mask id="mask0_503_7014" style="mask-type:alpha" maskUnits="userSpaceOnUse" x="0" y="0" width="24" height="24">
<rect width="24" height="24" fill="#D9D9D9"/>
</mask>
<g mask="url(#mask0_503_7014)">
<path d="M12 21C9.92183 21 8.15233 20.2823 6.6915 18.847C5.2305 17.4117 4.5 15.6643 4.5 13.605C4.5 12.6222 4.69458 11.6821 5.08375 10.7848C5.47275 9.88726 6.01025 9.09109 6.69625 8.39626L12 3.19226L17.3038 8.39626C17.9898 9.09109 18.5273 9.88734 18.9163 10.785C19.3054 11.6827 19.5 12.6233 19.5 13.607C19.5 15.6677 18.7695 17.415 17.3085 18.849C15.8477 20.283 14.0782 21 12 21ZM12 19.5C13.6667 19.5 15.0833 18.9308 16.25 17.7923C17.4167 16.6538 18 15.2588 18 13.6075C18 12.8233 17.85 12.0768 17.55 11.368C17.25 10.659 16.8167 10.0376 16.25 9.50376L12 5.30001L7.75 9.50376C7.18333 10.0376 6.75 10.659 6.45 11.368C6.15 12.0768 6 12.8233 6 13.6075C6 15.2588 6.58333 16.6538 7.75 17.7923C8.91667 18.9308 10.3333 19.5 12 19.5Z" fill="#292A2E"/>
</g>
</svg>
