<svg width="24" height="24" viewBox="0 0 24 24" fill="none" xmlns="http://www.w3.org/2000/svg">
<mask id="mask0_503_7013" style="mask-type:alpha" maskUnits="userSpaceOnUse" x="0" y="0" width="24" height="24">
<rect width="24" height="24" fill="#D9D9D9"/>
</mask>
<g mask="url(#mask0_503_7013)">
<path d="M12 21C9.92183 21 8.15233 20.2824 6.6915 18.847C5.2305 17.4117 4.5 15.6644 4.5 13.605C4.5 12.6222 4.69458 11.6821 5.08375 10.7848C5.47275 9.88728 6.01025 9.09111 6.69625 8.39628L10.7348 4.43278C10.9151 4.26778 11.1143 4.14036 11.3325 4.05053C11.5507 3.96053 11.7725 3.91553 11.998 3.91553C12.2237 3.91553 12.446 3.96053 12.665 4.05053C12.884 4.14036 13.0841 4.26778 13.2653 4.43278L17.3038 8.39628C17.9898 9.09111 18.5273 9.88736 18.9163 10.785C19.3054 11.6827 19.5 12.6234 19.5 13.607C19.5 15.6677 18.7695 17.415 17.3085 18.849C15.8477 20.283 14.0782 21 12 21Z" fill="#292A2E"/>
</g>
</svg>
