<svg width="24" height="24" viewBox="0 0 24 24" fill="none" xmlns="http://www.w3.org/2000/svg">
<mask id="mask0_503_7008" style="mask-type:alpha" maskUnits="userSpaceOnUse" x="0" y="0" width="24" height="24">
<rect width="24" height="24" fill="#D9D9D9"/>
</mask>
<g mask="url(#mask0_503_7008)">
<path d="M5.30775 20.5C4.80258 20.5 4.375 20.325 4.025 19.975C3.675 19.625 3.5 19.1974 3.5 18.6923V5.30775C3.5 4.80258 3.675 4.375 4.025 4.025C4.375 3.675 4.80258 3.5 5.30775 3.5H18.6923C19.1974 3.5 19.625 3.675 19.975 4.025C20.325 4.375 20.5 4.80258 20.5 5.30775V18.6923C20.5 19.1974 20.325 19.625 19.975 19.975C19.625 20.325 19.1974 20.5 18.6923 20.5H5.30775ZM12 16.3077C12.5333 16.3077 13.0282 16.1718 13.4845 15.9C13.941 15.6282 14.3013 15.2608 14.5655 14.798C14.659 14.6417 14.7823 14.5208 14.9355 14.4355C15.0888 14.3503 15.2572 14.3077 15.4405 14.3077H19V5.30775C19 5.21792 18.9712 5.14417 18.9135 5.0865C18.8558 5.02883 18.7821 5 18.6923 5H5.30775C5.21792 5 5.14417 5.02883 5.0865 5.0865C5.02883 5.14417 5 5.21792 5 5.30775V14.3077H8.5595C8.74283 14.3077 8.91117 14.3503 9.0645 14.4355C9.21767 14.5208 9.341 14.6417 9.4345 14.798C9.69867 15.2608 10.059 15.6282 10.5155 15.9C10.9718 16.1718 11.4667 16.3077 12 16.3077Z" fill="#292A2E"/>
</g>
</svg>
