<svg width="24" height="24" viewBox="0 0 24 24" fill="none" xmlns="http://www.w3.org/2000/svg">
<mask id="mask0_503_7022" style="mask-type:alpha" maskUnits="userSpaceOnUse" x="0" y="0" width="24" height="24">
<rect width="24" height="24" fill="#D9D9D9"/>
</mask>
<g mask="url(#mask0_503_7022)">
<path d="M3.14244 9.37122L6.23095 3.89222C6.32461 3.72822 6.43845 3.60931 6.57245 3.53547C6.70661 3.46181 6.8557 3.42497 7.0197 3.42497C7.1837 3.42497 7.33261 3.46181 7.46644 3.53547C7.60044 3.60931 7.71428 3.72822 7.80795 3.89222L10.8964 9.37122C10.9798 9.52306 11.0173 9.67489 11.0089 9.82672C11.0006 9.97856 10.9579 10.1228 10.8809 10.2595C10.8059 10.3951 10.7009 10.5044 10.5659 10.5872C10.4311 10.6701 10.2779 10.7115 10.1064 10.7115H3.93244C3.76094 10.7115 3.60769 10.6701 3.47269 10.5872C3.33786 10.5044 3.23294 10.3951 3.15794 10.2595C3.08094 10.1228 3.03828 9.97856 3.02994 9.82672C3.02161 9.67489 3.05911 9.52306 3.14244 9.37122ZM7.02894 20.7595C5.98678 20.7595 5.09961 20.3935 4.36745 19.6615C3.63545 18.9295 3.26945 18.0436 3.26945 17.004C3.26945 15.9488 3.63545 15.0577 4.36745 14.3307C5.09961 13.6039 5.98678 13.2405 7.02894 13.2405C8.07128 13.2405 8.95845 13.6065 9.69044 14.3385C10.4226 15.0705 10.7887 15.9576 10.7887 17C10.7887 18.0423 10.4226 18.9295 9.69044 19.6615C8.95845 20.3935 8.07128 20.7595 7.02894 20.7595ZM7.02894 19.2597C7.65594 19.2597 8.18928 19.0398 8.62895 18.6C9.06878 18.1603 9.2887 17.627 9.2887 17C9.2887 16.373 9.06878 15.8396 8.62895 15.4C8.18928 14.9601 7.65594 14.7402 7.02894 14.7402C6.40211 14.7402 5.86878 14.9601 5.42895 15.4C4.98928 15.8396 4.76945 16.373 4.76945 17C4.76945 17.627 4.98928 18.1603 5.42895 18.6C5.86878 19.0398 6.40211 19.2597 7.02894 19.2597ZM4.9482 9.21147H9.1002L7.01944 5.56722L4.9482 9.21147ZM13.2599 19.8557V14.1442C13.2599 13.8881 13.3465 13.6734 13.5197 13.5002C13.6929 13.3271 13.9075 13.2405 14.1637 13.2405H19.8752C20.1312 13.2405 20.3459 13.3271 20.5192 13.5002C20.6924 13.6734 20.7789 13.8881 20.7789 14.1442V19.8557C20.7789 20.1119 20.6924 20.3266 20.5192 20.4997C20.3459 20.6729 20.1312 20.7595 19.8752 20.7595H14.1637C13.9075 20.7595 13.6929 20.6729 13.5197 20.4997C13.3465 20.3266 13.2599 20.1119 13.2599 19.8557ZM14.7597 19.2597H19.2789V14.7402H14.7597V19.2597ZM16.4367 10.2287L15.3424 9.31547C14.3336 8.48331 13.5949 7.77689 13.1262 7.19622C12.6575 6.61539 12.4232 5.98014 12.4232 5.29047C12.4232 4.61731 12.6521 4.05447 13.1099 3.60197C13.5676 3.14931 14.1432 2.92297 14.8367 2.92297C15.261 2.92297 15.6578 3.02397 16.0269 3.22597C16.3963 3.42797 16.7271 3.71864 17.0194 4.09797C17.3118 3.72497 17.6458 3.43589 18.0214 3.23072C18.3969 3.02556 18.7937 2.92297 19.2117 2.92297C19.8964 2.92297 20.4682 3.15439 20.9272 3.61722C21.386 4.08006 21.6154 4.64739 21.6154 5.31922C21.6154 6.00256 21.3812 6.63139 20.9127 7.20572C20.444 7.78006 19.7053 8.48331 18.6964 9.31547L17.6022 10.2287C17.4377 10.3762 17.2434 10.45 17.0192 10.45C16.795 10.45 16.6009 10.3762 16.4367 10.2287ZM17.0194 8.74997C18.2003 7.80131 19.0115 7.08339 19.4532 6.59622C19.8949 6.10906 20.1157 5.69047 20.1157 5.34047C20.1157 5.07247 20.0339 4.85256 19.8704 4.68072C19.7069 4.50889 19.4944 4.42297 19.2329 4.42297C19.0419 4.42297 18.8557 4.47847 18.6742 4.58947C18.4929 4.70031 18.2534 4.90447 17.9559 5.20197L17.0194 6.10772L16.0829 5.20197C15.7791 4.89814 15.5384 4.69231 15.3607 4.58447C15.1832 4.47681 14.9983 4.42297 14.8059 4.42297C14.5379 4.42297 14.3239 4.50406 14.1637 4.66622C14.0034 4.82839 13.9232 5.04672 13.9232 5.32122C13.9232 5.68406 14.144 6.10906 14.5857 6.59622C15.0274 7.08339 15.8386 7.80131 17.0194 8.74997Z" fill="#292A2E"/>
</g>
</svg>
