<svg width="24" height="24" viewBox="0 0 24 24" fill="none" xmlns="http://www.w3.org/2000/svg">
<mask id="mask0_503_7021" style="mask-type:alpha" maskUnits="userSpaceOnUse" x="0" y="0" width="24" height="24">
<rect width="24" height="24" fill="#D9D9D9"/>
</mask>
<g mask="url(#mask0_503_7021)">
<path d="M6.6885 8.17877C6.782 8.27243 6.88742 8.31927 7.00475 8.31927C7.12208 8.31927 7.22758 8.27243 7.32125 8.17877L8.49625 7.00377C8.58975 6.9126 8.6365 6.80618 8.6365 6.68452C8.6365 6.56285 8.58975 6.45518 8.49625 6.36152L7.32125 5.18652C7.22758 5.09302 7.12208 5.04626 7.00475 5.04626C6.88742 5.04626 6.782 5.09302 6.6885 5.18652L5.5135 6.36152C5.41983 6.45285 5.373 6.55935 5.373 6.68102C5.373 6.80268 5.41983 6.91027 5.5135 7.00377L6.6885 8.17877ZM4.30775 13.8845C3.80258 13.8845 3.375 13.7095 3.025 13.3595C2.675 13.0095 2.5 12.582 2.5 12.077V3.69227C2.5 3.18727 2.675 2.75977 3.025 2.40977C3.375 2.05977 3.80258 1.88477 4.30775 1.88477H19.6923C20.1974 1.88477 20.625 2.05977 20.975 2.40977C21.325 2.75977 21.5 3.18727 21.5 3.69227V12.077C21.5 12.582 21.325 13.0095 20.975 13.3595C20.625 13.7095 20.1974 13.8845 19.6923 13.8845H17.446C17.2353 13.8845 17.0618 13.8127 16.9255 13.669C16.7893 13.5252 16.7212 13.3469 16.7212 13.1343C16.7212 12.9218 16.7931 12.7437 16.9367 12.6C17.0804 12.4565 17.2585 12.3848 17.471 12.3848H19.6923C19.7693 12.3848 19.8398 12.3527 19.9038 12.2885C19.9679 12.2243 20 12.1538 20 12.077V3.69227C20 3.61543 19.9679 3.54493 19.9038 3.48076C19.8398 3.41676 19.7693 3.38477 19.6923 3.38477H4.30775C4.23075 3.38477 4.16025 3.41676 4.09625 3.48076C4.03208 3.54493 4 3.61543 4 3.69227V12.077C4 12.1538 4.03208 12.2243 4.09625 12.2885C4.16025 12.3527 4.23075 12.3848 4.30775 12.3848H6.529C6.7415 12.3848 6.91958 12.4566 7.06325 12.6003C7.20692 12.7441 7.27875 12.9223 7.27875 13.135C7.27875 13.3475 7.20692 13.5256 7.06325 13.6693C6.91958 13.8128 6.7415 13.8845 6.529 13.8845H4.30775ZM16.4988 7.13477C16.8458 7.13477 17.141 7.01335 17.3845 6.77052C17.6282 6.52768 17.75 6.23277 17.75 5.88577C17.75 5.53893 17.6286 5.24368 17.3857 5.00002C17.1429 4.75652 16.8481 4.63477 16.5013 4.63477C16.1543 4.63477 15.859 4.75618 15.6155 4.99902C15.3718 5.24185 15.25 5.53668 15.25 5.88352C15.25 6.23035 15.3714 6.5256 15.6143 6.76927C15.8571 7.01293 16.1519 7.13477 16.4988 7.13477ZM6.404 22.1153C6.14783 22.1153 5.93317 22.0287 5.76 21.8555C5.58667 21.6822 5.5 21.4675 5.5 21.2115V20.3615C5.5 19.8727 5.63525 19.4188 5.90575 18.9998C6.17625 18.5808 6.5365 18.2687 6.9865 18.0635C7.7775 17.6993 8.59383 17.4247 9.4355 17.2395C10.2772 17.0542 11.132 16.9615 12 16.9615C12.868 16.9615 13.7228 17.0542 14.5645 17.2395C15.4062 17.4247 16.2225 17.6993 17.0135 18.0635C17.4635 18.2687 17.8238 18.5808 18.0943 18.9998C18.3648 19.4188 18.5 19.8727 18.5 20.3615V21.2115C18.5 21.4675 18.4133 21.6822 18.24 21.8555C18.0668 22.0287 17.8522 22.1153 17.596 22.1153H6.404ZM7 20.6153H17V20.3615C17 20.1615 16.9417 19.9782 16.825 19.8115C16.7083 19.6448 16.5583 19.5198 16.375 19.4365C15.675 19.1198 14.9583 18.8782 14.225 18.7115C13.4917 18.5448 12.75 18.4615 12 18.4615C11.25 18.4615 10.5083 18.5448 9.775 18.7115C9.04167 18.8782 8.325 19.1198 7.625 19.4365C7.44167 19.5198 7.29167 19.6448 7.175 19.8115C7.05833 19.9782 7 20.1615 7 20.3615V20.6153ZM12 15.7693C11.168 15.7693 10.46 15.4773 9.876 14.8933C9.292 14.3093 9 13.6013 9 12.7693C9 11.9373 9.292 11.2293 9.876 10.6453C10.46 10.0613 11.168 9.76927 12 9.76927C12.832 9.76927 13.54 10.0613 14.124 10.6453C14.708 11.2293 15 11.9373 15 12.7693C15 13.6013 14.708 14.3093 14.124 14.8933C13.54 15.4773 12.832 15.7693 12 15.7693ZM12 14.2693C12.4167 14.2693 12.7708 14.1234 13.0625 13.8318C13.3542 13.5401 13.5 13.1859 13.5 12.7693C13.5 12.3526 13.3542 11.9984 13.0625 11.7068C12.7708 11.4151 12.4167 11.2693 12 11.2693C11.5833 11.2693 11.2292 11.4151 10.9375 11.7068C10.6458 11.9984 10.5 12.3526 10.5 12.7693C10.5 13.1859 10.6458 13.5401 10.9375 13.8318C11.2292 14.1234 11.5833 14.2693 12 14.2693Z" fill="#292A2E"/>
</g>
</svg>
