<svg width="24" height="24" viewBox="0 0 24 24" fill="none" xmlns="http://www.w3.org/2000/svg">
<mask id="mask0_503_7018" style="mask-type:alpha" maskUnits="userSpaceOnUse" x="0" y="0" width="24" height="24">
<rect width="24" height="24" fill="#D9D9D9"/>
</mask>
<g mask="url(#mask0_503_7018)">
<path d="M6.6885 8.17877C6.782 8.27243 6.88742 8.31927 7.00475 8.31927C7.12208 8.31927 7.22758 8.27243 7.32125 8.17877L8.49625 7.00377C8.58975 6.91027 8.6365 6.80327 8.6365 6.68277C8.6365 6.56227 8.58975 6.45518 8.49625 6.36152L7.32125 5.18652C7.22758 5.09302 7.12208 5.04626 7.00475 5.04626C6.88742 5.04626 6.782 5.09302 6.6885 5.18652L5.5135 6.36152C5.41983 6.45518 5.373 6.56227 5.373 6.68277C5.373 6.80327 5.41983 6.91027 5.5135 7.00377L6.6885 8.17877ZM16.5 7.13477C16.8462 7.13477 17.141 7.01293 17.3845 6.76927C17.6282 6.5256 17.75 6.23077 17.75 5.88477C17.75 5.5386 17.6282 5.24368 17.3845 5.00002C17.141 4.75652 16.8462 4.63477 16.5 4.63477C16.1538 4.63477 15.859 4.75652 15.6155 5.00002C15.3718 5.24368 15.25 5.5386 15.25 5.88477C15.25 6.23077 15.3718 6.5256 15.6155 6.76927C15.859 7.01293 16.1538 7.13477 16.5 7.13477ZM6.404 22.1153C6.14617 22.1153 5.93108 22.0291 5.75875 21.8568C5.58625 21.6843 5.5 21.4692 5.5 21.2115V20.3615C5.5 19.8743 5.63525 19.4208 5.90575 19.001C6.17625 18.5812 6.5365 18.2687 6.9865 18.0635C7.7775 17.6993 8.59383 17.4247 9.4355 17.2395C10.2772 17.0542 11.132 16.9615 12 16.9615C12.868 16.9615 13.7228 17.0542 14.5645 17.2395C15.4062 17.4247 16.2225 17.6993 17.0135 18.0635C17.4635 18.2687 17.8238 18.5812 18.0943 19.001C18.3648 19.4208 18.5 19.8743 18.5 20.3615V21.2115C18.5 21.4692 18.4138 21.6843 18.2413 21.8568C18.0689 22.0291 17.8538 22.1153 17.596 22.1153H6.404ZM12 15.7693C11.168 15.7693 10.46 15.4773 9.876 14.8933C9.292 14.3093 9 13.6013 9 12.7693C9 11.9373 9.292 11.2293 9.876 10.6453C10.46 10.0613 11.168 9.76927 12 9.76927C12.832 9.76927 13.54 10.0613 14.124 10.6453C14.708 11.2293 15 11.9373 15 12.7693C15 13.6013 14.708 14.3093 14.124 14.8933C13.54 15.4773 12.832 15.7693 12 15.7693ZM2.5 3.69227C2.5 3.18727 2.675 2.75977 3.025 2.40977C3.375 2.05977 3.80258 1.88477 4.30775 1.88477H19.6923C20.1974 1.88477 20.625 2.05977 20.975 2.40977C21.325 2.75977 21.5 3.18727 21.5 3.69227V12.077C21.5 12.582 21.325 13.0095 20.975 13.3595C20.625 13.7095 20.1974 13.8845 19.6923 13.8845H17.4902C17.2454 13.8845 17.0435 13.7907 16.8845 13.603C16.7257 13.4152 16.6565 13.1988 16.677 12.9538C16.6872 12.8616 16.6923 12.7668 16.6923 12.6693C16.6923 12.5718 16.6872 12.4769 16.677 12.3848C16.5757 11.1758 16.0798 10.1555 15.1895 9.32402C14.299 8.49268 13.2358 8.07702 12 8.07702C10.7642 8.07702 9.701 8.49268 8.8105 9.32402C7.92017 10.1555 7.42433 11.1758 7.323 12.3848C7.31283 12.4769 7.30775 12.5718 7.30775 12.6693C7.30775 12.7668 7.31283 12.8616 7.323 12.9538C7.3435 13.1988 7.27433 13.4152 7.1155 13.603C6.9565 13.7907 6.75458 13.8845 6.50975 13.8845H4.30775C3.80258 13.8845 3.375 13.7095 3.025 13.3595C2.675 13.0095 2.5 12.582 2.5 12.077V3.69227Z" fill="#292A2E"/>
</g>
</svg>
