<svg width="24" height="24" viewBox="0 0 24 24" fill="none" xmlns="http://www.w3.org/2000/svg">
<mask id="mask0_503_7325" style="mask-type:alpha" maskUnits="userSpaceOnUse" x="0" y="0" width="24" height="24">
<rect width="24" height="24" fill="#D9D9D9"/>
</mask>
<g mask="url(#mask0_503_7325)">
<path d="M10.8848 7C10.8848 6.55583 11.0429 6.17558 11.3593 5.85925C11.6756 5.54292 12.0558 5.38475 12.5 5.38475C12.9442 5.38475 13.3244 5.54292 13.6408 5.85925C13.9571 6.17558 14.1152 6.55583 14.1152 7C14.1152 7.44417 13.9571 7.82442 13.6408 8.14075C13.3244 8.45708 12.9442 8.61525 12.5 8.61525C12.0558 8.61525 11.6756 8.45708 11.3593 8.14075C11.0429 7.82442 10.8848 7.44417 10.8848 7ZM7 7C7 5.47217 7.5345 4.17358 8.6035 3.10425C9.6725 2.03475 10.9706 1.5 12.4978 1.5C14.0249 1.5 15.3238 2.03475 16.3943 3.10425C17.4648 4.17358 18 5.47217 18 7C18 8.07183 17.7234 9.04108 17.1702 9.90775C16.6169 10.7744 15.8935 11.4359 15 11.8923V20.5173C15 20.6351 14.9782 20.7492 14.9345 20.8595C14.891 20.9698 14.8224 21.0718 14.7288 21.1653L13.1328 22.7615C13.0391 22.8552 12.9399 22.9212 12.8352 22.9595C12.7306 22.998 12.6184 23.0173 12.4988 23.0173C12.3791 23.0173 12.2673 22.998 12.1635 22.9595C12.0597 22.9212 11.9609 22.8552 11.8672 22.7615L9.23075 20.1155C9.15325 20.0405 9.09125 19.9506 9.04475 19.8458C8.99825 19.7409 8.96992 19.6366 8.95975 19.5328C8.94942 19.4289 8.95933 19.3251 8.9895 19.2213C9.01967 19.1174 9.07 19.0187 9.1405 18.925L10.0673 17.6923L9.03075 16.2962C8.97058 16.2192 8.927 16.1372 8.9 16.05C8.87317 15.9628 8.85975 15.8724 8.85975 15.7788C8.85975 15.6853 8.87475 15.5923 8.90475 15.5C8.93492 15.4077 8.97692 15.3231 9.03075 15.2462L10 13.8365V11.8923C9.11283 11.4359 8.39108 10.7744 7.83475 9.90775C7.27825 9.04108 7 8.07183 7 7ZM8.5 7C8.5 7.959 8.78975 8.78942 9.36925 9.49125C9.94875 10.1933 10.659 10.6513 11.5 10.8655V14.3077L10.5037 15.748C10.5037 15.7417 10.5013 15.7401 10.4963 15.7432C10.4911 15.7464 10.4936 15.748 10.5037 15.748L11.9328 17.702L10.6345 19.4L12.5 21.2655L13.5 20.2655V10.8655C14.341 10.6513 15.0512 10.1933 15.6307 9.49125C16.2102 8.78942 16.5 7.959 16.5 7C16.5 5.9 16.1083 4.95833 15.325 4.175C14.5417 3.39167 13.6 3 12.5 3C11.4 3 10.4583 3.39167 9.675 4.175C8.89167 4.95833 8.5 5.9 8.5 7Z" fill="#292A2E"/>
</g>
</svg>
