<svg width="24" height="24" viewBox="0 0 24 24" fill="none" xmlns="http://www.w3.org/2000/svg">
<mask id="mask0_503_7328" style="mask-type:alpha" maskUnits="userSpaceOnUse" x="0" y="0" width="24" height="24">
<rect width="24" height="24" fill="#D9D9D9"/>
</mask>
<g mask="url(#mask0_503_7328)">
<path d="M12.0093 9.42302C12.6825 9.42302 13.2546 9.18743 13.7258 8.71627C14.197 8.2451 14.4325 7.67302 14.4325 7.00002C14.4325 6.32702 14.197 5.75493 13.7258 5.28377C13.2546 4.8126 12.6825 4.57702 12.0093 4.57702C11.3363 4.57702 10.7642 4.8126 10.293 5.28377C9.82188 5.75493 9.58629 6.32702 9.58629 7.00002C9.58629 7.67302 9.82188 8.2451 10.293 8.71627C10.7642 9.18743 11.3363 9.42302 12.0093 9.42302ZM12.0248 22.1923C11.9043 22.1923 11.7921 22.173 11.6883 22.1345C11.5845 22.0962 11.4857 22.0354 11.392 21.952L9.33629 20.1058C9.24913 20.0289 9.18121 19.9411 9.13254 19.8423C9.08388 19.7436 9.05121 19.6372 9.03454 19.523C9.01788 19.409 9.02871 19.2959 9.06704 19.1838C9.10554 19.0716 9.16004 18.9687 9.23054 18.875L10.3845 17.3943L9.20954 16.0655C9.12871 15.9783 9.07063 15.886 9.03529 15.7885C9.00013 15.691 8.98254 15.5853 8.98254 15.4713C8.98254 15.3571 9.00013 15.2514 9.03529 15.154C9.07063 15.0565 9.12546 14.9642 9.19979 14.877L10.2595 13.6923V12.0923C9.21338 11.7654 8.34921 11.135 7.66704 10.201C6.98504 9.26702 6.64404 8.20002 6.64404 7.00002C6.64404 5.50002 7.16329 4.23077 8.20179 3.19227C9.24029 2.15393 10.5095 1.63477 12.0093 1.63477C13.5093 1.63477 14.7785 2.15393 15.817 3.19227C16.8555 4.23077 17.3748 5.50002 17.3748 7.00002C17.3748 8.24102 17.0235 9.32085 16.3208 10.2395C15.6183 11.158 14.7645 11.7756 13.7593 12.0923V20.4173C13.7593 20.5378 13.7375 20.6541 13.694 20.7663C13.6504 20.8784 13.5818 20.9814 13.4883 21.075L12.6268 21.9365C12.5435 22.0199 12.4524 22.0834 12.3535 22.127C12.2549 22.1705 12.1453 22.1923 12.0248 22.1923Z" fill="#292A2E"/>
</g>
</svg>
