<svg width="24" height="24" viewBox="0 0 24 24" fill="none" xmlns="http://www.w3.org/2000/svg">
<mask id="mask0_503_7337" style="mask-type:alpha" maskUnits="userSpaceOnUse" x="0" y="0" width="24" height="24">
<rect width="24" height="24" fill="#D9D9D9"/>
</mask>
<g mask="url(#mask0_503_7337)">
<path d="M19.752 13.0443L16.5345 17.6115C16.3383 17.891 16.0881 18.1089 15.7837 18.2653C15.4792 18.4218 15.1539 18.5 14.8077 18.5H5.30775C4.80908 18.5 4.38308 18.3234 4.02975 17.9703C3.67658 17.6169 3.5 17.1909 3.5 16.6923V7.30775C3.5 6.80908 3.67658 6.38308 4.02975 6.02975C4.38308 5.67658 4.80908 5.5 5.30775 5.5H14.8077C15.1602 5.5 15.4872 5.58142 15.7885 5.74425C16.0897 5.90708 16.3383 6.12825 16.5345 6.40775L19.752 10.9557C19.9763 11.2737 20.0885 11.6218 20.0885 12C20.0885 12.3782 19.9763 12.7263 19.752 13.0443ZM14.8077 17C14.9039 17 14.9952 16.976 15.0817 16.928C15.1683 16.8798 15.2372 16.8205 15.2885 16.75L18.5405 12.1828C18.5788 12.1314 18.598 12.0705 18.598 12C18.598 11.9295 18.5788 11.8686 18.5405 11.8173L15.2885 7.25C15.2372 7.1795 15.1683 7.12017 15.0817 7.072C14.9952 7.024 14.9039 7 14.8077 7H5.30775C5.23075 7 5.16025 7.03208 5.09625 7.09625C5.03208 7.16025 5 7.23075 5 7.30775V16.6923C5 16.7692 5.03208 16.8398 5.09625 16.9038C5.16025 16.9679 5.23075 17 5.30775 17H14.8077Z" fill="#292A2E"/>
</g>
</svg>
