<svg width="24" height="24" viewBox="0 0 24 24" fill="none" xmlns="http://www.w3.org/2000/svg">
<mask id="mask0_503_6769" style="mask-type:alpha" maskUnits="userSpaceOnUse" x="0" y="0" width="24" height="24">
<rect width="24" height="24" fill="#D9D9D9"/>
</mask>
<g mask="url(#mask0_503_6769)">
<path d="M1.25 19.3845C1.03717 19.3845 0.859 19.3128 0.7155 19.1693C0.571833 19.0256 0.5 18.8473 0.5 18.6345C0.5 18.4217 0.571833 18.2435 0.7155 18.1C0.859 17.9563 1.03717 17.8845 1.25 17.8845H4.30775V17C3.80258 17 3.375 16.825 3.025 16.475C2.675 16.125 2.5 15.6974 2.5 15.1923V5.80775C2.5 5.30258 2.675 4.875 3.025 4.525C3.375 4.175 3.80258 4 4.30775 4H19.6923C20.1974 4 20.625 4.175 20.975 4.525C21.325 4.875 21.5 5.30258 21.5 5.80775V15.1923C21.5 15.6974 21.325 16.125 20.975 16.475C20.625 16.825 20.1974 17 19.6923 17V17.8845H22.75C22.9628 17.8845 23.141 17.9563 23.2845 18.1C23.4282 18.2435 23.5 18.4217 23.5 18.6345C23.5 18.8473 23.4282 19.0256 23.2845 19.1693C23.141 19.3128 22.9628 19.3845 22.75 19.3845H1.25ZM4.30775 15.5H19.6923C19.7821 15.5 19.8558 15.4712 19.9135 15.4135C19.9712 15.3558 20 15.2821 20 15.1923V5.80775C20 5.71808 19.9712 5.64433 19.9135 5.5865C19.8558 5.52883 19.7821 5.5 19.6923 5.5H4.30775C4.21792 5.5 4.14417 5.52883 4.0865 5.5865C4.02883 5.64433 4 5.71808 4 5.80775V15.1923C4 15.2821 4.02883 15.3558 4.0865 15.4135C4.14417 15.4712 4.21792 15.5 4.30775 15.5Z" fill="#292A2E"/>
</g>
</svg>
