<svg width="24" height="24" viewBox="0 0 24 24" fill="none" xmlns="http://www.w3.org/2000/svg">
<mask id="mask0_503_6777" style="mask-type:alpha" maskUnits="userSpaceOnUse" x="0" y="0" width="24" height="24">
<rect width="24" height="24" fill="#D9D9D9"/>
</mask>
<g mask="url(#mask0_503_6777)">
<path d="M12.3463 14.8463C12.9756 14.8463 13.5079 14.6286 13.9432 14.1933C14.3784 13.7581 14.596 13.2258 14.596 12.5963V6.98075H16.577C16.8218 6.98075 17.0304 6.89617 17.2028 6.727C17.3752 6.55767 17.4615 6.34742 17.4615 6.09625C17.4615 5.85125 17.3752 5.64258 17.2028 5.47025C17.0304 5.29775 16.8218 5.2115 16.577 5.2115H14.596C14.3512 5.2115 14.1426 5.29775 13.9703 5.47025C13.7978 5.64258 13.7115 5.85125 13.7115 6.09625V10.8655C13.5205 10.6923 13.3112 10.5625 13.0837 10.476C12.8561 10.3895 12.6103 10.3462 12.3463 10.3462C11.7168 10.3462 11.1843 10.5638 10.749 10.999C10.3138 11.4343 10.0963 11.9668 10.0963 12.5963C10.0963 13.2258 10.3138 13.7581 10.749 14.1933C11.1843 14.6286 11.7168 14.8463 12.3463 14.8463ZM8.05775 17.5C7.55258 17.5 7.125 17.325 6.775 16.975C6.425 16.625 6.25 16.1974 6.25 15.6923V4.30775C6.25 3.80258 6.425 3.375 6.775 3.025C7.125 2.675 7.55258 2.5 8.05775 2.5H19.4423C19.9474 2.5 20.375 2.675 20.725 3.025C21.075 3.375 21.25 3.80258 21.25 4.30775V15.6923C21.25 16.1974 21.075 16.625 20.725 16.975C20.375 17.325 19.9474 17.5 19.4423 17.5H8.05775ZM4.55775 21C4.05258 21 3.625 20.825 3.275 20.475C2.925 20.125 2.75 19.6974 2.75 19.1923V7.05775C2.75 6.84492 2.82183 6.66667 2.9655 6.523C3.109 6.3795 3.28717 6.30775 3.5 6.30775C3.71283 6.30775 3.89108 6.3795 4.03475 6.523C4.17825 6.66667 4.25 6.84492 4.25 7.05775V19.1923C4.25 19.2693 4.28208 19.3398 4.34625 19.4038C4.41025 19.4679 4.48075 19.5 4.55775 19.5H16.6923C16.9051 19.5 17.0833 19.5718 17.227 19.7153C17.3705 19.8589 17.4423 20.0372 17.4423 20.25C17.4423 20.4628 17.3705 20.641 17.227 20.7845C17.0833 20.9282 16.9051 21 16.6923 21H4.55775Z" fill="#292A2E"/>
</g>
</svg>
