<svg width="24" height="24" viewBox="0 0 24 24" fill="none" xmlns="http://www.w3.org/2000/svg">
<mask id="mask0_503_6772" style="mask-type:alpha" maskUnits="userSpaceOnUse" x="0" y="0" width="24" height="24">
<rect width="24" height="24" fill="#D9D9D9"/>
</mask>
<g mask="url(#mask0_503_6772)">
<path d="M13.7503 13.75C13.9629 13.75 14.141 13.6781 14.2845 13.5343C14.4282 13.3906 14.5 13.2125 14.5 13V10.75H16.75C16.9625 10.75 17.1406 10.6781 17.2843 10.5343C17.4281 10.3904 17.5 10.2122 17.5 9.99975C17.5 9.78708 17.4281 9.609 17.2843 9.4655C17.1406 9.32183 16.9625 9.25 16.75 9.25H14.5V7C14.5 6.7875 14.4281 6.60942 14.2843 6.46575C14.1404 6.32192 13.9622 6.25 13.7498 6.25C13.5371 6.25 13.359 6.32192 13.2155 6.46575C13.0718 6.60942 13 6.7875 13 7V9.25H10.75C10.5375 9.25 10.3593 9.32192 10.2155 9.46575C10.0718 9.60958 10 9.78775 10 10.0003C10 10.2129 10.0718 10.391 10.2155 10.5345C10.3593 10.6782 10.5375 10.75 10.75 10.75H13V13C13 13.2125 13.0719 13.3906 13.2158 13.5343C13.3596 13.6781 13.5378 13.75 13.7503 13.75ZM8.05775 17.5C7.55258 17.5 7.125 17.325 6.775 16.975C6.425 16.625 6.25 16.1974 6.25 15.6923V4.30775C6.25 3.80258 6.425 3.375 6.775 3.025C7.125 2.675 7.55258 2.5 8.05775 2.5H19.4423C19.9474 2.5 20.375 2.675 20.725 3.025C21.075 3.375 21.25 3.80258 21.25 4.30775V15.6923C21.25 16.1974 21.075 16.625 20.725 16.975C20.375 17.325 19.9474 17.5 19.4423 17.5H8.05775ZM4.55775 21C4.05258 21 3.625 20.825 3.275 20.475C2.925 20.125 2.75 19.6974 2.75 19.1923V7.05775C2.75 6.84525 2.82192 6.66708 2.96575 6.52325C3.10958 6.37958 3.28775 6.30775 3.50025 6.30775C3.71292 6.30775 3.89108 6.37958 4.03475 6.52325C4.17825 6.66708 4.25 6.84525 4.25 7.05775V19.1923C4.25 19.2693 4.28208 19.3398 4.34625 19.4038C4.41025 19.4679 4.48075 19.5 4.55775 19.5H16.6923C16.9047 19.5 17.0829 19.5719 17.2268 19.7157C17.3704 19.8596 17.4423 20.0378 17.4423 20.2502C17.4423 20.4629 17.3704 20.641 17.2268 20.7845C17.0829 20.9282 16.9047 21 16.6923 21H4.55775Z" fill="#292A2E"/>
</g>
</svg>
