<svg width="24" height="24" viewBox="0 0 24 24" fill="none" xmlns="http://www.w3.org/2000/svg">
<mask id="mask0_503_6786" style="mask-type:alpha" maskUnits="userSpaceOnUse" x="0" y="0" width="24" height="24">
<rect width="24" height="24" fill="#D9D9D9"/>
</mask>
<g mask="url(#mask0_503_6786)">
<path d="M5.30775 21.5C4.80908 21.5 4.38308 21.3234 4.02975 20.9703C3.67658 20.6169 3.5 20.1909 3.5 19.6923V8.30775C3.5 7.80908 3.67658 7.38308 4.02975 7.02975C4.38308 6.67658 4.80908 6.5 5.30775 6.5H7.5C7.5 5.25133 7.93783 4.18917 8.8135 3.3135C9.68917 2.43783 10.7513 2 12 2C13.2487 2 14.3108 2.43783 15.1865 3.3135C16.0622 4.18917 16.5 5.25133 16.5 6.5H18.6923C19.1909 6.5 19.6169 6.67658 19.9703 7.02975C20.3234 7.38308 20.5 7.80908 20.5 8.30775V19.6923C20.5 20.1909 20.3234 20.6169 19.9703 20.9703C19.6169 21.3234 19.1909 21.5 18.6923 21.5H5.30775ZM5.30775 20H18.6923C18.7692 20 18.8398 19.9679 18.9038 19.9038C18.9679 19.8398 19 19.7693 19 19.6923V8.30775C19 8.23075 18.9679 8.16025 18.9038 8.09625C18.8398 8.03208 18.7692 8 18.6923 8H5.30775C5.23075 8 5.16025 8.03208 5.09625 8.09625C5.03208 8.16025 5 8.23075 5 8.30775V19.6923C5 19.7693 5.03208 19.8398 5.09625 19.9038C5.16025 19.9679 5.23075 20 5.30775 20ZM9 6.5H15C15 5.66667 14.7083 4.95833 14.125 4.375C13.5417 3.79167 12.8333 3.5 12 3.5C11.1667 3.5 10.4583 3.79167 9.875 4.375C9.29167 4.95833 9 5.66667 9 6.5ZM11.9845 13.5C13.1153 13.5 14.1311 13.1173 15.0318 12.352C15.9324 11.5865 16.3776 10.7179 16.3673 9.74625C16.3673 9.53975 16.298 9.36375 16.1595 9.21825C16.0212 9.07275 15.8456 9 15.6328 9C15.4571 9 15.3 9.06058 15.1615 9.18175C15.023 9.30292 14.9249 9.47183 14.8673 9.6885C14.7224 10.3667 14.3769 10.9215 13.8307 11.353C13.2846 11.7843 12.6692 12 11.9845 12C11.3 12 10.6821 11.7843 10.1308 11.353C9.57942 10.9215 9.2365 10.3667 9.102 9.6885C9.04433 9.4615 8.95133 9.29 8.823 9.174C8.69483 9.058 8.54292 9 8.36725 9C8.15442 9 7.97625 9.07275 7.83275 9.21825C7.68908 9.36375 7.61725 9.53975 7.61725 9.74625C7.61725 10.7179 8.0625 11.5865 8.953 12.352C9.84333 13.1173 10.8538 13.5 11.9845 13.5Z" fill="#292A2E"/>
</g>
</svg>
