<svg width="24" height="24" viewBox="0 0 24 24" fill="none" xmlns="http://www.w3.org/2000/svg">
<mask id="mask0_503_6789" style="mask-type:alpha" maskUnits="userSpaceOnUse" x="0" y="0" width="24" height="24">
<rect width="24" height="24" fill="#D9D9D9"/>
</mask>
<g mask="url(#mask0_503_6789)">
<path d="M11.2498 21.5V20.5192C9.16647 20.3051 7.41264 19.4858 5.9883 18.0615C4.56397 16.6371 3.74472 14.8833 3.53055 12.8H2.5498C2.3373 12.8 2.15922 12.7281 2.01555 12.5842C1.87172 12.4404 1.7998 12.2622 1.7998 12.0497C1.7998 11.8371 1.87172 11.659 2.01555 11.5155C2.15922 11.3718 2.3373 11.3 2.5498 11.3H3.53055C3.74472 9.21664 4.56397 7.46281 5.9883 6.03848C7.41264 4.61414 9.16647 3.79489 11.2498 3.58073V2.59998C11.2498 2.38748 11.3217 2.20939 11.4656 2.06573C11.6094 1.92189 11.7876 1.84998 12.0001 1.84998C12.2127 1.84998 12.3908 1.92189 12.5343 2.06573C12.678 2.20939 12.7498 2.38748 12.7498 2.59998V3.58073C14.8331 3.79489 16.587 4.61414 18.0113 6.03848C19.4356 7.46281 20.2549 9.21664 20.4691 11.3H21.4498C21.6623 11.3 21.8404 11.3719 21.9841 11.5157C22.1279 11.6596 22.1998 11.8377 22.1998 12.0502C22.1998 12.2629 22.1279 12.441 21.9841 12.5845C21.8404 12.7281 21.6623 12.8 21.4498 12.8H20.4691C20.2549 14.8833 19.4356 16.6371 18.0113 18.0615C16.587 19.4858 14.8331 20.3051 12.7498 20.5192V21.5C12.7498 21.7125 12.6779 21.8906 12.5341 22.0342C12.3902 22.1781 12.2121 22.25 11.9996 22.25C11.7869 22.25 11.6088 22.1781 11.4653 22.0342C11.3216 21.8906 11.2498 21.7125 11.2498 21.5ZM11.9998 19.05C13.9331 19.05 15.5831 18.3666 16.9498 17C18.3165 15.6333 18.9998 13.9833 18.9998 12.05C18.9998 10.1166 18.3165 8.46664 16.9498 7.09998C15.5831 5.73331 13.9331 5.04998 11.9998 5.04998C10.0665 5.04998 8.41647 5.73331 7.0498 7.09998C5.68314 8.46664 4.9998 10.1166 4.9998 12.05C4.9998 13.9833 5.68314 15.6333 7.0498 17C8.41647 18.3666 10.0665 19.05 11.9998 19.05Z" fill="#292A2E"/>
</g>
</svg>
