<svg width="24" height="24" viewBox="0 0 24 24" fill="none" xmlns="http://www.w3.org/2000/svg">
<mask id="mask0_503_6783" style="mask-type:alpha" maskUnits="userSpaceOnUse" x="0" y="0" width="24" height="24">
<rect width="24" height="24" fill="#D9D9D9"/>
</mask>
<g mask="url(#mask0_503_6783)">
<path d="M3.5 17.1115V9.89424C3.5 9.47624 3.65392 9.12724 3.96175 8.84724C4.26942 8.56707 4.63283 8.44366 5.052 8.47699C6.35583 8.67699 7.59392 9.06449 8.76625 9.63949C9.93875 10.2145 11.0167 10.9475 12 11.8385C12.9833 10.9475 14.0612 10.2145 15.2337 9.63949C16.4061 9.06449 17.6442 8.67699 18.948 8.47699C19.3672 8.44366 19.7306 8.56707 20.0383 8.84724C20.3461 9.12724 20.5 9.47624 20.5 9.89424V17.1115C20.5 17.5102 20.3682 17.8522 20.1047 18.1375C19.8412 18.4227 19.5102 18.5819 19.1115 18.6152C17.9935 18.7884 16.9329 19.0651 15.9298 19.4452C14.9266 19.8252 13.966 20.3383 13.048 20.9845C12.8903 21.1088 12.7247 21.2005 12.5512 21.2595C12.3776 21.3185 12.1936 21.348 11.9993 21.348C11.8049 21.348 11.6212 21.3185 11.448 21.2595C11.275 21.2005 11.1097 21.1088 10.952 20.9845C10.034 20.3383 9.075 19.8252 8.075 19.4452C7.075 19.0651 6.01283 18.7884 4.8885 18.6152C4.48983 18.5819 4.15875 18.4227 3.89525 18.1375C3.63175 17.8522 3.5 17.5102 3.5 17.1115ZM12 19.8807C13.05 19.1039 14.1667 18.4807 15.35 18.0112C16.5333 17.5417 17.75 17.2316 19 17.0807V9.98849C17.7385 10.2052 16.517 10.6347 15.3355 11.277C14.1542 11.9192 13.0423 12.7614 12 13.8037C10.9577 12.7614 9.84583 11.9192 8.6645 11.277C7.483 10.6347 6.2615 10.2052 5 9.98849V17.0807C6.25 17.2316 7.46667 17.5417 8.65 18.0112C9.83333 18.4807 10.95 19.1039 12 19.8807ZM12 8.78849C11.0058 8.78849 10.1548 8.43449 9.44675 7.72649C8.73875 7.01849 8.38475 6.16732 8.38475 5.17299C8.38475 4.17882 8.73875 3.32774 9.44675 2.61974C10.1548 1.91174 11.0058 1.55774 12 1.55774C12.9942 1.55774 13.8453 1.91174 14.5533 2.61974C15.2613 3.32774 15.6152 4.17882 15.6152 5.17299C15.6152 6.16732 15.2613 7.01849 14.5533 7.72649C13.8453 8.43449 12.9942 8.78849 12 8.78849ZM12.0003 7.28849C12.5821 7.28849 13.0801 7.08132 13.4943 6.66699C13.9084 6.25266 14.1155 5.75457 14.1155 5.17274C14.1155 4.59091 13.9083 4.09291 13.494 3.67874C13.0797 3.26474 12.5816 3.05774 11.9998 3.05774C11.4179 3.05774 10.9199 3.26491 10.5058 3.67924C10.0916 4.09357 9.8845 4.59166 9.8845 5.17349C9.8845 5.75532 10.0917 6.25324 10.506 6.66724C10.9203 7.08141 11.4184 7.28849 12.0003 7.28849Z" fill="#292A2E"/>
</g>
</svg>
