<svg width="24" height="24" viewBox="0 0 24 24" fill="none" xmlns="http://www.w3.org/2000/svg">
<mask id="mask0_503_6784" style="mask-type:alpha" maskUnits="userSpaceOnUse" x="0" y="0" width="24" height="24">
<rect width="24" height="24" fill="#D9D9D9"/>
</mask>
<g mask="url(#mask0_503_6784)">
<path d="M3.5 17.1115V9.89424C3.5 9.47624 3.65417 9.12724 3.9625 8.84724C4.27083 8.56707 4.634 8.44366 5.052 8.47699C6.35583 8.67699 7.59392 9.06449 8.76625 9.63949C9.93875 10.2145 11.0167 10.9475 12 11.8385C12.9833 10.9475 14.0612 10.2145 15.2337 9.63949C16.4061 9.06449 17.6442 8.67699 18.948 8.47699C19.366 8.44366 19.7292 8.56707 20.0375 8.84724C20.3458 9.12724 20.5 9.47624 20.5 9.89424V17.1115C20.5 17.5102 20.3682 17.8522 20.1047 18.1375C19.8412 18.4227 19.5102 18.5819 19.1115 18.6152C17.9935 18.7884 16.9329 19.0651 15.9298 19.4452C14.9266 19.8252 13.966 20.3383 13.048 20.9845C12.8903 21.1088 12.725 21.2005 12.552 21.2595C12.3788 21.3185 12.1948 21.348 12 21.348C11.8052 21.348 11.6212 21.3185 11.448 21.2595C11.275 21.2005 11.1097 21.1088 10.952 20.9845C10.034 20.3383 9.075 19.8252 8.075 19.4452C7.075 19.0651 6.01283 18.7884 4.8885 18.6152C4.48983 18.5819 4.15875 18.4227 3.89525 18.1375C3.63175 17.8522 3.5 17.5102 3.5 17.1115ZM12 8.78849C11.0025 8.78849 10.1506 8.43524 9.44425 7.72874C8.73792 7.02241 8.38475 6.17049 8.38475 5.17299C8.38475 4.17566 8.73792 3.32374 9.44425 2.61724C10.1506 1.91091 11.0025 1.55774 12 1.55774C12.9975 1.55774 13.8494 1.91091 14.5557 2.61724C15.2621 3.32374 15.6152 4.17566 15.6152 5.17299C15.6152 6.17049 15.2621 7.02241 14.5557 7.72874C13.8494 8.43524 12.9975 8.78849 12 8.78849Z" fill="#292A2E"/>
</g>
</svg>
