<svg width="24" height="24" viewBox="0 0 24 24" fill="none" xmlns="http://www.w3.org/2000/svg">
<mask id="mask0_503_6793" style="mask-type:alpha" maskUnits="userSpaceOnUse" x="0" y="0" width="24" height="24">
<rect width="24" height="24" fill="#D9D9D9"/>
</mask>
<g mask="url(#mask0_503_6793)">
<path d="M12 16.75C12.4858 16.75 12.899 16.5798 13.2395 16.2395C13.5798 15.899 13.75 15.4858 13.75 15C13.75 14.5142 13.5798 14.101 13.2395 13.7605C12.899 13.4202 12.4858 13.25 12 13.25C11.5142 13.25 11.101 13.4202 10.7605 13.7605C10.4202 14.101 10.25 14.5142 10.25 15C10.25 15.4858 10.4202 15.899 10.7605 16.2395C11.101 16.5798 11.5142 16.75 12 16.75ZM6.30775 21.5C5.81058 21.5 5.385 21.323 5.031 20.969C4.677 20.615 4.5 20.1894 4.5 19.6923V10.3077C4.5 9.81058 4.677 9.385 5.031 9.031C5.385 8.677 5.81058 8.5 6.30775 8.5H13.5V6.5C13.5 5.25133 13.9378 4.18917 14.8135 3.3135C15.6892 2.43783 16.7513 2 18 2C19.1475 2 20.1388 2.37375 20.974 3.12125C21.8093 3.86858 22.2994 4.78592 22.4443 5.87325C22.4711 6.04492 22.4155 6.19233 22.2775 6.3155C22.1395 6.4385 21.9639 6.5 21.7508 6.5C21.5374 6.5 21.3615 6.45133 21.223 6.354C21.0847 6.2565 20.9866 6.1065 20.9288 5.904C20.7839 5.22567 20.4426 4.65542 19.9048 4.19325C19.3669 3.73108 18.732 3.5 18 3.5C17.1667 3.5 16.4583 3.79167 15.875 4.375C15.2917 4.95833 15 5.66667 15 6.5V8.5H17.6923C18.1894 8.5 18.615 8.677 18.969 9.031C19.323 9.385 19.5 9.81058 19.5 10.3077V19.6923C19.5 20.1894 19.323 20.615 18.969 20.969C18.615 21.323 18.1894 21.5 17.6923 21.5H6.30775Z" fill="#292A2E"/>
</g>
</svg>
