<svg width="24" height="24" viewBox="0 0 24 24" fill="none" xmlns="http://www.w3.org/2000/svg">
<mask id="mask0_503_6794" style="mask-type:alpha" maskUnits="userSpaceOnUse" x="0" y="0" width="24" height="24">
<rect width="24" height="24" fill="#D9D9D9"/>
</mask>
<g mask="url(#mask0_503_6794)">
<path d="M12.7403 20.5C12.5276 20.5 12.3494 20.4282 12.2058 20.2845C12.0623 20.141 11.9905 19.9628 11.9905 19.75C11.9905 19.5372 12.0623 19.359 12.2058 19.2155C12.3494 19.0718 12.5276 19 12.7403 19H18.6923C18.7693 19 18.8398 18.9679 18.9038 18.9038C18.9679 18.8398 19 18.7692 19 18.6923V5.30775C19 5.23075 18.9679 5.16025 18.9038 5.09625C18.8398 5.03208 18.7693 5 18.6923 5H12.7403C12.5276 5 12.3494 4.92817 12.2058 4.7845C12.0623 4.641 11.9905 4.46283 11.9905 4.25C11.9905 4.03717 12.0623 3.859 12.2058 3.7155C12.3494 3.57183 12.5276 3.5 12.7403 3.5H18.6923C19.1974 3.5 19.625 3.675 19.975 4.025C20.325 4.375 20.5 4.80258 20.5 5.30775V18.6923C20.5 19.1974 20.325 19.625 19.975 19.975C19.625 20.325 19.1974 20.5 18.6923 20.5H12.7403ZM12.0308 12.75H4.25977C4.04693 12.75 3.86868 12.6782 3.72502 12.5345C3.58152 12.391 3.50977 12.2128 3.50977 12C3.50977 11.7872 3.58152 11.609 3.72502 11.4655C3.86868 11.3218 4.04693 11.25 4.25977 11.25H12.0308L10.1095 9.327C9.97135 9.1885 9.9006 9.01958 9.89727 8.82025C9.8941 8.62092 9.96485 8.44367 10.1095 8.2885C10.254 8.13333 10.4293 8.05317 10.6353 8.048C10.8413 8.043 11.0218 8.118 11.177 8.273L14.2713 11.3672C14.4519 11.5481 14.5423 11.759 14.5423 12C14.5423 12.241 14.4519 12.4519 14.2713 12.6328L11.177 15.727C11.0283 15.8757 10.8518 15.949 10.6473 15.947C10.4428 15.9452 10.2629 15.8667 10.1078 15.7115C9.96293 15.5563 9.8931 15.3782 9.89827 15.177C9.90327 14.9757 9.97827 14.8026 10.1233 14.6578L12.0308 12.75Z" fill="#292A2E"/>
</g>
</svg>
