<svg width="75" height="36" viewBox="0 0 75 36" fill="none" xmlns="http://www.w3.org/2000/svg">
<path d="M0.351562 8.47656C1.04818 8.47656 1.57552 8.3138 1.93359 7.98828C2.29167 7.66276 2.4707 7.1875 2.4707 6.5625V4.60938C2.4707 3.73047 2.60417 3.01758 2.87109 2.4707C3.13802 1.92383 3.54818 1.52018 4.10156 1.25977C4.65495 0.992839 5.37109 0.859375 6.25 0.859375H7.07031V3.00781H6.55273C6.12305 3.00781 5.80404 3.16081 5.5957 3.4668C5.38737 3.77279 5.2832 4.2513 5.2832 4.90234V6.63086C5.2832 7.29492 5.18555 7.87109 4.99023 8.35938C4.80143 8.84115 4.53451 9.20898 4.18945 9.46289C3.8444 9.7168 3.45703 9.84375 3.02734 9.84375H0.351562V8.47656ZM0.351562 9.23828H2.77344V10.1953H0.351562V9.23828ZM0.351562 10.2344H3.02734C3.45703 10.2344 3.8444 10.3613 4.18945 10.6152C4.53451 10.8691 4.80143 11.237 4.99023 11.7188C5.18555 12.2005 5.2832 12.7767 5.2832 13.4473V15.1758C5.2832 15.8203 5.38737 16.2956 5.5957 16.6016C5.80404 16.9141 6.12305 17.0703 6.55273 17.0703H7.07031V19.2188H6.25C5.37109 19.2188 4.65495 19.0853 4.10156 18.8184C3.54818 18.5579 3.13802 18.151 2.87109 17.5977C2.60417 17.0443 2.4707 16.3346 2.4707 15.4688V13.5156C2.4707 12.8841 2.29167 12.4089 1.93359 12.0898C1.57552 11.7643 1.04818 11.6016 0.351562 11.6016V10.2344ZM2.77344 9.88281V10.8398H0.351562V9.88281H2.77344ZM10.7254 0.859375H13.616V15H10.7254V0.859375ZM13.577 7.29492H15.7254C16.4676 7.29492 17.047 7.12565 17.4637 6.78711C17.8803 6.44206 18.0887 5.97656 18.0887 5.39062C18.0887 4.79167 17.8803 4.32617 17.4637 3.99414C17.047 3.66211 16.4676 3.49609 15.7254 3.49609H13.577V0.859375H15.5691C16.6303 0.859375 17.5711 1.04492 18.3914 1.41602C19.2182 1.78711 19.8595 2.30794 20.3152 2.97852C20.771 3.64909 20.9988 4.41732 20.9988 5.2832C20.9988 6.14909 20.771 6.91732 20.3152 7.58789C19.8595 8.25846 19.2182 8.78255 18.3914 9.16016C17.5711 9.53125 16.6303 9.7168 15.5691 9.7168H13.577V7.29492ZM14.0359 8.64258H17.2391L21.4285 15H18.1473L14.0359 8.64258ZM26.2199 15.2734C25.2303 15.2734 24.3286 15.0423 23.5148 14.5801C22.7076 14.1178 22.0695 13.4798 21.6008 12.666C21.1385 11.8522 20.9074 10.9505 20.9074 9.96094C20.9074 8.95833 21.1385 8.05339 21.6008 7.24609C22.0695 6.4388 22.7076 5.80404 23.5148 5.3418C24.3286 4.87956 25.2303 4.64844 26.2199 4.64844C27.2225 4.64844 28.1275 4.87956 28.9348 5.3418C29.7421 5.80404 30.3768 6.4388 30.8391 7.24609C31.3013 8.05339 31.5324 8.95833 31.5324 9.96094C31.5324 10.9505 31.3013 11.8522 30.8391 12.666C30.3768 13.4798 29.7421 14.1178 28.9348 14.5801C28.1275 15.0423 27.2225 15.2734 26.2199 15.2734ZM26.2199 12.7344C26.7277 12.7344 27.1835 12.6172 27.5871 12.3828C27.9908 12.1419 28.3033 11.8132 28.5246 11.3965C28.746 10.9733 28.8566 10.4948 28.8566 9.96094C28.8566 9.42057 28.746 8.94206 28.5246 8.52539C28.3033 8.10221 27.9908 7.77344 27.5871 7.53906C27.1835 7.30469 26.7277 7.1875 26.2199 7.1875C25.7121 7.1875 25.2596 7.30469 24.8625 7.53906C24.4654 7.77344 24.1529 8.10221 23.925 8.52539C23.6971 8.94206 23.5832 9.42057 23.5832 9.96094C23.5832 10.4948 23.6971 10.9733 23.925 11.3965C24.1529 11.8132 24.4654 12.1419 24.8625 12.3828C25.2596 12.6172 25.7121 12.7344 26.2199 12.7344ZM18.5148 31.2734C17.1281 31.2734 15.8651 30.9512 14.7258 30.3066C13.593 29.6621 12.701 28.7799 12.05 27.6602C11.4055 26.5404 11.0832 25.2969 11.0832 23.9297C11.0832 22.5495 11.4055 21.2995 12.05 20.1797C12.701 19.0599 13.5897 18.181 14.716 17.543C15.8488 16.9049 17.1053 16.5859 18.4855 16.5859C19.677 16.5859 20.7609 16.8236 21.7375 17.2988C22.7141 17.7676 23.5246 18.4219 24.1691 19.2617L21.9035 20.9707C21.4738 20.3978 20.9758 19.9811 20.4094 19.7207C19.8495 19.4538 19.2082 19.3203 18.4855 19.3203C17.6197 19.3203 16.8449 19.5156 16.1613 19.9062C15.4842 20.2904 14.9536 20.834 14.5695 21.5371C14.1854 22.2337 13.9934 23.0312 13.9934 23.9297C13.9934 24.8151 14.1854 25.6094 14.5695 26.3125C14.9602 27.0091 15.4973 27.556 16.1809 27.9531C16.8645 28.3438 17.6424 28.5391 18.5148 28.5391C19.3026 28.5391 19.9895 28.3796 20.5754 28.0605C21.1678 27.7415 21.6236 27.2923 21.9426 26.7129C22.2616 26.1335 22.4211 25.4661 22.4211 24.7109L23.2219 25.6875H18.7883V23.2852H25.1359C25.2271 23.7995 25.2727 24.278 25.2727 24.7207C25.2727 25.9967 24.9829 27.1328 24.4035 28.1289C23.8241 29.1185 23.0201 29.89 21.9914 30.4434C20.9628 30.9967 19.8039 31.2734 18.5148 31.2734ZM25.816 20.9219H28.5895V31H25.816V20.9219ZM28.1988 24.4863V22.3867H28.902L28.1988 24.4863C28.1988 23.7572 28.3323 23.0996 28.5992 22.5137C28.8727 21.9277 29.2437 21.472 29.7125 21.1465C30.1878 20.8145 30.7184 20.6484 31.3043 20.6484C31.6233 20.6484 31.9456 20.7038 32.2711 20.8145V23.4512C31.874 23.334 31.4768 23.2754 31.0797 23.2754C30.5458 23.2754 30.0934 23.3958 29.7223 23.6367C29.3512 23.8776 29.068 24.2357 28.8727 24.7109C28.6839 25.1862 28.5895 25.7656 28.5895 26.4492L28.1988 24.4863ZM40.5098 25.9609C40.5098 27.1458 40.3633 28.1322 40.0703 28.9199C39.7773 29.7077 39.3509 30.2969 38.791 30.6875C38.2376 31.0781 37.5605 31.2734 36.7598 31.2734C35.8613 31.2734 35.054 31.0423 34.3379 30.5801C33.6217 30.1178 33.0618 29.4831 32.6582 28.6758C32.2546 27.862 32.0527 26.957 32.0527 25.9609C32.0527 24.9583 32.2546 24.0534 32.6582 23.2461C33.0618 22.4388 33.6217 21.804 34.3379 21.3418C35.054 20.8796 35.8613 20.6484 36.7598 20.6484C37.5605 20.6484 38.2376 20.8438 38.791 21.2344C39.3509 21.6185 39.7773 22.2077 40.0703 23.002C40.3633 23.7897 40.5098 24.776 40.5098 25.9609L39.5137 22.2988H40.7441V29.623H39.5137L40.5098 25.9609ZM37.375 28.7344C37.8633 28.7344 38.2995 28.6172 38.6836 28.3828C39.0677 28.1419 39.3672 27.8132 39.582 27.3965C39.7969 26.9733 39.9043 26.4948 39.9043 25.9609C39.9043 25.4206 39.7969 24.9421 39.582 24.5254C39.3672 24.1022 39.0677 23.7734 38.6836 23.5391C38.2995 23.3047 37.8633 23.1875 37.375 23.1875C36.8867 23.1875 36.4505 23.3047 36.0664 23.5391C35.6888 23.7734 35.3893 24.1022 35.168 24.5254C34.9531 24.9421 34.8457 25.4206 34.8457 25.9609C34.8457 26.4883 34.9531 26.9635 35.168 27.3867C35.3893 27.8099 35.6888 28.1419 36.0664 28.3828C36.4505 28.6172 36.8867 28.7344 37.375 28.7344ZM39.8262 31V28.9688L40.2656 25.9609L39.8262 23.2852V20.9219H42.5996V31H39.8262ZM43.5629 20.9219H46.3363V31H43.5629V20.9219ZM49.891 25.4922C49.891 24.763 49.7478 24.1966 49.4613 23.793C49.1749 23.3893 48.7712 23.1875 48.2504 23.1875C47.8923 23.1875 47.5668 23.2884 47.2738 23.4902C46.9809 23.6855 46.7497 23.9915 46.5805 24.4082C46.4177 24.8184 46.3363 25.3359 46.3363 25.9609L46.0629 24.0859V22.416H46.6488L46.0629 24.0859C46.0629 23.4089 46.1964 22.8132 46.4633 22.2988C46.7367 21.778 47.1176 21.3743 47.6059 21.0879C48.1006 20.7949 48.6638 20.6484 49.2953 20.6484C49.9984 20.6484 50.6006 20.8242 51.102 21.1758C51.6098 21.5273 51.9971 22.0319 52.2641 22.6895C52.531 23.3405 52.6645 24.1185 52.6645 25.0234V31H49.891V25.4922ZM56.2191 25.4922C56.2191 24.763 56.0759 24.1966 55.7895 23.793C55.503 23.3893 55.0993 23.1875 54.5785 23.1875C54.2204 23.1875 53.8949 23.2884 53.602 23.4902C53.309 23.6855 53.0779 23.9915 52.9086 24.4082C52.7458 24.8184 52.6645 25.3359 52.6645 25.9609L52.1957 24.0859V22.8262H52.8207L52.1957 24.0859C52.1957 23.4154 52.3357 22.8197 52.6156 22.2988C52.8956 21.778 53.2862 21.3743 53.7875 21.0879C54.2953 20.7949 54.8747 20.6484 55.5258 20.6484C56.2484 20.6484 56.8669 20.8242 57.3812 21.1758C57.9021 21.5273 58.2992 22.0319 58.5727 22.6895C58.8526 23.3405 58.9926 24.1185 58.9926 25.0234V31H56.2191V25.4922ZM67.7062 23.9883C68.0643 24.3138 68.5917 24.4766 69.2883 24.4766V25.8438H66.6125C66.1828 25.8438 65.7954 25.7168 65.4504 25.4629C65.1053 25.209 64.8352 24.8411 64.6398 24.3594C64.451 23.8711 64.3566 23.2949 64.3566 22.6309V20.9023C64.3566 20.2513 64.2525 19.7728 64.0441 19.4668C63.8358 19.1608 63.5168 19.0078 63.0871 19.0078H62.5695V16.8594H63.3898C64.2687 16.8594 64.9849 16.9928 65.5383 17.2598C66.0917 17.5202 66.5018 17.9238 66.7687 18.4707C67.0357 19.0176 67.1691 19.7305 67.1691 20.6094V22.5625C67.1691 23.1875 67.3482 23.6628 67.7062 23.9883ZM69.2883 25.2383V26.1953H66.8664V25.2383H69.2883ZM69.2883 26.2344V27.6016C68.5917 27.6016 68.0643 27.7643 67.7062 28.0898C67.3482 28.4089 67.1691 28.8841 67.1691 29.5156V31.4688C67.1691 32.3346 67.0357 33.0443 66.7687 33.5977C66.5018 34.151 66.0917 34.5579 65.5383 34.8184C64.9849 35.0853 64.2687 35.2188 63.3898 35.2188H62.5695V33.0703H63.0871C63.5168 33.0703 63.8358 32.9141 64.0441 32.6016C64.2525 32.2956 64.3566 31.8203 64.3566 31.1758V29.4473C64.3566 28.7767 64.451 28.2005 64.6398 27.7188C64.8352 27.237 65.1053 26.8691 65.4504 26.6152C65.7954 26.3613 66.1828 26.2344 66.6125 26.2344H69.2883ZM66.8664 25.8828H69.2883V26.8398H66.8664V25.8828Z" fill="#292A2E"/>
</svg>
