<svg width="24" height="24" viewBox="0 0 24 24" fill="none" xmlns="http://www.w3.org/2000/svg">
<mask id="mask0_503_6804" style="mask-type:alpha" maskUnits="userSpaceOnUse" x="0" y="0" width="24" height="24">
<rect width="24" height="24" fill="#D9D9D9"/>
</mask>
<g mask="url(#mask0_503_6804)">
<path d="M19 8.13477C18.2372 8.13477 17.5882 7.8671 17.053 7.33177C16.5177 6.79643 16.25 6.14743 16.25 5.38477C16.25 4.62193 16.5177 3.97285 17.053 3.43752C17.5882 2.90235 18.2372 2.63477 19 2.63477C19.7628 2.63477 20.4118 2.90235 20.947 3.43752C21.4823 3.97285 21.75 4.62193 21.75 5.38477C21.75 6.14743 21.4823 6.79643 20.947 7.33177C20.4118 7.8671 19.7628 8.13477 19 8.13477ZM4.30775 19.5C3.80258 19.5 3.375 19.325 3.025 18.975C2.675 18.625 2.5 18.1974 2.5 17.6923V6.30777C2.5 5.8026 2.675 5.37502 3.025 5.02502C3.375 4.67502 3.80258 4.50002 4.30775 4.50002H13.4462C13.6807 4.50002 13.8775 4.58885 14.0365 4.76651C14.1955 4.94401 14.2667 5.1501 14.25 5.38477C14.25 5.49743 14.2552 5.60252 14.2655 5.70002C14.2757 5.79752 14.291 5.89752 14.3115 6.00002C14.3833 6.52052 14.5318 7.00835 14.7568 7.46351C14.9818 7.91868 15.2667 8.32443 15.6115 8.68076L12 11L5.0595 6.55952C4.85317 6.42752 4.64267 6.41602 4.428 6.52502C4.21317 6.63402 4.09617 6.8071 4.077 7.04427C4.05133 7.1686 4.06383 7.28685 4.1145 7.39902C4.16517 7.51118 4.2475 7.60252 4.3615 7.67302L11.5135 12.252C11.6673 12.3455 11.8295 12.3923 12 12.3923C12.1705 12.3923 12.3327 12.3455 12.4865 12.252L16.7943 9.49801C17.1161 9.70068 17.4619 9.85743 17.8318 9.96827C18.2016 10.0793 18.591 10.1348 19 10.1348C19.2358 10.1348 19.4733 10.1178 19.7125 10.0838C19.9517 10.0498 20.184 9.99043 20.4095 9.90577C20.6737 9.8211 20.9214 9.84902 21.1528 9.98952C21.3843 10.1298 21.5 10.3288 21.5 10.5865V17.6923C21.5 18.1974 21.325 18.625 20.975 18.975C20.625 19.325 20.1974 19.5 19.6923 19.5H4.30775Z" fill="#292A2E"/>
</g>
</svg>
