<svg width="24" height="24" viewBox="0 0 24 24" fill="none" xmlns="http://www.w3.org/2000/svg">
<mask id="mask0_503_6803" style="mask-type:alpha" maskUnits="userSpaceOnUse" x="0" y="0" width="24" height="24">
<rect width="24" height="24" fill="#D9D9D9"/>
</mask>
<g mask="url(#mask0_503_6803)">
<path d="M7 13.75H13C13.2125 13.75 13.3906 13.6781 13.5343 13.5343C13.6781 13.3904 13.75 13.2123 13.75 12.9998C13.75 12.7871 13.6781 12.609 13.5343 12.4655C13.3906 12.3219 13.2125 12.25 13 12.25H7C6.7875 12.25 6.60942 12.3219 6.46575 12.4658C6.32192 12.6096 6.25 12.7878 6.25 13.0003C6.25 13.2129 6.32192 13.391 6.46575 13.5345C6.60942 13.6782 6.7875 13.75 7 13.75ZM7 10.75H17C17.2125 10.75 17.3906 10.6781 17.5343 10.5343C17.6781 10.3904 17.75 10.2123 17.75 9.99977C17.75 9.78711 17.6781 9.60903 17.5343 9.46552C17.3906 9.32186 17.2125 9.25002 17 9.25002H7C6.7875 9.25002 6.60942 9.32194 6.46575 9.46578C6.32192 9.60961 6.25 9.78778 6.25 10.0003C6.25 10.2129 6.32192 10.391 6.46575 10.5345C6.60942 10.6782 6.7875 10.75 7 10.75ZM7 7.75003H15.5C15.7125 7.75003 15.8907 7.67811 16.0345 7.53428C16.1782 7.39044 16.25 7.21228 16.25 6.99977C16.25 6.78711 16.1782 6.60902 16.0345 6.46552C15.8907 6.32186 15.7125 6.25002 15.5 6.25002H7C6.7875 6.25002 6.60942 6.32194 6.46575 6.46578C6.32192 6.60961 6.25 6.78778 6.25 7.00028C6.25 7.21294 6.32192 7.39103 6.46575 7.53452C6.60942 7.67819 6.7875 7.75003 7 7.75003ZM6.0385 17.5L4.0365 19.5018C3.752 19.7864 3.42475 19.8504 3.05475 19.6938C2.68492 19.5369 2.5 19.2569 2.5 18.8538V4.30777C2.5 3.80261 2.675 3.37502 3.025 3.02502C3.375 2.67502 3.80258 2.50002 4.30775 2.50002H13.4808C13.6961 2.50002 13.8765 2.57502 14.022 2.72502C14.1677 2.87502 14.2373 3.05644 14.2308 3.26928C14.2244 3.47561 14.1494 3.64902 14.0057 3.78953C13.8622 3.92986 13.6873 4.00002 13.4808 4.00002H4.30775C4.23075 4.00002 4.16025 4.03211 4.09625 4.09627C4.03208 4.16027 4 4.23077 4 4.30777V17.3848L5.4 16H19.6923C19.7693 16 19.8398 15.9679 19.9038 15.9038C19.9679 15.8398 20 15.7693 20 15.6923V8.97127C20 8.75877 20.0719 8.58061 20.2157 8.43677C20.3596 8.29311 20.5378 8.22127 20.7502 8.22127C20.9629 8.22127 21.141 8.29311 21.2845 8.43677C21.4282 8.58061 21.5 8.75877 21.5 8.97127V15.6923C21.5 16.1974 21.325 16.625 20.975 16.975C20.625 17.325 20.1974 17.5 19.6923 17.5H6.0385ZM19.0012 6.23077C18.2376 6.23077 17.5882 5.96352 17.053 5.42902C16.5177 4.89452 16.25 4.24553 16.25 3.48203C16.25 2.71836 16.5173 2.06894 17.0518 1.53377C17.5863 0.998441 18.2353 0.730774 18.9988 0.730774C19.7624 0.730774 20.4118 0.998024 20.947 1.53252C21.4823 2.06702 21.75 2.71611 21.75 3.47977C21.75 4.24327 21.4827 4.89269 20.9482 5.42802C20.4137 5.96319 19.7647 6.23077 19.0012 6.23077ZM4 4.30777V16.6923V4.00002V4.30777Z" fill="#292A2E"/>
</g>
</svg>
