<svg width="24" height="24" viewBox="0 0 24 24" fill="none" xmlns="http://www.w3.org/2000/svg">
<mask id="mask0_503_6800" style="mask-type:alpha" maskUnits="userSpaceOnUse" x="0" y="0" width="24" height="24">
<rect width="24" height="24" fill="#D9D9D9"/>
</mask>
<g mask="url(#mask0_503_6800)">
<path d="M19.0012 6.23077C18.2376 6.23077 17.5882 5.96352 17.053 5.42902C16.5177 4.89452 16.25 4.24553 16.25 3.48203C16.25 2.71836 16.5173 2.06894 17.0518 1.53377C17.5863 0.998441 18.2353 0.730774 18.9988 0.730774C19.7624 0.730774 20.4118 0.998024 20.947 1.53252C21.4823 2.06702 21.75 2.71611 21.75 3.47977C21.75 4.24327 21.4827 4.89269 20.9482 5.42802C20.4137 5.96319 19.7647 6.23077 19.0012 6.23077ZM6.0385 17.5L4.0365 19.5018C3.752 19.7864 3.42475 19.8504 3.05475 19.6938C2.68492 19.5369 2.5 19.2569 2.5 18.8538V4.30777C2.5 3.80261 2.675 3.37502 3.025 3.02502C3.375 2.67502 3.80258 2.50002 4.30775 2.50002H13.4655C13.7017 2.50002 13.8973 2.58886 14.0523 2.76652C14.2073 2.94402 14.2732 3.15011 14.25 3.38477C14.25 4.10911 14.3949 4.78211 14.6848 5.40378C14.9744 6.02561 15.3724 6.56536 15.8788 7.02302C16.2993 7.39236 16.7772 7.68594 17.3125 7.90378C17.8478 8.12178 18.4103 8.23077 19 8.23077C19.2382 8.23077 19.4764 8.21319 19.7148 8.17802C19.9529 8.14286 20.1845 8.08419 20.4095 8.00203C20.6737 7.91736 20.9214 7.94519 21.1528 8.08552C21.3843 8.22602 21.5 8.42644 21.5 8.68677V15.692C21.5 16.1974 21.325 16.625 20.975 16.975C20.625 17.325 20.1974 17.5 19.6923 17.5H6.0385Z" fill="#292A2E"/>
</g>
</svg>
