<svg width="24" height="24" viewBox="0 0 24 24" fill="none" xmlns="http://www.w3.org/2000/svg">
<mask id="mask0_503_6802" style="mask-type:alpha" maskUnits="userSpaceOnUse" x="0" y="0" width="24" height="24">
<rect width="24" height="24" fill="#D9D9D9"/>
</mask>
<g mask="url(#mask0_503_6802)">
<path d="M19.0012 6.23077C18.2376 6.23077 17.5882 5.96352 17.053 5.42902C16.5177 4.89452 16.25 4.24553 16.25 3.48203C16.25 2.71836 16.5173 2.06894 17.0518 1.53377C17.5863 0.998441 18.2353 0.730774 18.9988 0.730774C19.7624 0.730774 20.4118 0.998024 20.947 1.53252C21.4823 2.06702 21.75 2.71611 21.75 3.47977C21.75 4.24327 21.4827 4.89269 20.9482 5.42802C20.4137 5.96319 19.7647 6.23077 19.0012 6.23077ZM6.0385 17.5L4.0365 19.5018C3.752 19.7864 3.42475 19.8504 3.05475 19.6938C2.68492 19.5369 2.5 19.2569 2.5 18.8538V4.30777C2.5 3.80261 2.675 3.37502 3.025 3.02502C3.375 2.67502 3.80258 2.50002 4.30775 2.50002H14.35C14.2962 2.75002 14.2677 2.99844 14.2645 3.24527C14.2613 3.49211 14.277 3.74369 14.3115 4.00002C14.3628 4.43469 14.4603 4.83953 14.6038 5.21453C14.7474 5.58953 14.9308 5.93469 15.1538 6.25002H7C6.7875 6.25002 6.60942 6.32194 6.46575 6.46578C6.32192 6.60961 6.25 6.78778 6.25 7.00028C6.25 7.21294 6.32192 7.39103 6.46575 7.53452C6.60942 7.67819 6.7875 7.75003 7 7.75003H17.221C17.4608 7.90386 17.7356 8.02244 18.0452 8.10577C18.3547 8.18911 18.673 8.23077 19 8.23077C19.4372 8.23077 19.8708 8.16827 20.301 8.04327C20.731 7.91827 21.1307 7.73077 21.5 7.48077V15.6968C21.5 16.1989 21.325 16.625 20.975 16.975C20.625 17.325 20.1974 17.5 19.6923 17.5H6.0385ZM7 10.75H17C17.2125 10.75 17.3906 10.6781 17.5343 10.5343C17.6781 10.3904 17.75 10.2123 17.75 9.99977C17.75 9.78711 17.6781 9.60903 17.5343 9.46552C17.3906 9.32186 17.2125 9.25002 17 9.25002H7C6.7875 9.25002 6.60942 9.32194 6.46575 9.46578C6.32192 9.60961 6.25 9.78778 6.25 10.0003C6.25 10.2129 6.32192 10.391 6.46575 10.5345C6.60942 10.6782 6.7875 10.75 7 10.75ZM7 13.75H13C13.2125 13.75 13.3906 13.6781 13.5343 13.5343C13.6781 13.3904 13.75 13.2123 13.75 12.9998C13.75 12.7871 13.6781 12.609 13.5343 12.4655C13.3906 12.3219 13.2125 12.25 13 12.25H7C6.7875 12.25 6.60942 12.3219 6.46575 12.4658C6.32192 12.6096 6.25 12.7878 6.25 13.0003C6.25 13.2129 6.32192 13.391 6.46575 13.5345C6.60942 13.6782 6.7875 13.75 7 13.75Z" fill="#292A2E"/>
</g>
</svg>
