<svg width="24" height="24" viewBox="0 0 24 24" fill="none" xmlns="http://www.w3.org/2000/svg">
<mask id="mask0_503_6801" style="mask-type:alpha" maskUnits="userSpaceOnUse" x="0" y="0" width="24" height="24">
<rect width="24" height="24" fill="#D9D9D9"/>
</mask>
<g mask="url(#mask0_503_6801)">
<path d="M6.0385 17.5L4.0365 19.5018C3.752 19.7864 3.42475 19.8509 3.05475 19.6953C2.68492 19.5394 2.5 19.2589 2.5 18.8538V4.30777C2.5 3.80261 2.675 3.37502 3.025 3.02502C3.375 2.67502 3.80258 2.50002 4.30775 2.50002H13.4808C13.6936 2.50002 13.8734 2.57502 14.0203 2.72502C14.1671 2.87502 14.2373 3.05644 14.2308 3.26928C14.2244 3.47561 14.1494 3.64902 14.0057 3.78953C13.8622 3.92986 13.6873 4.00002 13.4808 4.00002H4.30775C4.23075 4.00002 4.16025 4.03211 4.09625 4.09627C4.03208 4.16027 4 4.23077 4 4.30777V17.3848L5.4 16H19.6923C19.7693 16 19.8398 15.9679 19.9038 15.9038C19.9679 15.8398 20 15.7693 20 15.6923V8.97127C20 8.75844 20.0718 8.58019 20.2155 8.43653C20.359 8.29303 20.5372 8.22127 20.75 8.22127C20.9628 8.22127 21.141 8.29303 21.2845 8.43653C21.4282 8.58019 21.5 8.75844 21.5 8.97127V15.6923C21.5 16.1974 21.325 16.625 20.975 16.975C20.625 17.325 20.1974 17.5 19.6923 17.5H6.0385ZM19 6.23077C18.2372 6.23077 17.5882 5.96319 17.053 5.42802C16.5177 4.89269 16.25 4.24361 16.25 3.48077C16.25 2.71794 16.5177 2.06894 17.053 1.53377C17.5882 0.998441 18.2372 0.730774 19 0.730774C19.7628 0.730774 20.4118 0.998441 20.947 1.53377C21.4823 2.06894 21.75 2.71794 21.75 3.48077C21.75 4.24361 21.4823 4.89269 20.947 5.42802C20.4118 5.96319 19.7628 6.23077 19 6.23077ZM4 4.30777V16.6923V4.00002V4.30777Z" fill="#292A2E"/>
</g>
</svg>
