<svg width="24" height="24" viewBox="0 0 24 24" fill="none" xmlns="http://www.w3.org/2000/svg">
<mask id="mask0_503_6809" style="mask-type:alpha" maskUnits="userSpaceOnUse" x="0" y="0" width="24" height="24">
<rect width="24" height="24" fill="#D9D9D9"/>
</mask>
<g mask="url(#mask0_503_6809)">
<path d="M9.50021 13.596V10.404C9.50021 10.1479 9.58687 9.93319 9.76021 9.76003C9.93337 9.58669 10.148 9.50002 10.4042 9.50002H13.5962C13.8524 9.50002 14.067 9.58669 14.2402 9.76003C14.4135 9.93319 14.5002 10.1479 14.5002 10.404V13.596C14.5002 13.8522 14.4135 14.0669 14.2402 14.24C14.067 14.4134 13.8524 14.5 13.5962 14.5H10.4042C10.148 14.5 9.93337 14.4134 9.76021 14.24C9.58687 14.0669 9.50021 13.8522 9.50021 13.596ZM11.0002 13H13.0002V11H11.0002V13ZM9.25021 19.5193V18.5H7.30796C6.80279 18.5 6.37521 18.325 6.02521 17.975C5.67521 17.625 5.50021 17.1974 5.50021 16.6923V14.75H4.48096C4.26846 14.75 4.09037 14.6781 3.94671 14.5343C3.80287 14.3904 3.73096 14.2123 3.73096 13.9998C3.73096 13.7871 3.80287 13.609 3.94671 13.4655C4.09037 13.3219 4.26846 13.25 4.48096 13.25H5.50021V10.75H4.48096C4.26846 10.75 4.09037 10.6781 3.94671 10.5343C3.80287 10.3904 3.73096 10.2123 3.73096 9.99977C3.73096 9.78711 3.80287 9.60902 3.94671 9.46552C4.09037 9.32186 4.26846 9.25002 4.48096 9.25002H5.50021V7.30777C5.50021 6.80261 5.67521 6.37502 6.02521 6.02502C6.37521 5.67502 6.80279 5.50002 7.30796 5.50002H9.25021V4.48077C9.25021 4.26827 9.32212 4.09019 9.46596 3.94652C9.60979 3.80269 9.78796 3.73077 10.0005 3.73077C10.2131 3.73077 10.3912 3.80269 10.5347 3.94652C10.6784 4.09019 10.7502 4.26827 10.7502 4.48077V5.50002H13.2502V4.48077C13.2502 4.26827 13.3221 4.09019 13.466 3.94652C13.6098 3.80269 13.788 3.73077 14.0005 3.73077C14.2131 3.73077 14.3912 3.80269 14.5347 3.94652C14.6784 4.09019 14.7502 4.26827 14.7502 4.48077V5.50002H16.6925C17.1976 5.50002 17.6252 5.67502 17.9752 6.02502C18.3252 6.37502 18.5002 6.80261 18.5002 7.30777V9.25002H19.5195C19.732 9.25002 19.91 9.32194 20.0537 9.46577C20.1975 9.60961 20.2695 9.78777 20.2695 10.0003C20.2695 10.2129 20.1975 10.391 20.0537 10.5345C19.91 10.6782 19.732 10.75 19.5195 10.75H18.5002V13.25H19.5195C19.732 13.25 19.91 13.3219 20.0537 13.4658C20.1975 13.6096 20.2695 13.7878 20.2695 14.0003C20.2695 14.2129 20.1975 14.391 20.0537 14.5345C19.91 14.6782 19.732 14.75 19.5195 14.75H18.5002V16.6923C18.5002 17.1974 18.3252 17.625 17.9752 17.975C17.6252 18.325 17.1976 18.5 16.6925 18.5H14.7502V19.5193C14.7502 19.7318 14.6783 19.9099 14.5345 20.0535C14.3906 20.1974 14.2125 20.2693 14 20.2693C13.7873 20.2693 13.6092 20.1974 13.4657 20.0535C13.322 19.9099 13.2502 19.7318 13.2502 19.5193V18.5H10.7502V19.5193C10.7502 19.7318 10.6783 19.9099 10.5345 20.0535C10.3906 20.1974 10.2125 20.2693 9.99996 20.2693C9.78729 20.2693 9.60921 20.1974 9.46571 20.0535C9.32204 19.9099 9.25021 19.7318 9.25021 19.5193ZM16.6925 17C16.7695 17 16.84 16.9679 16.904 16.9038C16.9681 16.8398 17.0002 16.7693 17.0002 16.6923V7.30777C17.0002 7.23077 16.9681 7.16027 16.904 7.09627C16.84 7.03211 16.7695 7.00002 16.6925 7.00002H7.30796C7.23096 7.00002 7.16046 7.03211 7.09646 7.09627C7.03229 7.16027 7.00021 7.23077 7.00021 7.30777V16.6923C7.00021 16.7693 7.03229 16.8398 7.09646 16.9038C7.16046 16.9679 7.23096 17 7.30796 17H16.6925Z" fill="#292A2E"/>
</g>
</svg>
