<svg width="24" height="24" viewBox="0 0 24 24" fill="none" xmlns="http://www.w3.org/2000/svg">
<mask id="mask0_503_6810" style="mask-type:alpha" maskUnits="userSpaceOnUse" x="0" y="0" width="24" height="24">
<rect width="24" height="24" fill="#D9D9D9"/>
</mask>
<g mask="url(#mask0_503_6810)">
<path d="M15.0001 21.5578C14.7873 21.5578 14.6091 21.4859 14.4656 21.3423C14.322 21.1988 14.2501 21.0206 14.2501 20.8078V19.4538C13.8476 19.3999 13.4659 19.3057 13.1049 19.171C12.7441 19.0365 12.4104 18.8481 12.1039 18.6058L10.9694 19.75C10.8142 19.8885 10.6361 19.9619 10.4349 19.9703C10.2335 19.9786 10.0553 19.9052 9.90013 19.75C9.75147 19.6013 9.67713 19.4248 9.67713 19.2203C9.67713 19.0158 9.75147 18.8392 9.90013 18.6905L11.0599 17.5213C10.997 17.4251 10.9358 17.3279 10.8761 17.2298C10.8165 17.1318 10.7585 17.0314 10.7021 16.9288L9.95988 15.4693C9.94055 15.4244 9.91972 15.3843 9.89738 15.349C9.87488 15.3137 9.84763 15.2768 9.81563 15.2385L8.37888 16.675C8.22388 16.8135 8.04672 16.8885 7.84738 16.9C7.64788 16.9115 7.47063 16.8397 7.31563 16.6845C7.1668 16.5358 7.09238 16.3603 7.09238 16.1578C7.09238 15.9551 7.1668 15.7794 7.31563 15.6308L8.76163 14.1693C8.72963 14.1373 8.69438 14.11 8.65588 14.0875C8.61738 14.065 8.57572 14.0442 8.53088 14.025L7.07138 13.298C6.97522 13.2518 6.88738 13.2063 6.80788 13.1615C6.72838 13.1167 6.64372 13.0628 6.55388 13L5.51938 14.0345C5.36422 14.173 5.18605 14.2464 4.98488 14.2548C4.78355 14.2631 4.6053 14.1897 4.45013 14.0345C4.30147 13.8858 4.22713 13.7103 4.22713 13.5078C4.22713 13.3051 4.30147 13.1294 4.45013 12.9808L5.45988 11.9713C5.20722 11.6481 5.0053 11.2993 4.85413 10.925C4.7028 10.5507 4.60022 10.159 4.54638 9.75001H3.19238C2.97955 9.75001 2.80138 9.67818 2.65788 9.53451C2.51422 9.39101 2.44238 9.21284 2.44238 9.00001C2.44238 8.78718 2.51422 8.60901 2.65788 8.46551C2.80138 8.32184 2.97955 8.25001 3.19238 8.25001H4.58663C4.65713 7.90768 4.75713 7.58843 4.88663 7.29226C5.01613 6.99609 5.18222 6.71151 5.38488 6.43851L4.36563 5.41926C4.2168 5.27059 4.14238 5.09493 4.14238 4.89226C4.14238 4.68976 4.2168 4.51418 4.36563 4.36551C4.5143 4.21668 4.68988 4.14226 4.89238 4.14226C5.09505 4.14226 5.27072 4.21668 5.41938 4.36551L6.42888 5.38476C6.70205 5.18209 6.9883 5.01601 7.28763 4.88651C7.58697 4.75701 7.9078 4.65701 8.25013 4.58651V3.19226C8.25013 2.97943 8.32197 2.80126 8.46563 2.65776C8.60913 2.51409 8.7873 2.44226 9.00013 2.44226C9.21297 2.44226 9.39113 2.51409 9.53463 2.65776C9.6783 2.80126 9.75013 2.97943 9.75013 3.19226V4.54626C10.1693 4.60009 10.5677 4.70518 10.9454 4.86151C11.3229 5.01801 11.6732 5.22576 11.9964 5.48476L13.0156 4.46551C13.1643 4.31668 13.3409 4.24226 13.5454 4.24226C13.7499 4.24226 13.9265 4.31668 14.0751 4.46551C14.2238 4.61418 14.2981 4.78976 14.2981 4.99226C14.2981 5.19493 14.2238 5.37059 14.0751 5.51926L13.0154 6.57876C13.068 6.65826 13.1184 6.73618 13.1664 6.81251C13.2146 6.88884 13.2585 6.97509 13.2981 7.07126L14.0096 8.47501C14.029 8.51351 14.0498 8.55201 14.0721 8.59051C14.0946 8.62884 14.1187 8.66409 14.1444 8.69626L15.5156 7.32501C15.6643 7.17634 15.8409 7.10201 16.0454 7.10201C16.2499 7.10201 16.4265 7.17634 16.5751 7.32501C16.7238 7.47368 16.7981 7.65026 16.7981 7.85476C16.7981 8.05926 16.7238 8.23584 16.5751 8.38451L15.1731 9.78076C15.2116 9.81276 15.2517 9.84159 15.2934 9.86726C15.335 9.89293 15.3815 9.91859 15.4329 9.94426L16.9289 10.702C17.0417 10.7648 17.1556 10.8286 17.2704 10.8933C17.385 10.9581 17.4905 11.0303 17.5866 11.1098L18.7309 9.97501C18.8795 9.82634 19.0552 9.75201 19.2579 9.75201C19.4604 9.75201 19.636 9.82634 19.7846 9.97501C19.9335 10.1237 20.0079 10.3003 20.0079 10.5048C20.0079 10.7093 19.9335 10.8858 19.7846 11.0345L18.6404 12.1635C18.866 12.4698 19.0446 12.7978 19.1761 13.1473C19.3075 13.4966 19.4001 13.8642 19.4539 14.25H20.8079C21.0207 14.25 21.1989 14.3218 21.3424 14.4655C21.486 14.609 21.5579 14.7872 21.5579 15C21.5579 15.2128 21.486 15.391 21.3424 15.5345C21.1989 15.6782 21.0207 15.75 20.8079 15.75H19.4136C19.3431 16.0923 19.2447 16.409 19.1184 16.7C18.9921 16.991 18.8276 17.2731 18.6251 17.5463L19.6096 18.5405C19.7585 18.6892 19.8329 18.8658 19.8329 19.0703C19.8329 19.2748 19.7585 19.4513 19.6096 19.6C19.4546 19.7385 19.2765 19.8119 19.0751 19.8203C18.8738 19.8286 18.6956 19.7552 18.5406 19.6L17.5714 18.6153C17.2982 18.8179 17.012 18.984 16.7126 19.1135C16.4133 19.243 16.0925 19.343 15.7501 19.4135V20.8078C15.7501 21.0206 15.6783 21.1988 15.5346 21.3423C15.3911 21.4859 15.213 21.5578 15.0001 21.5578ZM9.50013 10.3463C9.87197 10.3463 10.1876 10.2164 10.4471 9.95676C10.7068 9.69709 10.8399 9.38134 10.8464 9.00951C10.8464 8.63784 10.715 8.32059 10.4521 8.05776C10.1893 7.79493 9.87197 7.66026 9.50013 7.65376C9.1283 7.65376 8.81263 7.78518 8.55313 8.04801C8.29347 8.31084 8.16038 8.62818 8.15388 9.00001C8.16038 9.37184 8.29347 9.68751 8.55313 9.94701C8.81263 10.2067 9.1283 10.3398 9.50013 10.3463ZM14.5001 16.5193C14.786 16.5193 15.0273 16.4208 15.2241 16.224C15.421 16.0272 15.5194 15.7858 15.5194 15.5C15.5194 15.2142 15.421 14.9728 15.2241 14.776C15.0273 14.5792 14.786 14.4808 14.5001 14.4808C14.2143 14.4808 13.973 14.5792 13.7761 14.776C13.5793 14.9728 13.4809 15.2142 13.4809 15.5C13.4809 15.7858 13.5793 16.0272 13.7761 16.224C13.973 16.4208 14.2143 16.5193 14.5001 16.5193Z" fill="#292A2E"/>
</g>
</svg>
