<svg width="24" height="24" viewBox="0 0 24 24" fill="none" xmlns="http://www.w3.org/2000/svg">
<mask id="mask0_854_949" style="mask-type:alpha" maskUnits="userSpaceOnUse" x="0" y="0" width="24" height="24">
<rect width="24" height="24" fill="#D9D9D9"/>
</mask>
<g mask="url(#mask0_854_949)">
<path d="M6.5 14C6.0875 14 5.73442 13.8531 5.44075 13.5592C5.14692 13.2656 5 12.9125 5 12.5C5 12.0875 5.14692 11.7344 5.44075 11.4408C5.73442 11.1469 6.0875 11 6.5 11C6.9125 11 7.26567 11.1469 7.5595 11.4408C7.85317 11.7344 8 12.0875 8 12.5C8 12.9125 7.85317 13.2656 7.5595 13.5592C7.26567 13.8531 6.9125 14 6.5 14ZM12.2693 14C11.8568 14 11.5037 13.8531 11.21 13.5592C10.9162 13.2656 10.7693 12.9125 10.7693 12.5C10.7693 12.0875 10.9162 11.7344 11.21 11.4408C11.5037 11.1469 11.8568 11 12.2693 11C12.6818 11 13.0348 11.1469 13.3285 11.4408C13.6223 11.7344 13.7693 12.0875 13.7693 12.5C13.7693 12.9125 13.6223 13.2656 13.3285 13.5592C13.0348 13.8531 12.6818 14 12.2693 14ZM18.0385 14C17.626 14 17.2728 13.8531 16.979 13.5592C16.6853 13.2656 16.5385 12.9125 16.5385 12.5C16.5385 12.0875 16.6853 11.7344 16.979 11.4408C17.2728 11.1469 17.626 11 18.0385 11C18.451 11 18.8041 11.1469 19.0978 11.4408C19.3916 11.7344 19.5385 12.0875 19.5385 12.5C19.5385 12.9125 19.3916 13.2656 19.0978 13.5592C18.8041 13.8531 18.451 14 18.0385 14Z" fill="#1C1B1F"/>
</g>
</svg>
