<svg width="24" height="24" viewBox="0 0 24 24" fill="none" xmlns="http://www.w3.org/2000/svg">
<mask id="mask0_503_6814" style="mask-type:alpha" maskUnits="userSpaceOnUse" x="0" y="0" width="24" height="24">
<rect width="24" height="24" fill="#D9D9D9"/>
</mask>
<g mask="url(#mask0_503_6814)">
<path d="M11.9998 17.4615L6.29984 19.8943C6.1025 19.9711 5.91759 19.9887 5.74509 19.947C5.57259 19.9053 5.42609 19.8243 5.30559 19.7038C5.18509 19.5833 5.104 19.4334 5.06234 19.2543C5.02067 19.0751 5.0415 18.8884 5.12484 18.6943L11.1711 5.08851C11.2458 4.90785 11.3614 4.77227 11.5181 4.68177C11.6749 4.59143 11.8354 4.54626 11.9996 4.54626C12.1639 4.54626 12.3245 4.59143 12.4813 4.68177C12.6382 4.77227 12.7539 4.90785 12.8286 5.08851L18.8748 18.6943C18.9582 18.8884 18.979 19.0751 18.9373 19.2543C18.8957 19.4334 18.8146 19.5833 18.6941 19.7038C18.5736 19.8243 18.4271 19.9053 18.2546 19.947C18.0821 19.9887 17.8972 19.9711 17.6998 19.8943L11.9998 17.4615Z" fill="#292A2E"/>
</g>
</svg>
