<svg width="24" height="24" viewBox="0 0 24 24" fill="none" xmlns="http://www.w3.org/2000/svg">
<mask id="mask0_503_6816" style="mask-type:alpha" maskUnits="userSpaceOnUse" x="0" y="0" width="24" height="24">
<rect width="24" height="24" fill="#D9D9D9"/>
</mask>
<g mask="url(#mask0_503_6816)">
<path d="M4.34982 10.5C5.46649 9.7 6.67482 9.08333 7.97482 8.65C9.27482 8.21667 10.6165 8 11.9998 8C13.3832 8 14.7248 8.21667 16.0248 8.65C17.3248 9.08333 18.5332 9.7 19.6498 10.5L21.0998 9.05C19.7832 8.05 18.3498 7.29167 16.7998 6.775C15.2498 6.25833 13.6498 6 11.9998 6C10.3498 6 8.74982 6.25833 7.19982 6.775C5.64982 7.29167 4.21649 8.05 2.89982 9.05L4.34982 10.5ZM10.9211 19.2095L1.89032 10.1788C1.73515 10.0238 1.6204 9.85117 1.54607 9.661C1.47174 9.47083 1.43457 9.28067 1.43457 9.0905C1.43457 8.8725 1.48007 8.66417 1.57107 8.4655C1.66207 8.26667 1.79857 8.09033 1.98057 7.9365C3.36657 6.8045 4.93874 5.94875 6.69707 5.36925C8.45524 4.78975 10.2228 4.5 11.9998 4.5C13.7768 4.5 15.5444 4.78975 17.3026 5.36925C19.0609 5.94875 20.6331 6.8045 22.0191 7.9365C22.2011 8.09033 22.3376 8.26667 22.4286 8.4655C22.5196 8.66417 22.5651 8.8725 22.5651 9.0905C22.5651 9.28267 22.5279 9.47333 22.4536 9.6625C22.3792 9.85167 22.2645 10.0238 22.1093 10.1788L13.0786 19.2095C12.9236 19.3647 12.7531 19.4794 12.5671 19.5538C12.3812 19.6281 12.1922 19.6652 11.9998 19.6652C11.8075 19.6652 11.6184 19.6281 11.4326 19.5538C11.2466 19.4794 11.0761 19.3647 10.9211 19.2095Z" fill="#292A2E"/>
</g>
</svg>
