<svg width="24" height="24" viewBox="0 0 24 24" fill="none" xmlns="http://www.w3.org/2000/svg">
<mask id="mask0_503_6820" style="mask-type:alpha" maskUnits="userSpaceOnUse" x="0" y="0" width="24" height="24">
<rect width="24" height="24" fill="#D9D9D9"/>
</mask>
<g mask="url(#mask0_503_6820)">
<path d="M5.25017 18.8845C5.03734 18.8845 4.85917 18.8128 4.71567 18.6693C4.57201 18.5256 4.50017 18.3474 4.50017 18.1348C4.50017 17.9219 4.57201 17.7437 4.71567 17.6C4.85917 17.4565 5.03734 17.3848 5.25017 17.3848H6.30792V9.923C6.30792 8.57817 6.72301 7.38908 7.55317 6.35575C8.38317 5.32242 9.44884 4.6615 10.7502 4.373V3.75C10.7502 3.40383 10.872 3.109 11.1157 2.8655C11.3592 2.62183 11.654 2.5 12.0002 2.5C12.3463 2.5 12.6412 2.62183 12.8847 2.8655C13.1283 3.109 13.2502 3.40383 13.2502 3.75V4.373C14.5515 4.6615 15.6172 5.32242 16.4472 6.35575C17.2773 7.38908 17.6924 8.57817 17.6924 9.923V17.3848H18.7502C18.963 17.3848 19.1412 17.4565 19.2847 17.6C19.4283 17.7437 19.5002 17.9219 19.5002 18.1348C19.5002 18.3474 19.4283 18.5256 19.2847 18.6693C19.1412 18.8128 18.963 18.8845 18.7502 18.8845H5.25017ZM12.0002 21.6923C11.5015 21.6923 11.0756 21.5157 10.7224 21.1625C10.3691 20.8093 10.1924 20.3833 10.1924 19.8845H13.8079C13.8079 20.3833 13.6313 20.8093 13.2779 21.1625C12.9248 21.5157 12.4988 21.6923 12.0002 21.6923ZM3.36567 9.9135C3.15284 9.9135 2.97459 9.83242 2.83092 9.67025C2.68742 9.50808 2.62592 9.31733 2.64642 9.098C2.75409 7.8545 3.08801 6.70008 3.64817 5.63475C4.20851 4.56925 4.93351 3.64933 5.82317 2.875C5.98867 2.73017 6.17684 2.66283 6.38767 2.673C6.59851 2.68333 6.76809 2.77633 6.89642 2.952C7.02459 3.12767 7.07201 3.31675 7.03867 3.51925C7.00534 3.72175 6.90601 3.89742 6.74067 4.04625C6.02651 4.68208 5.44667 5.434 5.00117 6.302C4.55567 7.16983 4.27909 8.11083 4.17142 9.125C4.14442 9.34417 4.05817 9.53042 3.91267 9.68375C3.76717 9.83692 3.58484 9.9135 3.36567 9.9135ZM20.6347 9.9135C20.4155 9.9135 20.2332 9.83692 20.0877 9.68375C19.9422 9.53042 19.8559 9.34417 19.8289 9.125C19.7213 8.11083 19.4447 7.16983 18.9992 6.302C18.5537 5.434 17.9738 4.68208 17.2597 4.04625C17.0943 3.89742 16.995 3.72175 16.9617 3.51925C16.9283 3.31675 16.9758 3.12767 17.1039 2.952C17.2323 2.77633 17.4018 2.68333 17.6127 2.673C17.8235 2.66283 18.0117 2.73017 18.1772 2.875C19.0668 3.64933 19.7918 4.56925 20.3522 5.63475C20.9123 6.70008 21.2463 7.8545 21.3539 9.098C21.3744 9.31733 21.3129 9.50808 21.1694 9.67025C21.0258 9.83242 20.8475 9.9135 20.6347 9.9135Z" fill="#292A2E"/>
</g>
</svg>
