<svg width="24" height="24" viewBox="0 0 24 24" fill="none" xmlns="http://www.w3.org/2000/svg">
<mask id="mask0_503_6826" style="mask-type:alpha" maskUnits="userSpaceOnUse" x="0" y="0" width="24" height="24">
<rect width="24" height="24" fill="#D9D9D9"/>
</mask>
<g mask="url(#mask0_503_6826)">
<path d="M3.19227 18.5C2.68727 18.5 2.25977 18.325 1.90977 17.975C1.55977 17.625 1.38477 17.1974 1.38477 16.6923V7.30775C1.38477 6.80258 1.55977 6.375 1.90977 6.025C2.25977 5.675 2.68727 5.5 3.19227 5.5H12.577C13.082 5.5 13.5095 5.675 13.8595 6.025C14.2095 6.375 14.3845 6.80258 14.3845 7.30775V16.6923C14.3845 17.1974 14.2095 17.625 13.8595 17.975C13.5095 18.325 13.082 18.5 12.577 18.5H3.19227ZM17.7498 18.5C17.5371 18.5 17.359 18.4281 17.2155 18.2843C17.0718 18.1406 17 17.9625 17 17.75V6.25C17 6.0375 17.0719 5.85942 17.2158 5.71575C17.3596 5.57192 17.5378 5.5 17.7503 5.5C17.9629 5.5 18.141 5.57192 18.2845 5.71575C18.4282 5.85942 18.5 6.0375 18.5 6.25V17.75C18.5 17.9625 18.4281 18.1406 18.2843 18.2843C18.1404 18.4281 17.9623 18.5 17.7498 18.5ZM21.865 18.5C21.6525 18.5 21.4744 18.4281 21.3308 18.2843C21.1873 18.1406 21.1155 17.9625 21.1155 17.75V6.25C21.1155 6.0375 21.1873 5.85942 21.331 5.71575C21.4748 5.57192 21.6531 5.5 21.8658 5.5C22.0783 5.5 22.2563 5.57192 22.4 5.71575C22.5435 5.85942 22.6153 6.0375 22.6153 6.25V17.75C22.6153 17.9625 22.5434 18.1406 22.3998 18.2843C22.2559 18.4281 22.0777 18.5 21.865 18.5Z" fill="#292A2E"/>
</g>
</svg>
