<svg width="24" height="24" viewBox="0 0 24 24" fill="none" xmlns="http://www.w3.org/2000/svg">
<mask id="mask0_503_6839" style="mask-type:alpha" maskUnits="userSpaceOnUse" x="0" y="0" width="24" height="24">
<rect width="24" height="24" fill="#D9D9D9"/>
</mask>
<g mask="url(#mask0_503_6839)">
<path d="M19.2768 21.4L17.169 19.3078H6.01905C5.59721 19.3078 5.23855 19.16 4.94305 18.8645C4.64755 18.5688 4.4998 18.2102 4.4998 17.7885V17.0845C4.4998 16.5948 4.6328 16.1413 4.8988 15.724C5.1648 15.3067 5.5203 14.9858 5.9653 14.7615C6.7793 14.359 7.59946 14.0443 8.4258 13.8173C9.25213 13.5904 10.0845 13.4411 10.923 13.3693H11.0815C11.136 13.3693 11.189 13.3724 11.2403 13.3788L2.58455 4.72301C2.43571 4.57435 2.3623 4.39776 2.3643 4.19326C2.36613 3.98876 2.44463 3.80893 2.5998 3.65377C2.75496 3.49877 2.93321 3.42126 3.13455 3.42126C3.33571 3.42126 3.51388 3.49877 3.66905 3.65377L20.346 20.3463C20.4947 20.4949 20.5706 20.6689 20.5738 20.8683C20.577 21.0676 20.501 21.2448 20.346 21.4C20.1909 21.5552 20.0126 21.6328 19.8113 21.6328C19.6101 21.6328 19.432 21.5552 19.2768 21.4ZM5.9998 17.8078H15.669L12.717 14.8558C12.5875 14.8429 12.468 14.8317 12.3585 14.822C12.2489 14.8125 12.1293 14.8078 11.9998 14.8078C11.0856 14.8078 10.1815 14.917 9.2873 15.1355C8.39313 15.3542 7.51521 15.6757 6.65355 16.1C6.45238 16.209 6.29313 16.3497 6.1758 16.522C6.05846 16.6945 5.9998 16.882 5.9998 17.0845V17.8078ZM18.246 14.8673C18.5434 15.0109 18.7792 15.2289 18.9535 15.5213C19.1279 15.8134 19.2202 16.1288 19.2305 16.4673L17.169 14.4058C17.3537 14.4776 17.5358 14.5494 17.7153 14.6213C17.8946 14.6931 18.0715 14.7751 18.246 14.8673ZM13.94 11.1095L12.8403 10.0098C13.1915 9.84693 13.4725 9.6011 13.6835 9.27227C13.8944 8.94327 13.9998 8.58327 13.9998 8.19227C13.9998 7.64227 13.804 7.17143 13.4123 6.77977C13.0206 6.3881 12.5498 6.19227 11.9998 6.19227C11.6088 6.19227 11.2489 6.29776 10.92 6.50876C10.5912 6.7196 10.3454 7.00068 10.1825 7.35202L9.08255 6.25202C9.41455 5.75585 9.83538 5.37185 10.345 5.10002C10.8547 4.82818 11.4063 4.69227 11.9998 4.69227C12.9651 4.69227 13.7898 5.03426 14.4738 5.71826C15.1578 6.40226 15.4998 7.22693 15.4998 8.19227C15.4998 8.78593 15.3639 9.33752 15.092 9.84702C14.8202 10.3567 14.4362 10.7775 13.94 11.1095Z" fill="#292A2E"/>
</g>
</svg>
