<svg width="24" height="24" viewBox="0 0 24 24" fill="none" xmlns="http://www.w3.org/2000/svg">
<mask id="mask0_503_6837" style="mask-type:alpha" maskUnits="userSpaceOnUse" x="0" y="0" width="24" height="24">
<rect width="24" height="24" fill="#D9D9D9"/>
</mask>
<g mask="url(#mask0_503_6837)">
<path d="M16.8077 9.25001H20.8078C21.0203 9.25001 21.1983 9.32193 21.342 9.46576C21.4858 9.60959 21.5578 9.78776 21.5578 10.0003C21.5578 10.2129 21.4858 10.391 21.342 10.5345C21.1983 10.6782 21.0203 10.75 20.8078 10.75H16.8077C16.5953 10.75 16.4171 10.6781 16.2732 10.5343C16.1296 10.3904 16.0577 10.2123 16.0577 9.99976C16.0577 9.78709 16.1296 9.60901 16.2732 9.46551C16.4171 9.32184 16.5953 9.25001 16.8077 9.25001ZM9 11.6923C8.0375 11.6923 7.21358 11.3496 6.52825 10.6643C5.84275 9.97876 5.5 9.15476 5.5 8.19226C5.5 7.22976 5.84275 6.40584 6.52825 5.72051C7.21358 5.03501 8.0375 4.69226 9 4.69226C9.9625 4.69226 10.7864 5.03501 11.4718 5.72051C12.1573 6.40584 12.5 7.22976 12.5 8.19226C12.5 9.15476 12.1573 9.97876 11.4718 10.6643C10.7864 11.3496 9.9625 11.6923 9 11.6923ZM1.5 17.7885V17.0845C1.5 16.5948 1.633 16.1413 1.899 15.724C2.165 15.3067 2.5205 14.9858 2.9655 14.7615C3.95383 14.277 4.95092 13.9136 5.95675 13.6713C6.96258 13.4289 7.977 13.3078 9 13.3078C10.023 13.3078 11.0374 13.4289 12.0433 13.6713C13.0491 13.9136 14.0462 14.277 15.0345 14.7615C15.4795 14.9858 15.835 15.3067 16.101 15.724C16.367 16.1413 16.5 16.5948 16.5 17.0845V17.7885C16.5 18.2102 16.3523 18.5688 16.0568 18.8645C15.7613 19.16 15.4026 19.3078 14.9808 19.3078H3.01925C2.59742 19.3078 2.23875 19.16 1.94325 18.8645C1.64775 18.5688 1.5 18.2102 1.5 17.7885ZM3 17.8078H15V17.0845C15 16.882 14.9413 16.6945 14.824 16.522C14.7067 16.3497 14.5474 16.209 14.3462 16.1C13.4846 15.6757 12.6061 15.3542 11.7107 15.1355C10.8152 14.917 9.91167 14.8078 9 14.8078C8.08833 14.8078 7.18475 14.917 6.28925 15.1355C5.39392 15.3542 4.51542 15.6757 3.65375 16.1C3.45258 16.209 3.29333 16.3497 3.176 16.522C3.05867 16.6945 3 16.882 3 17.0845V17.8078ZM9 10.1923C9.55 10.1923 10.0208 9.99643 10.4125 9.60476C10.8042 9.21309 11 8.74226 11 8.19226C11 7.64226 10.8042 7.17143 10.4125 6.77976C10.0208 6.38809 9.55 6.19226 9 6.19226C8.45 6.19226 7.97917 6.38809 7.5875 6.77976C7.19583 7.17143 7 7.64226 7 8.19226C7 8.74226 7.19583 9.21309 7.5875 9.60476C7.97917 9.99643 8.45 10.1923 9 10.1923Z" fill="#292A2E"/>
</g>
</svg>
