<svg width="24" height="24" viewBox="0 0 24 24" fill="none" xmlns="http://www.w3.org/2000/svg">
<mask id="mask0_503_7319" style="mask-type:alpha" maskUnits="userSpaceOnUse" x="0" y="0" width="24" height="24">
<rect width="24" height="24" fill="#D9D9D9"/>
</mask>
<g mask="url(#mask0_503_7319)">
<path d="M15.4999 5V12.2115L17.0652 13.777C17.1395 13.8513 17.1953 13.935 17.2327 14.028C17.2698 14.1208 17.2884 14.2168 17.2884 14.316V14.7435C17.2884 14.9542 17.2156 15.1329 17.0699 15.2797C16.9244 15.4266 16.744 15.5 16.5287 15.5H12.7499V20.62C12.7499 20.7425 12.7281 20.8583 12.6844 20.9673C12.6409 21.0763 12.5723 21.1775 12.4787 21.271L12.2634 21.4865C12.1879 21.5608 12.0998 21.598 11.9992 21.598C11.8983 21.598 11.8108 21.5608 11.7364 21.4865L11.5212 21.271C11.4275 21.1775 11.3589 21.0756 11.3154 20.9653C11.2718 20.8547 11.2499 20.7407 11.2499 20.623V15.5H7.47118C7.25584 15.5 7.07543 15.4266 6.92993 15.2797C6.78426 15.1329 6.71143 14.9542 6.71143 14.7435V14.316C6.71143 14.2168 6.73001 14.1208 6.76718 14.028C6.80451 13.935 6.86034 13.8513 6.93468 13.777L8.49993 12.2115V5H8.24993C8.03743 5 7.85934 4.92808 7.71568 4.78425C7.57184 4.64042 7.49993 4.46225 7.49993 4.24975C7.49993 4.03708 7.57184 3.859 7.71568 3.7155C7.85934 3.57183 8.03743 3.5 8.24993 3.5H15.7499C15.9624 3.5 16.1405 3.57192 16.2842 3.71575C16.428 3.85958 16.4999 4.03775 16.4999 4.25025C16.4999 4.46292 16.428 4.641 16.2842 4.7845C16.1405 4.92817 15.9624 5 15.7499 5H15.4999ZM8.84993 14H15.1499L13.9999 12.85V5H9.99993V12.85L8.84993 14Z" fill="#292A2E"/>
</g>
</svg>
