<svg width="24" height="24" viewBox="0 0 24 24" fill="none" xmlns="http://www.w3.org/2000/svg">
<mask id="mask0_503_6844" style="mask-type:alpha" maskUnits="userSpaceOnUse" x="0" y="0" width="24" height="24">
<rect width="24" height="24" fill="#D9D9D9"/>
</mask>
<g mask="url(#mask0_503_6844)">
<path d="M11.25 20.75V13.2923C11.0142 13.1474 10.8302 12.966 10.698 12.748C10.566 12.5302 10.5 12.2808 10.5 12C10.5 11.591 10.6478 11.2387 10.9433 10.9432C11.2388 10.6477 11.591 10.5 12 10.5C12.409 10.5 12.7613 10.6477 13.0568 10.9432C13.3523 11.2387 13.5 11.591 13.5 12C13.5 12.2808 13.434 12.5328 13.302 12.7558C13.1698 12.9788 12.9858 13.1576 12.75 13.2923V20.75C12.75 20.9628 12.6782 21.141 12.5345 21.2845C12.391 21.4282 12.2128 21.5 12 21.5C11.7872 21.5 11.609 21.4282 11.4655 21.2845C11.3218 21.141 11.25 20.9628 11.25 20.75ZM5.998 18.352C5.843 18.507 5.65908 18.5813 5.44625 18.575C5.23342 18.5685 5.05458 18.4826 4.90975 18.3173C4.15975 17.4659 3.57058 16.5063 3.14225 15.4385C2.71408 14.3705 2.5 13.2243 2.5 12C2.5 10.6872 2.74967 9.45292 3.249 8.29725C3.74833 7.14142 4.42558 6.13592 5.28075 5.28075C6.13592 4.42558 7.14142 3.74833 8.29725 3.249C9.45292 2.74967 10.6872 2.5 12 2.5C13.3128 2.5 14.5471 2.74967 15.7028 3.249C16.8586 3.74833 17.8641 4.42558 18.7193 5.28075C19.5744 6.13592 20.2517 7.14142 20.751 8.29725C21.2503 9.45292 21.5 10.6872 21.5 12C21.5 13.218 21.2859 14.3626 20.8577 15.4337C20.4294 16.5047 19.8403 17.4659 19.0903 18.3173C18.9454 18.4826 18.7692 18.5711 18.5615 18.5828C18.3538 18.5942 18.1724 18.5224 18.0173 18.3673C17.8724 18.2224 17.8048 18.042 17.8145 17.826C17.824 17.61 17.9012 17.4193 18.0462 17.2538C18.6577 16.5474 19.1362 15.7481 19.4818 14.8558C19.8273 13.9634 20 13.0115 20 12C20 9.76667 19.225 7.875 17.675 6.325C16.125 4.775 14.2333 4 12 4C9.76667 4 7.875 4.775 6.325 6.325C4.775 7.875 4 9.76667 4 12C4 13.0115 4.17117 13.9608 4.5135 14.848C4.85583 15.7352 5.34108 16.532 5.96925 17.2385C6.11408 17.4038 6.19392 17.592 6.20875 17.803C6.22342 18.0138 6.15317 18.1968 5.998 18.352ZM8.823 15.527C8.668 15.682 8.48567 15.7605 8.276 15.7625C8.06633 15.7643 7.89425 15.6775 7.75975 15.502C7.36992 15.0173 7.0625 14.4811 6.8375 13.8933C6.6125 13.3054 6.5 12.6743 6.5 12C6.5 10.4743 7.03525 9.17625 8.10575 8.10575C9.17625 7.03525 10.4743 6.5 12 6.5C13.5257 6.5 14.8238 7.03525 15.8943 8.10575C16.9648 9.17625 17.5 10.4743 17.5 12C17.5 12.668 17.3875 13.3001 17.1625 13.8963C16.9375 14.4923 16.6301 15.0275 16.2402 15.502C16.1058 15.6673 15.9337 15.7542 15.724 15.7625C15.5143 15.7708 15.332 15.6974 15.177 15.5423C15.032 15.3974 14.9586 15.2218 14.9568 15.0155C14.9548 14.809 15.0179 14.6179 15.1462 14.4423C15.4078 14.0961 15.6154 13.7179 15.7693 13.3077C15.9231 12.8974 16 12.4615 16 12C16 10.9 15.6083 9.95833 14.825 9.175C14.0417 8.39167 13.1 8 12 8C10.9 8 9.95833 8.39167 9.175 9.175C8.39167 9.95833 8 10.9 8 12C8 12.4718 8.07692 12.9103 8.23075 13.3155C8.38458 13.7205 8.59225 14.0961 8.85375 14.4423C8.98208 14.6179 9.04525 14.8064 9.04325 15.0078C9.04142 15.2089 8.968 15.382 8.823 15.527Z" fill="#292A2E"/>
</g>
</svg>
