<svg width="24" height="24" viewBox="0 0 24 24" fill="none" xmlns="http://www.w3.org/2000/svg">
<mask id="mask0_503_6859" style="mask-type:alpha" maskUnits="userSpaceOnUse" x="0" y="0" width="24" height="24">
<rect width="24" height="24" fill="#D9D9D9"/>
</mask>
<g mask="url(#mask0_503_6859)">
<path d="M8.30782 20.5C7.81066 20.5 7.38507 20.323 7.03107 19.969C6.67707 19.615 6.50007 19.1894 6.50007 18.6922V16.5H4.59632C4.09916 16.5 3.67357 16.323 3.31957 15.969C2.96557 15.615 2.78857 15.1894 2.78857 14.6922V10.8077C2.78857 10.0994 3.03057 9.50566 3.51457 9.02649C3.99857 8.54732 4.58991 8.30774 5.28857 8.30774H18.7116C19.4199 8.30774 20.0137 8.54732 20.4928 9.02649C20.972 9.50566 21.2116 10.0994 21.2116 10.8077V14.6922C21.2116 15.1894 21.0346 15.615 20.6806 15.969C20.3266 16.323 19.901 16.5 19.4038 16.5H17.5001V18.6922C17.5001 19.1894 17.3231 19.615 16.9691 19.969C16.6151 20.323 16.1895 20.5 15.6923 20.5H8.30782ZM17.5001 7.42299H6.50007V5.61374C6.50007 5.11607 6.67707 4.69066 7.03107 4.33749C7.38507 3.98432 7.81066 3.80774 8.30782 3.80774H15.6923C16.1895 3.80774 16.6151 3.98474 16.9691 4.33874C17.3231 4.69274 17.5001 5.11832 17.5001 5.61549V7.42299ZM17.8078 12.3077C18.0912 12.3077 18.3287 12.2119 18.5203 12.0202C18.712 11.8286 18.8078 11.5911 18.8078 11.3077C18.8078 11.0244 18.712 10.7869 18.5203 10.5952C18.3287 10.4036 18.0912 10.3077 17.8078 10.3077C17.5245 10.3077 17.287 10.4036 17.0953 10.5952C16.9037 10.7869 16.8078 11.0244 16.8078 11.3077C16.8078 11.5911 16.9037 11.8286 17.0953 12.0202C17.287 12.2119 17.5245 12.3077 17.8078 12.3077ZM8.30782 19H15.6923C15.7822 19 15.8559 18.9712 15.9136 18.9135C15.9712 18.8558 16.0001 18.7821 16.0001 18.6922V15.0385C16.0001 14.9487 15.9712 14.8749 15.9136 14.8172C15.8559 14.7596 15.7822 14.7307 15.6923 14.7307H8.30782C8.21799 14.7307 8.14424 14.7596 8.08657 14.8172C8.02891 14.8749 8.00007 14.9487 8.00007 15.0385V18.6922C8.00007 18.7821 8.02891 18.8558 8.08657 18.9135C8.14424 18.9712 8.21799 19 8.30782 19Z" fill="#292A2E"/>
</g>
</svg>
