<svg width="24" height="24" viewBox="0 0 24 24" fill="none" xmlns="http://www.w3.org/2000/svg">
<mask id="mask0_503_6857" style="mask-type:alpha" maskUnits="userSpaceOnUse" x="0" y="0" width="24" height="24">
<rect width="24" height="24" fill="#D9D9D9"/>
</mask>
<g mask="url(#mask0_503_6857)">
<path d="M9.2115 11.3463H8.3655C8.19317 11.3463 8.05075 11.29 7.93825 11.1773C7.82558 11.0648 7.76925 10.9225 7.76925 10.7505C7.76925 10.5784 7.82558 10.4359 7.93825 10.323C8.05075 10.2102 8.19317 10.1538 8.3655 10.1538H9.80775C9.97992 10.1538 10.1223 10.2101 10.235 10.3228C10.3475 10.4355 10.4037 10.5779 10.4037 10.75V15.25C10.4037 15.4222 10.3475 15.5646 10.235 15.6773C10.1225 15.79 9.98025 15.8463 9.80825 15.8463C9.63608 15.8463 9.49358 15.79 9.38075 15.6773C9.26792 15.5646 9.2115 15.4222 9.2115 15.25V11.3463ZM12.5963 15.8463C12.3129 15.8463 12.0754 15.7505 11.8837 15.5588C11.6921 15.3671 11.5963 15.1296 11.5963 14.8463V11.1538C11.5963 10.8705 11.6921 10.633 11.8837 10.4413C12.0754 10.2496 12.3129 10.1538 12.5963 10.1538H14.4808C14.7641 10.1538 15.0016 10.2496 15.1932 10.4413C15.3849 10.633 15.4808 10.8705 15.4808 11.1538V14.8463C15.4808 15.1296 15.3849 15.3671 15.1932 15.5588C15.0016 15.7505 14.7641 15.8463 14.4808 15.8463H12.5963ZM12.9038 14.6538H14.173C14.2115 14.6538 14.2404 14.6442 14.2598 14.625C14.2789 14.6059 14.2885 14.577 14.2885 14.5385V11.4615C14.2885 11.423 14.2789 11.3942 14.2598 11.375C14.2404 11.3559 14.2115 11.3463 14.173 11.3463H12.9038C12.8654 11.3463 12.8366 11.3559 12.8173 11.375C12.7981 11.3942 12.7885 11.423 12.7885 11.4615V14.5385C12.7885 14.577 12.7981 14.6059 12.8173 14.625C12.8366 14.6442 12.8654 14.6538 12.9038 14.6538ZM12.0005 21.5C10.8207 21.5 9.71542 21.277 8.68475 20.8308C7.65392 20.3846 6.75517 19.7782 5.9885 19.0115C5.22183 18.2449 4.61542 17.3463 4.16925 16.3158C3.72308 15.2853 3.5 14.18 3.5 13C3.5 12.7875 3.57192 12.6095 3.71575 12.4658C3.85958 12.322 4.03775 12.25 4.25025 12.25C4.46292 12.25 4.641 12.322 4.7845 12.4658C4.92817 12.6095 5 12.7875 5 13C5 14.95 5.67917 16.6042 7.0375 17.9625C8.39583 19.3209 10.05 20 12 20C13.95 20 15.6042 19.3209 16.9625 17.9625C18.3208 16.6042 19 14.95 19 13C19 11.05 18.3208 9.39588 16.9625 8.03754C15.6042 6.67921 13.95 6.00004 12 6.00004H11.7345L12.7963 7.06154C12.9449 7.21038 13.0183 7.38446 13.0163 7.58379C13.0144 7.78313 12.9418 7.96029 12.7983 8.11529C12.6418 8.27046 12.4628 8.35063 12.2615 8.35579C12.0603 8.36096 11.8822 8.28596 11.727 8.13079L9.479 5.87304C9.29817 5.69238 9.20775 5.48154 9.20775 5.24054C9.20775 4.99938 9.29817 4.78846 9.479 4.60779L11.7463 2.35004C11.8949 2.20138 12.0715 2.12796 12.276 2.12979C12.4805 2.13179 12.661 2.21038 12.8175 2.36554C12.961 2.52054 13.0353 2.69613 13.0405 2.89229C13.0455 3.08846 12.9705 3.26413 12.8155 3.41929L11.7345 4.50004H12C13.18 4.50004 14.2852 4.72313 15.3158 5.16929C16.3463 5.61546 17.2448 6.22188 18.0115 6.98854C18.7782 7.75521 19.3846 8.65371 19.8307 9.68404C20.2769 10.7145 20.5 11.8197 20.5 12.9995C20.5 14.1794 20.2769 15.2846 19.8307 16.3153C19.3846 17.3461 18.7782 18.2449 18.0115 19.0115C17.2448 19.7782 16.3463 20.3846 15.316 20.8308C14.2855 21.277 13.1803 21.5 12.0005 21.5Z" fill="#292A2E"/>
</g>
</svg>
