<svg width="24" height="24" viewBox="0 0 24 24" fill="none" xmlns="http://www.w3.org/2000/svg">
<mask id="mask0_1356_895" style="mask-type:alpha" maskUnits="userSpaceOnUse" x="0" y="0" width="24" height="24">
<rect width="24" height="24" fill="#D9D9D9"/>
</mask>
<g mask="url(#mask0_1356_895)">
<path d="M4.30775 5.1155C4.07892 5.1155 3.88708 5.03808 3.73225 4.88325C3.57742 4.72842 3.5 4.53658 3.5 4.30775C3.5 4.07892 3.57742 3.88708 3.73225 3.73225C3.88708 3.57742 4.07892 3.5 4.30775 3.5C4.53658 3.5 4.72842 3.57742 4.88325 3.73225C5.03808 3.88708 5.1155 4.07892 5.1155 4.30775C5.1155 4.53658 5.03808 4.72842 4.88325 4.88325C4.72842 5.03808 4.53658 5.1155 4.30775 5.1155ZM8.15375 5.1155C7.92492 5.1155 7.73317 5.03808 7.5785 4.88325C7.42367 4.72842 7.34625 4.53658 7.34625 4.30775C7.34625 4.07892 7.42367 3.88708 7.5785 3.73225C7.73317 3.57742 7.92492 3.5 8.15375 3.5C8.38258 3.5 8.57442 3.57742 8.72925 3.73225C8.88408 3.88708 8.9615 4.07892 8.9615 4.30775C8.9615 4.53658 8.88408 4.72842 8.72925 4.88325C8.57442 5.03808 8.38258 5.1155 8.15375 5.1155ZM12 5.1155C11.7712 5.1155 11.5793 5.03808 11.4245 4.88325C11.2697 4.72842 11.1923 4.53658 11.1923 4.30775C11.1923 4.07892 11.2697 3.88708 11.4245 3.73225C11.5793 3.57742 11.7712 3.5 12 3.5C12.2288 3.5 12.4207 3.57742 12.5755 3.73225C12.7303 3.88708 12.8077 4.07892 12.8077 4.30775C12.8077 4.53658 12.7303 4.72842 12.5755 4.88325C12.4207 5.03808 12.2288 5.1155 12 5.1155ZM4.30775 8.9615C4.07892 8.9615 3.88708 8.88408 3.73225 8.72925C3.57742 8.57442 3.5 8.38258 3.5 8.15375C3.5 7.92492 3.57742 7.73317 3.73225 7.5785C3.88708 7.42367 4.07892 7.34625 4.30775 7.34625C4.53658 7.34625 4.72842 7.42367 4.88325 7.5785C5.03808 7.73317 5.1155 7.92492 5.1155 8.15375C5.1155 8.38258 5.03808 8.57442 4.88325 8.72925C4.72842 8.88408 4.53658 8.9615 4.30775 8.9615ZM4.30775 12.8077C4.07892 12.8077 3.88708 12.7303 3.73225 12.5755C3.57742 12.4207 3.5 12.2288 3.5 12C3.5 11.7712 3.57742 11.5793 3.73225 11.4245C3.88708 11.2697 4.07892 11.1923 4.30775 11.1923C4.53658 11.1923 4.72842 11.2697 4.88325 11.4245C5.03808 11.5793 5.1155 11.7712 5.1155 12C5.1155 12.2288 5.03808 12.4207 4.88325 12.5755C4.72842 12.7303 4.53658 12.8077 4.30775 12.8077ZM19.6923 12.8077C19.4634 12.8077 19.2716 12.7303 19.1167 12.5755C18.9619 12.4207 18.8845 12.2288 18.8845 12C18.8845 11.7712 18.9619 11.5793 19.1167 11.4245C19.2716 11.2697 19.4634 11.1923 19.6923 11.1923C19.9211 11.1923 20.1129 11.2697 20.2678 11.4245C20.4226 11.5793 20.5 11.7712 20.5 12C20.5 12.2288 20.4226 12.4207 20.2678 12.5755C20.1129 12.7303 19.9211 12.8077 19.6923 12.8077ZM19.6923 16.6538C19.4634 16.6538 19.2716 16.5763 19.1167 16.4215C18.9619 16.2668 18.8845 16.0751 18.8845 15.8463C18.8845 15.6174 18.9619 15.4256 19.1167 15.2708C19.2716 15.1159 19.4634 15.0385 19.6923 15.0385C19.9211 15.0385 20.1129 15.1159 20.2678 15.2708C20.4226 15.4256 20.5 15.6174 20.5 15.8463C20.5 16.0751 20.4226 16.2668 20.2678 16.4215C20.1129 16.5763 19.9211 16.6538 19.6923 16.6538ZM12 20.5C11.7712 20.5 11.5793 20.4226 11.4245 20.2678C11.2697 20.1129 11.1923 19.9211 11.1923 19.6923C11.1923 19.4634 11.2697 19.2716 11.4245 19.1167C11.5793 18.9619 11.7712 18.8845 12 18.8845C12.2288 18.8845 12.4207 18.9619 12.5755 19.1167C12.7303 19.2716 12.8077 19.4634 12.8077 19.6923C12.8077 19.9211 12.7303 20.1129 12.5755 20.2678C12.4207 20.4226 12.2288 20.5 12 20.5ZM15.8462 20.5C15.6174 20.5 15.4256 20.4226 15.2708 20.2678C15.1159 20.1129 15.0385 19.9211 15.0385 19.6923C15.0385 19.4634 15.1159 19.2716 15.2708 19.1167C15.4256 18.9619 15.6174 18.8845 15.8462 18.8845C16.0751 18.8845 16.2668 18.9619 16.4215 19.1167C16.5763 19.2716 16.6538 19.4634 16.6538 19.6923C16.6538 19.9211 16.5763 20.1129 16.4215 20.2678C16.2668 20.4226 16.0751 20.5 15.8462 20.5ZM19.6923 20.5C19.4634 20.5 19.2716 20.4226 19.1167 20.2678C18.9619 20.1129 18.8845 19.9211 18.8845 19.6923C18.8845 19.4634 18.9619 19.2716 19.1167 19.1167C19.2716 18.9619 19.4634 18.8845 19.6923 18.8845C19.9211 18.8845 20.1129 18.9619 20.2678 19.1167C20.4226 19.2716 20.5 19.4634 20.5 19.6923C20.5 19.9211 20.4226 20.1129 20.2678 20.2678C20.1129 20.4226 19.9211 20.5 19.6923 20.5ZM19 8.2115V5.30775C19 5.21792 18.9712 5.14417 18.9135 5.0865C18.8558 5.02883 18.7821 5 18.6923 5H15.7885C15.576 5 15.3978 4.92808 15.254 4.78425C15.1103 4.64042 15.0385 4.46225 15.0385 4.24975C15.0385 4.03708 15.1103 3.859 15.254 3.7155C15.3978 3.57183 15.576 3.5 15.7885 3.5H18.6923C19.1894 3.5 19.615 3.677 19.969 4.031C20.323 4.385 20.5 4.81058 20.5 5.30775V8.2115C20.5 8.424 20.4281 8.60217 20.2843 8.746C20.1404 8.88967 19.9622 8.9615 19.7498 8.9615C19.5371 8.9615 19.359 8.88967 19.2155 8.746C19.0718 8.60217 19 8.424 19 8.2115ZM3.5 18.6923V15.7885C3.5 15.576 3.57192 15.3978 3.71575 15.254C3.85958 15.1103 4.03775 15.0385 4.25025 15.0385C4.46292 15.0385 4.641 15.1103 4.7845 15.254C4.92817 15.3978 5 15.576 5 15.7885V18.6923C5 18.7821 5.02883 18.8558 5.0865 18.9135C5.14417 18.9712 5.21792 19 5.30775 19H8.2115C8.424 19 8.60217 19.0719 8.746 19.2158C8.88967 19.3596 8.9615 19.5378 8.9615 19.7502C8.9615 19.9629 8.88967 20.141 8.746 20.2845C8.60217 20.4282 8.424 20.5 8.2115 20.5H5.30775C4.81058 20.5 4.385 20.323 4.031 19.969C3.677 19.615 3.5 19.1894 3.5 18.6923Z" fill="#292A2E"/>
</g>
</svg>
