<svg width="24" height="24" viewBox="0 0 24 24" fill="none" xmlns="http://www.w3.org/2000/svg">
<mask id="mask0_1356_898" style="mask-type:alpha" maskUnits="userSpaceOnUse" x="0" y="0" width="24" height="24">
<rect width="24" height="24" fill="#D9D9D9"/>
</mask>
<g mask="url(#mask0_1356_898)">
<path d="M4.42282 12.0499C4.16266 12.0499 3.95566 11.9586 3.80182 11.7759C3.64799 11.5933 3.60307 11.3769 3.66707 11.1269C3.76707 10.6526 3.90849 10.2029 4.09132 9.77794C4.27399 9.35294 4.48966 8.94427 4.73832 8.55194C4.86649 8.34544 5.05141 8.23036 5.29307 8.20669C5.53474 8.18302 5.74857 8.25902 5.93457 8.43469C6.05241 8.55252 6.12157 8.69511 6.14207 8.86244C6.16257 9.02977 6.12732 9.18269 6.03632 9.32119C5.82482 9.65569 5.64532 10.0044 5.49782 10.3672C5.35049 10.73 5.23191 11.1019 5.14207 11.4827C5.10491 11.648 5.01457 11.7839 4.87107 11.8904C4.72741 11.9968 4.57799 12.0499 4.42282 12.0499ZM10.9498 20.5672C10.9498 20.8442 10.8569 21.057 10.6711 21.2057C10.4851 21.3544 10.2671 21.3967 10.0171 21.3327C9.56591 21.216 9.12616 21.0689 8.69782 20.8912C8.26966 20.7137 7.85432 20.5006 7.45182 20.2519C7.24532 20.1236 7.13024 19.9403 7.10657 19.7019C7.08291 19.4634 7.15891 19.2512 7.33457 19.0652C7.45241 18.9474 7.59499 18.8782 7.76232 18.8577C7.92966 18.8372 8.08257 18.8724 8.22107 18.9634C8.55557 19.1749 8.90424 19.3528 9.26707 19.4969C9.62991 19.6413 9.99849 19.7551 10.3728 19.8384C10.5383 19.8756 10.6758 19.9676 10.7853 20.1144C10.895 20.2611 10.9498 20.412 10.9498 20.5672ZM5.93457 17.6652C5.74857 17.8409 5.53474 17.9169 5.29307 17.8932C5.05141 17.8695 4.86649 17.7544 4.73832 17.5479C4.48316 17.1389 4.26841 16.7204 4.09407 16.2922C3.91974 15.864 3.77741 15.4243 3.66707 14.9729C3.60307 14.7229 3.64541 14.5066 3.79407 14.3239C3.94274 14.1413 4.15232 14.0499 4.42282 14.0499C4.58832 14.0499 4.74024 14.1031 4.87857 14.2094C5.01707 14.3159 5.10491 14.4519 5.14207 14.6172C5.23191 14.998 5.35049 15.3699 5.49782 15.7327C5.64532 16.0955 5.82482 16.4442 6.03632 16.7787C6.12732 16.9172 6.16099 17.0743 6.13732 17.2499C6.11366 17.4256 6.04607 17.564 5.93457 17.6652ZM13.8576 21.3172C13.6076 21.3814 13.3937 21.339 13.2161 21.1902C13.0386 21.0415 12.9498 20.8371 12.9498 20.5769C12.9498 20.4114 13.003 20.2595 13.1093 20.1212C13.2158 19.9827 13.3517 19.8949 13.5171 19.8577C15.1017 19.4834 16.4033 18.6657 17.4218 17.4047C18.4405 16.1439 18.9498 14.6923 18.9498 13.0499C18.9498 11.0999 18.2707 9.44577 16.9123 8.08744C15.554 6.72911 13.8998 6.04994 11.9498 6.04994H11.4613L12.7846 7.37294C12.9294 7.51794 13.0018 7.69361 13.0018 7.89994C13.0018 8.10644 12.9294 8.28211 12.7846 8.42694C12.6396 8.57177 12.4639 8.64419 12.2576 8.64419C12.0511 8.64419 11.8754 8.57177 11.7306 8.42694L9.23632 5.93269C9.14282 5.83902 9.07682 5.74027 9.03832 5.63644C8.99982 5.53261 8.98057 5.42044 8.98057 5.29994C8.98057 5.17944 8.99982 5.06727 9.03832 4.96344C9.07682 4.85961 9.14282 4.76086 9.23632 4.66719L11.7153 2.17294C11.8703 2.02811 12.0511 1.95569 12.2576 1.95569C12.4639 1.95569 12.6396 2.02811 12.7846 2.17294C12.9396 2.32811 13.0171 2.50894 13.0171 2.71544C13.0171 2.92177 12.9447 3.09736 12.7998 3.24219L11.4921 4.54994H11.9498C14.3088 4.54994 16.3152 5.37686 17.9691 7.03069C19.6229 8.68452 20.4498 10.6909 20.4498 13.0499C20.4498 15.0461 19.8309 16.8089 18.5931 18.3384C17.3552 19.8679 15.7767 20.8609 13.8576 21.3172Z" fill="#292A2E"/>
</g>
</svg>
