<svg width="24" height="24" viewBox="0 0 24 24" fill="none" xmlns="http://www.w3.org/2000/svg">
<mask id="mask0_503_6850" style="mask-type:alpha" maskUnits="userSpaceOnUse" x="0" y="0" width="24" height="24">
<rect width="24" height="24" fill="#D9D9D9"/>
</mask>
<g mask="url(#mask0_503_6850)">
<path d="M9 20.75C7.96417 20.75 7.08017 20.384 6.348 19.652C5.616 18.9198 5.25 18.0358 5.25 17V8.652C4.66667 8.43533 4.1875 8.08883 3.8125 7.6125C3.4375 7.13617 3.25 6.59975 3.25 6.00325C3.25 5.23842 3.51725 4.58833 4.05175 4.053C4.58625 3.51767 5.23525 3.25 5.99875 3.25C6.76242 3.25 7.41183 3.51767 7.947 4.053C8.48233 4.58833 8.75 5.23842 8.75 6.00325C8.75 6.59975 8.5625 7.13617 8.1875 7.6125C7.8125 8.08883 7.33333 8.43533 6.75 8.652V17C6.75 17.6188 6.9705 18.1485 7.4115 18.589C7.8525 19.0297 8.38258 19.25 9.00175 19.25C9.62108 19.25 10.1507 19.0297 10.5905 18.589C11.0302 18.1485 11.25 17.6188 11.25 17V7C11.25 5.96417 11.616 5.08017 12.348 4.348C13.0802 3.616 13.9642 3.25 15 3.25C16.0358 3.25 16.9198 3.616 17.652 4.348C18.384 5.08017 18.75 5.96417 18.75 7V15.348C19.3333 15.5647 19.8125 15.9112 20.1875 16.3875C20.5625 16.8638 20.75 17.4002 20.75 17.9967C20.75 18.7616 20.4827 19.4117 19.9482 19.947C19.4137 20.4823 18.7648 20.75 18.0013 20.75C17.2376 20.75 16.5882 20.4823 16.053 19.947C15.5177 19.4117 15.25 18.7616 15.25 17.9967C15.25 17.4002 15.4375 16.8597 15.8125 16.375C16.1875 15.8903 16.6667 15.548 17.25 15.348V7C17.25 6.38117 17.0295 5.8515 16.5885 5.411C16.1475 4.97033 15.6174 4.75 14.9983 4.75C14.3789 4.75 13.8493 4.97033 13.4095 5.411C12.9698 5.8515 12.75 6.38117 12.75 7V17C12.75 18.0358 12.384 18.9198 11.652 19.652C10.9198 20.384 10.0358 20.75 9 20.75Z" fill="#292A2E"/>
</g>
</svg>
