<svg width="24" height="24" viewBox="0 0 24 24" fill="none" xmlns="http://www.w3.org/2000/svg">
<mask id="mask0_503_6846" style="mask-type:alpha" maskUnits="userSpaceOnUse" x="0" y="0" width="24" height="24">
<rect width="24" height="24" fill="#D9D9D9"/>
</mask>
<g mask="url(#mask0_503_6846)">
<path d="M19.4615 15.4422V9.83075L11.8635 13.9557C11.5913 14.1096 11.304 14.1865 11.0017 14.1865C10.6992 14.1865 10.4108 14.1096 10.1365 13.9557L2.49422 9.7885C2.33022 9.69483 2.2123 9.58091 2.14046 9.44675C2.06863 9.31275 2.03271 9.16375 2.03271 8.99975C2.03271 8.83575 2.06863 8.68683 2.14046 8.553C2.2123 8.419 2.33022 8.30517 2.49422 8.2115L10.1362 4.04925C10.2719 3.97391 10.4113 3.91742 10.5545 3.87975C10.6976 3.84192 10.8461 3.823 11 3.823C11.1538 3.823 11.3023 3.84225 11.4455 3.88075C11.5885 3.91925 11.7278 3.977 11.8635 4.054L20.4845 8.74425C20.636 8.82025 20.7533 8.93042 20.8365 9.07475C20.9198 9.21925 20.9615 9.37508 20.9615 9.54225V15.4422C20.9615 15.6547 20.8895 15.8329 20.7457 15.9767C20.6019 16.1204 20.4237 16.1922 20.2112 16.1922C19.9985 16.1922 19.8205 16.1204 19.677 15.9767C19.5333 15.8329 19.4615 15.6547 19.4615 15.4422ZM10.1365 19.3692L5.44421 16.8325C5.14938 16.6685 4.9183 16.4434 4.75096 16.1572C4.58363 15.8709 4.49996 15.5621 4.49996 15.2307V11.777L10.1365 14.8307C10.4086 14.9846 10.6959 15.0615 10.9982 15.0615C11.3007 15.0615 11.5891 14.9846 11.8635 14.8307L17.5 11.777V15.2325C17.5 15.566 17.4163 15.875 17.249 16.1595C17.0816 16.4442 16.8505 16.6685 16.5557 16.8325L11.8635 19.3692C11.7271 19.4461 11.587 19.5037 11.443 19.5422C11.2991 19.5807 11.1515 19.6 11 19.6C10.8485 19.6 10.7008 19.5807 10.557 19.5422C10.413 19.5037 10.2728 19.4461 10.1365 19.3692Z" fill="#292A2E"/>
</g>
</svg>
