<svg width="24" height="24" viewBox="0 0 24 24" fill="none" xmlns="http://www.w3.org/2000/svg">
<mask id="mask0_503_6861" style="mask-type:alpha" maskUnits="userSpaceOnUse" x="0" y="0" width="24" height="24">
<rect width="24" height="24" fill="#D9D9D9"/>
</mask>
<g mask="url(#mask0_503_6861)">
<path d="M12.6115 18.8538L5.127 11.3693C4.77567 11.0154 4.6 10.6 4.6 10.123C4.6 9.64617 4.77567 9.23208 5.127 8.88075L8.88075 5.127C9.23458 4.77567 9.65 4.6 10.127 4.6C10.6038 4.6 11.0179 4.77567 11.3693 5.127L18.8538 12.6115C19.2051 12.9653 19.3808 13.3807 19.3808 13.8577C19.3808 14.3346 19.2051 14.7487 18.8538 15.1L15.1 18.8538C14.7462 19.2051 14.3308 19.3808 13.8538 19.3808C13.3769 19.3808 12.9628 19.2051 12.6115 18.8538ZM13.6345 17.7693C13.6923 17.8269 13.7661 17.8557 13.8558 17.8557C13.9456 17.8557 14.0193 17.8269 14.077 17.7693L17.7693 14.077C17.8269 14.0193 17.8557 13.9456 17.8557 13.8558C17.8557 13.7661 17.8269 13.6923 17.7693 13.6345L10.3463 6.2115C10.2884 6.15383 10.2147 6.125 10.125 6.125C10.0352 6.125 9.96142 6.15383 9.90375 6.2115L6.2115 9.90375C6.15383 9.96142 6.125 10.0352 6.125 10.125C6.125 10.2147 6.15383 10.2884 6.2115 10.3462L13.6345 17.7693ZM13.2153 2.10775L15.727 4.61925C15.8653 4.75775 15.9362 4.93175 15.9395 5.14125C15.9427 5.35092 15.8718 5.52817 15.727 5.673C15.582 5.818 15.4063 5.8905 15.2 5.8905C14.9937 5.8905 14.818 5.818 14.673 5.673L10.5385 1.5385C10.3705 1.3705 10.3248 1.17675 10.4015 0.957249C10.478 0.737749 10.6346 0.607417 10.8713 0.566251C11.0661 0.538751 11.2541 0.520833 11.4353 0.5125C11.6166 0.504167 11.8048 0.5 12 0.5C13.5858 0.5 15.0759 0.799667 16.4703 1.399C17.8644 1.99833 19.0849 2.82142 20.1318 3.86825C21.1786 4.91508 22.0017 6.13558 22.601 7.52975C23.2003 8.92408 23.5 10.4142 23.5 12C23.5 12.2125 23.4281 12.3906 23.2843 12.5343C23.1404 12.6781 22.9622 12.75 22.7498 12.75C22.5371 12.75 22.359 12.6781 22.2155 12.5343C22.0718 12.3906 22 12.2125 22 12C22 10.7397 21.776 9.54225 21.328 8.40775C20.8798 7.27308 20.2647 6.266 19.4827 5.3865C18.7006 4.507 17.773 3.77908 16.7 3.20275C15.6268 2.62658 14.4653 2.26158 13.2153 2.10775ZM10.7848 21.8923L8.273 19.3808C8.13467 19.2423 8.06383 19.0682 8.0605 18.8587C8.05733 18.6491 8.12817 18.4718 8.273 18.327C8.418 18.182 8.59367 18.1095 8.8 18.1095C9.00633 18.1095 9.182 18.182 9.327 18.327L13.4615 22.4615C13.6295 22.6295 13.6757 22.8253 13.6 23.049C13.5243 23.2727 13.3678 23.3999 13.1305 23.4307C12.9352 23.4616 12.7467 23.4808 12.5652 23.4885C12.3837 23.4962 12.1953 23.5 12 23.5C10.4188 23.5 8.92942 23.2005 7.53175 22.6015C6.13425 22.0025 4.91242 21.1799 3.86625 20.1337C2.82008 19.0876 1.9975 17.8657 1.3985 16.4682C0.7995 15.0706 0.5 13.5812 0.5 12C0.5 11.7875 0.571917 11.6094 0.71575 11.4658C0.859583 11.3219 1.03775 11.25 1.25025 11.25C1.46292 11.25 1.641 11.3219 1.7845 11.4658C1.92817 11.6094 2 11.7875 2 12C2 13.2603 2.224 14.4578 2.672 15.5922C3.12017 16.7269 3.73525 17.734 4.51725 18.6135C5.29942 19.493 6.227 20.2209 7.3 20.7973C8.37317 21.3734 9.53475 21.7384 10.7848 21.8923Z" fill="#292A2E"/>
</g>
</svg>
