<svg width="24" height="24" viewBox="0 0 24 24" fill="none" xmlns="http://www.w3.org/2000/svg">
<mask id="mask0_503_6862" style="mask-type:alpha" maskUnits="userSpaceOnUse" x="0" y="0" width="24" height="24">
<rect width="24" height="24" fill="#D9D9D9"/>
</mask>
<g mask="url(#mask0_503_6862)">
<path d="M12.6115 18.8538L5.127 11.3693C4.77567 11.0179 4.6 10.6032 4.6 10.125C4.6 9.64683 4.77567 9.23208 5.127 8.88075L8.88075 5.127C9.23208 4.77567 9.64683 4.6 10.125 4.6C10.6032 4.6 11.0179 4.77567 11.3693 5.127L18.8538 12.6115C19.2051 12.9628 19.3808 13.3776 19.3808 13.8558C19.3808 14.3339 19.2051 14.7487 18.8538 15.1L15.1 18.8538C14.7487 19.2051 14.3339 19.3808 13.8558 19.3808C13.3776 19.3808 12.9628 19.2051 12.6115 18.8538ZM13.2153 2.10775L15.727 4.61925C15.8653 4.75775 15.9362 4.93175 15.9395 5.14125C15.9427 5.35092 15.8718 5.52817 15.727 5.673C15.582 5.818 15.4063 5.8905 15.2 5.8905C14.9937 5.8905 14.818 5.818 14.673 5.673L10.5385 1.5385C10.3705 1.3705 10.3243 1.17725 10.4 0.958749C10.4757 0.740083 10.6328 0.609 10.8713 0.5655C11.0661 0.5385 11.2542 0.520833 11.4355 0.5125C11.617 0.504167 11.8052 0.5 12 0.5C13.5858 0.5 15.0759 0.799667 16.4703 1.399C17.8644 1.99833 19.0849 2.82142 20.1318 3.86825C21.1786 4.91508 22.0017 6.13558 22.601 7.52975C23.2003 8.92408 23.5 10.4142 23.5 12C23.5 12.2128 23.4282 12.391 23.2845 12.5345C23.141 12.6782 22.9628 12.75 22.75 12.75C22.5372 12.75 22.359 12.6782 22.2155 12.5345C22.0718 12.391 22 12.2128 22 12C22 10.7397 21.776 9.54225 21.328 8.40775C20.8798 7.27308 20.2647 6.266 19.4827 5.3865C18.7006 4.507 17.773 3.77908 16.7 3.20275C15.6268 2.62658 14.4653 2.26158 13.2153 2.10775ZM10.7848 21.8923L8.273 19.3808C8.13467 19.2423 8.06383 19.0682 8.0605 18.8587C8.05733 18.6491 8.12817 18.4718 8.273 18.327C8.418 18.182 8.59367 18.1095 8.8 18.1095C9.00633 18.1095 9.182 18.182 9.327 18.327L13.4615 22.4615C13.6295 22.6295 13.6757 22.8253 13.6 23.049C13.5243 23.2727 13.3673 23.4012 13.1288 23.4345C12.9339 23.4615 12.7458 23.4792 12.5645 23.4875C12.383 23.4958 12.1948 23.5 12 23.5C10.4205 23.5 8.93208 23.2003 7.53475 22.601C6.13725 22.0017 4.91508 21.1786 3.86825 20.1318C2.82142 19.0849 1.99833 17.8628 1.399 16.4653C0.799667 15.0679 0.5 13.5795 0.5 12C0.5 11.7872 0.571833 11.609 0.7155 11.4655C0.859 11.3218 1.03717 11.25 1.25 11.25C1.46283 11.25 1.641 11.3218 1.7845 11.4655C1.92817 11.609 2 11.7872 2 12C2 13.2603 2.224 14.4578 2.672 15.5922C3.12017 16.7269 3.73525 17.734 4.51725 18.6135C5.29942 19.493 6.227 20.2209 7.3 20.7973C8.37317 21.3734 9.53475 21.7384 10.7848 21.8923Z" fill="#292A2E"/>
</g>
</svg>
