<svg width="24" height="24" viewBox="0 0 24 24" fill="none" xmlns="http://www.w3.org/2000/svg">
<mask id="mask0_503_6865" style="mask-type:alpha" maskUnits="userSpaceOnUse" x="0" y="0" width="24" height="24">
<rect width="24" height="24" fill="#D9D9D9"/>
</mask>
<g mask="url(#mask0_503_6865)">
<path d="M5.30775 20.5C4.80908 20.5 4.38308 20.3234 4.02975 19.9703C3.67658 19.6169 3.5 19.1909 3.5 18.6923V6.75C3.5 6.57433 3.52467 6.40958 3.574 6.25575C3.62333 6.10192 3.70383 5.959 3.8155 5.827L5.19625 4.1655C5.30775 4.027 5.43525 3.92317 5.57875 3.854C5.72242 3.78467 5.88208 3.75 6.05775 3.75H17.9423C18.1179 3.75 18.2776 3.78467 18.4212 3.854C18.5647 3.92317 18.6923 4.027 18.8038 4.1655L20.1845 5.827C20.2962 5.959 20.3767 6.10192 20.426 6.25575C20.4753 6.40958 20.5 6.57433 20.5 6.75V18.6923C20.5 19.1909 20.3234 19.6169 19.9703 19.9703C19.6169 20.3234 19.1909 20.5 18.6923 20.5H5.30775ZM5.4 6.25H18.6L17.75 5.25H6.25L5.4 6.25ZM15.5655 13.5L14.0078 15.0577C13.8591 15.2064 13.7831 15.3856 13.7797 15.5953C13.7766 15.8048 13.8526 15.9871 14.0078 16.1423C14.1629 16.2974 14.3437 16.375 14.55 16.375C14.7563 16.375 14.9371 16.2974 15.0922 16.1423L17.102 14.1328C17.2827 13.9519 17.373 13.741 17.373 13.5C17.373 13.259 17.2827 13.0481 17.102 12.8673L15.0922 10.8577C14.9436 10.7091 14.7644 10.6331 14.5548 10.6298C14.3453 10.6266 14.1629 10.7026 14.0078 10.8577C13.8526 11.0129 13.775 11.1937 13.775 11.4C13.775 11.6063 13.8526 11.7871 14.0078 11.9423L15.5655 13.5ZM8.4845 13.5L10.0423 11.9423C10.1909 11.7936 10.2669 11.6144 10.2702 11.4048C10.2734 11.1953 10.1974 11.0129 10.0423 10.8577C9.88708 10.7026 9.70633 10.625 9.5 10.625C9.29367 10.625 9.11292 10.7026 8.95775 10.8577L6.948 12.8673C6.76733 13.0481 6.677 13.259 6.677 13.5C6.677 13.741 6.76733 13.9519 6.948 14.1328L8.95775 16.1423C9.10642 16.2909 9.28558 16.3669 9.49525 16.3702C9.70475 16.3734 9.88708 16.2974 10.0423 16.1423C10.1974 15.9871 10.275 15.8063 10.275 15.6C10.275 15.3937 10.1974 15.2129 10.0423 15.0577L8.4845 13.5Z" fill="#292A2E"/>
</g>
</svg>
