<svg width="24" height="24" viewBox="0 0 24 24" fill="none" xmlns="http://www.w3.org/2000/svg">
<mask id="mask0_503_6871" style="mask-type:alpha" maskUnits="userSpaceOnUse" x="0" y="0" width="24" height="24">
<rect width="24" height="24" fill="#D9D9D9"/>
</mask>
<g mask="url(#mask0_503_6871)">
<path d="M4 12C4 12.9782 4.15767 13.8958 4.473 14.753C4.7885 15.61 5.23208 16.3783 5.80375 17.0578C5.94875 17.2334 6.02442 17.4251 6.03075 17.6328C6.03725 17.8404 5.96292 18.0218 5.80775 18.177C5.65258 18.332 5.47017 18.4038 5.2605 18.3923C5.051 18.3808 4.87383 18.2872 4.729 18.1115C4.029 17.2768 3.4825 16.3432 3.0895 15.3105C2.6965 14.2778 2.5 13.1743 2.5 12C2.5 10.8257 2.6965 9.71959 3.0895 8.68176C3.4825 7.64393 4.029 6.71284 4.729 5.88851C4.87383 5.71284 5.051 5.61926 5.2605 5.60776C5.47017 5.59626 5.65258 5.66801 5.80775 5.82301C5.96292 5.97818 6.03725 6.15959 6.03075 6.36726C6.02442 6.57493 5.94875 6.76659 5.80375 6.94226C5.23208 7.63843 4.7885 8.41501 4.473 9.27201C4.15767 10.1292 4 11.0385 4 12ZM8 12C8 12.4218 8.06283 12.8212 8.1885 13.198C8.31417 13.575 8.48792 13.9231 8.70975 14.2423C8.82758 14.4179 8.88558 14.6106 8.88375 14.8203C8.88175 15.0298 8.80317 15.2121 8.648 15.3673C8.493 15.5224 8.30908 15.5943 8.09625 15.5828C7.88342 15.5711 7.718 15.4775 7.6 15.302C7.25 14.8442 6.97917 14.3329 6.7875 13.7683C6.59583 13.2036 6.5 12.6142 6.5 12C6.5 11.3757 6.59583 10.7837 6.7875 10.224C6.97917 9.66451 7.25 9.15584 7.6 8.69801C7.72817 8.52251 7.89608 8.43151 8.10375 8.42501C8.31158 8.41868 8.493 8.49301 8.648 8.64801C8.80317 8.80318 8.88175 8.98301 8.88375 9.18751C8.88558 9.39201 8.82758 9.58209 8.70975 9.75776C8.48792 10.0769 8.31417 10.425 8.1885 10.802C8.06283 11.1788 8 11.5782 8 12ZM12 13.5C11.591 13.5 11.2388 13.3523 10.9433 13.0568C10.6478 12.7613 10.5 12.409 10.5 12C10.5 11.591 10.6478 11.2388 10.9433 10.9433C11.2388 10.6478 11.591 10.5 12 10.5C12.409 10.5 12.7613 10.6478 13.0568 10.9433C13.3523 11.2388 13.5 11.591 13.5 12C13.5 12.409 13.3523 12.7613 13.0568 13.0568C12.7613 13.3523 12.409 13.5 12 13.5ZM16 12C16 11.5782 15.9372 11.1788 15.8115 10.802C15.6858 10.425 15.5121 10.0769 15.2902 9.75776C15.1724 9.58209 15.117 9.38943 15.124 9.17976C15.131 8.97026 15.2121 8.78793 15.3673 8.63276C15.5224 8.47759 15.7013 8.40576 15.9038 8.41726C16.1064 8.42893 16.2718 8.52251 16.4 8.69801C16.75 9.15584 17.0208 9.66451 17.2125 10.224C17.4042 10.7837 17.5 11.3757 17.5 12C17.5 12.6142 17.4042 13.2036 17.2125 13.7683C17.0208 14.3329 16.75 14.8442 16.4 15.302C16.282 15.4775 16.1166 15.5685 15.9038 15.575C15.6909 15.5813 15.507 15.507 15.352 15.352C15.1968 15.1968 15.1183 15.017 15.1163 14.8125C15.1144 14.608 15.1724 14.4179 15.2902 14.2423C15.5121 13.9231 15.6858 13.575 15.8115 13.198C15.9372 12.8212 16 12.4218 16 12ZM20 12C20 11.0282 19.8423 10.1138 19.527 9.25676C19.2115 8.39976 18.7679 7.62826 18.1962 6.94226C18.0512 6.76659 17.973 6.57493 17.9615 6.36726C17.95 6.15959 18.0218 5.97818 18.177 5.82301C18.332 5.66801 18.5169 5.59626 18.7318 5.60776C18.9464 5.61926 19.1262 5.71284 19.271 5.88851C19.971 6.71284 20.5175 7.64393 20.9105 8.68176C21.3035 9.71959 21.5 10.8257 21.5 12C21.5 13.1743 21.3035 14.2778 20.9105 15.3105C20.5175 16.3432 19.971 17.2768 19.271 18.1115C19.1262 18.2872 18.949 18.3808 18.7395 18.3923C18.5298 18.4038 18.3474 18.332 18.1923 18.177C18.0371 18.0218 17.9628 17.8404 17.9693 17.6328C17.9756 17.4251 18.0512 17.2334 18.1962 17.0578C18.7679 16.3616 19.2115 15.585 19.527 14.728C19.8423 13.8708 20 12.9615 20 12Z" fill="#292A2E"/>
</g>
</svg>
