<svg width="24" height="24" viewBox="0 0 24 24" fill="none" xmlns="http://www.w3.org/2000/svg">
<mask id="mask0_503_6890" style="mask-type:alpha" maskUnits="userSpaceOnUse" x="0" y="0" width="24" height="24">
<rect width="24" height="24" fill="#D9D9D9"/>
</mask>
<g mask="url(#mask0_503_6890)">
<path d="M9.775 17.75C10.0447 17.75 10.3025 17.7032 10.5485 17.6095C10.7943 17.516 11.0358 17.4026 11.273 17.2693C11.3848 17.1974 11.5013 17.1346 11.6225 17.0807C11.7437 17.0269 11.8695 17 12 17C12.159 17 12.4013 17.0898 12.727 17.2693C12.9642 17.4026 13.2057 17.516 13.4515 17.6095C13.6975 17.7032 13.9553 17.75 14.225 17.75C15.007 17.75 15.6393 17.4734 16.122 16.9202C16.6048 16.3669 16.8462 15.6261 16.8462 14.6978C16.8462 13.5646 16.4469 12.6907 15.6482 12.076C14.8497 11.4612 13.7003 11.1538 12.2 11.1538H11.8C10.2997 11.1538 9.15025 11.4613 8.35175 12.0763C7.55308 12.6912 7.15375 13.5665 7.15375 14.702C7.15375 15.6275 7.39517 16.3669 7.878 16.9202C8.36067 17.4734 8.993 17.75 9.775 17.75ZM9.75 16.5577C9.30167 16.5577 8.95142 16.3923 8.69925 16.0615C8.44725 15.7308 8.32125 15.2744 8.32125 14.6923C8.32125 13.8929 8.60458 13.3021 9.17125 12.9198C9.73792 12.5374 10.6142 12.3463 11.8 12.3463H12.175C13.3612 12.3463 14.2333 12.5374 14.7915 12.9198C15.3497 13.3021 15.6288 13.8929 15.6288 14.6923C15.6288 15.2744 15.5071 15.7308 15.2638 16.0615C15.0204 16.3923 14.6742 16.5577 14.225 16.5577C14.0122 16.5577 13.7032 16.4513 13.298 16.2385C13.0942 16.118 12.8858 16.0161 12.673 15.9327C12.4602 15.8494 12.2355 15.8077 11.999 15.8077C11.7625 15.8077 11.5342 15.8476 11.314 15.9272C11.0938 16.0071 10.8815 16.1108 10.677 16.2385C10.5315 16.3272 10.3815 16.4025 10.227 16.4645C10.0725 16.5267 9.9135 16.5577 9.75 16.5577ZM9.8865 7.973C9.99417 7.82817 10.0378 7.67342 10.0173 7.50875C9.99675 7.34392 9.91408 7.216 9.76925 7.125C9.62442 7.034 9.47125 7.00775 9.30975 7.04625C9.14808 7.08458 9.01342 7.17625 8.90575 7.32125C8.59942 7.71742 8.24942 8.05942 7.85575 8.34725C7.46225 8.63525 7.043 8.88942 6.598 9.10975C6.44683 9.18975 6.33342 9.3065 6.25775 9.46C6.18208 9.61367 6.17633 9.77125 6.2405 9.93275C6.3045 10.0943 6.41475 10.2019 6.57125 10.2557C6.72758 10.3096 6.8865 10.3012 7.048 10.2307C7.61217 9.96025 8.13367 9.64067 8.6125 9.272C9.09133 8.9035 9.516 8.4705 9.8865 7.973ZM14.1135 7.973C14.484 8.46017 14.9061 8.88808 15.3798 9.25675C15.8536 9.62525 16.3674 9.94475 16.9212 10.2152C17.0827 10.2961 17.2468 10.3096 17.4135 10.2557C17.5802 10.2019 17.6955 10.0958 17.7595 9.9375C17.8237 9.77917 17.8179 9.62083 17.7423 9.4625C17.6666 9.30417 17.548 9.18975 17.3865 9.11925C16.9403 8.90642 16.5207 8.65517 16.1277 8.3655C15.7349 8.07567 15.3904 7.73267 15.0943 7.3365C14.9866 7.19167 14.8536 7.09742 14.6953 7.05375C14.5369 7.01025 14.3853 7.034 14.2405 7.125C14.0955 7.216 14.0112 7.34392 13.9875 7.50875C13.9638 7.67342 14.0058 7.82817 14.1135 7.973ZM12.0017 21.5C10.6877 21.5 9.45267 21.2507 8.2965 20.752C7.14033 20.2533 6.13467 19.5766 5.2795 18.7218C4.42433 17.8669 3.74725 16.8617 3.24825 15.706C2.74942 14.5503 2.5 13.3156 2.5 12.0017C2.5 10.6877 2.74933 9.45267 3.248 8.2965C3.74667 7.14033 4.42342 6.13467 5.27825 5.2795C6.13308 4.42433 7.13833 3.74725 8.294 3.24825C9.44967 2.74942 10.6844 2.5 11.9983 2.5C13.3123 2.5 14.5473 2.74933 15.7035 3.248C16.8597 3.74667 17.8653 4.42342 18.7205 5.27825C19.5757 6.13308 20.2528 7.13833 20.7518 8.294C21.2506 9.44967 21.5 10.6844 21.5 11.9983C21.5 13.3123 21.2507 14.5473 20.752 15.7035C20.2533 16.8597 19.5766 17.8653 18.7218 18.7205C17.8669 19.5757 16.8617 20.2528 15.706 20.7518C14.5503 21.2506 13.3156 21.5 12.0017 21.5Z" fill="#292A2E"/>
</g>
</svg>
