<svg width="24" height="24" viewBox="0 0 24 24" fill="none" xmlns="http://www.w3.org/2000/svg">
<mask id="mask0_503_6888" style="mask-type:alpha" maskUnits="userSpaceOnUse" x="0" y="0" width="24" height="24">
<rect width="24" height="24" fill="#D9D9D9"/>
</mask>
<g mask="url(#mask0_503_6888)">
<path d="M12 17.8462C13.0615 17.8462 13.9679 17.4706 14.7193 16.7193C15.4706 15.9679 15.8462 15.0615 15.8462 14V13.0577C15.8462 12.8016 15.7596 12.5869 15.5863 12.4137C15.4131 12.2404 15.1984 12.1538 14.9423 12.1538H9.05775C8.80158 12.1538 8.58692 12.2404 8.41375 12.4137C8.24042 12.5869 8.15375 12.8016 8.15375 13.0577V14C8.15375 15.0615 8.52942 15.9679 9.28075 16.7193C10.0321 17.4706 10.9385 17.8462 12 17.8462ZM12 16.6538C11.2615 16.6538 10.6346 16.3961 10.1192 15.8807C9.60392 15.3654 9.34625 14.7385 9.34625 14V13.3463H14.6538V14C14.6538 14.7385 14.3961 15.3654 13.8807 15.8807C13.3654 16.3961 12.7385 16.6538 12 16.6538ZM8.499 7.15375C7.965 7.15375 7.49417 7.32592 7.0865 7.67025C6.67883 8.01442 6.36792 8.43392 6.15375 8.92875C6.08975 9.07375 6.09908 9.21192 6.18175 9.34325C6.26442 9.47458 6.384 9.56208 6.5405 9.60575C6.684 9.64942 6.83142 9.63342 6.98275 9.55775C7.13392 9.48208 7.24158 9.37183 7.30575 9.227C7.43525 8.98467 7.60033 8.77883 7.801 8.6095C8.00167 8.44033 8.23467 8.35258 8.5 8.34625C8.76533 8.35258 8.99833 8.44292 9.199 8.61725C9.39967 8.79158 9.56475 8.99992 9.69425 9.24225C9.76092 9.38875 9.86767 9.49525 10.0145 9.56175C10.1612 9.62825 10.3063 9.63975 10.4497 9.59625C10.6062 9.55258 10.7275 9.46667 10.8135 9.3385C10.8993 9.21033 10.9103 9.07375 10.8463 8.92875C10.6321 8.43392 10.3208 8.01442 9.9125 7.67025C9.50417 7.32592 9.033 7.15375 8.499 7.15375ZM15.499 7.15375C14.965 7.15375 14.4942 7.32592 14.0865 7.67025C13.6788 8.01442 13.3679 8.43392 13.1538 8.92875C13.0898 9.07375 13.0991 9.21192 13.1818 9.34325C13.2644 9.47458 13.384 9.56208 13.5405 9.60575C13.684 9.64942 13.8314 9.63342 13.9827 9.55775C14.1339 9.48208 14.2416 9.37183 14.3057 9.227C14.4288 8.98467 14.5922 8.77725 14.7962 8.60475C15.0001 8.43242 15.2347 8.34625 15.5 8.34625C15.7653 8.34625 15.9999 8.435 16.2038 8.6125C16.4078 8.79 16.5713 8.99992 16.6943 9.24225C16.7609 9.38875 16.8677 9.49525 17.0145 9.56175C17.1612 9.62825 17.3062 9.63975 17.4497 9.59625C17.6062 9.55258 17.7275 9.46667 17.8135 9.3385C17.8993 9.21033 17.9102 9.07375 17.8462 8.92875C17.6321 8.43392 17.3208 8.01442 16.9125 7.67025C16.5042 7.32592 16.033 7.15375 15.499 7.15375ZM12.0017 21.5C10.6877 21.5 9.45267 21.2507 8.2965 20.752C7.14033 20.2533 6.13467 19.5766 5.2795 18.7218C4.42433 17.8669 3.74725 16.8617 3.24825 15.706C2.74942 14.5503 2.5 13.3156 2.5 12.0017C2.5 10.6877 2.74933 9.45267 3.248 8.2965C3.74667 7.14033 4.42342 6.13467 5.27825 5.2795C6.13308 4.42433 7.13833 3.74725 8.294 3.24825C9.44967 2.74942 10.6844 2.5 11.9983 2.5C13.3123 2.5 14.5473 2.74933 15.7035 3.248C16.8597 3.74667 17.8653 4.42342 18.7205 5.27825C19.5757 6.13308 20.2528 7.13833 20.7518 8.294C21.2506 9.44967 21.5 10.6844 21.5 11.9983C21.5 13.3123 21.2507 14.5473 20.752 15.7035C20.2533 16.8597 19.5766 17.8653 18.7218 18.7205C17.8669 19.5757 16.8617 20.2528 15.706 20.7518C14.5503 21.2506 13.3156 21.5 12.0017 21.5Z" fill="#292A2E"/>
</g>
</svg>
