<svg width="24" height="24" viewBox="0 0 24 24" fill="none" xmlns="http://www.w3.org/2000/svg">
<mask id="mask0_503_6896" style="mask-type:alpha" maskUnits="userSpaceOnUse" x="0" y="0" width="24" height="24">
<rect width="24" height="24" fill="#D9D9D9"/>
</mask>
<g mask="url(#mask0_503_6896)">
<path d="M12 17.1923C12.8975 17.1923 13.7254 16.9798 14.4837 16.5548C15.2421 16.1298 15.8578 15.5532 16.331 14.825C16.4257 14.643 16.4227 14.46 16.322 14.276C16.2215 14.092 16.0642 14 15.85 14H8.15C7.93583 14 7.7785 14.092 7.678 14.276C7.57733 14.46 7.57433 14.643 7.669 14.825C8.14217 15.5532 8.76183 16.1298 9.528 16.5548C10.294 16.9798 11.118 17.1923 12 17.1923ZM8.9 9.71925L9.55 10.3693C9.668 10.4873 9.80617 10.5478 9.9645 10.551C10.1228 10.5542 10.2642 10.4936 10.3885 10.3693C10.5128 10.2449 10.5724 10.1052 10.5673 9.95C10.5621 9.79483 10.5025 9.65508 10.3885 9.53075L9.53275 8.65975C9.35325 8.47892 9.14008 8.3885 8.89325 8.3885C8.64642 8.3885 8.43267 8.47892 8.252 8.65975L7.38075 9.53075C7.26275 9.64875 7.20217 9.78692 7.199 9.94525C7.19583 10.1036 7.25733 10.2458 7.3835 10.372C7.49583 10.4842 7.63208 10.5428 7.79225 10.548C7.95258 10.5532 8.09492 10.4987 8.21925 10.3845L8.9 9.71925ZM15.1 9.71925L15.7807 10.3845C15.8987 10.4923 16.0369 10.5478 16.1953 10.551C16.3536 10.5542 16.4949 10.4936 16.6193 10.3693C16.7436 10.2449 16.8057 10.1052 16.8057 9.95C16.8057 9.79483 16.7436 9.65508 16.6193 9.53075L15.748 8.65975C15.5685 8.47892 15.3554 8.3885 15.1087 8.3885C14.8619 8.3885 14.6481 8.47892 14.4672 8.65975L13.5962 9.53075C13.4886 9.64875 13.4331 9.78692 13.4298 9.94525C13.4266 10.1036 13.4872 10.2449 13.6115 10.3693C13.7358 10.4936 13.8756 10.5557 14.0307 10.5557C14.1859 10.5557 14.3257 10.4936 14.45 10.3693L15.1 9.71925ZM12.0017 21.5C10.6877 21.5 9.45267 21.2507 8.2965 20.752C7.14033 20.2533 6.13467 19.5766 5.2795 18.7218C4.42433 17.8669 3.74725 16.8617 3.24825 15.706C2.74942 14.5503 2.5 13.3156 2.5 12.0017C2.5 10.6877 2.74933 9.45267 3.248 8.2965C3.74667 7.14033 4.42342 6.13467 5.27825 5.2795C6.13308 4.42433 7.13833 3.74725 8.294 3.24825C9.44967 2.74942 10.6844 2.5 11.9983 2.5C13.3123 2.5 14.5473 2.74933 15.7035 3.248C16.8597 3.74667 17.8653 4.42342 18.7205 5.27825C19.5757 6.13308 20.2528 7.13833 20.7518 8.294C21.2506 9.44967 21.5 10.6844 21.5 11.9983C21.5 13.3123 21.2507 14.5473 20.752 15.7035C20.2533 16.8597 19.5766 17.8653 18.7218 18.7205C17.8669 19.5757 16.8617 20.2528 15.706 20.7518C14.5503 21.2506 13.3156 21.5 12.0017 21.5Z" fill="#292A2E"/>
</g>
</svg>
