<svg width="24" height="24" viewBox="0 0 24 24" fill="none" xmlns="http://www.w3.org/2000/svg">
<mask id="mask0_503_6891" style="mask-type:alpha" maskUnits="userSpaceOnUse" x="0" y="0" width="24" height="24">
<rect width="24" height="24" fill="#D9D9D9"/>
</mask>
<g mask="url(#mask0_503_6891)">
<path d="M15.406 10.8077C15.77 10.8077 16.0786 10.6803 16.3318 10.4255C16.5849 10.1708 16.7115 9.86158 16.7115 9.49775C16.7115 9.13392 16.5842 8.82542 16.3295 8.57225C16.0748 8.31892 15.7655 8.19225 15.4015 8.19225C15.0377 8.19225 14.7292 8.31967 14.476 8.5745C14.2228 8.82917 14.0962 9.13842 14.0962 9.50225C14.0962 9.86608 14.2236 10.1746 14.4783 10.4277C14.7329 10.6811 15.0422 10.8077 15.406 10.8077ZM8.5985 10.8077C8.96233 10.8077 9.27083 10.6803 9.524 10.4255C9.77717 10.1708 9.90375 9.86158 9.90375 9.49775C9.90375 9.13392 9.77642 8.82542 9.52175 8.57225C9.26708 8.31892 8.95783 8.19225 8.594 8.19225C8.23 8.19225 7.92142 8.31967 7.66825 8.5745C7.41508 8.82917 7.2885 9.13842 7.2885 9.50225C7.2885 9.86608 7.41583 10.1746 7.6705 10.4277C7.92517 10.6811 8.2345 10.8077 8.5985 10.8077ZM9.673 15.3462H14.327C14.4992 15.3462 14.6416 15.2899 14.7542 15.1772C14.8667 15.0647 14.923 14.9225 14.923 14.7505C14.923 14.5783 14.8667 14.4358 14.7542 14.323C14.6416 14.2102 14.4992 14.1538 14.327 14.1538H9.673C9.50083 14.1538 9.35842 14.2101 9.24575 14.3228C9.13325 14.4353 9.077 14.5775 9.077 14.7495C9.077 14.9217 9.13325 15.0642 9.24575 15.177C9.35842 15.2898 9.50083 15.3462 9.673 15.3462ZM12.0017 21.5C10.6877 21.5 9.45267 21.2507 8.2965 20.752C7.14033 20.2533 6.13467 19.5766 5.2795 18.7218C4.42433 17.8669 3.74725 16.8617 3.24825 15.706C2.74942 14.5503 2.5 13.3156 2.5 12.0017C2.5 10.6877 2.74933 9.45267 3.248 8.2965C3.74667 7.14033 4.42342 6.13467 5.27825 5.2795C6.13308 4.42433 7.13833 3.74725 8.294 3.24825C9.44967 2.74942 10.6844 2.5 11.9983 2.5C13.3123 2.5 14.5473 2.74933 15.7035 3.248C16.8597 3.74667 17.8653 4.42342 18.7205 5.27825C19.5757 6.13308 20.2528 7.13833 20.7518 8.294C21.2506 9.44967 21.5 10.6844 21.5 11.9983C21.5 13.3123 21.2507 14.5473 20.752 15.7035C20.2533 16.8597 19.5766 17.8653 18.7218 18.7205C17.8669 19.5757 16.8617 20.2528 15.706 20.7518C14.5503 21.2506 13.3156 21.5 12.0017 21.5Z" fill="#292A2E"/>
</g>
</svg>
