<svg width="24" height="24" viewBox="0 0 24 24" fill="none" xmlns="http://www.w3.org/2000/svg">
<mask id="mask0_503_6886" style="mask-type:alpha" maskUnits="userSpaceOnUse" x="0" y="0" width="24" height="24">
<rect width="24" height="24" fill="#D9D9D9"/>
</mask>
<g mask="url(#mask0_503_6886)">
<path d="M9.75 15.3462H14.25C14.4222 15.3462 14.5646 15.2899 14.6773 15.1772C14.7899 15.0647 14.8462 14.9225 14.8462 14.7505C14.8462 14.5783 14.7899 14.4358 14.6773 14.323C14.5646 14.2102 14.4222 14.1538 14.25 14.1538H9.75C9.57783 14.1538 9.43542 14.2101 9.32275 14.3228C9.21008 14.4353 9.15375 14.5775 9.15375 14.7495C9.15375 14.9217 9.21008 15.0642 9.32275 15.177C9.43542 15.2898 9.57783 15.3462 9.75 15.3462ZM12.0017 21.5C10.6877 21.5 9.45267 21.2507 8.2965 20.752C7.14033 20.2533 6.13467 19.5766 5.2795 18.7218C4.42433 17.8669 3.74725 16.8617 3.24825 15.706C2.74942 14.5503 2.5 13.3156 2.5 12.0017C2.5 10.6877 2.74933 9.45267 3.248 8.2965C3.74667 7.14033 4.42342 6.13467 5.27825 5.2795C6.13308 4.42433 7.13833 3.74725 8.294 3.24825C9.44967 2.74942 10.6844 2.5 11.9983 2.5C13.3123 2.5 14.5473 2.74933 15.7035 3.248C16.8597 3.74667 17.8653 4.42342 18.7205 5.27825C19.5757 6.13308 20.2528 7.13833 20.7518 8.294C21.2506 9.44967 21.5 10.6844 21.5 11.9983C21.5 13.3123 21.2507 14.5473 20.752 15.7035C20.2533 16.8597 19.5766 17.8653 18.7218 18.7205C17.8669 19.5757 16.8617 20.2528 15.706 20.7518C14.5503 21.2506 13.3156 21.5 12.0017 21.5ZM8.548 8.65375C8.1635 8.65375 7.7975 8.74067 7.45 8.9145C7.1025 9.08817 6.79675 9.31217 6.53275 9.5865C6.42508 9.7045 6.381 9.84367 6.4005 10.004C6.42 10.1642 6.50125 10.291 6.64425 10.3845C6.77892 10.482 6.927 10.5189 7.0885 10.4953C7.25 10.4714 7.39808 10.4025 7.53275 10.2885C7.68525 10.159 7.8445 10.0554 8.0105 9.97775C8.1765 9.90025 8.35567 9.8615 8.548 9.8615C8.74033 9.8615 8.9195 9.90125 9.0855 9.98075C9.25167 10.0602 9.411 10.1596 9.5635 10.2788C9.69817 10.3888 9.84625 10.4541 10.0078 10.4748C10.1693 10.4954 10.3173 10.457 10.452 10.3595C10.5968 10.2685 10.6811 10.1448 10.7048 9.9885C10.7284 9.832 10.6864 9.69992 10.5787 9.59225C10.3082 9.31792 9.99892 9.09292 9.65075 8.91725C9.30258 8.74158 8.935 8.65375 8.548 8.65375ZM15.452 8.65375C15.0673 8.65375 14.6987 8.74067 14.3462 8.9145C13.9936 9.08817 13.6852 9.31733 13.4212 9.602C13.3136 9.70967 13.2716 9.84425 13.2952 10.0057C13.3189 10.1672 13.4032 10.2935 13.548 10.3845C13.6827 10.482 13.8308 10.5214 13.9923 10.5027C14.1538 10.4842 14.3018 10.4179 14.4365 10.3038C14.589 10.1846 14.7483 10.0837 14.9145 10.001C15.0805 9.91833 15.2597 9.877 15.452 9.877C15.6547 9.877 15.839 9.91833 16.005 10.001C16.1708 10.0837 16.3301 10.1846 16.4827 10.3038C16.6172 10.4179 16.7628 10.4842 16.9193 10.5027C17.0756 10.5214 17.2211 10.482 17.3558 10.3845C17.5006 10.2935 17.5849 10.1672 17.6087 10.0057C17.6324 9.84425 17.5904 9.70967 17.4827 9.602C17.2122 9.31733 16.9028 9.08817 16.5545 8.9145C16.2063 8.74067 15.8388 8.65375 15.452 8.65375Z" fill="#292A2E"/>
</g>
</svg>
