<svg width="24" height="24" viewBox="0 0 24 24" fill="none" xmlns="http://www.w3.org/2000/svg">
<mask id="mask0_503_6889" style="mask-type:alpha" maskUnits="userSpaceOnUse" x="0" y="0" width="24" height="24">
<rect width="24" height="24" fill="#D9D9D9"/>
</mask>
<g mask="url(#mask0_503_6889)">
<path d="M12.0017 21.5C10.6877 21.5 9.45267 21.2507 8.2965 20.752C7.14033 20.2533 6.13467 19.5766 5.2795 18.7218C4.42433 17.8669 3.74725 16.8617 3.24825 15.706C2.74942 14.5503 2.5 13.3156 2.5 12.0017C2.5 10.6877 2.74933 9.45267 3.248 8.2965C3.74667 7.14033 4.42342 6.13467 5.27825 5.2795C6.13308 4.42433 7.13833 3.74725 8.294 3.24825C9.44967 2.74942 10.6844 2.5 11.9983 2.5C13.3123 2.5 14.5473 2.74933 15.7035 3.248C16.8597 3.74667 17.8653 4.42342 18.7205 5.27825C19.5757 6.13308 20.2528 7.13833 20.7518 8.294C21.2506 9.44967 21.5 10.6844 21.5 11.9983C21.5 13.3123 21.2507 14.5473 20.752 15.7035C20.2533 16.8597 19.5766 17.8653 18.7218 18.7205C17.8669 19.5757 16.8617 20.2528 15.706 20.7518C14.5503 21.2506 13.3156 21.5 12.0017 21.5ZM15.4038 11.8077C15.7671 11.8077 16.0758 11.6806 16.33 11.4262C16.5843 11.1719 16.7115 10.8632 16.7115 10.5C16.7115 10.2628 16.6516 10.0413 16.5318 9.8355C16.4119 9.62983 16.2488 9.47317 16.0423 9.3655L16.402 9.1635C16.516 9.093 16.5881 9.00167 16.6182 8.8895C16.6484 8.77733 16.6283 8.66417 16.5577 8.55C16.4872 8.43583 16.3968 8.36208 16.2865 8.32875C16.1763 8.29542 16.0642 8.31408 15.95 8.38475L13.5307 9.7595C13.4167 9.81983 13.3472 9.90608 13.3223 10.0182C13.2973 10.1304 13.3138 10.2436 13.3717 10.3577C13.4444 10.4717 13.5384 10.548 13.6538 10.5865C13.7693 10.625 13.884 10.609 13.998 10.5385L14.1058 10.475C14.0942 10.843 14.2142 11.1571 14.4655 11.4173C14.7167 11.6776 15.0294 11.8077 15.4038 11.8077ZM8.59625 11.8077C8.97058 11.8077 9.28333 11.6776 9.5345 11.4173C9.78583 11.1571 9.90575 10.843 9.89425 10.475L10.0115 10.5385C10.1257 10.609 10.2388 10.6276 10.351 10.5943C10.4632 10.5609 10.5556 10.4872 10.6283 10.373C10.6862 10.259 10.7002 10.1459 10.6702 10.0337C10.6401 9.92158 10.5679 9.83017 10.4538 9.7595L8.0405 8.38475C7.92633 8.32442 7.81575 8.31092 7.70875 8.34425C7.60158 8.37758 7.51275 8.45133 7.44225 8.5655C7.37175 8.6795 7.35158 8.79 7.38175 8.897C7.41192 9.00417 7.484 9.093 7.598 9.1635L7.95775 9.3655C7.75125 9.47317 7.58808 9.62983 7.46825 9.8355C7.34842 10.0413 7.2885 10.2628 7.2885 10.5C7.2885 10.8632 7.41567 11.1719 7.67 11.4262C7.92417 11.6806 8.23292 11.8077 8.59625 11.8077ZM12.002 13C10.9007 13 9.93042 13.3503 9.09125 14.051C8.25225 14.7517 7.65583 15.6321 7.302 16.6923H16.698C16.3442 15.6321 15.7484 14.7517 14.9108 14.051C14.0731 13.3503 13.1035 13 12.002 13Z" fill="#292A2E"/>
</g>
</svg>
