<svg width="24" height="24" viewBox="0 0 24 24" fill="none" xmlns="http://www.w3.org/2000/svg">
<mask id="mask0_503_6897" style="mask-type:alpha" maskUnits="userSpaceOnUse" x="0" y="0" width="24" height="24">
<rect width="24" height="24" fill="#D9D9D9"/>
</mask>
<g mask="url(#mask0_503_6897)">
<path d="M11.3 17.75H12.7C13.5718 17.75 14.2981 17.4827 14.8788 16.9482C15.4596 16.4137 15.75 15.7648 15.75 15.0013C15.75 14.2376 15.4596 13.5882 14.8788 13.053C14.2981 12.5177 13.5718 12.25 12.7 12.25H11.3C10.4282 12.25 9.70192 12.5173 9.12125 13.0518C8.54042 13.5863 8.25 14.2353 8.25 14.9988C8.25 15.7624 8.54042 16.4118 9.12125 16.947C9.70192 17.4823 10.4282 17.75 11.3 17.75ZM11.3 16.5577C10.7552 16.5577 10.3093 16.4063 9.9625 16.1033C9.61567 15.8004 9.44225 15.4327 9.44225 15C9.44225 14.5673 9.61567 14.1996 9.9625 13.8968C10.3093 13.5938 10.7552 13.4423 11.3 13.4423H12.7C13.2448 13.4423 13.6907 13.5938 14.0375 13.8968C14.3843 14.1996 14.5577 14.5673 14.5577 15C14.5577 15.4327 14.3843 15.8004 14.0375 16.1033C13.6907 16.4063 13.2448 16.5577 12.7 16.5577H11.3ZM8.14425 10C8.80958 10 9.40542 9.79167 9.93175 9.375C10.4581 8.95833 10.7911 8.42567 10.9308 7.777C10.9641 7.641 10.9195 7.52875 10.797 7.44025C10.6745 7.35192 10.5338 7.30775 10.375 7.30775C10.227 7.30775 10.0924 7.34392 9.97125 7.41625C9.85008 7.48875 9.75583 7.59742 9.6885 7.74225C9.56533 8.06408 9.36508 8.32208 9.08775 8.51625C8.81025 8.71058 8.49575 8.80775 8.14425 8.80775H6.89425C6.72208 8.80775 6.57967 8.864 6.467 8.9765C6.35433 9.089 6.298 9.23133 6.298 9.4035C6.298 9.5755 6.35433 9.71792 6.467 9.83075C6.57967 9.94358 6.72208 10 6.89425 10H8.14425ZM15.8462 10H17.0962C17.2684 10 17.4108 9.94375 17.5235 9.83125C17.636 9.71875 17.6923 9.57642 17.6923 9.40425C17.6923 9.23225 17.636 9.08983 17.5235 8.977C17.4108 8.86417 17.2684 8.80775 17.0962 8.80775H15.8462C15.5039 8.80775 15.1934 8.7105 14.9148 8.516C14.6363 8.3215 14.432 8.06683 14.302 7.752C14.2378 7.60717 14.1441 7.49692 14.0208 7.42125C13.8976 7.34558 13.7607 7.30775 13.61 7.30775C13.4457 7.30775 13.3045 7.35192 13.1865 7.44025C13.0685 7.52875 13.0262 7.641 13.0595 7.777C13.1993 8.42567 13.5324 8.95833 14.0587 9.375C14.5849 9.79167 15.1807 10 15.8462 10ZM12.0017 21.5C10.6877 21.5 9.45267 21.2507 8.2965 20.752C7.14033 20.2533 6.13467 19.5766 5.2795 18.7218C4.42433 17.8669 3.74725 16.8617 3.24825 15.706C2.74942 14.5503 2.5 13.3156 2.5 12.0017C2.5 10.6877 2.74933 9.45267 3.248 8.2965C3.74667 7.14033 4.42342 6.13467 5.27825 5.2795C6.13308 4.42433 7.13833 3.74725 8.294 3.24825C9.44967 2.74942 10.6844 2.5 11.9983 2.5C13.3123 2.5 14.5473 2.74933 15.7035 3.248C16.8597 3.74667 17.8653 4.42342 18.7205 5.27825C19.5757 6.13308 20.2528 7.13833 20.7518 8.294C21.2506 9.44967 21.5 10.6844 21.5 11.9983C21.5 13.3123 21.2507 14.5473 20.752 15.7035C20.2533 16.8597 19.5766 17.8653 18.7218 18.7205C17.8669 19.5757 16.8617 20.2528 15.706 20.7518C14.5503 21.2506 13.3156 21.5 12.0017 21.5Z" fill="#292A2E"/>
</g>
</svg>
