<svg width="24" height="24" viewBox="0 0 24 24" fill="none" xmlns="http://www.w3.org/2000/svg">
<mask id="mask0_503_6885" style="mask-type:alpha" maskUnits="userSpaceOnUse" x="0" y="0" width="24" height="24">
<rect width="24" height="24" fill="#D9D9D9"/>
</mask>
<g mask="url(#mask0_503_6885)">
<path d="M12 17.3462C12.541 17.3462 13.0535 17.2452 13.5375 17.0433C14.0215 16.8413 14.4705 16.5583 14.8845 16.1943C15.009 16.0866 15.0728 15.9468 15.076 15.775C15.0792 15.6032 15.0186 15.4634 14.8943 15.3558C14.7699 15.2481 14.626 15.1958 14.4625 15.199C14.299 15.2022 14.15 15.2577 14.0155 15.3655C13.7193 15.595 13.4017 15.7796 13.0625 15.9193C12.7233 16.0589 12.3692 16.1288 12 16.1288C11.6308 16.1288 11.2767 16.0589 10.9375 15.9193C10.5983 15.7796 10.2807 15.595 9.9845 15.3655C9.85 15.2577 9.701 15.2022 9.5375 15.199C9.374 15.1958 9.23008 15.2481 9.10575 15.3558C8.98142 15.4634 8.92083 15.6032 8.924 15.775C8.92717 15.9468 8.991 16.0866 9.1155 16.1943C9.5295 16.5481 9.9785 16.8285 10.4625 17.0355C10.9465 17.2427 11.459 17.3462 12 17.3462ZM12.0017 21.5C10.6877 21.5 9.45267 21.2507 8.2965 20.752C7.14033 20.2533 6.13467 19.5766 5.2795 18.7218C4.42433 17.8669 3.74725 16.8617 3.24825 15.706C2.74942 14.5503 2.5 13.3156 2.5 12.0017C2.5 10.6877 2.74933 9.45267 3.248 8.2965C3.74667 7.14033 4.42342 6.13467 5.27825 5.2795C6.13308 4.42433 7.13833 3.74725 8.294 3.24825C9.44967 2.74942 10.6844 2.5 11.9983 2.5C13.3123 2.5 14.5473 2.74933 15.7035 3.248C16.8597 3.74667 17.8653 4.42342 18.7205 5.27825C19.5757 6.13308 20.2528 7.13833 20.7518 8.294C21.2506 9.44967 21.5 10.6844 21.5 11.9983C21.5 13.3123 21.2507 14.5473 20.752 15.7035C20.2533 16.8597 19.5766 17.8653 18.7218 18.7205C17.8669 19.5757 16.8617 20.2528 15.706 20.7518C14.5503 21.2506 13.3156 21.5 12.0017 21.5ZM8.55125 11.8463C9.08375 11.8463 9.55225 11.6741 9.95675 11.3298C10.3612 10.9856 10.6737 10.5661 10.8942 10.0712C10.9583 9.92625 10.9473 9.78808 10.8615 9.65675C10.7757 9.52542 10.6545 9.43792 10.498 9.39425C10.3545 9.35058 10.2087 9.36658 10.0605 9.44225C9.9125 9.51792 9.80642 9.62817 9.74225 9.773C9.61925 10.0153 9.45583 10.2227 9.252 10.3952C9.04817 10.5676 8.8135 10.6538 8.548 10.6538C8.28267 10.6538 8.04575 10.5651 7.83725 10.3878C7.62875 10.2104 7.46758 10.0004 7.35375 9.75775C7.28975 9.61292 7.18208 9.50525 7.03075 9.43475C6.87942 9.36408 6.73208 9.35058 6.58875 9.39425C6.43208 9.43792 6.31242 9.52283 6.22975 9.649C6.14708 9.77533 6.13783 9.91092 6.202 10.0557C6.42117 10.5517 6.7305 10.9742 7.13 11.323C7.52933 11.6718 8.00308 11.8463 8.55125 11.8463ZM15.455 11.8463C15.9875 11.8463 16.456 11.6741 16.8605 11.3298C17.265 10.9856 17.5775 10.5661 17.798 10.0712C17.8622 9.92625 17.8513 9.78808 17.7653 9.65675C17.6794 9.52542 17.5583 9.43792 17.4018 9.39425C17.2583 9.35058 17.1125 9.36658 16.9645 9.44225C16.8163 9.51792 16.7102 9.62817 16.6462 9.773C16.5231 10.0153 16.3596 10.2227 16.1557 10.3952C15.9519 10.5676 15.7173 10.6538 15.452 10.6538C15.1865 10.6538 14.9495 10.5651 14.741 10.3878C14.5325 10.2104 14.3714 10.0004 14.2578 9.75775C14.1936 9.61292 14.0858 9.50525 13.9345 9.43475C13.7833 9.36408 13.636 9.35058 13.4925 9.39425C13.336 9.43792 13.2164 9.52283 13.1337 9.649C13.0511 9.77533 13.0417 9.91092 13.1058 10.0557C13.3251 10.5517 13.6344 10.9742 14.0337 11.323C14.4331 11.6718 14.9068 11.8463 15.455 11.8463Z" fill="#292A2E"/>
</g>
</svg>
