<svg width="24" height="24" viewBox="0 0 24 24" fill="none" xmlns="http://www.w3.org/2000/svg">
<mask id="mask0_503_6881" style="mask-type:alpha" maskUnits="userSpaceOnUse" x="0" y="0" width="24" height="24">
<rect width="24" height="24" fill="#D9D9D9"/>
</mask>
<g mask="url(#mask0_503_6881)">
<path d="M12 15.3385L13.1788 16.5173C13.2724 16.6109 13.3795 16.6578 13.5 16.6578C13.6205 16.6578 13.7276 16.6109 13.8212 16.5173L15 15.3385L15.5557 15.8943C15.6737 16.0123 15.8119 16.0728 15.9703 16.076C16.1286 16.0792 16.2699 16.0186 16.3943 15.8943C16.5186 15.7699 16.5807 15.6302 16.5807 15.475C16.5807 15.3198 16.5186 15.1801 16.3943 15.0558L15.3212 13.9827C15.2276 13.8891 15.1205 13.8422 15 13.8422C14.8795 13.8422 14.7724 13.8891 14.6788 13.9827L13.5 15.1615L12.3212 13.9827C12.2276 13.8891 12.1205 13.8422 12 13.8422C11.8795 13.8422 11.7724 13.8891 11.6788 13.9827L10.5 15.1615L9.32125 13.9827C9.22758 13.8891 9.1205 13.8422 9 13.8422C8.8795 13.8422 8.77242 13.8891 8.67875 13.9827L7.60575 15.0558C7.48775 15.1738 7.42717 15.3119 7.424 15.4703C7.42083 15.6286 7.48142 15.7699 7.60575 15.8943C7.73008 16.0186 7.86983 16.0807 8.025 16.0807C8.18017 16.0807 8.31992 16.0186 8.44425 15.8943L9 15.3385L10.1788 16.5173C10.2724 16.6109 10.3795 16.6578 10.5 16.6578C10.6205 16.6578 10.7276 16.6109 10.8212 16.5173L12 15.3385ZM8.83075 10L7.35775 11.075C7.22308 11.1763 7.14133 11.3062 7.1125 11.4645C7.08367 11.6228 7.11992 11.7693 7.22125 11.9038C7.32242 12.0384 7.45383 12.1234 7.6155 12.1588C7.777 12.1939 7.925 12.1577 8.0595 12.05L10.3595 10.3615C10.48 10.268 10.5402 10.1475 10.5402 10C10.5402 9.8525 10.48 9.732 10.3595 9.6385L8.05 7.95C7.91533 7.84233 7.7705 7.80608 7.6155 7.84125C7.46033 7.87658 7.32892 7.96158 7.22125 8.09625C7.11992 8.23075 7.08108 8.37717 7.10475 8.5355C7.12858 8.69383 7.21292 8.82367 7.35775 8.925L8.83075 10ZM15.1693 10L16.6423 8.925C16.7769 8.82367 16.8587 8.69383 16.8875 8.5355C16.9163 8.37717 16.8801 8.23075 16.7788 8.09625C16.6776 7.96158 16.5462 7.87658 16.3845 7.84125C16.223 7.80608 16.075 7.84233 15.9405 7.95L13.6405 9.6385C13.52 9.732 13.4598 9.8525 13.4598 10C13.4598 10.1475 13.52 10.268 13.6405 10.3615L15.95 12.05C16.0847 12.1577 16.2295 12.1939 16.3845 12.1588C16.5397 12.1234 16.6711 12.0384 16.7788 11.9038C16.8801 11.7693 16.9189 11.6228 16.8953 11.4645C16.8714 11.3062 16.7871 11.1763 16.6423 11.075L15.1693 10ZM12 21.5C10.6872 21.5 9.45292 21.2503 8.29725 20.751C7.14142 20.2517 6.13592 19.5744 5.28075 18.7193C4.42558 17.8641 3.74833 16.8586 3.249 15.7028C2.74967 14.5471 2.5 13.3128 2.5 12C2.5 10.6872 2.74967 9.45292 3.249 8.29725C3.74833 7.14142 4.42558 6.13592 5.28075 5.28075C6.13592 4.42558 7.14142 3.74833 8.29725 3.249C9.45292 2.74967 10.6872 2.5 12 2.5C13.3128 2.5 14.5471 2.74967 15.7028 3.249C16.8586 3.74833 17.8641 4.42558 18.7193 5.28075C19.5744 6.13592 20.2517 7.14142 20.751 8.29725C21.2503 9.45292 21.5 10.6872 21.5 12C21.5 13.3128 21.2503 14.5471 20.751 15.7028C20.2517 16.8586 19.5744 17.8641 18.7193 18.7193C17.8641 19.5744 16.8586 20.2517 15.7028 20.751C14.5471 21.2503 13.3128 21.5 12 21.5ZM12 20C14.2333 20 16.125 19.225 17.675 17.675C19.225 16.125 20 14.2333 20 12C20 9.76667 19.225 7.875 17.675 6.325C16.125 4.775 14.2333 4 12 4C9.76667 4 7.875 4.775 6.325 6.325C4.775 7.875 4 9.76667 4 12C4 14.2333 4.775 16.125 6.325 17.675C7.875 19.225 9.76667 20 12 20Z" fill="#292A2E"/>
</g>
</svg>
