<svg width="24" height="24" viewBox="0 0 24 24" fill="none" xmlns="http://www.w3.org/2000/svg">
<mask id="mask0_503_6882" style="mask-type:alpha" maskUnits="userSpaceOnUse" x="0" y="0" width="24" height="24">
<rect width="24" height="24" fill="#D9D9D9"/>
</mask>
<g mask="url(#mask0_503_6882)">
<path d="M8.8615 10.7385L9.49225 11.3942C9.59992 11.5019 9.7355 11.5558 9.899 11.5558C10.0625 11.5558 10.2064 11.4936 10.3308 11.3693C10.4384 11.2616 10.4922 11.126 10.4922 10.9625C10.4922 10.799 10.4384 10.6551 10.3308 10.5307L9.7 9.9L10.3463 9.21925C10.4539 9.11158 10.5052 8.976 10.5 8.8125C10.4948 8.649 10.4384 8.50508 10.3308 8.38075C10.2064 8.27308 10.0625 8.21925 9.899 8.21925C9.7355 8.21925 9.59992 8.27308 9.49225 8.38075L8.8615 9.0115L8.15575 8.3655C8.04808 8.25767 7.9125 8.20633 7.749 8.2115C7.5855 8.21667 7.44158 8.28142 7.31725 8.40575C7.20958 8.51342 7.15317 8.649 7.148 8.8125C7.143 8.976 7.19942 9.11158 7.31725 9.21925L7.973 9.9L7.31725 10.5557C7.20958 10.6634 7.15575 10.799 7.15575 10.9625C7.15575 11.126 7.21792 11.2699 7.34225 11.3942C7.44992 11.5019 7.5855 11.5583 7.749 11.5635C7.9125 11.5687 8.04808 11.5122 8.15575 11.3942L8.8615 10.7385ZM15.1385 10.7385L15.8193 11.4095C15.9269 11.5173 16.0625 11.5687 16.226 11.5635C16.3895 11.5583 16.5334 11.4936 16.6578 11.3693C16.7654 11.2616 16.8193 11.126 16.8193 10.9625C16.8193 10.799 16.7654 10.6551 16.6578 10.5307L16.027 9.9L16.673 9.21925C16.7807 9.11158 16.832 8.976 16.827 8.8125C16.8218 8.649 16.7571 8.50508 16.6328 8.38075C16.5251 8.27308 16.3895 8.21667 16.226 8.2115C16.0625 8.20633 15.9269 8.26275 15.8193 8.38075L15.1385 9.0115L14.4827 8.38075C14.3751 8.27308 14.2395 8.21925 14.076 8.21925C13.9125 8.21925 13.7686 8.28142 13.6443 8.40575C13.5366 8.51342 13.4802 8.649 13.475 8.8125C13.4698 8.976 13.5263 9.11158 13.6443 9.21925L14.3 9.9L13.6443 10.5557C13.5366 10.6634 13.4827 10.799 13.4827 10.9625C13.4827 11.126 13.5449 11.2616 13.6693 11.3693C13.7769 11.4936 13.9125 11.5558 14.076 11.5558C14.2395 11.5558 14.3834 11.4936 14.5078 11.3693L15.1385 10.7385ZM12 21.5C10.6872 21.5 9.45292 21.2519 8.29725 20.7558C7.14142 20.2596 6.13433 19.5823 5.276 18.724C4.41767 17.8657 3.74042 16.8586 3.24425 15.7028C2.74808 14.5471 2.5 13.3128 2.5 12C2.5 10.6872 2.74808 9.45542 3.24425 8.30475C3.74042 7.15408 4.41767 6.14867 5.276 5.2885C6.13433 4.42817 7.14142 3.74833 8.29725 3.249C9.45292 2.74967 10.6872 2.5 12 2.5C13.3128 2.5 14.5446 2.74967 15.6953 3.249C16.8459 3.74833 17.8513 4.42817 18.7115 5.2885C19.5718 6.14867 20.2517 7.15408 20.751 8.30475C21.2503 9.45542 21.5 10.6872 21.5 12C21.5 13.3128 21.2503 14.5471 20.751 15.7028C20.2517 16.8586 19.5718 17.8657 18.7115 18.724C17.8513 19.5823 16.8459 20.2596 15.6953 20.7558C14.5446 21.2519 13.3128 21.5 12 21.5ZM12 20C14.2167 20 16.1042 19.225 17.6625 17.675C19.2208 16.125 20 14.2333 20 12C20 9.78333 19.2208 7.89583 17.6625 6.3375C16.1042 4.77917 14.2167 4 12 4C9.76667 4 7.875 4.77917 6.325 6.3375C4.775 7.89583 4 9.78333 4 12C4 14.2333 4.775 16.125 6.325 17.675C7.875 19.225 9.76667 20 12 20ZM12 13.5C11.1142 13.5 10.2866 13.7125 9.51725 14.1375C8.74808 14.5625 8.12308 15.1481 7.64225 15.8943C7.54875 16.0749 7.55392 16.2531 7.65775 16.4288C7.76158 16.6044 7.92058 16.6923 8.13475 16.6923H15.8403C16.0544 16.6923 16.2134 16.6044 16.3173 16.4288C16.4211 16.2531 16.4263 16.0749 16.3328 15.8943C15.8519 15.1481 15.2294 14.5625 14.4653 14.1375C13.7013 13.7125 12.8795 13.5 12 13.5Z" fill="#292A2E"/>
</g>
</svg>
