<svg width="24" height="24" viewBox="0 0 24 24" fill="none" xmlns="http://www.w3.org/2000/svg">
<mask id="mask0_503_6879" style="mask-type:alpha" maskUnits="userSpaceOnUse" x="0" y="0" width="24" height="24">
<rect width="24" height="24" fill="#D9D9D9"/>
</mask>
<g mask="url(#mask0_503_6879)">
<path d="M12 11.3463C13.1475 11.3463 14.1289 11.7385 14.9443 12.523C15.7596 13.3077 16.2327 14.2737 16.3635 15.4212C16.3903 15.5891 16.4634 15.7275 16.5828 15.8365C16.7019 15.9455 16.841 16 17 16C17.1615 16 17.3038 15.9446 17.427 15.8337C17.55 15.7227 17.6012 15.5865 17.5807 15.425C17.4461 13.9378 16.8525 12.6875 15.8 11.674C14.7475 10.6605 13.4808 10.1538 12 10.1538C10.5192 10.1538 9.2525 10.6605 8.2 11.674C7.1475 12.6875 6.55392 13.9378 6.41925 15.425C6.39875 15.5865 6.45 15.7227 6.573 15.8337C6.69617 15.9446 6.8385 16 7 16C7.1615 16 7.30125 15.9455 7.41925 15.8365C7.53725 15.7275 7.60967 15.5891 7.6365 15.4212C7.76733 14.2737 8.24042 13.3077 9.05575 12.523C9.87108 11.7385 10.8525 11.3463 12 11.3463ZM10.425 7.42875C10.5493 7.32108 10.6089 7.1855 10.6038 7.022C10.5988 6.85867 10.5289 6.72317 10.3942 6.6155C10.2596 6.50767 10.1115 6.4605 9.95 6.474C9.7885 6.4875 9.64042 6.54808 9.50575 6.65575C9.22625 6.88908 8.93425 7.09292 8.62975 7.26725C8.32525 7.44158 7.99992 7.59033 7.65375 7.7135C7.49375 7.78017 7.36367 7.88017 7.2635 8.0135C7.1635 8.14683 7.12692 8.29892 7.15375 8.46975C7.18075 8.64058 7.26158 8.772 7.39625 8.864C7.53075 8.956 7.67367 8.97508 7.825 8.92125C8.30583 8.76725 8.76675 8.56433 9.20775 8.3125C9.64875 8.0605 10.0545 7.76592 10.425 7.42875ZM13.575 7.42875C13.945 7.76558 14.3471 8.05433 14.7812 8.295C15.2156 8.5355 15.6699 8.73592 16.1443 8.89625C16.2994 8.95008 16.4484 8.93558 16.5913 8.85275C16.7343 8.77008 16.8192 8.64292 16.8462 8.47125C16.8731 8.29942 16.8343 8.14458 16.7298 8.00675C16.6253 7.86892 16.4922 7.76792 16.3307 7.70375C15.9961 7.58225 15.6746 7.43458 15.3663 7.26075C15.0579 7.08692 14.7673 6.88525 14.4943 6.65575C14.3596 6.54808 14.2115 6.4875 14.05 6.474C13.8885 6.4605 13.7404 6.50767 13.6058 6.6155C13.4711 6.72317 13.4012 6.85867 13.3962 7.022C13.3911 7.1855 13.4507 7.32108 13.575 7.42875ZM12.0017 21.5C10.6877 21.5 9.45267 21.2507 8.2965 20.752C7.14033 20.2533 6.13467 19.5766 5.2795 18.7218C4.42433 17.8669 3.74725 16.8617 3.24825 15.706C2.74942 14.5503 2.5 13.3156 2.5 12.0017C2.5 10.6877 2.74933 9.45267 3.248 8.2965C3.74667 7.14033 4.42342 6.13467 5.27825 5.2795C6.13308 4.42433 7.13833 3.74725 8.294 3.24825C9.44967 2.74942 10.6844 2.5 11.9983 2.5C13.3123 2.5 14.5473 2.74933 15.7035 3.248C16.8597 3.74667 17.8653 4.42342 18.7205 5.27825C19.5757 6.13308 20.2528 7.13833 20.7518 8.294C21.2506 9.44967 21.5 10.6844 21.5 11.9983C21.5 13.3123 21.2507 14.5473 20.752 15.7035C20.2533 16.8597 19.5766 17.8653 18.7218 18.7205C17.8669 19.5757 16.8617 20.2528 15.706 20.7518C14.5503 21.2506 13.3156 21.5 12.0017 21.5ZM12 20C14.2333 20 16.125 19.225 17.675 17.675C19.225 16.125 20 14.2333 20 12C20 9.76667 19.225 7.875 17.675 6.325C16.125 4.775 14.2333 4 12 4C9.76667 4 7.875 4.775 6.325 6.325C4.775 7.875 4 9.76667 4 12C4 14.2333 4.775 16.125 6.325 17.675C7.875 19.225 9.76667 20 12 20Z" fill="#292A2E"/>
</g>
</svg>
