<svg width="24" height="24" viewBox="0 0 24 24" fill="none" xmlns="http://www.w3.org/2000/svg">
<mask id="mask0_503_6895" style="mask-type:alpha" maskUnits="userSpaceOnUse" x="0" y="0" width="24" height="24">
<rect width="24" height="24" fill="#D9D9D9"/>
</mask>
<g mask="url(#mask0_503_6895)">
<path d="M8.8615 10.7385L9.49225 11.3693C9.61025 11.4873 9.74842 11.5478 9.90675 11.551C10.0651 11.5542 10.2064 11.4936 10.3308 11.3693C10.4551 11.2449 10.5173 11.1052 10.5173 10.95C10.5173 10.7948 10.4551 10.6551 10.3308 10.5307L9.7 9.9L10.3558 9.21925C10.4634 9.09492 10.5173 8.95517 10.5173 8.8C10.5173 8.64483 10.4551 8.50508 10.3308 8.38075C10.2064 8.25642 10.0667 8.19425 9.9115 8.19425C9.75633 8.19425 9.61658 8.25642 9.49225 8.38075L8.8615 9.0115L8.18075 8.35575C8.05642 8.24808 7.91667 8.19425 7.7615 8.19425C7.60633 8.19425 7.46658 8.25642 7.34225 8.38075C7.23458 8.48842 7.17817 8.624 7.173 8.7875C7.168 8.951 7.21933 9.09492 7.327 9.21925L7.973 9.9L7.34225 10.5307C7.22442 10.6487 7.16383 10.7869 7.1605 10.9453C7.15733 11.1036 7.21792 11.2449 7.34225 11.3693C7.44992 11.4769 7.5855 11.5333 7.749 11.5385C7.9125 11.5437 8.05642 11.4923 8.18075 11.3845L8.8615 10.7385ZM15.1385 10.7385L15.8193 11.3942C15.9436 11.5019 16.0833 11.5558 16.2385 11.5558C16.3937 11.5558 16.5334 11.4936 16.6578 11.3693C16.7821 11.2449 16.8443 11.1052 16.8443 10.95C16.8443 10.7948 16.7821 10.6551 16.6578 10.5307L16.027 9.9L16.6827 9.21925C16.7904 9.09492 16.8443 8.95517 16.8443 8.8C16.8443 8.64483 16.7821 8.50508 16.6578 8.38075C16.5501 8.27308 16.4145 8.21667 16.251 8.2115C16.0875 8.20633 15.9436 8.25767 15.8193 8.3655L15.1385 9.0115L14.5078 8.38075C14.3898 8.26275 14.2516 8.20217 14.0932 8.199C13.9349 8.19583 13.7936 8.25642 13.6693 8.38075C13.5616 8.48842 13.5052 8.624 13.5 8.7875C13.4948 8.951 13.5461 9.09492 13.6538 9.21925L14.3 9.9L13.6693 10.5307C13.5513 10.6487 13.4907 10.7869 13.4875 10.9453C13.4843 11.1036 13.5449 11.2449 13.6693 11.3693C13.7936 11.4936 13.9333 11.5558 14.0885 11.5558C14.2437 11.5558 14.3834 11.4936 14.5078 11.3693L15.1385 10.7385ZM12 21.5C10.6872 21.5 9.45292 21.2503 8.29725 20.751C7.14142 20.2517 6.13592 19.5744 5.28075 18.7193C4.42558 17.8641 3.74833 16.8586 3.249 15.7028C2.74967 14.5471 2.5 13.3128 2.5 12C2.5 10.6872 2.74967 9.45292 3.249 8.29725C3.74833 7.14142 4.42558 6.13592 5.28075 5.28075C6.13592 4.42558 7.14142 3.74833 8.29725 3.249C9.45292 2.74967 10.6872 2.5 12 2.5C13.3128 2.5 14.5471 2.74967 15.7028 3.249C16.8586 3.74833 17.8641 4.42558 18.7193 5.28075C19.5744 6.13592 20.2517 7.14142 20.751 8.29725C21.2503 9.45292 21.5 10.6872 21.5 12C21.5 13.3128 21.2503 14.5471 20.751 15.7028C20.2517 16.8586 19.5744 17.8641 18.7193 18.7193C17.8641 19.5744 16.8586 20.2517 15.7028 20.751C14.5471 21.2503 13.3128 21.5 12 21.5ZM12 13.5C11.1205 13.5 10.2971 13.7125 9.52975 14.1375C8.76242 14.5625 8.14158 15.1398 7.66725 15.8693C7.57375 16.0499 7.57733 16.2323 7.678 16.4163C7.7785 16.6003 7.93583 16.6923 8.15 16.6923H15.85C16.0642 16.6923 16.2215 16.6003 16.322 16.4163C16.4227 16.2323 16.4263 16.0499 16.3328 15.8693C15.8584 15.1398 15.2417 14.5625 14.4827 14.1375C13.7238 13.7125 12.8962 13.5 12 13.5Z" fill="#292A2E"/>
</g>
</svg>
