<svg width="24" height="24" viewBox="0 0 24 24" fill="none" xmlns="http://www.w3.org/2000/svg">
<mask id="mask0_503_6873" style="mask-type:alpha" maskUnits="userSpaceOnUse" x="0" y="0" width="24" height="24">
<rect width="24" height="24" fill="#D9D9D9"/>
</mask>
<g mask="url(#mask0_503_6873)">
<path d="M9.75 15.3462H14.25C14.4222 15.3462 14.5646 15.2899 14.6773 15.1772C14.7899 15.0647 14.8462 14.9225 14.8462 14.7505C14.8462 14.5783 14.7899 14.4358 14.6773 14.323C14.5646 14.2102 14.4222 14.1538 14.25 14.1538H9.75C9.57783 14.1538 9.43542 14.2101 9.32275 14.3228C9.21008 14.4353 9.15375 14.5775 9.15375 14.7495C9.15375 14.9217 9.21008 15.0642 9.32275 15.177C9.43542 15.2898 9.57783 15.3462 9.75 15.3462ZM12.0017 21.5C10.6877 21.5 9.45267 21.2507 8.2965 20.752C7.14033 20.2533 6.13467 19.5766 5.2795 18.7218C4.42433 17.8669 3.74725 16.8617 3.24825 15.706C2.74942 14.5503 2.5 13.3156 2.5 12.0017C2.5 10.6877 2.74933 9.45267 3.248 8.2965C3.74667 7.14033 4.42342 6.13467 5.27825 5.2795C6.13308 4.42433 7.13833 3.74725 8.294 3.24825C9.44967 2.74942 10.6844 2.5 11.9983 2.5C13.3123 2.5 14.5473 2.74933 15.7035 3.248C16.8597 3.74667 17.8653 4.42342 18.7205 5.27825C19.5757 6.13308 20.2528 7.13833 20.7518 8.294C21.2506 9.44967 21.5 10.6844 21.5 11.9983C21.5 13.3123 21.2507 14.5473 20.752 15.7035C20.2533 16.8597 19.5766 17.8653 18.7218 18.7205C17.8669 19.5757 16.8617 20.2528 15.706 20.7518C14.5503 21.2506 13.3156 21.5 12.0017 21.5ZM12 20C14.2333 20 16.125 19.225 17.675 17.675C19.225 16.125 20 14.2333 20 12C20 9.76667 19.225 7.875 17.675 6.325C16.125 4.775 14.2333 4 12 4C9.76667 4 7.875 4.775 6.325 6.325C4.775 7.875 4 9.76667 4 12C4 14.2333 4.775 16.125 6.325 17.675C7.875 19.225 9.76667 20 12 20ZM8.548 8.65375C8.18283 8.65375 7.83358 8.72875 7.50025 8.87875C7.16675 9.02875 6.86992 9.23583 6.60975 9.5C6.48142 9.64483 6.41892 9.80575 6.42225 9.98275C6.42542 10.1596 6.49942 10.2935 6.64425 10.3845C6.77892 10.482 6.927 10.5189 7.0885 10.4953C7.25 10.4714 7.39808 10.4025 7.53275 10.2885C7.68525 10.159 7.8445 10.0554 8.0105 9.97775C8.1765 9.90025 8.35567 9.8615 8.548 9.8615C8.74033 9.8615 8.9195 9.90125 9.0855 9.98075C9.25167 10.0602 9.411 10.1596 9.5635 10.2788C9.69817 10.3888 9.84625 10.4541 10.0078 10.4748C10.1693 10.4954 10.3173 10.457 10.452 10.3595C10.5968 10.2685 10.6724 10.1346 10.6788 9.95775C10.6853 9.78075 10.6212 9.62817 10.4865 9.5C10.2263 9.23583 9.9295 9.02875 9.596 8.87875C9.2625 8.72875 8.91317 8.65375 8.548 8.65375ZM15.453 8.65375C15.0882 8.65375 14.7337 8.72875 14.3895 8.87875C14.0452 9.02875 13.7429 9.23583 13.4827 9.5C13.3546 9.64483 13.2972 9.80317 13.3105 9.975C13.324 10.1468 13.4032 10.2833 13.548 10.3845C13.6827 10.482 13.8308 10.5214 13.9923 10.5027C14.1538 10.4842 14.3018 10.4179 14.4365 10.3038C14.589 10.1846 14.7483 10.0837 14.9145 10.001C15.0805 9.91833 15.2597 9.877 15.452 9.877C15.6547 9.877 15.839 9.91833 16.005 10.001C16.1708 10.0837 16.3301 10.1846 16.4827 10.3038C16.6172 10.4179 16.7628 10.4842 16.9193 10.5027C17.0756 10.5214 17.2211 10.482 17.3558 10.3845C17.5006 10.2935 17.5746 10.1596 17.5778 9.98275C17.5811 9.80575 17.5186 9.64483 17.3903 9.5C17.1301 9.23583 16.8334 9.02875 16.5003 8.87875C16.1671 8.72875 15.818 8.65375 15.453 8.65375Z" fill="#292A2E"/>
</g>
</svg>
