<svg width="24" height="24" viewBox="0 0 24 24" fill="none" xmlns="http://www.w3.org/2000/svg">
<mask id="mask0_503_6904" style="mask-type:alpha" maskUnits="userSpaceOnUse" x="0" y="0" width="24" height="24">
<rect width="24" height="24" fill="#D9D9D9"/>
</mask>
<g mask="url(#mask0_503_6904)">
<path d="M4.51168 21.4999C4.25652 21.4999 4.05235 21.4159 3.89918 21.2479C3.74602 21.0799 3.66943 20.884 3.66943 20.6602C3.66943 20.5482 3.68802 20.4467 3.72518 20.3557C3.76235 20.2647 3.82452 20.1756 3.91168 20.0884L20.0887 3.91144C20.1758 3.82427 20.2649 3.76211 20.3559 3.72494C20.4469 3.68777 20.5484 3.66919 20.6604 3.66919C20.8843 3.66919 21.0802 3.74577 21.2482 3.89894C21.4162 4.05211 21.5002 4.25627 21.5002 4.51144V20.2884C21.5002 20.6249 21.3823 20.9109 21.1467 21.1464C20.9112 21.3821 20.6252 21.4999 20.2887 21.4999H4.51168Z" fill="#292A2E"/>
</g>
</svg>
