<svg width="24" height="24" viewBox="0 0 24 24" fill="none" xmlns="http://www.w3.org/2000/svg">
<mask id="mask0_503_6908" style="mask-type:alpha" maskUnits="userSpaceOnUse" x="0" y="0" width="24" height="24">
<rect width="24" height="24" fill="#D9D9D9"/>
</mask>
<g mask="url(#mask0_503_6908)">
<path d="M4.30775 15.5C3.81058 15.5 3.385 15.323 3.031 14.969C2.677 14.615 2.5 14.1894 2.5 13.6923V4.30775C2.5 3.81058 2.677 3.385 3.031 3.031C3.385 2.677 3.81058 2.5 4.30775 2.5H13.6923C14.1894 2.5 14.615 2.677 14.969 3.031C15.323 3.385 15.5 3.81058 15.5 4.30775V5.55775C15.5 5.77025 15.4281 5.94833 15.2843 6.092C15.1404 6.23583 14.9622 6.30775 14.7498 6.30775C14.5371 6.30775 14.359 6.23583 14.2155 6.092C14.0718 5.94833 14 5.77025 14 5.55775V4.30775C14 4.21792 13.9712 4.14417 13.9135 4.0865C13.8558 4.02883 13.7821 4 13.6923 4H4.30775C4.21792 4 4.14417 4.02883 4.0865 4.0865C4.02883 4.14417 4 4.21792 4 4.30775V13.6923C4 13.7821 4.02883 13.8558 4.0865 13.9135C4.14417 13.9712 4.21792 14 4.30775 14H5.55775C5.77025 14 5.94833 14.0719 6.092 14.2158C6.23583 14.3596 6.30775 14.5378 6.30775 14.7503C6.30775 14.9629 6.23583 15.141 6.092 15.2845C5.94833 15.4282 5.77025 15.5 5.55775 15.5H4.30775ZM10.3078 21.5C9.81058 21.5 9.385 21.323 9.031 20.969C8.677 20.615 8.5 20.1894 8.5 19.6923V10.3078C8.5 9.81058 8.677 9.385 9.031 9.031C9.385 8.677 9.81058 8.5 10.3078 8.5H19.6923C20.1894 8.5 20.615 8.677 20.969 9.031C21.323 9.385 21.5 9.81058 21.5 10.3078V19.6923C21.5 20.1894 21.323 20.615 20.969 20.969C20.615 21.323 20.1894 21.5 19.6923 21.5H10.3078Z" fill="#292A2E"/>
</g>
</svg>
