<svg width="24" height="24" viewBox="0 0 24 24" fill="none" xmlns="http://www.w3.org/2000/svg">
<mask id="mask0_503_6913" style="mask-type:alpha" maskUnits="userSpaceOnUse" x="0" y="0" width="24" height="24">
<rect width="24" height="24" fill="#D9D9D9"/>
</mask>
<g mask="url(#mask0_503_6913)">
<path d="M4.96126 4.25H19.0383C19.2508 4.25 19.4288 4.32192 19.5725 4.46575C19.7163 4.60958 19.7883 4.78775 19.7883 5.00025C19.7883 5.21292 19.7163 5.391 19.5725 5.5345C19.4288 5.67817 19.2508 5.75 19.0383 5.75H4.96126C4.74876 5.75 4.57068 5.67808 4.42701 5.53425C4.28318 5.39042 4.21126 5.21225 4.21126 4.99975C4.21126 4.78708 4.28318 4.609 4.42701 4.4655C4.57068 4.32183 4.74876 4.25 4.96126 4.25ZM5.15351 19.75C4.89751 19.75 4.68285 19.6634 4.50951 19.4902C4.33635 19.3169 4.24976 19.1022 4.24976 18.8462V13.75H3.94026C3.6556 13.75 3.42126 13.6388 3.23726 13.4163C3.05326 13.1939 2.9946 12.9404 3.06126 12.6558L4.06126 7.9635C4.10693 7.75533 4.21326 7.58442 4.38026 7.45075C4.54726 7.31692 4.7371 7.25 4.94976 7.25H19.0498C19.2624 7.25 19.4523 7.31692 19.6193 7.45075C19.7863 7.58442 19.8926 7.75533 19.9383 7.9635L20.9383 12.6558C21.0049 12.9404 20.9463 13.1939 20.7623 13.4163C20.5783 13.6388 20.3439 13.75 20.0593 13.75H19.7498V19C19.7498 19.2125 19.6778 19.3906 19.534 19.5343C19.3902 19.6781 19.212 19.75 18.9995 19.75C18.7868 19.75 18.6088 19.6781 18.4653 19.5343C18.3216 19.3906 18.2498 19.2125 18.2498 19V13.75H13.7498V18.8462C13.7498 19.1022 13.6632 19.3169 13.49 19.4902C13.3167 19.6634 13.102 19.75 12.846 19.75H5.15351ZM5.74976 18.25H12.2498V13.75H5.74976V18.25ZM4.66501 12.25H19.3345L18.571 8.75H5.42851L4.66501 12.25Z" fill="#292A2E"/>
</g>
</svg>
