<svg width="24" height="24" viewBox="0 0 24 24" fill="none" xmlns="http://www.w3.org/2000/svg">
<mask id="mask0_503_6916" style="mask-type:alpha" maskUnits="userSpaceOnUse" x="0" y="0" width="24" height="24">
<rect width="24" height="24" fill="#D9D9D9"/>
</mask>
<g mask="url(#mask0_503_6916)">
<path d="M2.94238 15.2845C2.94238 15.8257 3.1283 16.2488 3.50013 16.5538C3.87197 16.859 4.46688 17.0629 5.28488 17.1655C5.48738 17.1924 5.65013 17.2843 5.77313 17.4413C5.8963 17.5985 5.95272 17.7783 5.94238 17.9808C5.93222 18.1936 5.8563 18.3693 5.71463 18.5078C5.57297 18.6461 5.40405 18.7019 5.20788 18.675C3.96038 18.5212 3.02097 18.161 2.38963 17.5943C1.75813 17.0276 1.44238 16.2577 1.44238 15.2845C1.44238 14.2719 1.86738 13.4505 2.71738 12.8203C3.56738 12.1901 4.7488 11.8084 6.26163 11.675C6.98863 11.6122 7.53388 11.4808 7.89738 11.2808C8.26072 11.0808 8.44238 10.8039 8.44238 10.45C8.44238 10.0129 8.25297 9.66929 7.87413 9.41929C7.4953 9.16929 6.87388 8.97954 6.00988 8.85004C5.80722 8.82304 5.64113 8.73012 5.51163 8.57129C5.38213 8.41229 5.33088 8.23146 5.35788 8.02879C5.38472 7.81612 5.4773 7.64312 5.63563 7.50979C5.79397 7.37646 5.97763 7.32646 6.18663 7.35979C7.46097 7.55329 8.40555 7.90329 9.02038 8.40979C9.63505 8.91612 9.94238 9.59621 9.94238 10.45C9.94238 11.2435 9.63763 11.8727 9.02813 12.3375C8.41847 12.8022 7.53347 13.0814 6.37313 13.175C5.22963 13.2712 4.37197 13.4943 3.80013 13.8443C3.2283 14.1943 2.94238 14.6744 2.94238 15.2845ZM13.1829 18.048L9.75963 14.625L18.3366 6.05779C18.6315 5.76296 18.976 5.61712 19.3704 5.62029C19.7645 5.62346 20.109 5.76929 20.4039 6.05779L21.7501 7.40379C22.045 7.69879 22.1924 8.04496 22.1924 8.44229C22.1924 8.83979 22.045 9.18596 21.7501 9.48079L13.1829 18.048ZM9.08088 19.5C8.85522 19.5539 8.65655 19.4949 8.48488 19.323C8.31305 19.1512 8.25405 18.9525 8.30788 18.727L8.96738 15.5098L12.2829 18.825L9.08088 19.5Z" fill="#292A2E"/>
</g>
</svg>
