<svg width="24" height="24" viewBox="0 0 24 24" fill="none" xmlns="http://www.w3.org/2000/svg">
<mask id="mask0_503_6915" style="mask-type:alpha" maskUnits="userSpaceOnUse" x="0" y="0" width="24" height="24">
<rect width="24" height="24" fill="#D9D9D9"/>
</mask>
<g mask="url(#mask0_503_6915)">
<path d="M4.30775 21.5C3.80258 21.5 3.375 21.325 3.025 20.975C2.675 20.625 2.5 20.1974 2.5 19.6922V10.3077C2.5 9.80255 2.675 9.37496 3.025 9.02496C3.375 8.67496 3.80258 8.49996 4.30775 8.49996H19.6923C20.1974 8.49996 20.625 8.67496 20.975 9.02496C21.325 9.37496 21.5 9.80255 21.5 10.3077V19.6922C21.5 20.1974 21.325 20.625 20.975 20.975C20.625 21.325 20.1974 21.5 19.6923 21.5H4.30775ZM10.948 18.0615L14.9902 15.377C15.1274 15.2833 15.196 15.1576 15.196 15C15.196 14.8423 15.1274 14.7166 14.9902 14.623L10.948 11.9385C10.7942 11.8346 10.6394 11.8237 10.4838 11.9057C10.3279 11.9879 10.25 12.1193 10.25 12.3V17.7C10.25 17.8806 10.3279 18.012 10.4838 18.0942C10.6394 18.1762 10.7942 18.1653 10.948 18.0615ZM5 7.11546C4.78717 7.11546 4.609 7.04363 4.4655 6.89996C4.32183 6.75646 4.25 6.5783 4.25 6.36546C4.25 6.15263 4.32183 5.97438 4.4655 5.83071C4.609 5.68721 4.78717 5.61546 5 5.61546H19C19.2128 5.61546 19.391 5.68721 19.5345 5.83071C19.6782 5.97438 19.75 6.15263 19.75 6.36546C19.75 6.5783 19.6782 6.75646 19.5345 6.89996C19.391 7.04363 19.2128 7.11546 19 7.11546H5ZM8 4.23071C7.78717 4.23071 7.609 4.15896 7.4655 4.01546C7.32183 3.8718 7.25 3.69355 7.25 3.48071C7.25 3.26788 7.32183 3.08971 7.4655 2.94621C7.609 2.80255 7.78717 2.73071 8 2.73071H16C16.2128 2.73071 16.391 2.80255 16.5345 2.94621C16.6782 3.08971 16.75 3.26788 16.75 3.48071C16.75 3.69355 16.6782 3.8718 16.5345 4.01546C16.391 4.15896 16.2128 4.23071 16 4.23071H8Z" fill="#292A2E"/>
</g>
</svg>
