<svg width="24" height="24" viewBox="0 0 24 24" fill="none" xmlns="http://www.w3.org/2000/svg">
<mask id="mask0_503_7191" style="mask-type:alpha" maskUnits="userSpaceOnUse" x="0" y="0" width="24" height="24">
<rect width="24" height="24" fill="#D9D9D9"/>
</mask>
<g mask="url(#mask0_503_7191)">
<path d="M4.30775 19.5C3.80258 19.5 3.375 19.325 3.025 18.975C2.675 18.625 2.5 18.1974 2.5 17.6923V6.30775C2.5 5.80258 2.675 5.375 3.025 5.025C3.375 4.675 3.80258 4.5 4.30775 4.5H19.6923C20.1974 4.5 20.625 4.675 20.975 5.025C21.325 5.375 21.5 5.80258 21.5 6.30775V17.6923C21.5 18.1974 21.325 18.625 20.975 18.975C20.625 19.325 20.1974 19.5 19.6923 19.5H4.30775ZM4.30775 18H19.6923C19.7693 18 19.8398 17.9679 19.9038 17.9038C19.9679 17.8398 20 17.7692 20 17.6923V8H4V17.6923C4 17.7692 4.03208 17.8398 4.09625 17.9038C4.16025 17.9679 4.23075 18 4.30775 18ZM9.03075 13L6.95775 10.927C6.80908 10.7782 6.73567 10.6025 6.7375 10.4C6.7395 10.1975 6.818 10.0218 6.973 9.873C7.12183 9.73467 7.2975 9.6645 7.5 9.6625C7.7025 9.66067 7.87817 9.73408 8.027 9.88275L10.5115 12.3672C10.6923 12.5481 10.7828 12.759 10.7828 13C10.7828 13.241 10.6923 13.4519 10.5115 13.6328L8.01725 16.127C7.87875 16.2653 7.70733 16.3355 7.503 16.3375C7.2985 16.3393 7.12183 16.2659 6.973 16.1173C6.83467 15.9788 6.7655 15.8063 6.7655 15.6C6.7655 15.3937 6.83467 15.2213 6.973 15.0828L9.03075 13ZM13 16.75C12.7872 16.75 12.609 16.6782 12.4655 16.5345C12.3218 16.391 12.25 16.2128 12.25 16C12.25 15.7872 12.3218 15.609 12.4655 15.4655C12.609 15.3218 12.7872 15.25 13 15.25H17C17.2128 15.25 17.391 15.3218 17.5345 15.4655C17.6782 15.609 17.75 15.7872 17.75 16C17.75 16.2128 17.6782 16.391 17.5345 16.5345C17.391 16.6782 17.2128 16.75 17 16.75H13Z" fill="#292A2E"/>
</g>
</svg>
