<svg width="24" height="24" viewBox="0 0 24 24" fill="none" xmlns="http://www.w3.org/2000/svg">
<mask id="mask0_503_6923" style="mask-type:alpha" maskUnits="userSpaceOnUse" x="0" y="0" width="24" height="24">
<rect width="24" height="24" fill="#D9D9D9"/>
</mask>
<g mask="url(#mask0_503_6923)">
<path d="M9.94225 2.75C9.72975 2.75 9.55167 2.67808 9.408 2.53425C9.26417 2.39042 9.19225 2.21225 9.19225 1.99975C9.19225 1.78708 9.26417 1.609 9.408 1.4655C9.55167 1.32183 9.72975 1.25 9.94225 1.25H14.0577C14.2702 1.25 14.4483 1.32192 14.592 1.46575C14.7358 1.60958 14.8077 1.78775 14.8077 2.00025C14.8077 2.21292 14.7358 2.391 14.592 2.5345C14.4483 2.67817 14.2702 2.75 14.0577 2.75H9.94225ZM12.0003 13.8077C12.2129 13.8077 12.391 13.7358 12.5345 13.592C12.6782 13.4483 12.75 13.2702 12.75 13.0577V8.94225C12.75 8.72975 12.6781 8.55167 12.5343 8.408C12.3904 8.26417 12.2122 8.19225 11.9998 8.19225C11.7871 8.19225 11.609 8.26417 11.4655 8.408C11.3218 8.55167 11.25 8.72975 11.25 8.94225V13.0577C11.25 13.2702 11.3219 13.4483 11.4658 13.592C11.6096 13.7358 11.7878 13.8077 12.0003 13.8077ZM12 21.5C10.8338 21.5 9.73458 21.2769 8.70225 20.8307C7.66992 20.3846 6.76792 19.7756 5.99625 19.0038C5.22442 18.2321 4.61542 17.3301 4.16925 16.2978C3.72308 15.2654 3.5 14.1662 3.5 13C3.5 11.8338 3.72308 10.7346 4.16925 9.70225C4.61542 8.66992 5.22442 7.76792 5.99625 6.99625C6.76792 6.22442 7.66992 5.61542 8.70225 5.16925C9.73458 4.72308 10.8338 4.5 12 4.5C13.0013 4.5 13.9657 4.66992 14.8932 5.00975C15.8207 5.34942 16.682 5.83592 17.477 6.46925L18.1962 5.75C18.3346 5.6115 18.5086 5.54067 18.7182 5.5375C18.9279 5.53433 19.1052 5.60517 19.25 5.75C19.3948 5.89483 19.4672 6.0705 19.4672 6.277C19.4672 6.48333 19.3948 6.65892 19.25 6.80375L18.5307 7.523C19.1641 8.318 19.6506 9.17925 19.9902 10.1068C20.3301 11.0343 20.5 11.9987 20.5 13C20.5 14.1662 20.2769 15.2654 19.8307 16.2978C19.3846 17.3301 18.7756 18.2321 18.0038 19.0038C17.2321 19.7756 16.3301 20.3846 15.2977 20.8307C14.2654 21.2769 13.1662 21.5 12 21.5Z" fill="#292A2E"/>
</g>
</svg>
