<svg width="24" height="24" viewBox="0 0 24 24" fill="none" xmlns="http://www.w3.org/2000/svg">
<mask id="mask0_503_6941" style="mask-type:alpha" maskUnits="userSpaceOnUse" x="0" y="0" width="24" height="24">
<rect width="24" height="24" fill="#D9D9D9"/>
</mask>
<g mask="url(#mask0_503_6941)">
<path d="M6.6924 15.6153C5.54923 15.6153 4.57757 15.2154 3.7774 14.4158C2.97723 13.6159 2.57715 12.6448 2.57715 11.5023C2.57715 10.3598 2.97698 9.38785 3.77665 8.58652C4.57648 7.78535 5.54765 7.38477 6.69015 7.38477C7.83265 7.38477 8.80457 7.78485 9.6059 8.58502C10.4072 9.38518 10.8079 10.3568 10.8079 11.5C10.8079 11.9948 10.722 12.4667 10.5501 12.9155C10.3783 13.3642 10.1309 13.7642 9.8079 14.1155H14.1924C13.8694 13.7642 13.622 13.3642 13.4501 12.9155C13.2783 12.4667 13.1924 11.9948 13.1924 11.5C13.1924 10.3568 13.5923 9.38518 14.3921 8.58502C15.192 7.78485 16.1631 7.38477 17.3056 7.38477C18.4481 7.38477 19.42 7.7846 20.2211 8.58427C21.0225 9.3841 21.4231 10.3553 21.4231 11.4978C21.4231 12.6403 21.0231 13.6122 20.2229 14.4135C19.4227 15.2147 18.4511 15.6153 17.3079 15.6153H6.6924ZM6.69215 14.1155C7.42448 14.1155 8.04348 13.8627 8.54915 13.357C9.05498 12.8513 9.3079 12.2324 9.3079 11.5003C9.3079 10.7681 9.05507 10.1491 8.5494 9.64326C8.0439 9.13743 7.42498 8.88452 6.69265 8.88452C5.96048 8.88452 5.34148 9.13735 4.83565 9.64301C4.32998 10.1487 4.07715 10.7676 4.07715 11.4998C4.07715 12.2319 4.3299 12.8509 4.8354 13.3568C5.34107 13.8626 5.95998 14.1155 6.69215 14.1155ZM17.3076 14.1155C18.0398 14.1155 18.6588 13.8627 19.1646 13.357C19.6703 12.8513 19.9231 12.2324 19.9231 11.5003C19.9231 10.7681 19.6704 10.1491 19.1649 9.64326C18.6592 9.13743 18.0403 8.88452 17.3081 8.88452C16.5758 8.88452 15.9568 9.13735 15.4511 9.64301C14.9453 10.1487 14.6924 10.7676 14.6924 11.4998C14.6924 12.2319 14.9452 12.8509 15.4509 13.3568C15.9564 13.8626 16.5753 14.1155 17.3076 14.1155Z" fill="#292A2E"/>
</g>
</svg>
