<svg width="24" height="24" viewBox="0 0 24 24" fill="none" xmlns="http://www.w3.org/2000/svg">
<mask id="mask0_503_6939" style="mask-type:alpha" maskUnits="userSpaceOnUse" x="0" y="0" width="24" height="24">
<rect width="24" height="24" fill="#D9D9D9"/>
</mask>
<g mask="url(#mask0_503_6939)">
<path d="M18.2043 21.723C17.9911 21.723 17.8128 21.651 17.6693 21.507C17.5256 21.3629 17.4538 21.1844 17.4538 20.9715C17.4538 20.8714 17.4727 20.7717 17.5105 20.6725C17.5483 20.5734 17.5987 20.4928 17.6615 20.4308C18.3847 19.7078 18.9456 18.8812 19.3443 17.951C19.7429 17.0209 19.9423 16.0171 19.9423 14.9398C19.9423 13.8786 19.7429 12.8804 19.3443 11.9453C18.9456 11.0099 18.3847 10.1808 17.6615 9.45777C17.5987 9.39527 17.5483 9.31411 17.5105 9.21427C17.4727 9.11444 17.4538 9.01452 17.4538 8.91452C17.4538 8.70235 17.5258 8.52444 17.67 8.38077C17.814 8.23727 17.9925 8.16552 18.2055 8.16552C18.3057 8.16552 18.4026 8.18719 18.4963 8.23052C18.5901 8.27385 18.6683 8.32652 18.7308 8.38852C19.5923 9.25002 20.2596 10.2429 20.7328 11.3673C21.2058 12.4916 21.4423 13.6826 21.4423 14.9403C21.4423 16.2134 21.2058 17.4096 20.7328 18.5288C20.2596 19.6481 19.5923 20.6385 18.7308 21.5C18.6681 21.562 18.5898 21.6147 18.4958 21.658C18.4018 21.7014 18.3046 21.723 18.2043 21.723ZM15.5743 19.0943C15.3619 19.0943 15.184 19.0222 15.0405 18.878C14.8968 18.734 14.825 18.5555 14.825 18.3425C14.825 18.2424 14.8467 18.1454 14.89 18.0518C14.9335 17.9579 14.9862 17.8798 15.048 17.8173C15.4302 17.4353 15.726 16.9991 15.9355 16.5088C16.1452 16.0183 16.25 15.4968 16.25 14.9443C16.25 14.3916 16.1427 13.8701 15.928 13.3798C15.7132 12.8894 15.4198 12.4533 15.048 12.0713C14.9737 12.0084 14.9179 11.93 14.8808 11.836C14.8436 11.742 14.825 11.6449 14.825 11.5448C14.825 11.3316 14.897 11.1532 15.041 11.0095C15.1852 10.866 15.3637 10.7943 15.5765 10.7943C15.6768 10.7943 15.7766 10.8129 15.8758 10.85C15.9748 10.8872 16.0553 10.9429 16.1173 11.0173C16.6294 11.5294 17.0296 12.1216 17.3178 12.7938C17.6059 13.4659 17.75 14.1828 17.75 14.9443C17.75 15.7058 17.6059 16.4226 17.3178 17.0948C17.0296 17.7669 16.6294 18.3591 16.1173 18.8713C16.0549 18.9456 15.9738 19.0014 15.8738 19.0385C15.7739 19.0757 15.6741 19.0943 15.5743 19.0943ZM8.25 14.8463H6V15.2463C6 15.8424 6.192 16.3614 6.576 16.803C6.96 17.2447 7.43983 17.5405 8.0155 17.6905L8.3155 17.7655C8.9115 17.9194 9.24 18.3104 9.301 18.9385C9.36183 19.5667 9.10158 20.0213 8.52025 20.3023C7.69642 20.7098 6.84192 20.9994 5.95675 21.171C5.07142 21.3429 4.16917 21.4474 3.25 21.4845C3.03717 21.4949 2.859 21.4281 2.7155 21.2843C2.57183 21.1404 2.5 20.9623 2.5 20.7498C2.5 20.5371 2.57192 20.3595 2.71575 20.217C2.85942 20.0745 3.0375 19.997 3.25 19.9845C3.9205 19.9577 4.58017 19.8933 5.229 19.7913C5.87767 19.6894 6.52058 19.5225 7.15775 19.2905C7.23475 19.2584 7.27 19.199 7.2635 19.1125C7.25717 19.026 7.1995 18.9699 7.0905 18.9443C6.311 18.6378 5.68433 18.1493 5.2105 17.4788C4.73683 16.8083 4.5 16.0577 4.5 15.227V14.25C4.5 13.994 4.58667 13.7794 4.76 13.606C4.93317 13.4329 5.14783 13.3463 5.404 13.3463H8.19225C8.28208 13.3463 8.35583 13.3174 8.4135 13.2598C8.47117 13.2019 8.5 13.1282 8.5 13.0385V11.3463C8.5 11.0901 8.58667 10.8754 8.76 10.7023C8.93317 10.5289 9.14783 10.4423 9.404 10.4423H11.5288C11.6443 10.4423 11.7324 10.3959 11.7933 10.303C11.8543 10.21 11.8591 10.1122 11.8078 10.0095L9.10775 4.51352C9.01292 4.32769 8.9985 4.13919 9.0645 3.94802C9.1305 3.75702 9.25642 3.61094 9.44225 3.50977C9.62825 3.40844 9.81992 3.39236 10.0173 3.46152C10.2148 3.53086 10.3609 3.65844 10.4558 3.84427L13.1655 9.35002C13.4603 9.95252 13.4347 10.5352 13.0885 11.098C12.7425 11.6609 12.2309 11.9423 11.5538 11.9423H10V13.0963C10 13.5821 9.82983 13.9952 9.4895 14.3355C9.149 14.676 8.73583 14.8463 8.25 14.8463Z" fill="#292A2E"/>
</g>
</svg>
