<svg width="24" height="24" viewBox="0 0 24 24" fill="none" xmlns="http://www.w3.org/2000/svg">
<mask id="mask0_503_6949" style="mask-type:alpha" maskUnits="userSpaceOnUse" x="0" y="0" width="24" height="24">
<rect width="24" height="24" fill="#D9D9D9"/>
</mask>
<g mask="url(#mask0_503_6949)">
<path d="M18.8461 11.975C18.8461 10.6 18.4776 9.34519 17.7408 8.21052C17.004 7.07569 16.016 6.22669 14.7768 5.66352C14.5845 5.57252 14.4428 5.4366 14.3518 5.25577C14.2608 5.0751 14.2496 4.89077 14.3183 4.70277C14.4008 4.50227 14.544 4.36294 14.7478 4.28477C14.9516 4.20644 15.1581 4.21285 15.3671 4.30402C16.8747 4.98852 18.0815 6.01852 18.9873 7.39402C19.893 8.76935 20.3458 10.2963 20.3458 11.9748C20.3458 13.6531 19.893 15.1801 18.9873 16.5558C18.0815 17.9314 16.8747 18.9615 15.3671 19.646C15.1581 19.7372 14.9516 19.7436 14.7478 19.6653C14.544 19.5871 14.4008 19.4478 14.3183 19.2473C14.2496 19.0593 14.2608 18.8749 14.3518 18.6943C14.4428 18.5134 14.5845 18.3775 14.7768 18.2865C16.016 17.7234 17.004 16.8744 17.7408 15.7395C18.4776 14.6049 18.8461 13.35 18.8461 11.975ZM7.36531 14.5H4.55756C4.30139 14.5 4.08673 14.4134 3.91356 14.24C3.74039 14.0669 3.65381 13.8522 3.65381 13.596V10.404C3.65381 10.1479 3.74039 9.93319 3.91356 9.76002C4.08673 9.58669 4.30139 9.50002 4.55756 9.50002H7.36531L10.3576 6.50777C10.5972 6.2681 10.8731 6.21402 11.1853 6.34552C11.4975 6.47702 11.6536 6.71185 11.6536 7.05002V16.95C11.6536 17.2882 11.4975 17.523 11.1853 17.6545C10.8731 17.786 10.5972 17.7319 10.3576 17.4923L7.36531 14.5ZM16.1536 12.001C16.1536 12.6249 16.0241 13.2153 15.7651 13.7723C15.5062 14.3293 15.1572 14.7975 14.7181 15.177C14.5764 15.2719 14.4276 15.2814 14.2718 15.2058C14.1161 15.1301 14.0383 15.0051 14.0383 14.8308V9.11927C14.0383 8.94494 14.1161 8.81994 14.2718 8.74427C14.4276 8.6686 14.5764 8.67769 14.7181 8.77152C15.1572 9.16235 15.5062 9.64235 15.7651 10.2115C16.0241 10.7809 16.1536 11.3774 16.1536 12.001ZM10.1536 8.85002L8.00356 11H5.15356V13H8.00356L10.1536 15.15V8.85002Z" fill="#292A2E"/>
</g>
</svg>
