<svg width="24" height="24" viewBox="0 0 24 24" fill="none" xmlns="http://www.w3.org/2000/svg">
<mask id="mask0_503_6950" style="mask-type:alpha" maskUnits="userSpaceOnUse" x="0" y="0" width="24" height="24">
<rect width="24" height="24" fill="#D9D9D9"/>
</mask>
<g mask="url(#mask0_503_6950)">
<path d="M10.5095 21.0961C10.1802 21.0961 9.87925 20.9974 9.60675 20.8001C9.33442 20.6029 9.14758 20.3388 9.04625 20.0078L8.24625 17.2578C7.42692 16.695 6.76442 15.9514 6.25875 15.0271C5.75292 14.1027 5.5 13.0937 5.5 12.0001C5.5 10.9064 5.75292 9.89739 6.25875 8.97305C6.76442 8.04872 7.42692 7.30514 8.24625 6.7423L9.04625 3.9923C9.14758 3.6613 9.33442 3.39722 9.60675 3.20005C9.87925 3.00272 10.1802 2.90405 10.5095 2.90405H13.4905C13.8198 2.90405 14.1207 3.00272 14.3932 3.20005C14.6656 3.39722 14.8524 3.6613 14.9538 3.9923L15.7538 6.7423C16.5731 7.30514 17.2356 8.04872 17.7413 8.97305C18.2471 9.89739 18.5 10.9064 18.5 12.0001C18.5 13.0937 18.2471 14.1027 17.7413 15.0271C17.2356 15.9514 16.5731 16.695 15.7538 17.2578L14.9538 20.0078C14.8524 20.3388 14.6656 20.6029 14.3932 20.8001C14.1207 20.9974 13.8198 21.0961 13.4905 21.0961H10.5095ZM12 17.0001C13.3833 17.0001 14.5625 16.5126 15.5375 15.5376C16.5125 14.5626 17 13.3834 17 12.0001C17 10.6167 16.5125 9.43755 15.5375 8.46255C14.5625 7.48755 13.3833 7.00005 12 7.00005C10.6167 7.00005 9.4375 7.48755 8.4625 8.46255C7.4875 9.43755 7 10.6167 7 12.0001C7 13.3834 7.4875 14.5626 8.4625 15.5376C9.4375 16.5126 10.6167 17.0001 12 17.0001ZM10.0808 5.78855C10.4206 5.69239 10.7457 5.61772 11.056 5.56455C11.3665 5.51139 11.6812 5.4848 12 5.4848C12.3188 5.4848 12.6335 5.51139 12.944 5.56455C13.2543 5.61772 13.5794 5.69239 13.9193 5.78855L13.5 4.40405H10.5L10.0808 5.78855ZM10.5 19.5961H13.5L13.9193 18.2116C13.5794 18.3077 13.2543 18.3782 12.944 18.4231C12.6335 18.4679 12.3188 18.4903 12 18.4903C11.6812 18.4903 11.3665 18.4679 11.056 18.4231C10.7457 18.3782 10.4206 18.3077 10.0808 18.2116L10.5 19.5961ZM10.5 19.5961H10.0808H13.9193H10.5Z" fill="#292A2E"/>
</g>
</svg>
