<svg width="24" height="24" viewBox="0 0 24 24" fill="none" xmlns="http://www.w3.org/2000/svg">
<mask id="mask0_1356_2" style="mask-type:alpha" maskUnits="userSpaceOnUse" x="0" y="0" width="24" height="24">
<rect width="24" height="24" fill="#D9D9D9"/>
</mask>
<g mask="url(#mask0_1356_2)">
<path d="M6.36333 12.75L7.66133 14.0885C7.79983 14.2254 7.86908 14.3964 7.86908 14.6018C7.86908 14.8069 7.80066 14.9782 7.66383 15.1155C7.51466 15.2654 7.33758 15.3403 7.13258 15.3403C6.92741 15.3403 6.75558 15.2659 6.61708 15.1173L4.13533 12.6513C4.03983 12.5556 3.97033 12.4515 3.92683 12.339C3.88316 12.2265 3.86133 12.1104 3.86133 11.9905C3.86133 11.8764 3.88316 11.7658 3.92683 11.6588C3.97033 11.5516 4.03983 11.4504 4.13533 11.355L6.61708 8.87303C6.75391 8.73469 6.92499 8.66553 7.13033 8.66553C7.33566 8.66553 7.51591 8.73469 7.67108 8.87303C7.81974 9.02819 7.89408 9.20803 7.89408 9.41253C7.89408 9.61703 7.81974 9.79361 7.67108 9.94228L6.37283 11.25H17.6268L16.3133 9.92703C16.1748 9.79019 16.1056 9.61911 16.1056 9.41378C16.1056 9.20844 16.1802 9.03086 16.3293 8.88103C16.4662 8.74369 16.6371 8.67503 16.8421 8.67503C17.0472 8.67503 17.2242 8.74428 17.3728 8.88278L19.8388 11.3645C19.9347 11.46 20.0043 11.5613 20.0478 11.6683C20.0915 11.7753 20.1133 11.8874 20.1133 12.0048C20.1133 12.1221 20.0915 12.2369 20.0478 12.349C20.0043 12.4612 19.9348 12.565 19.8393 12.6605L17.3576 15.1423C17.2207 15.2808 17.0497 15.35 16.8443 15.35C16.639 15.35 16.4614 15.2754 16.3116 15.1263C16.1742 14.9894 16.1056 14.8185 16.1056 14.6135C16.1056 14.4084 16.1748 14.2365 16.3133 14.098L17.6268 12.75H6.36333Z" fill="#292A2E"/>
</g>
</svg>
