<svg width="24" height="24" viewBox="0 0 24 24" fill="none" xmlns="http://www.w3.org/2000/svg">
<mask id="mask0_503_6952" style="mask-type:alpha" maskUnits="userSpaceOnUse" x="0" y="0" width="24" height="24">
<rect width="24" height="24" fill="#D9D9D9"/>
</mask>
<g mask="url(#mask0_503_6952)">
<path d="M5.998 19.352C5.843 19.507 5.65908 19.5813 5.44625 19.575C5.23342 19.5685 5.05458 19.4826 4.90975 19.3173C4.15975 18.4659 3.57058 17.5063 3.14225 16.4385C2.71408 15.3705 2.5 14.2243 2.5 13C2.5 11.6872 2.74967 10.4529 3.249 9.29725C3.74833 8.14142 4.42558 7.13592 5.28075 6.28075C6.13592 5.42558 7.14142 4.74833 8.29725 4.249C9.45292 3.74967 10.6872 3.5 12 3.5C13.3128 3.5 14.5471 3.74967 15.7028 4.249C16.8586 4.74833 17.8641 5.42558 18.7193 6.28075C19.5744 7.13592 20.2517 8.14142 20.751 9.29725C21.2503 10.4529 21.5 11.6872 21.5 13C21.5 14.218 21.2859 15.3626 20.8577 16.4337C20.4294 17.5047 19.8403 18.4659 19.0903 19.3173C18.9454 19.4826 18.7692 19.5711 18.5615 19.5828C18.3538 19.5942 18.1724 19.5224 18.0173 19.3673C17.8724 19.2224 17.8048 19.042 17.8145 18.826C17.824 18.61 17.9012 18.4193 18.0462 18.2538C18.6577 17.5474 19.1362 16.7481 19.4818 15.8558C19.8273 14.9634 20 14.0115 20 13C20 10.7667 19.225 8.875 17.675 7.325C16.125 5.775 14.2333 5 12 5C9.76667 5 7.875 5.775 6.325 7.325C4.775 8.875 4 10.7667 4 13C4 14.0115 4.17117 14.9608 4.5135 15.848C4.85583 16.7352 5.34108 17.532 5.96925 18.2385C6.11408 18.4038 6.19392 18.592 6.20875 18.803C6.22342 19.0138 6.15317 19.1968 5.998 19.352ZM8.823 16.527C8.668 16.682 8.48567 16.7605 8.276 16.7625C8.06633 16.7643 7.89425 16.6775 7.75975 16.502C7.36992 16.0173 7.0625 15.4811 6.8375 14.8933C6.6125 14.3054 6.5 13.6743 6.5 13C6.5 11.4743 7.03525 10.1762 8.10575 9.10575C9.17625 8.03525 10.4743 7.5 12 7.5C13.5257 7.5 14.8238 8.03525 15.8943 9.10575C16.9648 10.1762 17.5 11.4743 17.5 13C17.5 13.668 17.3875 14.3001 17.1625 14.8963C16.9375 15.4923 16.6301 16.0275 16.2402 16.502C16.1058 16.6673 15.9337 16.7542 15.724 16.7625C15.5143 16.7708 15.332 16.6974 15.177 16.5423C15.032 16.3974 14.9586 16.2218 14.9568 16.0155C14.9548 15.809 15.0179 15.6179 15.1462 15.4423C15.4078 15.0961 15.6154 14.7179 15.7693 14.3077C15.9231 13.8974 16 13.4615 16 13C16 11.9 15.6083 10.9583 14.825 10.175C14.0417 9.39167 13.1 9 12 9C10.9 9 9.95833 9.39167 9.175 10.175C8.39167 10.9583 8 11.9 8 13C8 13.4718 8.07692 13.9103 8.23075 14.3155C8.38458 14.7205 8.59225 15.0961 8.85375 15.4423C8.98208 15.6179 9.04525 15.8064 9.04325 16.0078C9.04142 16.2089 8.968 16.382 8.823 16.527ZM12 14.5C11.591 14.5 11.2388 14.3523 10.9433 14.0568C10.6478 13.7613 10.5 13.409 10.5 13C10.5 12.591 10.6478 12.2388 10.9433 11.9433C11.2388 11.6478 11.591 11.5 12 11.5C12.409 11.5 12.7613 11.6478 13.0568 11.9433C13.3523 12.2388 13.5 12.591 13.5 13C13.5 13.409 13.3523 13.7613 13.0568 14.0568C12.7613 14.3523 12.409 14.5 12 14.5Z" fill="#292A2E"/>
</g>
</svg>
