<svg width="24" height="24" viewBox="0 0 24 24" fill="none" xmlns="http://www.w3.org/2000/svg">
<mask id="mask0_503_6953" style="mask-type:alpha" maskUnits="userSpaceOnUse" x="0" y="0" width="24" height="24">
<rect width="24" height="24" fill="#D9D9D9"/>
</mask>
<g mask="url(#mask0_503_6953)">
<path d="M6.00002 20.6153C5.00585 20.6153 4.15477 20.2613 3.44677 19.5533C2.73877 18.8453 2.38477 17.9942 2.38477 17C2.38477 16.0058 2.73877 15.1548 3.44677 14.4468C4.15477 13.7388 5.00585 13.3848 6.00002 13.3848C6.99418 13.3848 7.84527 13.7388 8.55327 14.4468C9.26127 15.1548 9.61526 16.0058 9.61526 17C9.61526 17.9942 9.26127 18.8453 8.55327 19.5533C7.84527 20.2613 6.99418 20.6153 6.00002 20.6153ZM18 20.6153C17.0058 20.6153 16.1548 20.2613 15.4468 19.5533C14.7388 18.8453 14.3848 17.9942 14.3848 17C14.3848 16.0058 14.7388 15.1548 15.4468 14.4468C16.1548 13.7388 17.0058 13.3848 18 13.3848C18.9942 13.3848 19.8453 13.7388 20.5533 14.4468C21.2613 15.1548 21.6153 16.0058 21.6153 17C21.6153 17.9942 21.2613 18.8453 20.5533 19.5533C19.8453 20.2613 18.9942 20.6153 18 20.6153ZM6.00027 19.1155C6.5821 19.1155 7.0801 18.9083 7.49427 18.494C7.90843 18.0797 8.11552 17.5816 8.11552 16.9998C8.11552 16.4179 7.90835 15.9199 7.49402 15.5058C7.07968 15.0916 6.5816 14.8845 5.99977 14.8845C5.41793 14.8845 4.91993 15.0917 4.50577 15.506C4.0916 15.9203 3.88452 16.4184 3.88452 17.0003C3.88452 17.5821 4.09168 18.0801 4.50602 18.4943C4.92035 18.9084 5.41843 19.1155 6.00027 19.1155ZM18.0003 19.1155C18.5821 19.1155 19.0801 18.9083 19.4943 18.494C19.9084 18.0797 20.1155 17.5816 20.1155 16.9998C20.1155 16.4179 19.9083 15.9199 19.494 15.5058C19.0797 15.0916 18.5816 14.8845 17.9998 14.8845C17.4179 14.8845 16.9199 15.0917 16.5058 15.506C16.0916 15.9203 15.8845 16.4184 15.8845 17.0003C15.8845 17.5821 16.0917 18.0801 16.506 18.4943C16.9203 18.9084 17.4184 19.1155 18.0003 19.1155ZM12 10.6153C11.0058 10.6153 10.1548 10.2613 9.44677 9.55327C8.73877 8.84527 8.38477 7.99418 8.38477 7.00002C8.38477 6.00585 8.73877 5.15477 9.44677 4.44677C10.1548 3.73877 11.0058 3.38477 12 3.38477C12.9942 3.38477 13.8453 3.73877 14.5533 4.44677C15.2613 5.15477 15.6153 6.00585 15.6153 7.00002C15.6153 7.99418 15.2613 8.84527 14.5533 9.55327C13.8453 10.2613 12.9942 10.6153 12 10.6153ZM12.0003 9.11552C12.5821 9.11552 13.0801 8.90835 13.4943 8.49402C13.9084 8.07968 14.1155 7.5816 14.1155 6.99977C14.1155 6.41793 13.9083 5.91993 13.494 5.50576C13.0797 5.0916 12.5816 4.88452 11.9998 4.88452C11.4179 4.88452 10.9199 5.09168 10.5058 5.50602C10.0916 5.92035 9.88452 6.41843 9.88452 7.00027C9.88452 7.5821 10.0917 8.0801 10.506 8.49427C10.9203 8.90843 11.4184 9.11552 12.0003 9.11552Z" fill="#292A2E"/>
</g>
</svg>
