<svg width="24" height="24" viewBox="0 0 24 24" fill="none" xmlns="http://www.w3.org/2000/svg">
<mask id="mask0_503_6954" style="mask-type:alpha" maskUnits="userSpaceOnUse" x="0" y="0" width="24" height="24">
<rect width="24" height="24" fill="#D9D9D9"/>
</mask>
<g mask="url(#mask0_503_6954)">
<path d="M6.00002 20.6153C5.00585 20.6153 4.15477 20.2613 3.44677 19.5533C2.73877 18.8453 2.38477 17.9942 2.38477 17C2.38477 16.0058 2.73877 15.1548 3.44677 14.4468C4.15477 13.7388 5.00585 13.3848 6.00002 13.3848C6.99418 13.3848 7.84527 13.7388 8.55327 14.4468C9.26127 15.1548 9.61526 16.0058 9.61526 17C9.61526 17.9942 9.26127 18.8453 8.55327 19.5533C7.84527 20.2613 6.99418 20.6153 6.00002 20.6153ZM18 20.6153C17.0058 20.6153 16.1548 20.2613 15.4468 19.5533C14.7388 18.8453 14.3848 17.9942 14.3848 17C14.3848 16.0058 14.7388 15.1548 15.4468 14.4468C16.1548 13.7388 17.0058 13.3848 18 13.3848C18.9942 13.3848 19.8453 13.7388 20.5533 14.4468C21.2613 15.1548 21.6153 16.0058 21.6153 17C21.6153 17.9942 21.2613 18.8453 20.5533 19.5533C19.8453 20.2613 18.9942 20.6153 18 20.6153ZM12 10.6153C11.0058 10.6153 10.1548 10.2613 9.44677 9.55327C8.73877 8.84527 8.38477 7.99418 8.38477 7.00002C8.38477 6.00585 8.73877 5.15477 9.44677 4.44677C10.1548 3.73877 11.0058 3.38477 12 3.38477C12.9942 3.38477 13.8453 3.73877 14.5533 4.44677C15.2613 5.15477 15.6153 6.00585 15.6153 7.00002C15.6153 7.99418 15.2613 8.84527 14.5533 9.55327C13.8453 10.2613 12.9942 10.6153 12 10.6153Z" fill="#292A2E"/>
</g>
</svg>
